G04 #@! TF.GenerationSoftware,KiCad,Pcbnew,5.1.10*
G04 #@! TF.CreationDate,2021-12-24T15:06:35-08:00*
G04 #@! TF.ProjectId,SEPIC,53455049-432e-46b6-9963-61645f706362,v0.1*
G04 #@! TF.SameCoordinates,Original*
G04 #@! TF.FileFunction,Copper,L1,Top*
G04 #@! TF.FilePolarity,Positive*
%FSLAX46Y46*%
G04 Gerber Fmt 4.6, Leading zero omitted, Abs format (unit mm)*
G04 Created by KiCad (PCBNEW 5.1.10) date 2021-12-24 15:06:35*
%MOMM*%
%LPD*%
G01*
G04 APERTURE LIST*
G04 #@! TA.AperFunction,ComponentPad*
%ADD10C,4.400000*%
G04 #@! TD*
G04 #@! TA.AperFunction,ComponentPad*
%ADD11C,2.300000*%
G04 #@! TD*
G04 #@! TA.AperFunction,ComponentPad*
%ADD12R,2.300000X2.300000*%
G04 #@! TD*
G04 #@! TA.AperFunction,SMDPad,CuDef*
%ADD13R,0.590000X0.630000*%
G04 #@! TD*
G04 #@! TA.AperFunction,ComponentPad*
%ADD14C,2.514600*%
G04 #@! TD*
G04 #@! TA.AperFunction,ComponentPad*
%ADD15R,1.700000X1.700000*%
G04 #@! TD*
G04 #@! TA.AperFunction,ComponentPad*
%ADD16O,1.700000X1.700000*%
G04 #@! TD*
G04 #@! TA.AperFunction,SMDPad,CuDef*
%ADD17R,0.930000X1.010000*%
G04 #@! TD*
G04 #@! TA.AperFunction,ComponentPad*
%ADD18R,1.150000X1.150000*%
G04 #@! TD*
G04 #@! TA.AperFunction,ComponentPad*
%ADD19C,1.150000*%
G04 #@! TD*
G04 #@! TA.AperFunction,SMDPad,CuDef*
%ADD20R,0.600000X0.530000*%
G04 #@! TD*
G04 #@! TA.AperFunction,ComponentPad*
%ADD21R,1.400000X1.400000*%
G04 #@! TD*
G04 #@! TA.AperFunction,ComponentPad*
%ADD22C,1.400000*%
G04 #@! TD*
G04 #@! TA.AperFunction,ComponentPad*
%ADD23R,1.800000X1.800000*%
G04 #@! TD*
G04 #@! TA.AperFunction,ComponentPad*
%ADD24C,1.800000*%
G04 #@! TD*
G04 #@! TA.AperFunction,ComponentPad*
%ADD25C,1.803400*%
G04 #@! TD*
G04 #@! TA.AperFunction,ComponentPad*
%ADD26C,1.600000*%
G04 #@! TD*
G04 #@! TA.AperFunction,ComponentPad*
%ADD27O,1.600000X1.600000*%
G04 #@! TD*
G04 #@! TA.AperFunction,ComponentPad*
%ADD28R,1.371600X1.371600*%
G04 #@! TD*
G04 #@! TA.AperFunction,ComponentPad*
%ADD29C,1.371600*%
G04 #@! TD*
G04 #@! TA.AperFunction,SMDPad,CuDef*
%ADD30R,0.580000X1.730000*%
G04 #@! TD*
G04 #@! TA.AperFunction,SMDPad,CuDef*
%ADD31C,0.100000*%
G04 #@! TD*
G04 #@! TA.AperFunction,ComponentPad*
%ADD32C,0.100000*%
G04 #@! TD*
G04 #@! TA.AperFunction,ViaPad*
%ADD33C,0.800000*%
G04 #@! TD*
G04 #@! TA.AperFunction,Conductor*
%ADD34C,0.250000*%
G04 #@! TD*
G04 #@! TA.AperFunction,Conductor*
%ADD35C,3.000000*%
G04 #@! TD*
G04 #@! TA.AperFunction,Conductor*
%ADD36C,2.000000*%
G04 #@! TD*
G04 #@! TA.AperFunction,Conductor*
%ADD37C,1.000000*%
G04 #@! TD*
G04 #@! TA.AperFunction,Conductor*
%ADD38C,0.254000*%
G04 #@! TD*
G04 #@! TA.AperFunction,Conductor*
%ADD39C,0.100000*%
G04 #@! TD*
G04 APERTURE END LIST*
D10*
X195000000Y-132922000D03*
X195000000Y-75866000D03*
X98472000Y-75866000D03*
X98470000Y-132920000D03*
D11*
X158352000Y-80264000D03*
D12*
X179468000Y-80264000D03*
D13*
X189533000Y-85293200D03*
X190373000Y-85293200D03*
X189533000Y-82727800D03*
X190373000Y-82727800D03*
X190373000Y-83997800D03*
X189533000Y-83997800D03*
D14*
X105156001Y-90424000D03*
X128756002Y-90424000D03*
X153416000Y-88667998D03*
X153416000Y-112267999D03*
D15*
X110998000Y-112014000D03*
D16*
X108458000Y-112014000D03*
D17*
X101600000Y-127709000D03*
X101600000Y-126291000D03*
D18*
X119634000Y-109514000D03*
D19*
X119634000Y-114514000D03*
D20*
X109982000Y-127000000D03*
X109982000Y-126126000D03*
D21*
X179518000Y-92710000D03*
D22*
X172018000Y-92710000D03*
D13*
X189558400Y-81432400D03*
X190398400Y-81432400D03*
D23*
X175006000Y-125476000D03*
D24*
X177546000Y-125476000D03*
D25*
X101346000Y-114554000D03*
X101346000Y-109554000D03*
X184150000Y-104220000D03*
X184150000Y-109220000D03*
X184150000Y-130556000D03*
X184150000Y-125556000D03*
D26*
X170180000Y-122936000D03*
D27*
X170180000Y-130556000D03*
D26*
X140208000Y-122047000D03*
D27*
X130048000Y-122047000D03*
D28*
X129886000Y-128524000D03*
D29*
X141570000Y-128524000D03*
D26*
X140208000Y-125222000D03*
D27*
X130048000Y-125222000D03*
D30*
X107418000Y-127619000D03*
X104418000Y-127619000D03*
G04 #@! TA.AperFunction,SMDPad,CuDef*
D31*
G36*
X104946596Y-123953025D02*
G01*
X104946881Y-123952087D01*
X104947343Y-123951222D01*
X104947964Y-123950464D01*
X104948722Y-123949843D01*
X104949587Y-123949381D01*
X104950525Y-123949096D01*
X104951500Y-123949000D01*
X106884500Y-123949000D01*
X106885475Y-123949096D01*
X106886413Y-123949381D01*
X106887278Y-123949843D01*
X106888036Y-123950464D01*
X106888657Y-123951222D01*
X106889119Y-123952087D01*
X106889404Y-123953025D01*
X106889500Y-123954000D01*
X106889500Y-126984000D01*
X106889404Y-126984975D01*
X106889119Y-126985913D01*
X106888657Y-126986778D01*
X106888036Y-126987536D01*
X106887278Y-126988157D01*
X106886413Y-126988619D01*
X106885475Y-126988904D01*
X106884500Y-126989000D01*
X106303000Y-126989000D01*
X106303000Y-128484000D01*
X106302904Y-128484975D01*
X106302619Y-128485913D01*
X106302157Y-128486778D01*
X106301536Y-128487536D01*
X106300778Y-128488157D01*
X106299913Y-128488619D01*
X106298975Y-128488904D01*
X106298000Y-128489000D01*
X105538000Y-128489000D01*
X105537025Y-128488904D01*
X105536087Y-128488619D01*
X105535222Y-128488157D01*
X105534464Y-128487536D01*
X105533843Y-128486778D01*
X105533381Y-128485913D01*
X105533096Y-128484975D01*
X105533000Y-128484000D01*
X105533000Y-126989000D01*
X104951500Y-126989000D01*
X104950525Y-126988904D01*
X104949587Y-126988619D01*
X104948722Y-126988157D01*
X104947964Y-126987536D01*
X104947343Y-126986778D01*
X104946881Y-126985913D01*
X104946596Y-126984975D01*
X104946500Y-126984000D01*
X104946500Y-123954000D01*
X104946596Y-123953025D01*
G37*
G04 #@! TD.AperFunction*
G04 #@! TA.AperFunction,SMDPad,CuDef*
G36*
G01*
X116695200Y-121575000D02*
X116952800Y-121575000D01*
G75*
G02*
X116964000Y-121586200I0J-11200D01*
G01*
X116964000Y-123033800D01*
G75*
G02*
X116952800Y-123045000I-11200J0D01*
G01*
X116695200Y-123045000D01*
G75*
G02*
X116684000Y-123033800I0J11200D01*
G01*
X116684000Y-121586200D01*
G75*
G02*
X116695200Y-121575000I11200J0D01*
G01*
G37*
G04 #@! TD.AperFunction*
G04 #@! TA.AperFunction,SMDPad,CuDef*
G36*
G01*
X116195200Y-121575000D02*
X116452800Y-121575000D01*
G75*
G02*
X116464000Y-121586200I0J-11200D01*
G01*
X116464000Y-123033800D01*
G75*
G02*
X116452800Y-123045000I-11200J0D01*
G01*
X116195200Y-123045000D01*
G75*
G02*
X116184000Y-123033800I0J11200D01*
G01*
X116184000Y-121586200D01*
G75*
G02*
X116195200Y-121575000I11200J0D01*
G01*
G37*
G04 #@! TD.AperFunction*
G04 #@! TA.AperFunction,SMDPad,CuDef*
G36*
G01*
X115695200Y-121575000D02*
X115952800Y-121575000D01*
G75*
G02*
X115964000Y-121586200I0J-11200D01*
G01*
X115964000Y-123033800D01*
G75*
G02*
X115952800Y-123045000I-11200J0D01*
G01*
X115695200Y-123045000D01*
G75*
G02*
X115684000Y-123033800I0J11200D01*
G01*
X115684000Y-121586200D01*
G75*
G02*
X115695200Y-121575000I11200J0D01*
G01*
G37*
G04 #@! TD.AperFunction*
G04 #@! TA.AperFunction,SMDPad,CuDef*
G36*
G01*
X115195200Y-121575000D02*
X115452800Y-121575000D01*
G75*
G02*
X115464000Y-121586200I0J-11200D01*
G01*
X115464000Y-123033800D01*
G75*
G02*
X115452800Y-123045000I-11200J0D01*
G01*
X115195200Y-123045000D01*
G75*
G02*
X115184000Y-123033800I0J11200D01*
G01*
X115184000Y-121586200D01*
G75*
G02*
X115195200Y-121575000I11200J0D01*
G01*
G37*
G04 #@! TD.AperFunction*
G04 #@! TA.AperFunction,SMDPad,CuDef*
G36*
G01*
X114695200Y-121575000D02*
X114952800Y-121575000D01*
G75*
G02*
X114964000Y-121586200I0J-11200D01*
G01*
X114964000Y-123033800D01*
G75*
G02*
X114952800Y-123045000I-11200J0D01*
G01*
X114695200Y-123045000D01*
G75*
G02*
X114684000Y-123033800I0J11200D01*
G01*
X114684000Y-121586200D01*
G75*
G02*
X114695200Y-121575000I11200J0D01*
G01*
G37*
G04 #@! TD.AperFunction*
G04 #@! TA.AperFunction,SMDPad,CuDef*
G36*
G01*
X114695200Y-125875000D02*
X114952800Y-125875000D01*
G75*
G02*
X114964000Y-125886200I0J-11200D01*
G01*
X114964000Y-127333800D01*
G75*
G02*
X114952800Y-127345000I-11200J0D01*
G01*
X114695200Y-127345000D01*
G75*
G02*
X114684000Y-127333800I0J11200D01*
G01*
X114684000Y-125886200D01*
G75*
G02*
X114695200Y-125875000I11200J0D01*
G01*
G37*
G04 #@! TD.AperFunction*
G04 #@! TA.AperFunction,SMDPad,CuDef*
G36*
G01*
X115195200Y-125875000D02*
X115452800Y-125875000D01*
G75*
G02*
X115464000Y-125886200I0J-11200D01*
G01*
X115464000Y-127333800D01*
G75*
G02*
X115452800Y-127345000I-11200J0D01*
G01*
X115195200Y-127345000D01*
G75*
G02*
X115184000Y-127333800I0J11200D01*
G01*
X115184000Y-125886200D01*
G75*
G02*
X115195200Y-125875000I11200J0D01*
G01*
G37*
G04 #@! TD.AperFunction*
G04 #@! TA.AperFunction,SMDPad,CuDef*
G36*
G01*
X115695200Y-125875000D02*
X115952800Y-125875000D01*
G75*
G02*
X115964000Y-125886200I0J-11200D01*
G01*
X115964000Y-127333800D01*
G75*
G02*
X115952800Y-127345000I-11200J0D01*
G01*
X115695200Y-127345000D01*
G75*
G02*
X115684000Y-127333800I0J11200D01*
G01*
X115684000Y-125886200D01*
G75*
G02*
X115695200Y-125875000I11200J0D01*
G01*
G37*
G04 #@! TD.AperFunction*
G04 #@! TA.AperFunction,SMDPad,CuDef*
G36*
G01*
X116195200Y-125875000D02*
X116452800Y-125875000D01*
G75*
G02*
X116464000Y-125886200I0J-11200D01*
G01*
X116464000Y-127333800D01*
G75*
G02*
X116452800Y-127345000I-11200J0D01*
G01*
X116195200Y-127345000D01*
G75*
G02*
X116184000Y-127333800I0J11200D01*
G01*
X116184000Y-125886200D01*
G75*
G02*
X116195200Y-125875000I11200J0D01*
G01*
G37*
G04 #@! TD.AperFunction*
G04 #@! TA.AperFunction,SMDPad,CuDef*
G36*
G01*
X116695200Y-125875000D02*
X116952800Y-125875000D01*
G75*
G02*
X116964000Y-125886200I0J-11200D01*
G01*
X116964000Y-127333800D01*
G75*
G02*
X116952800Y-127345000I-11200J0D01*
G01*
X116695200Y-127345000D01*
G75*
G02*
X116684000Y-127333800I0J11200D01*
G01*
X116684000Y-125886200D01*
G75*
G02*
X116695200Y-125875000I11200J0D01*
G01*
G37*
G04 #@! TD.AperFunction*
D15*
X112014000Y-131318000D03*
D16*
X114554000Y-131318000D03*
X117094000Y-131318000D03*
X119634000Y-131318000D03*
D15*
X184150000Y-119888000D03*
D16*
X184150000Y-117348000D03*
X184150000Y-114808000D03*
G04 #@! TA.AperFunction,ComponentPad*
D32*
G36*
X138440233Y-85384940D02*
G01*
X137627060Y-84571767D01*
X138440233Y-83758594D01*
X139253406Y-84571767D01*
X138440233Y-85384940D01*
G37*
G04 #@! TD.AperFunction*
D19*
X141975767Y-81036233D03*
D33*
X162941000Y-86106000D03*
X164338000Y-87249000D03*
X165608000Y-88646000D03*
X144526000Y-115824000D03*
X146050000Y-115824000D03*
X147574000Y-115824000D03*
X149098000Y-115824000D03*
X150622000Y-115824000D03*
X155702000Y-115824000D03*
X157226000Y-115824000D03*
X95758000Y-107696000D03*
X95758000Y-109220000D03*
X95758000Y-110744000D03*
X95758000Y-112268000D03*
X143510000Y-114300000D03*
X142494000Y-113284000D03*
X141478000Y-112268000D03*
X140462000Y-111252000D03*
X139446000Y-110236000D03*
X125222000Y-76708000D03*
X126238000Y-77724000D03*
X127254000Y-78740000D03*
X128270000Y-79756000D03*
X129286000Y-80772000D03*
X130302000Y-81788000D03*
X131318000Y-82804000D03*
X167894000Y-100076000D03*
X167894000Y-101600000D03*
X167894000Y-103124000D03*
X167894000Y-104648000D03*
X127254000Y-101346000D03*
X127254000Y-102616000D03*
X127254000Y-103886000D03*
X127254000Y-105156000D03*
X127254000Y-106426000D03*
X167894000Y-105918000D03*
X167005000Y-106934000D03*
X165989000Y-107950000D03*
X165100000Y-108966000D03*
X164211000Y-109982000D03*
X163322000Y-110998000D03*
X162433000Y-111887000D03*
X161417000Y-112903000D03*
X160401000Y-113792000D03*
X159258000Y-114808000D03*
X193040000Y-79502000D03*
X193040000Y-80772000D03*
X193040000Y-82042000D03*
X193040000Y-83312000D03*
X193040000Y-84582000D03*
X193040000Y-85852000D03*
X193040000Y-87122000D03*
X178054000Y-73660000D03*
X179324000Y-73660000D03*
X180594000Y-73660000D03*
X181864000Y-73660000D03*
X183134000Y-73660000D03*
X184404000Y-73660000D03*
X185674000Y-73660000D03*
X186944000Y-73660000D03*
X188214000Y-73660000D03*
X189484000Y-73660000D03*
X148844000Y-79502000D03*
X149860000Y-80264000D03*
X150876000Y-81280000D03*
X151892000Y-82042000D03*
X153162000Y-81280000D03*
X154178000Y-80264000D03*
X155448000Y-79502000D03*
X157480000Y-85852000D03*
X158496000Y-84836000D03*
X159512000Y-83820000D03*
X160782000Y-82804000D03*
X161544000Y-84836000D03*
X146050000Y-87630000D03*
X145034000Y-88646000D03*
X144018000Y-89408000D03*
X143002000Y-90424000D03*
X131572000Y-85344000D03*
X131572000Y-86614000D03*
X131572000Y-87884000D03*
X132842000Y-88646000D03*
X134112000Y-89154000D03*
X132842000Y-87376000D03*
X134112000Y-88138000D03*
X132842000Y-86106000D03*
X134112000Y-86868000D03*
X127762000Y-74422000D03*
X129032000Y-74422000D03*
X130302000Y-74422000D03*
X131572000Y-74422000D03*
X132842000Y-74422000D03*
X134112000Y-74422000D03*
X135382000Y-74422000D03*
X136652000Y-74422000D03*
X137922000Y-74422000D03*
X139192000Y-74422000D03*
X111506000Y-75946000D03*
X112776000Y-75946000D03*
X114046000Y-75946000D03*
X115316000Y-75946000D03*
X116586000Y-75946000D03*
X117856000Y-75946000D03*
X119126000Y-75946000D03*
X120396000Y-75946000D03*
X121666000Y-75946000D03*
X122936000Y-75946000D03*
X124206000Y-75946000D03*
X110490000Y-76708000D03*
X109474000Y-77724000D03*
X108458000Y-78740000D03*
X107442000Y-79756000D03*
X106426000Y-80772000D03*
X105410000Y-81788000D03*
X104394000Y-82804000D03*
X103378000Y-83820000D03*
X130810000Y-98552000D03*
X137414000Y-98552000D03*
X138684000Y-97536000D03*
X147574000Y-125984000D03*
X148590000Y-125984000D03*
X149606000Y-125984000D03*
X150622000Y-125984000D03*
X151638000Y-125984000D03*
X147574000Y-128524000D03*
X148590000Y-128524000D03*
X149606000Y-128524000D03*
X150622000Y-128524000D03*
X151638000Y-128524000D03*
X147574000Y-130810000D03*
X148590000Y-130810000D03*
X149606000Y-130810000D03*
X150622000Y-130810000D03*
X151638000Y-130810000D03*
X165100000Y-126492000D03*
X164338000Y-127508000D03*
X163576000Y-128524000D03*
X162814000Y-129540000D03*
X162052000Y-130556000D03*
X165354000Y-129032000D03*
X164592000Y-130048000D03*
X163830000Y-131064000D03*
X163068000Y-132080000D03*
X166116000Y-128016000D03*
X111506000Y-127000000D03*
X115062000Y-120142000D03*
X132080000Y-118872000D03*
X185420000Y-81026000D03*
X185420000Y-82296000D03*
X185420000Y-83566000D03*
X185420000Y-84836000D03*
X185420000Y-86106000D03*
X187198000Y-91440000D03*
X187198000Y-92710000D03*
X187198000Y-93980000D03*
X187198000Y-95250000D03*
X187198000Y-96520000D03*
X179324000Y-106172000D03*
X179324000Y-107442000D03*
X179324000Y-108712000D03*
X179324000Y-109982000D03*
X184404000Y-95758000D03*
X183388000Y-96774000D03*
X182372000Y-97790000D03*
X181356000Y-98806000D03*
X180340000Y-99822000D03*
X179324000Y-100838000D03*
X119888000Y-123952000D03*
X116078000Y-124460000D03*
D34*
X101346000Y-109554000D02*
X95758000Y-115142000D01*
X100885000Y-127709000D02*
X101600000Y-127709000D01*
X95758000Y-122582000D02*
X100885000Y-127709000D01*
X95758000Y-115142000D02*
X95758000Y-122582000D01*
X104328000Y-127709000D02*
X104418000Y-127619000D01*
X101600000Y-127709000D02*
X104328000Y-127709000D01*
D35*
X118772301Y-108652301D02*
X119634000Y-109514000D01*
X101346000Y-109554000D02*
X102247699Y-108652301D01*
D36*
X108458000Y-109728000D02*
X109533699Y-108652301D01*
X108458000Y-112014000D02*
X108458000Y-109728000D01*
D35*
X109533699Y-108652301D02*
X118772301Y-108652301D01*
X102247699Y-108652301D02*
X109533699Y-108652301D01*
D34*
X101346000Y-126037000D02*
X101600000Y-126291000D01*
X101346000Y-114554000D02*
X101346000Y-126037000D01*
X106680000Y-125222000D02*
X109078000Y-125222000D01*
X105918000Y-125984000D02*
X106680000Y-125222000D01*
X115324000Y-126610000D02*
X113910000Y-126610000D01*
X113426000Y-126126000D02*
X109982000Y-126126000D01*
X113910000Y-126610000D02*
X113426000Y-126126000D01*
D35*
X118692301Y-115455699D02*
X119634000Y-114514000D01*
X101346000Y-114554000D02*
X102247699Y-115455699D01*
X110985301Y-115455699D02*
X118692301Y-115455699D01*
X102247699Y-115455699D02*
X110985301Y-115455699D01*
D34*
X101600000Y-126291000D02*
X103071000Y-126291000D01*
X104140000Y-125222000D02*
X105156000Y-125222000D01*
X103071000Y-126291000D02*
X104140000Y-125222000D01*
X105156000Y-125222000D02*
X105918000Y-125984000D01*
X109363000Y-127619000D02*
X109982000Y-127000000D01*
X107418000Y-127619000D02*
X109363000Y-127619000D01*
X109982000Y-127000000D02*
X111506000Y-127000000D01*
X115824000Y-120904000D02*
X115824000Y-122310000D01*
X115062000Y-120142000D02*
X115824000Y-120904000D01*
X115062000Y-120142000D02*
X116332000Y-118872000D01*
X116332000Y-118872000D02*
X132080000Y-118872000D01*
X116824000Y-121481926D02*
X116824000Y-122310000D01*
X116246074Y-120904000D02*
X116824000Y-121481926D01*
X115824000Y-120904000D02*
X116246074Y-120904000D01*
D37*
X151892000Y-135128000D02*
X169672000Y-117348000D01*
X109855000Y-135128000D02*
X151892000Y-135128000D01*
X107418000Y-132691000D02*
X109855000Y-135128000D01*
X169672000Y-117348000D02*
X184150000Y-117348000D01*
X107418000Y-127619000D02*
X107418000Y-132691000D01*
X185352081Y-117348000D02*
X187452000Y-119447919D01*
X184150000Y-117348000D02*
X185352081Y-117348000D01*
X187452000Y-122254000D02*
X184150000Y-125556000D01*
X187452000Y-119447919D02*
X187452000Y-122254000D01*
X140208000Y-122047000D02*
X160274000Y-122047000D01*
X160274000Y-122047000D02*
X172466000Y-109855000D01*
X172466000Y-109855000D02*
X177165000Y-109855000D01*
D34*
X115824000Y-127508000D02*
X112014000Y-131318000D01*
X115824000Y-126610000D02*
X115824000Y-127508000D01*
X116824000Y-129048000D02*
X114554000Y-131318000D01*
X116824000Y-126610000D02*
X116824000Y-129048000D01*
X116324000Y-125781926D02*
X116883926Y-125222000D01*
X116324000Y-126610000D02*
X116324000Y-125781926D01*
X116883926Y-125222000D02*
X117348000Y-125222000D01*
X117348000Y-125222000D02*
X118110000Y-125984000D01*
X118110000Y-130302000D02*
X117094000Y-131318000D01*
X118110000Y-125984000D02*
X118110000Y-130302000D01*
X116324000Y-122310000D02*
X116324000Y-123436000D01*
X119634000Y-126746000D02*
X119634000Y-131318000D01*
X116324000Y-123436000D02*
X119634000Y-126746000D01*
X120032999Y-124096999D02*
X119888000Y-123952000D01*
X139082999Y-124096999D02*
X120032999Y-124096999D01*
X140208000Y-125222000D02*
X139082999Y-124096999D01*
X115324000Y-123706000D02*
X115324000Y-122310000D01*
X116078000Y-124460000D02*
X115324000Y-123706000D01*
D38*
X189611000Y-80716436D02*
X189572863Y-80762906D01*
X189513898Y-80873220D01*
X189477588Y-80992918D01*
X189465328Y-81117400D01*
X189465328Y-81579400D01*
X189431400Y-81579400D01*
X189431400Y-81559400D01*
X188787150Y-81559400D01*
X188628400Y-81718150D01*
X188625328Y-81747400D01*
X188637588Y-81871882D01*
X188673898Y-81991580D01*
X188708736Y-82056755D01*
X188707463Y-82058306D01*
X188648498Y-82168620D01*
X188612188Y-82288318D01*
X188599928Y-82412800D01*
X188603000Y-82442050D01*
X188761750Y-82600800D01*
X189406000Y-82600800D01*
X189406000Y-82580800D01*
X189439928Y-82580800D01*
X189439928Y-82874800D01*
X189406000Y-82874800D01*
X189406000Y-82854800D01*
X188761750Y-82854800D01*
X188603000Y-83013550D01*
X188599928Y-83042800D01*
X188612188Y-83167282D01*
X188648498Y-83286980D01*
X188689025Y-83362800D01*
X188648498Y-83438620D01*
X188612188Y-83558318D01*
X188599928Y-83682800D01*
X188603000Y-83712050D01*
X188761750Y-83870800D01*
X189406000Y-83870800D01*
X189406000Y-83850800D01*
X189439928Y-83850800D01*
X189439928Y-84144800D01*
X189406000Y-84144800D01*
X189406000Y-84124800D01*
X188761750Y-84124800D01*
X188603000Y-84283550D01*
X188599928Y-84312800D01*
X188612188Y-84437282D01*
X188648498Y-84556980D01*
X188695814Y-84645500D01*
X188648498Y-84734020D01*
X188612188Y-84853718D01*
X188599928Y-84978200D01*
X188603000Y-85007450D01*
X188761750Y-85166200D01*
X189406000Y-85166200D01*
X189406000Y-85146200D01*
X189439928Y-85146200D01*
X189439928Y-85608200D01*
X189452188Y-85732682D01*
X189488498Y-85852380D01*
X189547463Y-85962694D01*
X189611000Y-86040114D01*
X189611000Y-111887000D01*
X175387000Y-111887000D01*
X175387000Y-110285293D01*
X183264312Y-110285293D01*
X183348201Y-110539647D01*
X183621058Y-110670714D01*
X183914241Y-110746030D01*
X184216486Y-110762703D01*
X184516175Y-110720090D01*
X184801792Y-110619829D01*
X184951799Y-110539647D01*
X185035688Y-110285293D01*
X184150000Y-109399605D01*
X183264312Y-110285293D01*
X175387000Y-110285293D01*
X175387000Y-109286486D01*
X182607297Y-109286486D01*
X182649910Y-109586175D01*
X182750171Y-109871792D01*
X182830353Y-110021799D01*
X183084707Y-110105688D01*
X183970395Y-109220000D01*
X184329605Y-109220000D01*
X185215293Y-110105688D01*
X185469647Y-110021799D01*
X185600714Y-109748942D01*
X185676030Y-109455759D01*
X185692703Y-109153514D01*
X185650090Y-108853825D01*
X185549829Y-108568208D01*
X185469647Y-108418201D01*
X185215293Y-108334312D01*
X184329605Y-109220000D01*
X183970395Y-109220000D01*
X183084707Y-108334312D01*
X182830353Y-108418201D01*
X182699286Y-108691058D01*
X182623970Y-108984241D01*
X182607297Y-109286486D01*
X175387000Y-109286486D01*
X175387000Y-108154707D01*
X183264312Y-108154707D01*
X184150000Y-109040395D01*
X185035688Y-108154707D01*
X184951799Y-107900353D01*
X184678942Y-107769286D01*
X184385759Y-107693970D01*
X184083514Y-107677297D01*
X183783825Y-107719910D01*
X183498208Y-107820171D01*
X183348201Y-107900353D01*
X183264312Y-108154707D01*
X175387000Y-108154707D01*
X175387000Y-105285293D01*
X183264312Y-105285293D01*
X183348201Y-105539647D01*
X183621058Y-105670714D01*
X183914241Y-105746030D01*
X184216486Y-105762703D01*
X184516175Y-105720090D01*
X184801792Y-105619829D01*
X184951799Y-105539647D01*
X185035688Y-105285293D01*
X184150000Y-104399605D01*
X183264312Y-105285293D01*
X175387000Y-105285293D01*
X175387000Y-104286486D01*
X182607297Y-104286486D01*
X182649910Y-104586175D01*
X182750171Y-104871792D01*
X182830353Y-105021799D01*
X183084707Y-105105688D01*
X183970395Y-104220000D01*
X184329605Y-104220000D01*
X185215293Y-105105688D01*
X185469647Y-105021799D01*
X185600714Y-104748942D01*
X185676030Y-104455759D01*
X185692703Y-104153514D01*
X185650090Y-103853825D01*
X185549829Y-103568208D01*
X185469647Y-103418201D01*
X185215293Y-103334312D01*
X184329605Y-104220000D01*
X183970395Y-104220000D01*
X183084707Y-103334312D01*
X182830353Y-103418201D01*
X182699286Y-103691058D01*
X182623970Y-103984241D01*
X182607297Y-104286486D01*
X175387000Y-104286486D01*
X175387000Y-103154707D01*
X183264312Y-103154707D01*
X184150000Y-104040395D01*
X185035688Y-103154707D01*
X184951799Y-102900353D01*
X184678942Y-102769286D01*
X184385759Y-102693970D01*
X184083514Y-102677297D01*
X183783825Y-102719910D01*
X183498208Y-102820171D01*
X183348201Y-102900353D01*
X183264312Y-103154707D01*
X175387000Y-103154707D01*
X175387000Y-93410000D01*
X178179928Y-93410000D01*
X178192188Y-93534482D01*
X178228498Y-93654180D01*
X178287463Y-93764494D01*
X178366815Y-93861185D01*
X178463506Y-93940537D01*
X178573820Y-93999502D01*
X178693518Y-94035812D01*
X178818000Y-94048072D01*
X179232250Y-94045000D01*
X179391000Y-93886250D01*
X179391000Y-92837000D01*
X179645000Y-92837000D01*
X179645000Y-93886250D01*
X179803750Y-94045000D01*
X180218000Y-94048072D01*
X180342482Y-94035812D01*
X180462180Y-93999502D01*
X180572494Y-93940537D01*
X180669185Y-93861185D01*
X180748537Y-93764494D01*
X180807502Y-93654180D01*
X180843812Y-93534482D01*
X180856072Y-93410000D01*
X180853000Y-92995750D01*
X180694250Y-92837000D01*
X179645000Y-92837000D01*
X179391000Y-92837000D01*
X178341750Y-92837000D01*
X178183000Y-92995750D01*
X178179928Y-93410000D01*
X175387000Y-93410000D01*
X175387000Y-92010000D01*
X178179928Y-92010000D01*
X178183000Y-92424250D01*
X178341750Y-92583000D01*
X179391000Y-92583000D01*
X179391000Y-91533750D01*
X179645000Y-91533750D01*
X179645000Y-92583000D01*
X180694250Y-92583000D01*
X180853000Y-92424250D01*
X180856072Y-92010000D01*
X180843812Y-91885518D01*
X180807502Y-91765820D01*
X180748537Y-91655506D01*
X180669185Y-91558815D01*
X180572494Y-91479463D01*
X180462180Y-91420498D01*
X180342482Y-91384188D01*
X180218000Y-91371928D01*
X179803750Y-91375000D01*
X179645000Y-91533750D01*
X179391000Y-91533750D01*
X179232250Y-91375000D01*
X178818000Y-91371928D01*
X178693518Y-91384188D01*
X178573820Y-91420498D01*
X178463506Y-91479463D01*
X178366815Y-91558815D01*
X178287463Y-91655506D01*
X178228498Y-91765820D01*
X178192188Y-91885518D01*
X178179928Y-92010000D01*
X175387000Y-92010000D01*
X175387000Y-85608200D01*
X188599928Y-85608200D01*
X188612188Y-85732682D01*
X188648498Y-85852380D01*
X188707463Y-85962694D01*
X188786815Y-86059385D01*
X188883506Y-86138737D01*
X188993820Y-86197702D01*
X189113518Y-86234012D01*
X189238000Y-86246272D01*
X189247250Y-86243200D01*
X189406000Y-86084450D01*
X189406000Y-85420200D01*
X188761750Y-85420200D01*
X188603000Y-85578950D01*
X188599928Y-85608200D01*
X175387000Y-85608200D01*
X175387000Y-81414000D01*
X177679928Y-81414000D01*
X177692188Y-81538482D01*
X177728498Y-81658180D01*
X177787463Y-81768494D01*
X177866815Y-81865185D01*
X177963506Y-81944537D01*
X178073820Y-82003502D01*
X178193518Y-82039812D01*
X178318000Y-82052072D01*
X179211250Y-82049000D01*
X179370000Y-81890250D01*
X179370000Y-80362000D01*
X179566000Y-80362000D01*
X179566000Y-81890250D01*
X179724750Y-82049000D01*
X180618000Y-82052072D01*
X180742482Y-82039812D01*
X180862180Y-82003502D01*
X180972494Y-81944537D01*
X181069185Y-81865185D01*
X181148537Y-81768494D01*
X181207502Y-81658180D01*
X181243812Y-81538482D01*
X181256072Y-81414000D01*
X181255052Y-81117400D01*
X188625328Y-81117400D01*
X188628400Y-81146650D01*
X188787150Y-81305400D01*
X189431400Y-81305400D01*
X189431400Y-80641150D01*
X189272650Y-80482400D01*
X189263400Y-80479328D01*
X189138918Y-80491588D01*
X189019220Y-80527898D01*
X188908906Y-80586863D01*
X188812215Y-80666215D01*
X188732863Y-80762906D01*
X188673898Y-80873220D01*
X188637588Y-80992918D01*
X188625328Y-81117400D01*
X181255052Y-81117400D01*
X181253000Y-80520750D01*
X181094250Y-80362000D01*
X179566000Y-80362000D01*
X179370000Y-80362000D01*
X177841750Y-80362000D01*
X177683000Y-80520750D01*
X177679928Y-81414000D01*
X175387000Y-81414000D01*
X175387000Y-79114000D01*
X177679928Y-79114000D01*
X177683000Y-80007250D01*
X177841750Y-80166000D01*
X179370000Y-80166000D01*
X179370000Y-78637750D01*
X179566000Y-78637750D01*
X179566000Y-80166000D01*
X181094250Y-80166000D01*
X181253000Y-80007250D01*
X181256072Y-79114000D01*
X181243812Y-78989518D01*
X181207502Y-78869820D01*
X181148537Y-78759506D01*
X181069185Y-78662815D01*
X180972494Y-78583463D01*
X180862180Y-78524498D01*
X180742482Y-78488188D01*
X180618000Y-78475928D01*
X179724750Y-78479000D01*
X179566000Y-78637750D01*
X179370000Y-78637750D01*
X179211250Y-78479000D01*
X178318000Y-78475928D01*
X178193518Y-78488188D01*
X178073820Y-78524498D01*
X177963506Y-78583463D01*
X177866815Y-78662815D01*
X177787463Y-78759506D01*
X177728498Y-78869820D01*
X177692188Y-78989518D01*
X177679928Y-79114000D01*
X175387000Y-79114000D01*
X175387000Y-76327000D01*
X189611000Y-76327000D01*
X189611000Y-80716436D01*
G04 #@! TA.AperFunction,Conductor*
D39*
G36*
X189611000Y-80716436D02*
G01*
X189572863Y-80762906D01*
X189513898Y-80873220D01*
X189477588Y-80992918D01*
X189465328Y-81117400D01*
X189465328Y-81579400D01*
X189431400Y-81579400D01*
X189431400Y-81559400D01*
X188787150Y-81559400D01*
X188628400Y-81718150D01*
X188625328Y-81747400D01*
X188637588Y-81871882D01*
X188673898Y-81991580D01*
X188708736Y-82056755D01*
X188707463Y-82058306D01*
X188648498Y-82168620D01*
X188612188Y-82288318D01*
X188599928Y-82412800D01*
X188603000Y-82442050D01*
X188761750Y-82600800D01*
X189406000Y-82600800D01*
X189406000Y-82580800D01*
X189439928Y-82580800D01*
X189439928Y-82874800D01*
X189406000Y-82874800D01*
X189406000Y-82854800D01*
X188761750Y-82854800D01*
X188603000Y-83013550D01*
X188599928Y-83042800D01*
X188612188Y-83167282D01*
X188648498Y-83286980D01*
X188689025Y-83362800D01*
X188648498Y-83438620D01*
X188612188Y-83558318D01*
X188599928Y-83682800D01*
X188603000Y-83712050D01*
X188761750Y-83870800D01*
X189406000Y-83870800D01*
X189406000Y-83850800D01*
X189439928Y-83850800D01*
X189439928Y-84144800D01*
X189406000Y-84144800D01*
X189406000Y-84124800D01*
X188761750Y-84124800D01*
X188603000Y-84283550D01*
X188599928Y-84312800D01*
X188612188Y-84437282D01*
X188648498Y-84556980D01*
X188695814Y-84645500D01*
X188648498Y-84734020D01*
X188612188Y-84853718D01*
X188599928Y-84978200D01*
X188603000Y-85007450D01*
X188761750Y-85166200D01*
X189406000Y-85166200D01*
X189406000Y-85146200D01*
X189439928Y-85146200D01*
X189439928Y-85608200D01*
X189452188Y-85732682D01*
X189488498Y-85852380D01*
X189547463Y-85962694D01*
X189611000Y-86040114D01*
X189611000Y-111887000D01*
X175387000Y-111887000D01*
X175387000Y-110285293D01*
X183264312Y-110285293D01*
X183348201Y-110539647D01*
X183621058Y-110670714D01*
X183914241Y-110746030D01*
X184216486Y-110762703D01*
X184516175Y-110720090D01*
X184801792Y-110619829D01*
X184951799Y-110539647D01*
X185035688Y-110285293D01*
X184150000Y-109399605D01*
X183264312Y-110285293D01*
X175387000Y-110285293D01*
X175387000Y-109286486D01*
X182607297Y-109286486D01*
X182649910Y-109586175D01*
X182750171Y-109871792D01*
X182830353Y-110021799D01*
X183084707Y-110105688D01*
X183970395Y-109220000D01*
X184329605Y-109220000D01*
X185215293Y-110105688D01*
X185469647Y-110021799D01*
X185600714Y-109748942D01*
X185676030Y-109455759D01*
X185692703Y-109153514D01*
X185650090Y-108853825D01*
X185549829Y-108568208D01*
X185469647Y-108418201D01*
X185215293Y-108334312D01*
X184329605Y-109220000D01*
X183970395Y-109220000D01*
X183084707Y-108334312D01*
X182830353Y-108418201D01*
X182699286Y-108691058D01*
X182623970Y-108984241D01*
X182607297Y-109286486D01*
X175387000Y-109286486D01*
X175387000Y-108154707D01*
X183264312Y-108154707D01*
X184150000Y-109040395D01*
X185035688Y-108154707D01*
X184951799Y-107900353D01*
X184678942Y-107769286D01*
X184385759Y-107693970D01*
X184083514Y-107677297D01*
X183783825Y-107719910D01*
X183498208Y-107820171D01*
X183348201Y-107900353D01*
X183264312Y-108154707D01*
X175387000Y-108154707D01*
X175387000Y-105285293D01*
X183264312Y-105285293D01*
X183348201Y-105539647D01*
X183621058Y-105670714D01*
X183914241Y-105746030D01*
X184216486Y-105762703D01*
X184516175Y-105720090D01*
X184801792Y-105619829D01*
X184951799Y-105539647D01*
X185035688Y-105285293D01*
X184150000Y-104399605D01*
X183264312Y-105285293D01*
X175387000Y-105285293D01*
X175387000Y-104286486D01*
X182607297Y-104286486D01*
X182649910Y-104586175D01*
X182750171Y-104871792D01*
X182830353Y-105021799D01*
X183084707Y-105105688D01*
X183970395Y-104220000D01*
X184329605Y-104220000D01*
X185215293Y-105105688D01*
X185469647Y-105021799D01*
X185600714Y-104748942D01*
X185676030Y-104455759D01*
X185692703Y-104153514D01*
X185650090Y-103853825D01*
X185549829Y-103568208D01*
X185469647Y-103418201D01*
X185215293Y-103334312D01*
X184329605Y-104220000D01*
X183970395Y-104220000D01*
X183084707Y-103334312D01*
X182830353Y-103418201D01*
X182699286Y-103691058D01*
X182623970Y-103984241D01*
X182607297Y-104286486D01*
X175387000Y-104286486D01*
X175387000Y-103154707D01*
X183264312Y-103154707D01*
X184150000Y-104040395D01*
X185035688Y-103154707D01*
X184951799Y-102900353D01*
X184678942Y-102769286D01*
X184385759Y-102693970D01*
X184083514Y-102677297D01*
X183783825Y-102719910D01*
X183498208Y-102820171D01*
X183348201Y-102900353D01*
X183264312Y-103154707D01*
X175387000Y-103154707D01*
X175387000Y-93410000D01*
X178179928Y-93410000D01*
X178192188Y-93534482D01*
X178228498Y-93654180D01*
X178287463Y-93764494D01*
X178366815Y-93861185D01*
X178463506Y-93940537D01*
X178573820Y-93999502D01*
X178693518Y-94035812D01*
X178818000Y-94048072D01*
X179232250Y-94045000D01*
X179391000Y-93886250D01*
X179391000Y-92837000D01*
X179645000Y-92837000D01*
X179645000Y-93886250D01*
X179803750Y-94045000D01*
X180218000Y-94048072D01*
X180342482Y-94035812D01*
X180462180Y-93999502D01*
X180572494Y-93940537D01*
X180669185Y-93861185D01*
X180748537Y-93764494D01*
X180807502Y-93654180D01*
X180843812Y-93534482D01*
X180856072Y-93410000D01*
X180853000Y-92995750D01*
X180694250Y-92837000D01*
X179645000Y-92837000D01*
X179391000Y-92837000D01*
X178341750Y-92837000D01*
X178183000Y-92995750D01*
X178179928Y-93410000D01*
X175387000Y-93410000D01*
X175387000Y-92010000D01*
X178179928Y-92010000D01*
X178183000Y-92424250D01*
X178341750Y-92583000D01*
X179391000Y-92583000D01*
X179391000Y-91533750D01*
X179645000Y-91533750D01*
X179645000Y-92583000D01*
X180694250Y-92583000D01*
X180853000Y-92424250D01*
X180856072Y-92010000D01*
X180843812Y-91885518D01*
X180807502Y-91765820D01*
X180748537Y-91655506D01*
X180669185Y-91558815D01*
X180572494Y-91479463D01*
X180462180Y-91420498D01*
X180342482Y-91384188D01*
X180218000Y-91371928D01*
X179803750Y-91375000D01*
X179645000Y-91533750D01*
X179391000Y-91533750D01*
X179232250Y-91375000D01*
X178818000Y-91371928D01*
X178693518Y-91384188D01*
X178573820Y-91420498D01*
X178463506Y-91479463D01*
X178366815Y-91558815D01*
X178287463Y-91655506D01*
X178228498Y-91765820D01*
X178192188Y-91885518D01*
X178179928Y-92010000D01*
X175387000Y-92010000D01*
X175387000Y-85608200D01*
X188599928Y-85608200D01*
X188612188Y-85732682D01*
X188648498Y-85852380D01*
X188707463Y-85962694D01*
X188786815Y-86059385D01*
X188883506Y-86138737D01*
X188993820Y-86197702D01*
X189113518Y-86234012D01*
X189238000Y-86246272D01*
X189247250Y-86243200D01*
X189406000Y-86084450D01*
X189406000Y-85420200D01*
X188761750Y-85420200D01*
X188603000Y-85578950D01*
X188599928Y-85608200D01*
X175387000Y-85608200D01*
X175387000Y-81414000D01*
X177679928Y-81414000D01*
X177692188Y-81538482D01*
X177728498Y-81658180D01*
X177787463Y-81768494D01*
X177866815Y-81865185D01*
X177963506Y-81944537D01*
X178073820Y-82003502D01*
X178193518Y-82039812D01*
X178318000Y-82052072D01*
X179211250Y-82049000D01*
X179370000Y-81890250D01*
X179370000Y-80362000D01*
X179566000Y-80362000D01*
X179566000Y-81890250D01*
X179724750Y-82049000D01*
X180618000Y-82052072D01*
X180742482Y-82039812D01*
X180862180Y-82003502D01*
X180972494Y-81944537D01*
X181069185Y-81865185D01*
X181148537Y-81768494D01*
X181207502Y-81658180D01*
X181243812Y-81538482D01*
X181256072Y-81414000D01*
X181255052Y-81117400D01*
X188625328Y-81117400D01*
X188628400Y-81146650D01*
X188787150Y-81305400D01*
X189431400Y-81305400D01*
X189431400Y-80641150D01*
X189272650Y-80482400D01*
X189263400Y-80479328D01*
X189138918Y-80491588D01*
X189019220Y-80527898D01*
X188908906Y-80586863D01*
X188812215Y-80666215D01*
X188732863Y-80762906D01*
X188673898Y-80873220D01*
X188637588Y-80992918D01*
X188625328Y-81117400D01*
X181255052Y-81117400D01*
X181253000Y-80520750D01*
X181094250Y-80362000D01*
X179566000Y-80362000D01*
X179370000Y-80362000D01*
X177841750Y-80362000D01*
X177683000Y-80520750D01*
X177679928Y-81414000D01*
X175387000Y-81414000D01*
X175387000Y-79114000D01*
X177679928Y-79114000D01*
X177683000Y-80007250D01*
X177841750Y-80166000D01*
X179370000Y-80166000D01*
X179370000Y-78637750D01*
X179566000Y-78637750D01*
X179566000Y-80166000D01*
X181094250Y-80166000D01*
X181253000Y-80007250D01*
X181256072Y-79114000D01*
X181243812Y-78989518D01*
X181207502Y-78869820D01*
X181148537Y-78759506D01*
X181069185Y-78662815D01*
X180972494Y-78583463D01*
X180862180Y-78524498D01*
X180742482Y-78488188D01*
X180618000Y-78475928D01*
X179724750Y-78479000D01*
X179566000Y-78637750D01*
X179370000Y-78637750D01*
X179211250Y-78479000D01*
X178318000Y-78475928D01*
X178193518Y-78488188D01*
X178073820Y-78524498D01*
X177963506Y-78583463D01*
X177866815Y-78662815D01*
X177787463Y-78759506D01*
X177728498Y-78869820D01*
X177692188Y-78989518D01*
X177679928Y-79114000D01*
X175387000Y-79114000D01*
X175387000Y-76327000D01*
X189611000Y-76327000D01*
X189611000Y-80716436D01*
G37*
G04 #@! TD.AperFunction*
D38*
X199340001Y-137262000D02*
X94132000Y-137262000D01*
X94132000Y-132640777D01*
X95635000Y-132640777D01*
X95635000Y-133199223D01*
X95743948Y-133746939D01*
X95957656Y-134262876D01*
X96267912Y-134727207D01*
X96662793Y-135122088D01*
X97127124Y-135432344D01*
X97643061Y-135646052D01*
X98190777Y-135755000D01*
X98749223Y-135755000D01*
X99296939Y-135646052D01*
X99812876Y-135432344D01*
X100277207Y-135122088D01*
X100672088Y-134727207D01*
X100982344Y-134262876D01*
X101196052Y-133746939D01*
X101305000Y-133199223D01*
X101305000Y-132640777D01*
X101196052Y-132093061D01*
X100982344Y-131577124D01*
X100672088Y-131112793D01*
X100277207Y-130717912D01*
X99812876Y-130407656D01*
X99296939Y-130193948D01*
X98749223Y-130085000D01*
X98190777Y-130085000D01*
X97643061Y-130193948D01*
X97127124Y-130407656D01*
X96662793Y-130717912D01*
X96267912Y-131112793D01*
X95957656Y-131577124D01*
X95743948Y-132093061D01*
X95635000Y-132640777D01*
X94132000Y-132640777D01*
X94132000Y-115142000D01*
X94994324Y-115142000D01*
X94998000Y-115179322D01*
X94998001Y-122544668D01*
X94994324Y-122582000D01*
X95008998Y-122730985D01*
X95052454Y-122874246D01*
X95123026Y-123006276D01*
X95194201Y-123093002D01*
X95218000Y-123122001D01*
X95246998Y-123145799D01*
X100321201Y-128220003D01*
X100344999Y-128249001D01*
X100373997Y-128272799D01*
X100460723Y-128343974D01*
X100505678Y-128368003D01*
X100520555Y-128375955D01*
X100545498Y-128458180D01*
X100604463Y-128568494D01*
X100683815Y-128665185D01*
X100780506Y-128744537D01*
X100890820Y-128803502D01*
X101010518Y-128839812D01*
X101135000Y-128852072D01*
X102065000Y-128852072D01*
X102189482Y-128839812D01*
X102309180Y-128803502D01*
X102419494Y-128744537D01*
X102516185Y-128665185D01*
X102595537Y-128568494D01*
X102648718Y-128469000D01*
X103489928Y-128469000D01*
X103489928Y-128484000D01*
X103502188Y-128608482D01*
X103538498Y-128728180D01*
X103597463Y-128838494D01*
X103676815Y-128935185D01*
X103773506Y-129014537D01*
X103883820Y-129073502D01*
X104003518Y-129109812D01*
X104128000Y-129122072D01*
X104708000Y-129122072D01*
X104832482Y-129109812D01*
X104952180Y-129073502D01*
X105062494Y-129014537D01*
X105117980Y-128969001D01*
X105130094Y-128981115D01*
X105130852Y-128981736D01*
X105234615Y-129050981D01*
X105235480Y-129051443D01*
X105350590Y-129099132D01*
X105351528Y-129099417D01*
X105474502Y-129123905D01*
X105475477Y-129124001D01*
X105538000Y-129127072D01*
X106283000Y-129127072D01*
X106283001Y-132635239D01*
X106277509Y-132691000D01*
X106299423Y-132913498D01*
X106364324Y-133127446D01*
X106364325Y-133127447D01*
X106469717Y-133324623D01*
X106611552Y-133497449D01*
X106654860Y-133532991D01*
X109013009Y-135891141D01*
X109048551Y-135934449D01*
X109221377Y-136076284D01*
X109418553Y-136181676D01*
X109632501Y-136246577D01*
X109799248Y-136263000D01*
X109799257Y-136263000D01*
X109854999Y-136268490D01*
X109910741Y-136263000D01*
X151836249Y-136263000D01*
X151892000Y-136268491D01*
X151947751Y-136263000D01*
X151947752Y-136263000D01*
X152114499Y-136246577D01*
X152328447Y-136181676D01*
X152525623Y-136076284D01*
X152698449Y-135934449D01*
X152733996Y-135891135D01*
X155982354Y-132642777D01*
X192165000Y-132642777D01*
X192165000Y-133201223D01*
X192273948Y-133748939D01*
X192487656Y-134264876D01*
X192797912Y-134729207D01*
X193192793Y-135124088D01*
X193657124Y-135434344D01*
X194173061Y-135648052D01*
X194720777Y-135757000D01*
X195279223Y-135757000D01*
X195826939Y-135648052D01*
X196342876Y-135434344D01*
X196807207Y-135124088D01*
X197202088Y-134729207D01*
X197512344Y-134264876D01*
X197726052Y-133748939D01*
X197835000Y-133201223D01*
X197835000Y-132642777D01*
X197726052Y-132095061D01*
X197512344Y-131579124D01*
X197202088Y-131114793D01*
X196807207Y-130719912D01*
X196342876Y-130409656D01*
X195826939Y-130195948D01*
X195279223Y-130087000D01*
X194720777Y-130087000D01*
X194173061Y-130195948D01*
X193657124Y-130409656D01*
X193192793Y-130719912D01*
X192797912Y-131114793D01*
X192487656Y-131579124D01*
X192273948Y-132095061D01*
X192165000Y-132642777D01*
X155982354Y-132642777D01*
X157720091Y-130905040D01*
X168788091Y-130905040D01*
X168882930Y-131169881D01*
X169027615Y-131411131D01*
X169216586Y-131619519D01*
X169442580Y-131787037D01*
X169696913Y-131907246D01*
X169830961Y-131947904D01*
X170053000Y-131825915D01*
X170053000Y-130683000D01*
X170307000Y-130683000D01*
X170307000Y-131825915D01*
X170529039Y-131947904D01*
X170663087Y-131907246D01*
X170917420Y-131787037D01*
X171141020Y-131621293D01*
X183264312Y-131621293D01*
X183348201Y-131875647D01*
X183621058Y-132006714D01*
X183914241Y-132082030D01*
X184216486Y-132098703D01*
X184516175Y-132056090D01*
X184801792Y-131955829D01*
X184951799Y-131875647D01*
X185035688Y-131621293D01*
X184150000Y-130735605D01*
X183264312Y-131621293D01*
X171141020Y-131621293D01*
X171143414Y-131619519D01*
X171332385Y-131411131D01*
X171477070Y-131169881D01*
X171571909Y-130905040D01*
X171450624Y-130683000D01*
X170307000Y-130683000D01*
X170053000Y-130683000D01*
X168909376Y-130683000D01*
X168788091Y-130905040D01*
X157720091Y-130905040D01*
X158002645Y-130622486D01*
X182607297Y-130622486D01*
X182649910Y-130922175D01*
X182750171Y-131207792D01*
X182830353Y-131357799D01*
X183084707Y-131441688D01*
X183970395Y-130556000D01*
X184329605Y-130556000D01*
X185215293Y-131441688D01*
X185469647Y-131357799D01*
X185600714Y-131084942D01*
X185676030Y-130791759D01*
X185692703Y-130489514D01*
X185650090Y-130189825D01*
X185549829Y-129904208D01*
X185469647Y-129754201D01*
X185215293Y-129670312D01*
X184329605Y-130556000D01*
X183970395Y-130556000D01*
X183084707Y-129670312D01*
X182830353Y-129754201D01*
X182699286Y-130027058D01*
X182623970Y-130320241D01*
X182607297Y-130622486D01*
X158002645Y-130622486D01*
X158418171Y-130206960D01*
X168788091Y-130206960D01*
X168909376Y-130429000D01*
X170053000Y-130429000D01*
X170053000Y-129286085D01*
X170307000Y-129286085D01*
X170307000Y-130429000D01*
X171450624Y-130429000D01*
X171571909Y-130206960D01*
X171477070Y-129942119D01*
X171332385Y-129700869D01*
X171143414Y-129492481D01*
X171141021Y-129490707D01*
X183264312Y-129490707D01*
X184150000Y-130376395D01*
X185035688Y-129490707D01*
X184951799Y-129236353D01*
X184678942Y-129105286D01*
X184385759Y-129029970D01*
X184083514Y-129013297D01*
X183783825Y-129055910D01*
X183498208Y-129156171D01*
X183348201Y-129236353D01*
X183264312Y-129490707D01*
X171141021Y-129490707D01*
X170917420Y-129324963D01*
X170663087Y-129204754D01*
X170529039Y-129164096D01*
X170307000Y-129286085D01*
X170053000Y-129286085D01*
X169830961Y-129164096D01*
X169696913Y-129204754D01*
X169442580Y-129324963D01*
X169216586Y-129492481D01*
X169027615Y-129700869D01*
X168882930Y-129942119D01*
X168788091Y-130206960D01*
X158418171Y-130206960D01*
X164049131Y-124576000D01*
X173467928Y-124576000D01*
X173467928Y-126376000D01*
X173480188Y-126500482D01*
X173516498Y-126620180D01*
X173575463Y-126730494D01*
X173654815Y-126827185D01*
X173751506Y-126906537D01*
X173861820Y-126965502D01*
X173981518Y-127001812D01*
X174106000Y-127014072D01*
X175906000Y-127014072D01*
X176030482Y-127001812D01*
X176150180Y-126965502D01*
X176260494Y-126906537D01*
X176357185Y-126827185D01*
X176436537Y-126730494D01*
X176495502Y-126620180D01*
X176501056Y-126601873D01*
X176567495Y-126668312D01*
X176818905Y-126836299D01*
X177098257Y-126952011D01*
X177394816Y-127011000D01*
X177697184Y-127011000D01*
X177993743Y-126952011D01*
X178273095Y-126836299D01*
X178524505Y-126668312D01*
X178738312Y-126454505D01*
X178906299Y-126203095D01*
X179022011Y-125923743D01*
X179081000Y-125627184D01*
X179081000Y-125324816D01*
X179022011Y-125028257D01*
X178906299Y-124748905D01*
X178738312Y-124497495D01*
X178524505Y-124283688D01*
X178273095Y-124115701D01*
X177993743Y-123999989D01*
X177697184Y-123941000D01*
X177394816Y-123941000D01*
X177098257Y-123999989D01*
X176818905Y-124115701D01*
X176567495Y-124283688D01*
X176501056Y-124350127D01*
X176495502Y-124331820D01*
X176436537Y-124221506D01*
X176357185Y-124124815D01*
X176260494Y-124045463D01*
X176150180Y-123986498D01*
X176030482Y-123950188D01*
X175906000Y-123937928D01*
X174106000Y-123937928D01*
X173981518Y-123950188D01*
X173861820Y-123986498D01*
X173751506Y-124045463D01*
X173654815Y-124124815D01*
X173575463Y-124221506D01*
X173516498Y-124331820D01*
X173480188Y-124451518D01*
X173467928Y-124576000D01*
X164049131Y-124576000D01*
X165830466Y-122794665D01*
X168745000Y-122794665D01*
X168745000Y-123077335D01*
X168800147Y-123354574D01*
X168908320Y-123615727D01*
X169065363Y-123850759D01*
X169265241Y-124050637D01*
X169500273Y-124207680D01*
X169761426Y-124315853D01*
X170038665Y-124371000D01*
X170321335Y-124371000D01*
X170598574Y-124315853D01*
X170859727Y-124207680D01*
X171094759Y-124050637D01*
X171294637Y-123850759D01*
X171451680Y-123615727D01*
X171559853Y-123354574D01*
X171615000Y-123077335D01*
X171615000Y-122794665D01*
X171559853Y-122517426D01*
X171451680Y-122256273D01*
X171294637Y-122021241D01*
X171094759Y-121821363D01*
X170859727Y-121664320D01*
X170598574Y-121556147D01*
X170321335Y-121501000D01*
X170038665Y-121501000D01*
X169761426Y-121556147D01*
X169500273Y-121664320D01*
X169265241Y-121821363D01*
X169065363Y-122021241D01*
X168908320Y-122256273D01*
X168800147Y-122517426D01*
X168745000Y-122794665D01*
X165830466Y-122794665D01*
X167887131Y-120738000D01*
X182661928Y-120738000D01*
X182674188Y-120862482D01*
X182710498Y-120982180D01*
X182769463Y-121092494D01*
X182848815Y-121189185D01*
X182945506Y-121268537D01*
X183055820Y-121327502D01*
X183175518Y-121363812D01*
X183300000Y-121376072D01*
X183864250Y-121373000D01*
X184023000Y-121214250D01*
X184023000Y-120015000D01*
X184277000Y-120015000D01*
X184277000Y-121214250D01*
X184435750Y-121373000D01*
X185000000Y-121376072D01*
X185124482Y-121363812D01*
X185244180Y-121327502D01*
X185354494Y-121268537D01*
X185451185Y-121189185D01*
X185530537Y-121092494D01*
X185589502Y-120982180D01*
X185625812Y-120862482D01*
X185638072Y-120738000D01*
X185635000Y-120173750D01*
X185476250Y-120015000D01*
X184277000Y-120015000D01*
X184023000Y-120015000D01*
X182823750Y-120015000D01*
X182665000Y-120173750D01*
X182661928Y-120738000D01*
X167887131Y-120738000D01*
X170142132Y-118483000D01*
X182991272Y-118483000D01*
X182945506Y-118507463D01*
X182848815Y-118586815D01*
X182769463Y-118683506D01*
X182710498Y-118793820D01*
X182674188Y-118913518D01*
X182661928Y-119038000D01*
X182665000Y-119602250D01*
X182823750Y-119761000D01*
X184023000Y-119761000D01*
X184023000Y-119741000D01*
X184277000Y-119741000D01*
X184277000Y-119761000D01*
X185476250Y-119761000D01*
X185635000Y-119602250D01*
X185636983Y-119238033D01*
X186317000Y-119918051D01*
X186317001Y-121783867D01*
X184081569Y-124019300D01*
X183998648Y-124019300D01*
X183701761Y-124078355D01*
X183422100Y-124194195D01*
X183170411Y-124362368D01*
X182956368Y-124576411D01*
X182788195Y-124828100D01*
X182672355Y-125107761D01*
X182613300Y-125404648D01*
X182613300Y-125707352D01*
X182672355Y-126004239D01*
X182788195Y-126283900D01*
X182956368Y-126535589D01*
X183170411Y-126749632D01*
X183422100Y-126917805D01*
X183701761Y-127033645D01*
X183998648Y-127092700D01*
X184301352Y-127092700D01*
X184598239Y-127033645D01*
X184877900Y-126917805D01*
X185129589Y-126749632D01*
X185343632Y-126535589D01*
X185511805Y-126283900D01*
X185627645Y-126004239D01*
X185686700Y-125707352D01*
X185686700Y-125624431D01*
X188215141Y-123095991D01*
X188258449Y-123060449D01*
X188400284Y-122887623D01*
X188505676Y-122690447D01*
X188558162Y-122517426D01*
X188570577Y-122476500D01*
X188574860Y-122433015D01*
X188587000Y-122309752D01*
X188587000Y-122309745D01*
X188592490Y-122254001D01*
X188587000Y-122198257D01*
X188587000Y-119503670D01*
X188592491Y-119447919D01*
X188570577Y-119225420D01*
X188505676Y-119011472D01*
X188485614Y-118973939D01*
X188400284Y-118814296D01*
X188258449Y-118641470D01*
X188215141Y-118605928D01*
X186194077Y-116584865D01*
X186158530Y-116541551D01*
X185985704Y-116399716D01*
X185788528Y-116294324D01*
X185574580Y-116229423D01*
X185407833Y-116213000D01*
X185407832Y-116213000D01*
X185352081Y-116207509D01*
X185296330Y-116213000D01*
X185115107Y-116213000D01*
X185096632Y-116194525D01*
X184922240Y-116078000D01*
X185096632Y-115961475D01*
X185303475Y-115754632D01*
X185465990Y-115511411D01*
X185577932Y-115241158D01*
X185635000Y-114954260D01*
X185635000Y-114661740D01*
X185577932Y-114374842D01*
X185465990Y-114104589D01*
X185303475Y-113861368D01*
X185096632Y-113654525D01*
X184853411Y-113492010D01*
X184583158Y-113380068D01*
X184296260Y-113323000D01*
X184003740Y-113323000D01*
X183716842Y-113380068D01*
X183446589Y-113492010D01*
X183203368Y-113654525D01*
X182996525Y-113861368D01*
X182834010Y-114104589D01*
X182722068Y-114374842D01*
X182665000Y-114661740D01*
X182665000Y-114954260D01*
X182722068Y-115241158D01*
X182834010Y-115511411D01*
X182996525Y-115754632D01*
X183203368Y-115961475D01*
X183377760Y-116078000D01*
X183203368Y-116194525D01*
X183184893Y-116213000D01*
X169727751Y-116213000D01*
X169671999Y-116207509D01*
X169449500Y-116229423D01*
X169399705Y-116244529D01*
X169235553Y-116294324D01*
X169038377Y-116399716D01*
X168865551Y-116541551D01*
X168830009Y-116584859D01*
X151421869Y-133993000D01*
X110325132Y-133993000D01*
X108553000Y-132220869D01*
X108553000Y-130468000D01*
X110525928Y-130468000D01*
X110525928Y-132168000D01*
X110538188Y-132292482D01*
X110574498Y-132412180D01*
X110633463Y-132522494D01*
X110712815Y-132619185D01*
X110809506Y-132698537D01*
X110919820Y-132757502D01*
X111039518Y-132793812D01*
X111164000Y-132806072D01*
X112864000Y-132806072D01*
X112988482Y-132793812D01*
X113108180Y-132757502D01*
X113218494Y-132698537D01*
X113315185Y-132619185D01*
X113394537Y-132522494D01*
X113453502Y-132412180D01*
X113475513Y-132339620D01*
X113607368Y-132471475D01*
X113850589Y-132633990D01*
X114120842Y-132745932D01*
X114407740Y-132803000D01*
X114700260Y-132803000D01*
X114987158Y-132745932D01*
X115257411Y-132633990D01*
X115500632Y-132471475D01*
X115707475Y-132264632D01*
X115824000Y-132090240D01*
X115940525Y-132264632D01*
X116147368Y-132471475D01*
X116390589Y-132633990D01*
X116660842Y-132745932D01*
X116947740Y-132803000D01*
X117240260Y-132803000D01*
X117527158Y-132745932D01*
X117797411Y-132633990D01*
X118040632Y-132471475D01*
X118247475Y-132264632D01*
X118364000Y-132090240D01*
X118480525Y-132264632D01*
X118687368Y-132471475D01*
X118930589Y-132633990D01*
X119200842Y-132745932D01*
X119487740Y-132803000D01*
X119780260Y-132803000D01*
X120067158Y-132745932D01*
X120337411Y-132633990D01*
X120580632Y-132471475D01*
X120787475Y-132264632D01*
X120949990Y-132021411D01*
X121061932Y-131751158D01*
X121119000Y-131464260D01*
X121119000Y-131171740D01*
X121061932Y-130884842D01*
X120949990Y-130614589D01*
X120787475Y-130371368D01*
X120580632Y-130164525D01*
X120394000Y-130039822D01*
X120394000Y-127838200D01*
X128562128Y-127838200D01*
X128562128Y-129209800D01*
X128574388Y-129334282D01*
X128610698Y-129453980D01*
X128669663Y-129564294D01*
X128749015Y-129660985D01*
X128845706Y-129740337D01*
X128956020Y-129799302D01*
X129075718Y-129835612D01*
X129200200Y-129847872D01*
X130571800Y-129847872D01*
X130696282Y-129835612D01*
X130815980Y-129799302D01*
X130926294Y-129740337D01*
X131022985Y-129660985D01*
X131102337Y-129564294D01*
X131161302Y-129453980D01*
X131167022Y-129435121D01*
X140838485Y-129435121D01*
X140896221Y-129667442D01*
X141132242Y-129776919D01*
X141385086Y-129838247D01*
X141645036Y-129849069D01*
X141902103Y-129808970D01*
X142146407Y-129719490D01*
X142243779Y-129667442D01*
X142301515Y-129435121D01*
X141570000Y-128703605D01*
X140838485Y-129435121D01*
X131167022Y-129435121D01*
X131197612Y-129334282D01*
X131209872Y-129209800D01*
X131209872Y-128599036D01*
X140244931Y-128599036D01*
X140285030Y-128856103D01*
X140374510Y-129100407D01*
X140426558Y-129197779D01*
X140658879Y-129255515D01*
X141390395Y-128524000D01*
X141749605Y-128524000D01*
X142481121Y-129255515D01*
X142713442Y-129197779D01*
X142822919Y-128961758D01*
X142884247Y-128708914D01*
X142895069Y-128448964D01*
X142854970Y-128191897D01*
X142765490Y-127947593D01*
X142713442Y-127850221D01*
X142481121Y-127792485D01*
X141749605Y-128524000D01*
X141390395Y-128524000D01*
X140658879Y-127792485D01*
X140426558Y-127850221D01*
X140317081Y-128086242D01*
X140255753Y-128339086D01*
X140244931Y-128599036D01*
X131209872Y-128599036D01*
X131209872Y-127838200D01*
X131197612Y-127713718D01*
X131167023Y-127612879D01*
X140838485Y-127612879D01*
X141570000Y-128344395D01*
X142301515Y-127612879D01*
X142243779Y-127380558D01*
X142007758Y-127271081D01*
X141754914Y-127209753D01*
X141494964Y-127198931D01*
X141237897Y-127239030D01*
X140993593Y-127328510D01*
X140896221Y-127380558D01*
X140838485Y-127612879D01*
X131167023Y-127612879D01*
X131161302Y-127594020D01*
X131102337Y-127483706D01*
X131022985Y-127387015D01*
X130926294Y-127307663D01*
X130815980Y-127248698D01*
X130696282Y-127212388D01*
X130571800Y-127200128D01*
X129200200Y-127200128D01*
X129075718Y-127212388D01*
X128956020Y-127248698D01*
X128845706Y-127307663D01*
X128749015Y-127387015D01*
X128669663Y-127483706D01*
X128610698Y-127594020D01*
X128574388Y-127713718D01*
X128562128Y-127838200D01*
X120394000Y-127838200D01*
X120394000Y-126783323D01*
X120397676Y-126746000D01*
X120394000Y-126708677D01*
X120394000Y-126708667D01*
X120383003Y-126597014D01*
X120339546Y-126453753D01*
X120320435Y-126418000D01*
X120268974Y-126321723D01*
X120197799Y-126234997D01*
X120174001Y-126205999D01*
X120145004Y-126182202D01*
X117812863Y-123850061D01*
X118853000Y-123850061D01*
X118853000Y-124053939D01*
X118892774Y-124253898D01*
X118970795Y-124442256D01*
X119084063Y-124611774D01*
X119228226Y-124755937D01*
X119397744Y-124869205D01*
X119586102Y-124947226D01*
X119786061Y-124987000D01*
X119989939Y-124987000D01*
X120189898Y-124947226D01*
X120378256Y-124869205D01*
X120396524Y-124856999D01*
X128657491Y-124856999D01*
X128613000Y-125080665D01*
X128613000Y-125363335D01*
X128668147Y-125640574D01*
X128776320Y-125901727D01*
X128933363Y-126136759D01*
X129133241Y-126336637D01*
X129368273Y-126493680D01*
X129629426Y-126601853D01*
X129906665Y-126657000D01*
X130189335Y-126657000D01*
X130466574Y-126601853D01*
X130727727Y-126493680D01*
X130962759Y-126336637D01*
X131162637Y-126136759D01*
X131319680Y-125901727D01*
X131427853Y-125640574D01*
X131483000Y-125363335D01*
X131483000Y-125080665D01*
X131438509Y-124856999D01*
X138768198Y-124856999D01*
X138809312Y-124898113D01*
X138773000Y-125080665D01*
X138773000Y-125363335D01*
X138828147Y-125640574D01*
X138936320Y-125901727D01*
X139093363Y-126136759D01*
X139293241Y-126336637D01*
X139528273Y-126493680D01*
X139789426Y-126601853D01*
X140066665Y-126657000D01*
X140349335Y-126657000D01*
X140626574Y-126601853D01*
X140887727Y-126493680D01*
X141122759Y-126336637D01*
X141322637Y-126136759D01*
X141479680Y-125901727D01*
X141587853Y-125640574D01*
X141643000Y-125363335D01*
X141643000Y-125080665D01*
X141587853Y-124803426D01*
X141479680Y-124542273D01*
X141322637Y-124307241D01*
X141122759Y-124107363D01*
X140887727Y-123950320D01*
X140626574Y-123842147D01*
X140349335Y-123787000D01*
X140066665Y-123787000D01*
X139884113Y-123823312D01*
X139646803Y-123586001D01*
X139623000Y-123556998D01*
X139507275Y-123462025D01*
X139375246Y-123391453D01*
X139231985Y-123347996D01*
X139120332Y-123336999D01*
X139120321Y-123336999D01*
X139082999Y-123333323D01*
X139045677Y-123336999D01*
X130683501Y-123336999D01*
X130727727Y-123318680D01*
X130962759Y-123161637D01*
X131162637Y-122961759D01*
X131319680Y-122726727D01*
X131427853Y-122465574D01*
X131483000Y-122188335D01*
X131483000Y-121905665D01*
X138773000Y-121905665D01*
X138773000Y-122188335D01*
X138828147Y-122465574D01*
X138936320Y-122726727D01*
X139093363Y-122961759D01*
X139293241Y-123161637D01*
X139528273Y-123318680D01*
X139789426Y-123426853D01*
X140066665Y-123482000D01*
X140349335Y-123482000D01*
X140626574Y-123426853D01*
X140887727Y-123318680D01*
X141092284Y-123182000D01*
X160218249Y-123182000D01*
X160274000Y-123187491D01*
X160329751Y-123182000D01*
X160329752Y-123182000D01*
X160496499Y-123165577D01*
X160710447Y-123100676D01*
X160907623Y-122995284D01*
X161080449Y-122853449D01*
X161115996Y-122810135D01*
X172936132Y-110990000D01*
X174625000Y-110990000D01*
X174625000Y-112014000D01*
X174637201Y-112137882D01*
X174673336Y-112257004D01*
X174732017Y-112366787D01*
X174810987Y-112463013D01*
X174907213Y-112541983D01*
X175016996Y-112600664D01*
X175136118Y-112636799D01*
X175260000Y-112649000D01*
X189738000Y-112649000D01*
X189861882Y-112636799D01*
X189981004Y-112600664D01*
X190090787Y-112541983D01*
X190187013Y-112463013D01*
X190265983Y-112366787D01*
X190324664Y-112257004D01*
X190360799Y-112137882D01*
X190373000Y-112014000D01*
X190373000Y-85935636D01*
X190417502Y-85852380D01*
X190453812Y-85732682D01*
X190466072Y-85608200D01*
X190466072Y-85420200D01*
X190500000Y-85420200D01*
X190500000Y-86084450D01*
X190658750Y-86243200D01*
X190668000Y-86246272D01*
X190792482Y-86234012D01*
X190912180Y-86197702D01*
X191022494Y-86138737D01*
X191119185Y-86059385D01*
X191198537Y-85962694D01*
X191257502Y-85852380D01*
X191293812Y-85732682D01*
X191306072Y-85608200D01*
X191303000Y-85578950D01*
X191144250Y-85420200D01*
X190500000Y-85420200D01*
X190466072Y-85420200D01*
X190466072Y-85146200D01*
X190500000Y-85146200D01*
X190500000Y-85166200D01*
X191144250Y-85166200D01*
X191303000Y-85007450D01*
X191306072Y-84978200D01*
X191293812Y-84853718D01*
X191257502Y-84734020D01*
X191210186Y-84645500D01*
X191257502Y-84556980D01*
X191293812Y-84437282D01*
X191306072Y-84312800D01*
X191303000Y-84283550D01*
X191144250Y-84124800D01*
X190500000Y-84124800D01*
X190500000Y-84144800D01*
X190466072Y-84144800D01*
X190466072Y-83850800D01*
X190500000Y-83850800D01*
X190500000Y-83870800D01*
X191144250Y-83870800D01*
X191303000Y-83712050D01*
X191306072Y-83682800D01*
X191293812Y-83558318D01*
X191257502Y-83438620D01*
X191216975Y-83362800D01*
X191257502Y-83286980D01*
X191293812Y-83167282D01*
X191306072Y-83042800D01*
X191303000Y-83013550D01*
X191144250Y-82854800D01*
X190500000Y-82854800D01*
X190500000Y-82874800D01*
X190466072Y-82874800D01*
X190466072Y-82580800D01*
X190500000Y-82580800D01*
X190500000Y-82600800D01*
X191144250Y-82600800D01*
X191303000Y-82442050D01*
X191306072Y-82412800D01*
X191293812Y-82288318D01*
X191257502Y-82168620D01*
X191222664Y-82103445D01*
X191223937Y-82101894D01*
X191282902Y-81991580D01*
X191319212Y-81871882D01*
X191331472Y-81747400D01*
X191328400Y-81718150D01*
X191169650Y-81559400D01*
X190525400Y-81559400D01*
X190525400Y-81579400D01*
X190491472Y-81579400D01*
X190491472Y-81117400D01*
X190479212Y-80992918D01*
X190442902Y-80873220D01*
X190383937Y-80762906D01*
X190373000Y-80749579D01*
X190373000Y-80641150D01*
X190525400Y-80641150D01*
X190525400Y-81305400D01*
X191169650Y-81305400D01*
X191328400Y-81146650D01*
X191331472Y-81117400D01*
X191319212Y-80992918D01*
X191282902Y-80873220D01*
X191223937Y-80762906D01*
X191144585Y-80666215D01*
X191047894Y-80586863D01*
X190937580Y-80527898D01*
X190817882Y-80491588D01*
X190693400Y-80479328D01*
X190684150Y-80482400D01*
X190525400Y-80641150D01*
X190373000Y-80641150D01*
X190373000Y-76200000D01*
X190360799Y-76076118D01*
X190324664Y-75956996D01*
X190265983Y-75847213D01*
X190187013Y-75750987D01*
X190090787Y-75672017D01*
X189981004Y-75613336D01*
X189893451Y-75586777D01*
X192165000Y-75586777D01*
X192165000Y-76145223D01*
X192273948Y-76692939D01*
X192487656Y-77208876D01*
X192797912Y-77673207D01*
X193192793Y-78068088D01*
X193657124Y-78378344D01*
X194173061Y-78592052D01*
X194720777Y-78701000D01*
X195279223Y-78701000D01*
X195826939Y-78592052D01*
X196342876Y-78378344D01*
X196807207Y-78068088D01*
X197202088Y-77673207D01*
X197512344Y-77208876D01*
X197726052Y-76692939D01*
X197835000Y-76145223D01*
X197835000Y-75586777D01*
X197726052Y-75039061D01*
X197512344Y-74523124D01*
X197202088Y-74058793D01*
X196807207Y-73663912D01*
X196342876Y-73353656D01*
X195826939Y-73139948D01*
X195279223Y-73031000D01*
X194720777Y-73031000D01*
X194173061Y-73139948D01*
X193657124Y-73353656D01*
X193192793Y-73663912D01*
X192797912Y-74058793D01*
X192487656Y-74523124D01*
X192273948Y-75039061D01*
X192165000Y-75586777D01*
X189893451Y-75586777D01*
X189861882Y-75577201D01*
X189738000Y-75565000D01*
X175260000Y-75565000D01*
X175136118Y-75577201D01*
X175016996Y-75613336D01*
X174907213Y-75672017D01*
X174810987Y-75750987D01*
X174732017Y-75847213D01*
X174673336Y-75956996D01*
X174637201Y-76076118D01*
X174625000Y-76200000D01*
X174625000Y-108720000D01*
X172521752Y-108720000D01*
X172466000Y-108714509D01*
X172410248Y-108720000D01*
X172243501Y-108736423D01*
X172029553Y-108801324D01*
X171832377Y-108906716D01*
X171659551Y-109048551D01*
X171624009Y-109091859D01*
X159803869Y-120912000D01*
X141092284Y-120912000D01*
X140887727Y-120775320D01*
X140626574Y-120667147D01*
X140349335Y-120612000D01*
X140066665Y-120612000D01*
X139789426Y-120667147D01*
X139528273Y-120775320D01*
X139293241Y-120932363D01*
X139093363Y-121132241D01*
X138936320Y-121367273D01*
X138828147Y-121628426D01*
X138773000Y-121905665D01*
X131483000Y-121905665D01*
X131427853Y-121628426D01*
X131319680Y-121367273D01*
X131162637Y-121132241D01*
X130962759Y-120932363D01*
X130727727Y-120775320D01*
X130466574Y-120667147D01*
X130189335Y-120612000D01*
X129906665Y-120612000D01*
X129629426Y-120667147D01*
X129368273Y-120775320D01*
X129133241Y-120932363D01*
X128933363Y-121132241D01*
X128776320Y-121367273D01*
X128668147Y-121628426D01*
X128613000Y-121905665D01*
X128613000Y-122188335D01*
X128668147Y-122465574D01*
X128776320Y-122726727D01*
X128933363Y-122961759D01*
X129133241Y-123161637D01*
X129368273Y-123318680D01*
X129412499Y-123336999D01*
X120721853Y-123336999D01*
X120691937Y-123292226D01*
X120547774Y-123148063D01*
X120378256Y-123034795D01*
X120189898Y-122956774D01*
X119989939Y-122917000D01*
X119786061Y-122917000D01*
X119586102Y-122956774D01*
X119397744Y-123034795D01*
X119228226Y-123148063D01*
X119084063Y-123292226D01*
X118970795Y-123461744D01*
X118892774Y-123650102D01*
X118853000Y-123850061D01*
X117812863Y-123850061D01*
X117431648Y-123468847D01*
X117492650Y-123394516D01*
X117552649Y-123282266D01*
X117589596Y-123160467D01*
X117602072Y-123033800D01*
X117602072Y-121586200D01*
X117589596Y-121459533D01*
X117583488Y-121439399D01*
X117573003Y-121332940D01*
X117529546Y-121189679D01*
X117458974Y-121057650D01*
X117364001Y-120941925D01*
X117335004Y-120918128D01*
X116809877Y-120393002D01*
X116786075Y-120363999D01*
X116670350Y-120269026D01*
X116538321Y-120198454D01*
X116395060Y-120154997D01*
X116283407Y-120144000D01*
X116283396Y-120144000D01*
X116246074Y-120140324D01*
X116208752Y-120144000D01*
X116138802Y-120144000D01*
X116136802Y-120142000D01*
X116646802Y-119632000D01*
X131376289Y-119632000D01*
X131420226Y-119675937D01*
X131589744Y-119789205D01*
X131778102Y-119867226D01*
X131978061Y-119907000D01*
X132181939Y-119907000D01*
X132381898Y-119867226D01*
X132570256Y-119789205D01*
X132739774Y-119675937D01*
X132883937Y-119531774D01*
X132997205Y-119362256D01*
X133075226Y-119173898D01*
X133115000Y-118973939D01*
X133115000Y-118770061D01*
X133075226Y-118570102D01*
X132997205Y-118381744D01*
X132883937Y-118212226D01*
X132739774Y-118068063D01*
X132570256Y-117954795D01*
X132381898Y-117876774D01*
X132181939Y-117837000D01*
X131978061Y-117837000D01*
X131778102Y-117876774D01*
X131589744Y-117954795D01*
X131420226Y-118068063D01*
X131376289Y-118112000D01*
X116369322Y-118112000D01*
X116331999Y-118108324D01*
X116294676Y-118112000D01*
X116294667Y-118112000D01*
X116183014Y-118122997D01*
X116039753Y-118166454D01*
X115907724Y-118237026D01*
X115791999Y-118331999D01*
X115768201Y-118360997D01*
X115022199Y-119107000D01*
X114960061Y-119107000D01*
X114760102Y-119146774D01*
X114571744Y-119224795D01*
X114402226Y-119338063D01*
X114258063Y-119482226D01*
X114144795Y-119651744D01*
X114066774Y-119840102D01*
X114027000Y-120040061D01*
X114027000Y-120243939D01*
X114066774Y-120443898D01*
X114144795Y-120632256D01*
X114258063Y-120801774D01*
X114402226Y-120945937D01*
X114457722Y-120983018D01*
X114446734Y-120986351D01*
X114334484Y-121046350D01*
X114236095Y-121127095D01*
X114155350Y-121225484D01*
X114095351Y-121337734D01*
X114058404Y-121459533D01*
X114045928Y-121586200D01*
X114045928Y-123033800D01*
X114058404Y-123160467D01*
X114095351Y-123282266D01*
X114155350Y-123394516D01*
X114236095Y-123492905D01*
X114334484Y-123573650D01*
X114446734Y-123633649D01*
X114563948Y-123669205D01*
X114560324Y-123706000D01*
X114564000Y-123743322D01*
X114564000Y-123743332D01*
X114574997Y-123854985D01*
X114609808Y-123969744D01*
X114618454Y-123998246D01*
X114689026Y-124130276D01*
X114719783Y-124167753D01*
X114783999Y-124246001D01*
X114813002Y-124269803D01*
X115043000Y-124499801D01*
X115043000Y-124561939D01*
X115082774Y-124761898D01*
X115160795Y-124950256D01*
X115274063Y-125119774D01*
X115418226Y-125263937D01*
X115450198Y-125285300D01*
X115446734Y-125286351D01*
X115334484Y-125346350D01*
X115328297Y-125351428D01*
X115326455Y-125349869D01*
X115217042Y-125289248D01*
X115194187Y-125281937D01*
X115152250Y-125240000D01*
X115074000Y-125248531D01*
X114995750Y-125240000D01*
X114953813Y-125281937D01*
X114930958Y-125289248D01*
X114821545Y-125349869D01*
X114789358Y-125377108D01*
X114652250Y-125240000D01*
X114550094Y-125251137D01*
X114430958Y-125289248D01*
X114321545Y-125349869D01*
X114226062Y-125430671D01*
X114148177Y-125528548D01*
X114090883Y-125639739D01*
X114056382Y-125759971D01*
X114046001Y-125884623D01*
X114049000Y-126324250D01*
X114207750Y-126483000D01*
X114964000Y-126483000D01*
X114964000Y-126737000D01*
X114207750Y-126737000D01*
X114049000Y-126895750D01*
X114046001Y-127335377D01*
X114056382Y-127460029D01*
X114090883Y-127580261D01*
X114148177Y-127691452D01*
X114226062Y-127789329D01*
X114321545Y-127870131D01*
X114363707Y-127893491D01*
X112427271Y-129829928D01*
X111164000Y-129829928D01*
X111039518Y-129842188D01*
X110919820Y-129878498D01*
X110809506Y-129937463D01*
X110712815Y-130016815D01*
X110633463Y-130113506D01*
X110574498Y-130223820D01*
X110538188Y-130343518D01*
X110525928Y-130468000D01*
X108553000Y-130468000D01*
X108553000Y-128379000D01*
X109325678Y-128379000D01*
X109363000Y-128382676D01*
X109400322Y-128379000D01*
X109400333Y-128379000D01*
X109511986Y-128368003D01*
X109655247Y-128324546D01*
X109787276Y-128253974D01*
X109903001Y-128159001D01*
X109926803Y-128129998D01*
X110153729Y-127903072D01*
X110282000Y-127903072D01*
X110406482Y-127890812D01*
X110526180Y-127854502D01*
X110636494Y-127795537D01*
X110679796Y-127760000D01*
X110802289Y-127760000D01*
X110846226Y-127803937D01*
X111015744Y-127917205D01*
X111204102Y-127995226D01*
X111404061Y-128035000D01*
X111607939Y-128035000D01*
X111807898Y-127995226D01*
X111996256Y-127917205D01*
X112165774Y-127803937D01*
X112309937Y-127659774D01*
X112423205Y-127490256D01*
X112501226Y-127301898D01*
X112541000Y-127101939D01*
X112541000Y-126898061D01*
X112501226Y-126698102D01*
X112423205Y-126509744D01*
X112309937Y-126340226D01*
X112165774Y-126196063D01*
X111996256Y-126082795D01*
X111807898Y-126004774D01*
X111607939Y-125965000D01*
X111404061Y-125965000D01*
X111204102Y-126004774D01*
X111015744Y-126082795D01*
X110846226Y-126196063D01*
X110802289Y-126240000D01*
X110679796Y-126240000D01*
X110636494Y-126204463D01*
X110526180Y-126145498D01*
X110406482Y-126109188D01*
X110282000Y-126096928D01*
X109682000Y-126096928D01*
X109557518Y-126109188D01*
X109437820Y-126145498D01*
X109327506Y-126204463D01*
X109268363Y-126253000D01*
X109205750Y-126253000D01*
X109047000Y-126411750D01*
X109058368Y-126525977D01*
X109070447Y-126563513D01*
X109056188Y-126610518D01*
X109043928Y-126735000D01*
X109043928Y-126859000D01*
X108346072Y-126859000D01*
X108346072Y-126754000D01*
X108333812Y-126629518D01*
X108297502Y-126509820D01*
X108238537Y-126399506D01*
X108159185Y-126302815D01*
X108062494Y-126223463D01*
X107952180Y-126164498D01*
X107832482Y-126128188D01*
X107708000Y-126115928D01*
X107527572Y-126115928D01*
X107527572Y-125840250D01*
X109047000Y-125840250D01*
X109205750Y-125999000D01*
X109855000Y-125999000D01*
X109855000Y-125384750D01*
X110109000Y-125384750D01*
X110109000Y-125999000D01*
X110758250Y-125999000D01*
X110917000Y-125840250D01*
X110905632Y-125726023D01*
X110867316Y-125606952D01*
X110806507Y-125497644D01*
X110725542Y-125402299D01*
X110627531Y-125324582D01*
X110516242Y-125267479D01*
X110395951Y-125233185D01*
X110271281Y-125223018D01*
X110267750Y-125226000D01*
X110109000Y-125384750D01*
X109855000Y-125384750D01*
X109696250Y-125226000D01*
X109692719Y-125223018D01*
X109568049Y-125233185D01*
X109447758Y-125267479D01*
X109336469Y-125324582D01*
X109238458Y-125402299D01*
X109157493Y-125497644D01*
X109096684Y-125606952D01*
X109058368Y-125726023D01*
X109047000Y-125840250D01*
X107527572Y-125840250D01*
X107527572Y-123954000D01*
X107524501Y-123891477D01*
X107524405Y-123890502D01*
X107499917Y-123767528D01*
X107499632Y-123766590D01*
X107451943Y-123651480D01*
X107451481Y-123650615D01*
X107382236Y-123546852D01*
X107381615Y-123546094D01*
X107292406Y-123456885D01*
X107291648Y-123456264D01*
X107187885Y-123387019D01*
X107187020Y-123386557D01*
X107071910Y-123338868D01*
X107070972Y-123338583D01*
X106947998Y-123314095D01*
X106947023Y-123313999D01*
X106884500Y-123310928D01*
X104951500Y-123310928D01*
X104888977Y-123313999D01*
X104888002Y-123314095D01*
X104765028Y-123338583D01*
X104764090Y-123338868D01*
X104648980Y-123386557D01*
X104648115Y-123387019D01*
X104544352Y-123456264D01*
X104543594Y-123456885D01*
X104454385Y-123546094D01*
X104453764Y-123546852D01*
X104384519Y-123650615D01*
X104384057Y-123651480D01*
X104336368Y-123766590D01*
X104336083Y-123767528D01*
X104311595Y-123890502D01*
X104311499Y-123891477D01*
X104308428Y-123954000D01*
X104308428Y-126115928D01*
X104128000Y-126115928D01*
X104003518Y-126128188D01*
X103883820Y-126164498D01*
X103773506Y-126223463D01*
X103676815Y-126302815D01*
X103597463Y-126399506D01*
X103538498Y-126509820D01*
X103502188Y-126629518D01*
X103489928Y-126754000D01*
X103489928Y-126949000D01*
X102682161Y-126949000D01*
X102690812Y-126920482D01*
X102703072Y-126796000D01*
X102700000Y-126576750D01*
X102541250Y-126418000D01*
X101727000Y-126418000D01*
X101727000Y-126438000D01*
X101473000Y-126438000D01*
X101473000Y-126418000D01*
X101453000Y-126418000D01*
X101453000Y-126164000D01*
X101473000Y-126164000D01*
X101473000Y-125309750D01*
X101727000Y-125309750D01*
X101727000Y-126164000D01*
X102541250Y-126164000D01*
X102700000Y-126005250D01*
X102703072Y-125786000D01*
X102690812Y-125661518D01*
X102654502Y-125541820D01*
X102595537Y-125431506D01*
X102516185Y-125334815D01*
X102419494Y-125255463D01*
X102309180Y-125196498D01*
X102189482Y-125160188D01*
X102065000Y-125147928D01*
X101885750Y-125151000D01*
X101727000Y-125309750D01*
X101473000Y-125309750D01*
X101314250Y-125151000D01*
X101135000Y-125147928D01*
X101010518Y-125160188D01*
X100890820Y-125196498D01*
X100780506Y-125255463D01*
X100683815Y-125334815D01*
X100604463Y-125431506D01*
X100545498Y-125541820D01*
X100509188Y-125661518D01*
X100496928Y-125786000D01*
X100500000Y-126005250D01*
X100658748Y-126163998D01*
X100500000Y-126163998D01*
X100500000Y-126249198D01*
X96518000Y-122267199D01*
X96518000Y-115619293D01*
X100460312Y-115619293D01*
X100544201Y-115873647D01*
X100817058Y-116004714D01*
X101110241Y-116080030D01*
X101412486Y-116096703D01*
X101712175Y-116054090D01*
X101997792Y-115953829D01*
X102147799Y-115873647D01*
X102231688Y-115619293D01*
X101346000Y-114733605D01*
X100460312Y-115619293D01*
X96518000Y-115619293D01*
X96518000Y-115456801D01*
X97354315Y-114620486D01*
X99803297Y-114620486D01*
X99845910Y-114920175D01*
X99946171Y-115205792D01*
X100026353Y-115355799D01*
X100280707Y-115439688D01*
X101166395Y-114554000D01*
X101525605Y-114554000D01*
X102411293Y-115439688D01*
X102665647Y-115355799D01*
X102670414Y-115345874D01*
X118981731Y-115345874D01*
X119025993Y-115566916D01*
X119243089Y-115665301D01*
X119475208Y-115719442D01*
X119713429Y-115727258D01*
X119948598Y-115688450D01*
X120171677Y-115604509D01*
X120242007Y-115566916D01*
X120286269Y-115345874D01*
X119634000Y-114693605D01*
X118981731Y-115345874D01*
X102670414Y-115345874D01*
X102796714Y-115082942D01*
X102872030Y-114789759D01*
X102882860Y-114593429D01*
X118420742Y-114593429D01*
X118459550Y-114828598D01*
X118543491Y-115051677D01*
X118581084Y-115122007D01*
X118802126Y-115166269D01*
X119454395Y-114514000D01*
X119813605Y-114514000D01*
X120465874Y-115166269D01*
X120686916Y-115122007D01*
X120785301Y-114904911D01*
X120839442Y-114672792D01*
X120847258Y-114434571D01*
X120808450Y-114199402D01*
X120724509Y-113976323D01*
X120686916Y-113905993D01*
X120465874Y-113861731D01*
X119813605Y-114514000D01*
X119454395Y-114514000D01*
X118802126Y-113861731D01*
X118581084Y-113905993D01*
X118482699Y-114123089D01*
X118428558Y-114355208D01*
X118420742Y-114593429D01*
X102882860Y-114593429D01*
X102888703Y-114487514D01*
X102846090Y-114187825D01*
X102745829Y-113902208D01*
X102665647Y-113752201D01*
X102453178Y-113682126D01*
X118981731Y-113682126D01*
X119634000Y-114334395D01*
X120286269Y-113682126D01*
X120242007Y-113461084D01*
X120024911Y-113362699D01*
X119792792Y-113308558D01*
X119554571Y-113300742D01*
X119319402Y-113339550D01*
X119096323Y-113423491D01*
X119025993Y-113461084D01*
X118981731Y-113682126D01*
X102453178Y-113682126D01*
X102411293Y-113668312D01*
X101525605Y-114554000D01*
X101166395Y-114554000D01*
X100280707Y-113668312D01*
X100026353Y-113752201D01*
X99895286Y-114025058D01*
X99819970Y-114318241D01*
X99803297Y-114620486D01*
X97354315Y-114620486D01*
X98486094Y-113488707D01*
X100460312Y-113488707D01*
X101346000Y-114374395D01*
X102231688Y-113488707D01*
X102147799Y-113234353D01*
X101874942Y-113103286D01*
X101581759Y-113027970D01*
X101279514Y-113011297D01*
X100979825Y-113053910D01*
X100694208Y-113154171D01*
X100544201Y-113234353D01*
X100460312Y-113488707D01*
X98486094Y-113488707D01*
X100468817Y-111505985D01*
X100525018Y-111536025D01*
X100927467Y-111658107D01*
X101346000Y-111699329D01*
X101764533Y-111658107D01*
X102166982Y-111536025D01*
X102537881Y-111337776D01*
X102781510Y-111137835D01*
X103132044Y-110787301D01*
X106823001Y-110787301D01*
X106823000Y-112094321D01*
X106846657Y-112334515D01*
X106940148Y-112642714D01*
X107091969Y-112926751D01*
X107296286Y-113175714D01*
X107545248Y-113380031D01*
X107829285Y-113531852D01*
X108137484Y-113625343D01*
X108458000Y-113656911D01*
X108778515Y-113625343D01*
X109086714Y-113531852D01*
X109370751Y-113380031D01*
X109602255Y-113190042D01*
X109617463Y-113218494D01*
X109696815Y-113315185D01*
X109793506Y-113394537D01*
X109903820Y-113453502D01*
X110023518Y-113489812D01*
X110148000Y-113502072D01*
X110712250Y-113499000D01*
X110871000Y-113340250D01*
X110871000Y-112141000D01*
X111125000Y-112141000D01*
X111125000Y-113340250D01*
X111283750Y-113499000D01*
X111848000Y-113502072D01*
X111972482Y-113489812D01*
X112092180Y-113453502D01*
X112202494Y-113394537D01*
X112299185Y-113315185D01*
X112378537Y-113218494D01*
X112437502Y-113108180D01*
X112473812Y-112988482D01*
X112486072Y-112864000D01*
X112483000Y-112299750D01*
X112324250Y-112141000D01*
X111125000Y-112141000D01*
X110871000Y-112141000D01*
X110851000Y-112141000D01*
X110851000Y-111887000D01*
X110871000Y-111887000D01*
X110871000Y-111867000D01*
X111125000Y-111867000D01*
X111125000Y-111887000D01*
X112324250Y-111887000D01*
X112483000Y-111728250D01*
X112486072Y-111164000D01*
X112473812Y-111039518D01*
X112437502Y-110919820D01*
X112378537Y-110809506D01*
X112360314Y-110787301D01*
X117887956Y-110787301D01*
X118198490Y-111097835D01*
X118442119Y-111297776D01*
X118813017Y-111496025D01*
X119215466Y-111618107D01*
X119633999Y-111659329D01*
X120052533Y-111618107D01*
X120454981Y-111496025D01*
X120825881Y-111297776D01*
X121150977Y-111030977D01*
X121417776Y-110705881D01*
X121616025Y-110334981D01*
X121738107Y-109932533D01*
X121779329Y-109513999D01*
X121738107Y-109095466D01*
X121616025Y-108693017D01*
X121417776Y-108322119D01*
X121217835Y-108078490D01*
X120356138Y-107216793D01*
X120289278Y-107135324D01*
X119964182Y-106868524D01*
X119593283Y-106670275D01*
X119190834Y-106548193D01*
X118877183Y-106517301D01*
X118877173Y-106517301D01*
X118772301Y-106506972D01*
X118667429Y-106517301D01*
X102352571Y-106517301D01*
X102247699Y-106506972D01*
X102142827Y-106517301D01*
X102142817Y-106517301D01*
X101829166Y-106548193D01*
X101426717Y-106670275D01*
X101055818Y-106868524D01*
X100730722Y-107135324D01*
X100663862Y-107216793D01*
X99762165Y-108118490D01*
X99562224Y-108362119D01*
X99363975Y-108733018D01*
X99241893Y-109135467D01*
X99200671Y-109554000D01*
X99241893Y-109972533D01*
X99363975Y-110374982D01*
X99394015Y-110431183D01*
X95247003Y-114578196D01*
X95217999Y-114601999D01*
X95168971Y-114661740D01*
X95123026Y-114717724D01*
X95084522Y-114789759D01*
X95052454Y-114849754D01*
X95008997Y-114993015D01*
X94998000Y-115104668D01*
X94998000Y-115104678D01*
X94994324Y-115142000D01*
X94132000Y-115142000D01*
X94132000Y-90237625D01*
X103263701Y-90237625D01*
X103263701Y-90610375D01*
X103336421Y-90975964D01*
X103479067Y-91320340D01*
X103505000Y-91359152D01*
X103505000Y-95885000D01*
X103507440Y-95909776D01*
X103514667Y-95933601D01*
X103526403Y-95955557D01*
X103542197Y-95974803D01*
X111416197Y-103848803D01*
X111435443Y-103864597D01*
X111457399Y-103876333D01*
X111481224Y-103883560D01*
X111506000Y-103886000D01*
X122428000Y-103886000D01*
X122452776Y-103883560D01*
X122476601Y-103876333D01*
X122498557Y-103864597D01*
X122517803Y-103848803D01*
X130391803Y-95974803D01*
X130407597Y-95955557D01*
X130419333Y-95933601D01*
X130426560Y-95909776D01*
X130429000Y-95885000D01*
X130429000Y-94996000D01*
X139954000Y-94996000D01*
X139954000Y-105918000D01*
X139956440Y-105942776D01*
X139963667Y-105966601D01*
X139975403Y-105988557D01*
X139991197Y-106007803D01*
X147865197Y-113881803D01*
X147884443Y-113897597D01*
X147906399Y-113909333D01*
X147930224Y-113916560D01*
X147955000Y-113919000D01*
X152486619Y-113919000D01*
X152737049Y-114044107D01*
X153096596Y-114142437D01*
X153468419Y-114168732D01*
X153838226Y-114121983D01*
X154191808Y-114003987D01*
X154350808Y-113919000D01*
X158877000Y-113919000D01*
X158901776Y-113916560D01*
X158925601Y-113909333D01*
X158947557Y-113897597D01*
X158966803Y-113881803D01*
X166840803Y-106007803D01*
X166856597Y-105988557D01*
X166868333Y-105966601D01*
X166875560Y-105942776D01*
X166878000Y-105918000D01*
X166878000Y-94996000D01*
X166875560Y-94971224D01*
X166868333Y-94947399D01*
X166856597Y-94925443D01*
X166840803Y-94906197D01*
X165565875Y-93631269D01*
X171276336Y-93631269D01*
X171335797Y-93865037D01*
X171574242Y-93975934D01*
X171829740Y-94038183D01*
X172092473Y-94049390D01*
X172352344Y-94009125D01*
X172599366Y-93918935D01*
X172700203Y-93865037D01*
X172759664Y-93631269D01*
X172018000Y-92889605D01*
X171276336Y-93631269D01*
X165565875Y-93631269D01*
X164719079Y-92784473D01*
X170678610Y-92784473D01*
X170718875Y-93044344D01*
X170809065Y-93291366D01*
X170862963Y-93392203D01*
X171096731Y-93451664D01*
X171838395Y-92710000D01*
X172197605Y-92710000D01*
X172939269Y-93451664D01*
X173173037Y-93392203D01*
X173283934Y-93153758D01*
X173346183Y-92898260D01*
X173357390Y-92635527D01*
X173317125Y-92375656D01*
X173226935Y-92128634D01*
X173173037Y-92027797D01*
X172939269Y-91968336D01*
X172197605Y-92710000D01*
X171838395Y-92710000D01*
X171096731Y-91968336D01*
X170862963Y-92027797D01*
X170752066Y-92266242D01*
X170689817Y-92521740D01*
X170678610Y-92784473D01*
X164719079Y-92784473D01*
X163723337Y-91788731D01*
X171276336Y-91788731D01*
X172018000Y-92530395D01*
X172759664Y-91788731D01*
X172700203Y-91554963D01*
X172461758Y-91444066D01*
X172206260Y-91381817D01*
X171943527Y-91370610D01*
X171683656Y-91410875D01*
X171436634Y-91501065D01*
X171335797Y-91554963D01*
X171276336Y-91788731D01*
X163723337Y-91788731D01*
X158966803Y-87032197D01*
X158947557Y-87016403D01*
X158925601Y-87004667D01*
X158901776Y-86997440D01*
X158877000Y-86995000D01*
X154318231Y-86995000D01*
X154312340Y-86991064D01*
X153967964Y-86848418D01*
X153602375Y-86775698D01*
X153229625Y-86775698D01*
X152864036Y-86848418D01*
X152519660Y-86991064D01*
X152513769Y-86995000D01*
X147955000Y-86995000D01*
X147930224Y-86997440D01*
X147906399Y-87004667D01*
X147884443Y-87016403D01*
X147865197Y-87032197D01*
X139991197Y-94906197D01*
X139975403Y-94925443D01*
X139963667Y-94947399D01*
X139956440Y-94971224D01*
X139954000Y-94996000D01*
X130429000Y-94996000D01*
X130429000Y-91326231D01*
X130432936Y-91320340D01*
X130575582Y-90975964D01*
X130648302Y-90610375D01*
X130648302Y-90237625D01*
X130575582Y-89872036D01*
X130432936Y-89527660D01*
X130429000Y-89521769D01*
X130429000Y-84963000D01*
X130426560Y-84938224D01*
X130419333Y-84914399D01*
X130407597Y-84892443D01*
X130391803Y-84873197D01*
X130090373Y-84571767D01*
X136988988Y-84571767D01*
X137001248Y-84696249D01*
X137037558Y-84815947D01*
X137096523Y-84926261D01*
X137175875Y-85022952D01*
X137989048Y-85836125D01*
X138085739Y-85915477D01*
X138196053Y-85974442D01*
X138315751Y-86010752D01*
X138440233Y-86023012D01*
X138564715Y-86010752D01*
X138684413Y-85974442D01*
X138794727Y-85915477D01*
X138891418Y-85836125D01*
X139704591Y-85022952D01*
X139783943Y-84926261D01*
X139842908Y-84815947D01*
X139879218Y-84696249D01*
X139891478Y-84571767D01*
X139879218Y-84447285D01*
X139842908Y-84327587D01*
X139783943Y-84217273D01*
X139704591Y-84120582D01*
X138891418Y-83307409D01*
X138794727Y-83228057D01*
X138684413Y-83169092D01*
X138564715Y-83132782D01*
X138440233Y-83120522D01*
X138315751Y-83132782D01*
X138196053Y-83169092D01*
X138085739Y-83228057D01*
X137989048Y-83307409D01*
X137175875Y-84120582D01*
X137096523Y-84217273D01*
X137037558Y-84327587D01*
X137001248Y-84447285D01*
X136988988Y-84571767D01*
X130090373Y-84571767D01*
X126435664Y-80917058D01*
X140765767Y-80917058D01*
X140765767Y-81155408D01*
X140812266Y-81389177D01*
X140903479Y-81609383D01*
X141035898Y-81807563D01*
X141204437Y-81976102D01*
X141402617Y-82108521D01*
X141622823Y-82199734D01*
X141856592Y-82246233D01*
X142094942Y-82246233D01*
X142328711Y-82199734D01*
X142548917Y-82108521D01*
X142747097Y-81976102D01*
X142915636Y-81807563D01*
X143048055Y-81609383D01*
X143139268Y-81389177D01*
X143185767Y-81155408D01*
X143185767Y-80917058D01*
X143139268Y-80683289D01*
X143048055Y-80463083D01*
X142915636Y-80264903D01*
X142747097Y-80096364D01*
X142734869Y-80088193D01*
X156567000Y-80088193D01*
X156567000Y-80439807D01*
X156635596Y-80784665D01*
X156770153Y-81109515D01*
X156965500Y-81401871D01*
X157214129Y-81650500D01*
X157506485Y-81845847D01*
X157831335Y-81980404D01*
X158176193Y-82049000D01*
X158527807Y-82049000D01*
X158872665Y-81980404D01*
X159197515Y-81845847D01*
X159489871Y-81650500D01*
X159738500Y-81401871D01*
X159933847Y-81109515D01*
X160068404Y-80784665D01*
X160137000Y-80439807D01*
X160137000Y-80088193D01*
X160068404Y-79743335D01*
X159933847Y-79418485D01*
X159738500Y-79126129D01*
X159489871Y-78877500D01*
X159197515Y-78682153D01*
X158872665Y-78547596D01*
X158527807Y-78479000D01*
X158176193Y-78479000D01*
X157831335Y-78547596D01*
X157506485Y-78682153D01*
X157214129Y-78877500D01*
X156965500Y-79126129D01*
X156770153Y-79418485D01*
X156635596Y-79743335D01*
X156567000Y-80088193D01*
X142734869Y-80088193D01*
X142548917Y-79963945D01*
X142328711Y-79872732D01*
X142094942Y-79826233D01*
X141856592Y-79826233D01*
X141622823Y-79872732D01*
X141402617Y-79963945D01*
X141204437Y-80096364D01*
X141035898Y-80264903D01*
X140903479Y-80463083D01*
X140812266Y-80683289D01*
X140765767Y-80917058D01*
X126435664Y-80917058D01*
X122517803Y-76999197D01*
X122498557Y-76983403D01*
X122476601Y-76971667D01*
X122452776Y-76964440D01*
X122428000Y-76962000D01*
X111506000Y-76962000D01*
X111481224Y-76964440D01*
X111457399Y-76971667D01*
X111435443Y-76983403D01*
X111416197Y-76999197D01*
X103542197Y-84873197D01*
X103526403Y-84892443D01*
X103514667Y-84914399D01*
X103507440Y-84938224D01*
X103505000Y-84963000D01*
X103505000Y-89488848D01*
X103479067Y-89527660D01*
X103336421Y-89872036D01*
X103263701Y-90237625D01*
X94132000Y-90237625D01*
X94132000Y-75586777D01*
X95637000Y-75586777D01*
X95637000Y-76145223D01*
X95745948Y-76692939D01*
X95959656Y-77208876D01*
X96269912Y-77673207D01*
X96664793Y-78068088D01*
X97129124Y-78378344D01*
X97645061Y-78592052D01*
X98192777Y-78701000D01*
X98751223Y-78701000D01*
X99298939Y-78592052D01*
X99814876Y-78378344D01*
X100279207Y-78068088D01*
X100674088Y-77673207D01*
X100984344Y-77208876D01*
X101198052Y-76692939D01*
X101307000Y-76145223D01*
X101307000Y-75586777D01*
X101198052Y-75039061D01*
X100984344Y-74523124D01*
X100674088Y-74058793D01*
X100279207Y-73663912D01*
X99814876Y-73353656D01*
X99298939Y-73139948D01*
X98751223Y-73031000D01*
X98192777Y-73031000D01*
X97645061Y-73139948D01*
X97129124Y-73353656D01*
X96664793Y-73663912D01*
X96269912Y-74058793D01*
X95959656Y-74523124D01*
X95745948Y-75039061D01*
X95637000Y-75586777D01*
X94132000Y-75586777D01*
X94132000Y-71526000D01*
X199340000Y-71526000D01*
X199340001Y-137262000D01*
G04 #@! TA.AperFunction,Conductor*
D39*
G36*
X199340001Y-137262000D02*
G01*
X94132000Y-137262000D01*
X94132000Y-132640777D01*
X95635000Y-132640777D01*
X95635000Y-133199223D01*
X95743948Y-133746939D01*
X95957656Y-134262876D01*
X96267912Y-134727207D01*
X96662793Y-135122088D01*
X97127124Y-135432344D01*
X97643061Y-135646052D01*
X98190777Y-135755000D01*
X98749223Y-135755000D01*
X99296939Y-135646052D01*
X99812876Y-135432344D01*
X100277207Y-135122088D01*
X100672088Y-134727207D01*
X100982344Y-134262876D01*
X101196052Y-133746939D01*
X101305000Y-133199223D01*
X101305000Y-132640777D01*
X101196052Y-132093061D01*
X100982344Y-131577124D01*
X100672088Y-131112793D01*
X100277207Y-130717912D01*
X99812876Y-130407656D01*
X99296939Y-130193948D01*
X98749223Y-130085000D01*
X98190777Y-130085000D01*
X97643061Y-130193948D01*
X97127124Y-130407656D01*
X96662793Y-130717912D01*
X96267912Y-131112793D01*
X95957656Y-131577124D01*
X95743948Y-132093061D01*
X95635000Y-132640777D01*
X94132000Y-132640777D01*
X94132000Y-115142000D01*
X94994324Y-115142000D01*
X94998000Y-115179322D01*
X94998001Y-122544668D01*
X94994324Y-122582000D01*
X95008998Y-122730985D01*
X95052454Y-122874246D01*
X95123026Y-123006276D01*
X95194201Y-123093002D01*
X95218000Y-123122001D01*
X95246998Y-123145799D01*
X100321201Y-128220003D01*
X100344999Y-128249001D01*
X100373997Y-128272799D01*
X100460723Y-128343974D01*
X100505678Y-128368003D01*
X100520555Y-128375955D01*
X100545498Y-128458180D01*
X100604463Y-128568494D01*
X100683815Y-128665185D01*
X100780506Y-128744537D01*
X100890820Y-128803502D01*
X101010518Y-128839812D01*
X101135000Y-128852072D01*
X102065000Y-128852072D01*
X102189482Y-128839812D01*
X102309180Y-128803502D01*
X102419494Y-128744537D01*
X102516185Y-128665185D01*
X102595537Y-128568494D01*
X102648718Y-128469000D01*
X103489928Y-128469000D01*
X103489928Y-128484000D01*
X103502188Y-128608482D01*
X103538498Y-128728180D01*
X103597463Y-128838494D01*
X103676815Y-128935185D01*
X103773506Y-129014537D01*
X103883820Y-129073502D01*
X104003518Y-129109812D01*
X104128000Y-129122072D01*
X104708000Y-129122072D01*
X104832482Y-129109812D01*
X104952180Y-129073502D01*
X105062494Y-129014537D01*
X105117980Y-128969001D01*
X105130094Y-128981115D01*
X105130852Y-128981736D01*
X105234615Y-129050981D01*
X105235480Y-129051443D01*
X105350590Y-129099132D01*
X105351528Y-129099417D01*
X105474502Y-129123905D01*
X105475477Y-129124001D01*
X105538000Y-129127072D01*
X106283000Y-129127072D01*
X106283001Y-132635239D01*
X106277509Y-132691000D01*
X106299423Y-132913498D01*
X106364324Y-133127446D01*
X106364325Y-133127447D01*
X106469717Y-133324623D01*
X106611552Y-133497449D01*
X106654860Y-133532991D01*
X109013009Y-135891141D01*
X109048551Y-135934449D01*
X109221377Y-136076284D01*
X109418553Y-136181676D01*
X109632501Y-136246577D01*
X109799248Y-136263000D01*
X109799257Y-136263000D01*
X109854999Y-136268490D01*
X109910741Y-136263000D01*
X151836249Y-136263000D01*
X151892000Y-136268491D01*
X151947751Y-136263000D01*
X151947752Y-136263000D01*
X152114499Y-136246577D01*
X152328447Y-136181676D01*
X152525623Y-136076284D01*
X152698449Y-135934449D01*
X152733996Y-135891135D01*
X155982354Y-132642777D01*
X192165000Y-132642777D01*
X192165000Y-133201223D01*
X192273948Y-133748939D01*
X192487656Y-134264876D01*
X192797912Y-134729207D01*
X193192793Y-135124088D01*
X193657124Y-135434344D01*
X194173061Y-135648052D01*
X194720777Y-135757000D01*
X195279223Y-135757000D01*
X195826939Y-135648052D01*
X196342876Y-135434344D01*
X196807207Y-135124088D01*
X197202088Y-134729207D01*
X197512344Y-134264876D01*
X197726052Y-133748939D01*
X197835000Y-133201223D01*
X197835000Y-132642777D01*
X197726052Y-132095061D01*
X197512344Y-131579124D01*
X197202088Y-131114793D01*
X196807207Y-130719912D01*
X196342876Y-130409656D01*
X195826939Y-130195948D01*
X195279223Y-130087000D01*
X194720777Y-130087000D01*
X194173061Y-130195948D01*
X193657124Y-130409656D01*
X193192793Y-130719912D01*
X192797912Y-131114793D01*
X192487656Y-131579124D01*
X192273948Y-132095061D01*
X192165000Y-132642777D01*
X155982354Y-132642777D01*
X157720091Y-130905040D01*
X168788091Y-130905040D01*
X168882930Y-131169881D01*
X169027615Y-131411131D01*
X169216586Y-131619519D01*
X169442580Y-131787037D01*
X169696913Y-131907246D01*
X169830961Y-131947904D01*
X170053000Y-131825915D01*
X170053000Y-130683000D01*
X170307000Y-130683000D01*
X170307000Y-131825915D01*
X170529039Y-131947904D01*
X170663087Y-131907246D01*
X170917420Y-131787037D01*
X171141020Y-131621293D01*
X183264312Y-131621293D01*
X183348201Y-131875647D01*
X183621058Y-132006714D01*
X183914241Y-132082030D01*
X184216486Y-132098703D01*
X184516175Y-132056090D01*
X184801792Y-131955829D01*
X184951799Y-131875647D01*
X185035688Y-131621293D01*
X184150000Y-130735605D01*
X183264312Y-131621293D01*
X171141020Y-131621293D01*
X171143414Y-131619519D01*
X171332385Y-131411131D01*
X171477070Y-131169881D01*
X171571909Y-130905040D01*
X171450624Y-130683000D01*
X170307000Y-130683000D01*
X170053000Y-130683000D01*
X168909376Y-130683000D01*
X168788091Y-130905040D01*
X157720091Y-130905040D01*
X158002645Y-130622486D01*
X182607297Y-130622486D01*
X182649910Y-130922175D01*
X182750171Y-131207792D01*
X182830353Y-131357799D01*
X183084707Y-131441688D01*
X183970395Y-130556000D01*
X184329605Y-130556000D01*
X185215293Y-131441688D01*
X185469647Y-131357799D01*
X185600714Y-131084942D01*
X185676030Y-130791759D01*
X185692703Y-130489514D01*
X185650090Y-130189825D01*
X185549829Y-129904208D01*
X185469647Y-129754201D01*
X185215293Y-129670312D01*
X184329605Y-130556000D01*
X183970395Y-130556000D01*
X183084707Y-129670312D01*
X182830353Y-129754201D01*
X182699286Y-130027058D01*
X182623970Y-130320241D01*
X182607297Y-130622486D01*
X158002645Y-130622486D01*
X158418171Y-130206960D01*
X168788091Y-130206960D01*
X168909376Y-130429000D01*
X170053000Y-130429000D01*
X170053000Y-129286085D01*
X170307000Y-129286085D01*
X170307000Y-130429000D01*
X171450624Y-130429000D01*
X171571909Y-130206960D01*
X171477070Y-129942119D01*
X171332385Y-129700869D01*
X171143414Y-129492481D01*
X171141021Y-129490707D01*
X183264312Y-129490707D01*
X184150000Y-130376395D01*
X185035688Y-129490707D01*
X184951799Y-129236353D01*
X184678942Y-129105286D01*
X184385759Y-129029970D01*
X184083514Y-129013297D01*
X183783825Y-129055910D01*
X183498208Y-129156171D01*
X183348201Y-129236353D01*
X183264312Y-129490707D01*
X171141021Y-129490707D01*
X170917420Y-129324963D01*
X170663087Y-129204754D01*
X170529039Y-129164096D01*
X170307000Y-129286085D01*
X170053000Y-129286085D01*
X169830961Y-129164096D01*
X169696913Y-129204754D01*
X169442580Y-129324963D01*
X169216586Y-129492481D01*
X169027615Y-129700869D01*
X168882930Y-129942119D01*
X168788091Y-130206960D01*
X158418171Y-130206960D01*
X164049131Y-124576000D01*
X173467928Y-124576000D01*
X173467928Y-126376000D01*
X173480188Y-126500482D01*
X173516498Y-126620180D01*
X173575463Y-126730494D01*
X173654815Y-126827185D01*
X173751506Y-126906537D01*
X173861820Y-126965502D01*
X173981518Y-127001812D01*
X174106000Y-127014072D01*
X175906000Y-127014072D01*
X176030482Y-127001812D01*
X176150180Y-126965502D01*
X176260494Y-126906537D01*
X176357185Y-126827185D01*
X176436537Y-126730494D01*
X176495502Y-126620180D01*
X176501056Y-126601873D01*
X176567495Y-126668312D01*
X176818905Y-126836299D01*
X177098257Y-126952011D01*
X177394816Y-127011000D01*
X177697184Y-127011000D01*
X177993743Y-126952011D01*
X178273095Y-126836299D01*
X178524505Y-126668312D01*
X178738312Y-126454505D01*
X178906299Y-126203095D01*
X179022011Y-125923743D01*
X179081000Y-125627184D01*
X179081000Y-125324816D01*
X179022011Y-125028257D01*
X178906299Y-124748905D01*
X178738312Y-124497495D01*
X178524505Y-124283688D01*
X178273095Y-124115701D01*
X177993743Y-123999989D01*
X177697184Y-123941000D01*
X177394816Y-123941000D01*
X177098257Y-123999989D01*
X176818905Y-124115701D01*
X176567495Y-124283688D01*
X176501056Y-124350127D01*
X176495502Y-124331820D01*
X176436537Y-124221506D01*
X176357185Y-124124815D01*
X176260494Y-124045463D01*
X176150180Y-123986498D01*
X176030482Y-123950188D01*
X175906000Y-123937928D01*
X174106000Y-123937928D01*
X173981518Y-123950188D01*
X173861820Y-123986498D01*
X173751506Y-124045463D01*
X173654815Y-124124815D01*
X173575463Y-124221506D01*
X173516498Y-124331820D01*
X173480188Y-124451518D01*
X173467928Y-124576000D01*
X164049131Y-124576000D01*
X165830466Y-122794665D01*
X168745000Y-122794665D01*
X168745000Y-123077335D01*
X168800147Y-123354574D01*
X168908320Y-123615727D01*
X169065363Y-123850759D01*
X169265241Y-124050637D01*
X169500273Y-124207680D01*
X169761426Y-124315853D01*
X170038665Y-124371000D01*
X170321335Y-124371000D01*
X170598574Y-124315853D01*
X170859727Y-124207680D01*
X171094759Y-124050637D01*
X171294637Y-123850759D01*
X171451680Y-123615727D01*
X171559853Y-123354574D01*
X171615000Y-123077335D01*
X171615000Y-122794665D01*
X171559853Y-122517426D01*
X171451680Y-122256273D01*
X171294637Y-122021241D01*
X171094759Y-121821363D01*
X170859727Y-121664320D01*
X170598574Y-121556147D01*
X170321335Y-121501000D01*
X170038665Y-121501000D01*
X169761426Y-121556147D01*
X169500273Y-121664320D01*
X169265241Y-121821363D01*
X169065363Y-122021241D01*
X168908320Y-122256273D01*
X168800147Y-122517426D01*
X168745000Y-122794665D01*
X165830466Y-122794665D01*
X167887131Y-120738000D01*
X182661928Y-120738000D01*
X182674188Y-120862482D01*
X182710498Y-120982180D01*
X182769463Y-121092494D01*
X182848815Y-121189185D01*
X182945506Y-121268537D01*
X183055820Y-121327502D01*
X183175518Y-121363812D01*
X183300000Y-121376072D01*
X183864250Y-121373000D01*
X184023000Y-121214250D01*
X184023000Y-120015000D01*
X184277000Y-120015000D01*
X184277000Y-121214250D01*
X184435750Y-121373000D01*
X185000000Y-121376072D01*
X185124482Y-121363812D01*
X185244180Y-121327502D01*
X185354494Y-121268537D01*
X185451185Y-121189185D01*
X185530537Y-121092494D01*
X185589502Y-120982180D01*
X185625812Y-120862482D01*
X185638072Y-120738000D01*
X185635000Y-120173750D01*
X185476250Y-120015000D01*
X184277000Y-120015000D01*
X184023000Y-120015000D01*
X182823750Y-120015000D01*
X182665000Y-120173750D01*
X182661928Y-120738000D01*
X167887131Y-120738000D01*
X170142132Y-118483000D01*
X182991272Y-118483000D01*
X182945506Y-118507463D01*
X182848815Y-118586815D01*
X182769463Y-118683506D01*
X182710498Y-118793820D01*
X182674188Y-118913518D01*
X182661928Y-119038000D01*
X182665000Y-119602250D01*
X182823750Y-119761000D01*
X184023000Y-119761000D01*
X184023000Y-119741000D01*
X184277000Y-119741000D01*
X184277000Y-119761000D01*
X185476250Y-119761000D01*
X185635000Y-119602250D01*
X185636983Y-119238033D01*
X186317000Y-119918051D01*
X186317001Y-121783867D01*
X184081569Y-124019300D01*
X183998648Y-124019300D01*
X183701761Y-124078355D01*
X183422100Y-124194195D01*
X183170411Y-124362368D01*
X182956368Y-124576411D01*
X182788195Y-124828100D01*
X182672355Y-125107761D01*
X182613300Y-125404648D01*
X182613300Y-125707352D01*
X182672355Y-126004239D01*
X182788195Y-126283900D01*
X182956368Y-126535589D01*
X183170411Y-126749632D01*
X183422100Y-126917805D01*
X183701761Y-127033645D01*
X183998648Y-127092700D01*
X184301352Y-127092700D01*
X184598239Y-127033645D01*
X184877900Y-126917805D01*
X185129589Y-126749632D01*
X185343632Y-126535589D01*
X185511805Y-126283900D01*
X185627645Y-126004239D01*
X185686700Y-125707352D01*
X185686700Y-125624431D01*
X188215141Y-123095991D01*
X188258449Y-123060449D01*
X188400284Y-122887623D01*
X188505676Y-122690447D01*
X188558162Y-122517426D01*
X188570577Y-122476500D01*
X188574860Y-122433015D01*
X188587000Y-122309752D01*
X188587000Y-122309745D01*
X188592490Y-122254001D01*
X188587000Y-122198257D01*
X188587000Y-119503670D01*
X188592491Y-119447919D01*
X188570577Y-119225420D01*
X188505676Y-119011472D01*
X188485614Y-118973939D01*
X188400284Y-118814296D01*
X188258449Y-118641470D01*
X188215141Y-118605928D01*
X186194077Y-116584865D01*
X186158530Y-116541551D01*
X185985704Y-116399716D01*
X185788528Y-116294324D01*
X185574580Y-116229423D01*
X185407833Y-116213000D01*
X185407832Y-116213000D01*
X185352081Y-116207509D01*
X185296330Y-116213000D01*
X185115107Y-116213000D01*
X185096632Y-116194525D01*
X184922240Y-116078000D01*
X185096632Y-115961475D01*
X185303475Y-115754632D01*
X185465990Y-115511411D01*
X185577932Y-115241158D01*
X185635000Y-114954260D01*
X185635000Y-114661740D01*
X185577932Y-114374842D01*
X185465990Y-114104589D01*
X185303475Y-113861368D01*
X185096632Y-113654525D01*
X184853411Y-113492010D01*
X184583158Y-113380068D01*
X184296260Y-113323000D01*
X184003740Y-113323000D01*
X183716842Y-113380068D01*
X183446589Y-113492010D01*
X183203368Y-113654525D01*
X182996525Y-113861368D01*
X182834010Y-114104589D01*
X182722068Y-114374842D01*
X182665000Y-114661740D01*
X182665000Y-114954260D01*
X182722068Y-115241158D01*
X182834010Y-115511411D01*
X182996525Y-115754632D01*
X183203368Y-115961475D01*
X183377760Y-116078000D01*
X183203368Y-116194525D01*
X183184893Y-116213000D01*
X169727751Y-116213000D01*
X169671999Y-116207509D01*
X169449500Y-116229423D01*
X169399705Y-116244529D01*
X169235553Y-116294324D01*
X169038377Y-116399716D01*
X168865551Y-116541551D01*
X168830009Y-116584859D01*
X151421869Y-133993000D01*
X110325132Y-133993000D01*
X108553000Y-132220869D01*
X108553000Y-130468000D01*
X110525928Y-130468000D01*
X110525928Y-132168000D01*
X110538188Y-132292482D01*
X110574498Y-132412180D01*
X110633463Y-132522494D01*
X110712815Y-132619185D01*
X110809506Y-132698537D01*
X110919820Y-132757502D01*
X111039518Y-132793812D01*
X111164000Y-132806072D01*
X112864000Y-132806072D01*
X112988482Y-132793812D01*
X113108180Y-132757502D01*
X113218494Y-132698537D01*
X113315185Y-132619185D01*
X113394537Y-132522494D01*
X113453502Y-132412180D01*
X113475513Y-132339620D01*
X113607368Y-132471475D01*
X113850589Y-132633990D01*
X114120842Y-132745932D01*
X114407740Y-132803000D01*
X114700260Y-132803000D01*
X114987158Y-132745932D01*
X115257411Y-132633990D01*
X115500632Y-132471475D01*
X115707475Y-132264632D01*
X115824000Y-132090240D01*
X115940525Y-132264632D01*
X116147368Y-132471475D01*
X116390589Y-132633990D01*
X116660842Y-132745932D01*
X116947740Y-132803000D01*
X117240260Y-132803000D01*
X117527158Y-132745932D01*
X117797411Y-132633990D01*
X118040632Y-132471475D01*
X118247475Y-132264632D01*
X118364000Y-132090240D01*
X118480525Y-132264632D01*
X118687368Y-132471475D01*
X118930589Y-132633990D01*
X119200842Y-132745932D01*
X119487740Y-132803000D01*
X119780260Y-132803000D01*
X120067158Y-132745932D01*
X120337411Y-132633990D01*
X120580632Y-132471475D01*
X120787475Y-132264632D01*
X120949990Y-132021411D01*
X121061932Y-131751158D01*
X121119000Y-131464260D01*
X121119000Y-131171740D01*
X121061932Y-130884842D01*
X120949990Y-130614589D01*
X120787475Y-130371368D01*
X120580632Y-130164525D01*
X120394000Y-130039822D01*
X120394000Y-127838200D01*
X128562128Y-127838200D01*
X128562128Y-129209800D01*
X128574388Y-129334282D01*
X128610698Y-129453980D01*
X128669663Y-129564294D01*
X128749015Y-129660985D01*
X128845706Y-129740337D01*
X128956020Y-129799302D01*
X129075718Y-129835612D01*
X129200200Y-129847872D01*
X130571800Y-129847872D01*
X130696282Y-129835612D01*
X130815980Y-129799302D01*
X130926294Y-129740337D01*
X131022985Y-129660985D01*
X131102337Y-129564294D01*
X131161302Y-129453980D01*
X131167022Y-129435121D01*
X140838485Y-129435121D01*
X140896221Y-129667442D01*
X141132242Y-129776919D01*
X141385086Y-129838247D01*
X141645036Y-129849069D01*
X141902103Y-129808970D01*
X142146407Y-129719490D01*
X142243779Y-129667442D01*
X142301515Y-129435121D01*
X141570000Y-128703605D01*
X140838485Y-129435121D01*
X131167022Y-129435121D01*
X131197612Y-129334282D01*
X131209872Y-129209800D01*
X131209872Y-128599036D01*
X140244931Y-128599036D01*
X140285030Y-128856103D01*
X140374510Y-129100407D01*
X140426558Y-129197779D01*
X140658879Y-129255515D01*
X141390395Y-128524000D01*
X141749605Y-128524000D01*
X142481121Y-129255515D01*
X142713442Y-129197779D01*
X142822919Y-128961758D01*
X142884247Y-128708914D01*
X142895069Y-128448964D01*
X142854970Y-128191897D01*
X142765490Y-127947593D01*
X142713442Y-127850221D01*
X142481121Y-127792485D01*
X141749605Y-128524000D01*
X141390395Y-128524000D01*
X140658879Y-127792485D01*
X140426558Y-127850221D01*
X140317081Y-128086242D01*
X140255753Y-128339086D01*
X140244931Y-128599036D01*
X131209872Y-128599036D01*
X131209872Y-127838200D01*
X131197612Y-127713718D01*
X131167023Y-127612879D01*
X140838485Y-127612879D01*
X141570000Y-128344395D01*
X142301515Y-127612879D01*
X142243779Y-127380558D01*
X142007758Y-127271081D01*
X141754914Y-127209753D01*
X141494964Y-127198931D01*
X141237897Y-127239030D01*
X140993593Y-127328510D01*
X140896221Y-127380558D01*
X140838485Y-127612879D01*
X131167023Y-127612879D01*
X131161302Y-127594020D01*
X131102337Y-127483706D01*
X131022985Y-127387015D01*
X130926294Y-127307663D01*
X130815980Y-127248698D01*
X130696282Y-127212388D01*
X130571800Y-127200128D01*
X129200200Y-127200128D01*
X129075718Y-127212388D01*
X128956020Y-127248698D01*
X128845706Y-127307663D01*
X128749015Y-127387015D01*
X128669663Y-127483706D01*
X128610698Y-127594020D01*
X128574388Y-127713718D01*
X128562128Y-127838200D01*
X120394000Y-127838200D01*
X120394000Y-126783323D01*
X120397676Y-126746000D01*
X120394000Y-126708677D01*
X120394000Y-126708667D01*
X120383003Y-126597014D01*
X120339546Y-126453753D01*
X120320435Y-126418000D01*
X120268974Y-126321723D01*
X120197799Y-126234997D01*
X120174001Y-126205999D01*
X120145004Y-126182202D01*
X117812863Y-123850061D01*
X118853000Y-123850061D01*
X118853000Y-124053939D01*
X118892774Y-124253898D01*
X118970795Y-124442256D01*
X119084063Y-124611774D01*
X119228226Y-124755937D01*
X119397744Y-124869205D01*
X119586102Y-124947226D01*
X119786061Y-124987000D01*
X119989939Y-124987000D01*
X120189898Y-124947226D01*
X120378256Y-124869205D01*
X120396524Y-124856999D01*
X128657491Y-124856999D01*
X128613000Y-125080665D01*
X128613000Y-125363335D01*
X128668147Y-125640574D01*
X128776320Y-125901727D01*
X128933363Y-126136759D01*
X129133241Y-126336637D01*
X129368273Y-126493680D01*
X129629426Y-126601853D01*
X129906665Y-126657000D01*
X130189335Y-126657000D01*
X130466574Y-126601853D01*
X130727727Y-126493680D01*
X130962759Y-126336637D01*
X131162637Y-126136759D01*
X131319680Y-125901727D01*
X131427853Y-125640574D01*
X131483000Y-125363335D01*
X131483000Y-125080665D01*
X131438509Y-124856999D01*
X138768198Y-124856999D01*
X138809312Y-124898113D01*
X138773000Y-125080665D01*
X138773000Y-125363335D01*
X138828147Y-125640574D01*
X138936320Y-125901727D01*
X139093363Y-126136759D01*
X139293241Y-126336637D01*
X139528273Y-126493680D01*
X139789426Y-126601853D01*
X140066665Y-126657000D01*
X140349335Y-126657000D01*
X140626574Y-126601853D01*
X140887727Y-126493680D01*
X141122759Y-126336637D01*
X141322637Y-126136759D01*
X141479680Y-125901727D01*
X141587853Y-125640574D01*
X141643000Y-125363335D01*
X141643000Y-125080665D01*
X141587853Y-124803426D01*
X141479680Y-124542273D01*
X141322637Y-124307241D01*
X141122759Y-124107363D01*
X140887727Y-123950320D01*
X140626574Y-123842147D01*
X140349335Y-123787000D01*
X140066665Y-123787000D01*
X139884113Y-123823312D01*
X139646803Y-123586001D01*
X139623000Y-123556998D01*
X139507275Y-123462025D01*
X139375246Y-123391453D01*
X139231985Y-123347996D01*
X139120332Y-123336999D01*
X139120321Y-123336999D01*
X139082999Y-123333323D01*
X139045677Y-123336999D01*
X130683501Y-123336999D01*
X130727727Y-123318680D01*
X130962759Y-123161637D01*
X131162637Y-122961759D01*
X131319680Y-122726727D01*
X131427853Y-122465574D01*
X131483000Y-122188335D01*
X131483000Y-121905665D01*
X138773000Y-121905665D01*
X138773000Y-122188335D01*
X138828147Y-122465574D01*
X138936320Y-122726727D01*
X139093363Y-122961759D01*
X139293241Y-123161637D01*
X139528273Y-123318680D01*
X139789426Y-123426853D01*
X140066665Y-123482000D01*
X140349335Y-123482000D01*
X140626574Y-123426853D01*
X140887727Y-123318680D01*
X141092284Y-123182000D01*
X160218249Y-123182000D01*
X160274000Y-123187491D01*
X160329751Y-123182000D01*
X160329752Y-123182000D01*
X160496499Y-123165577D01*
X160710447Y-123100676D01*
X160907623Y-122995284D01*
X161080449Y-122853449D01*
X161115996Y-122810135D01*
X172936132Y-110990000D01*
X174625000Y-110990000D01*
X174625000Y-112014000D01*
X174637201Y-112137882D01*
X174673336Y-112257004D01*
X174732017Y-112366787D01*
X174810987Y-112463013D01*
X174907213Y-112541983D01*
X175016996Y-112600664D01*
X175136118Y-112636799D01*
X175260000Y-112649000D01*
X189738000Y-112649000D01*
X189861882Y-112636799D01*
X189981004Y-112600664D01*
X190090787Y-112541983D01*
X190187013Y-112463013D01*
X190265983Y-112366787D01*
X190324664Y-112257004D01*
X190360799Y-112137882D01*
X190373000Y-112014000D01*
X190373000Y-85935636D01*
X190417502Y-85852380D01*
X190453812Y-85732682D01*
X190466072Y-85608200D01*
X190466072Y-85420200D01*
X190500000Y-85420200D01*
X190500000Y-86084450D01*
X190658750Y-86243200D01*
X190668000Y-86246272D01*
X190792482Y-86234012D01*
X190912180Y-86197702D01*
X191022494Y-86138737D01*
X191119185Y-86059385D01*
X191198537Y-85962694D01*
X191257502Y-85852380D01*
X191293812Y-85732682D01*
X191306072Y-85608200D01*
X191303000Y-85578950D01*
X191144250Y-85420200D01*
X190500000Y-85420200D01*
X190466072Y-85420200D01*
X190466072Y-85146200D01*
X190500000Y-85146200D01*
X190500000Y-85166200D01*
X191144250Y-85166200D01*
X191303000Y-85007450D01*
X191306072Y-84978200D01*
X191293812Y-84853718D01*
X191257502Y-84734020D01*
X191210186Y-84645500D01*
X191257502Y-84556980D01*
X191293812Y-84437282D01*
X191306072Y-84312800D01*
X191303000Y-84283550D01*
X191144250Y-84124800D01*
X190500000Y-84124800D01*
X190500000Y-84144800D01*
X190466072Y-84144800D01*
X190466072Y-83850800D01*
X190500000Y-83850800D01*
X190500000Y-83870800D01*
X191144250Y-83870800D01*
X191303000Y-83712050D01*
X191306072Y-83682800D01*
X191293812Y-83558318D01*
X191257502Y-83438620D01*
X191216975Y-83362800D01*
X191257502Y-83286980D01*
X191293812Y-83167282D01*
X191306072Y-83042800D01*
X191303000Y-83013550D01*
X191144250Y-82854800D01*
X190500000Y-82854800D01*
X190500000Y-82874800D01*
X190466072Y-82874800D01*
X190466072Y-82580800D01*
X190500000Y-82580800D01*
X190500000Y-82600800D01*
X191144250Y-82600800D01*
X191303000Y-82442050D01*
X191306072Y-82412800D01*
X191293812Y-82288318D01*
X191257502Y-82168620D01*
X191222664Y-82103445D01*
X191223937Y-82101894D01*
X191282902Y-81991580D01*
X191319212Y-81871882D01*
X191331472Y-81747400D01*
X191328400Y-81718150D01*
X191169650Y-81559400D01*
X190525400Y-81559400D01*
X190525400Y-81579400D01*
X190491472Y-81579400D01*
X190491472Y-81117400D01*
X190479212Y-80992918D01*
X190442902Y-80873220D01*
X190383937Y-80762906D01*
X190373000Y-80749579D01*
X190373000Y-80641150D01*
X190525400Y-80641150D01*
X190525400Y-81305400D01*
X191169650Y-81305400D01*
X191328400Y-81146650D01*
X191331472Y-81117400D01*
X191319212Y-80992918D01*
X191282902Y-80873220D01*
X191223937Y-80762906D01*
X191144585Y-80666215D01*
X191047894Y-80586863D01*
X190937580Y-80527898D01*
X190817882Y-80491588D01*
X190693400Y-80479328D01*
X190684150Y-80482400D01*
X190525400Y-80641150D01*
X190373000Y-80641150D01*
X190373000Y-76200000D01*
X190360799Y-76076118D01*
X190324664Y-75956996D01*
X190265983Y-75847213D01*
X190187013Y-75750987D01*
X190090787Y-75672017D01*
X189981004Y-75613336D01*
X189893451Y-75586777D01*
X192165000Y-75586777D01*
X192165000Y-76145223D01*
X192273948Y-76692939D01*
X192487656Y-77208876D01*
X192797912Y-77673207D01*
X193192793Y-78068088D01*
X193657124Y-78378344D01*
X194173061Y-78592052D01*
X194720777Y-78701000D01*
X195279223Y-78701000D01*
X195826939Y-78592052D01*
X196342876Y-78378344D01*
X196807207Y-78068088D01*
X197202088Y-77673207D01*
X197512344Y-77208876D01*
X197726052Y-76692939D01*
X197835000Y-76145223D01*
X197835000Y-75586777D01*
X197726052Y-75039061D01*
X197512344Y-74523124D01*
X197202088Y-74058793D01*
X196807207Y-73663912D01*
X196342876Y-73353656D01*
X195826939Y-73139948D01*
X195279223Y-73031000D01*
X194720777Y-73031000D01*
X194173061Y-73139948D01*
X193657124Y-73353656D01*
X193192793Y-73663912D01*
X192797912Y-74058793D01*
X192487656Y-74523124D01*
X192273948Y-75039061D01*
X192165000Y-75586777D01*
X189893451Y-75586777D01*
X189861882Y-75577201D01*
X189738000Y-75565000D01*
X175260000Y-75565000D01*
X175136118Y-75577201D01*
X175016996Y-75613336D01*
X174907213Y-75672017D01*
X174810987Y-75750987D01*
X174732017Y-75847213D01*
X174673336Y-75956996D01*
X174637201Y-76076118D01*
X174625000Y-76200000D01*
X174625000Y-108720000D01*
X172521752Y-108720000D01*
X172466000Y-108714509D01*
X172410248Y-108720000D01*
X172243501Y-108736423D01*
X172029553Y-108801324D01*
X171832377Y-108906716D01*
X171659551Y-109048551D01*
X171624009Y-109091859D01*
X159803869Y-120912000D01*
X141092284Y-120912000D01*
X140887727Y-120775320D01*
X140626574Y-120667147D01*
X140349335Y-120612000D01*
X140066665Y-120612000D01*
X139789426Y-120667147D01*
X139528273Y-120775320D01*
X139293241Y-120932363D01*
X139093363Y-121132241D01*
X138936320Y-121367273D01*
X138828147Y-121628426D01*
X138773000Y-121905665D01*
X131483000Y-121905665D01*
X131427853Y-121628426D01*
X131319680Y-121367273D01*
X131162637Y-121132241D01*
X130962759Y-120932363D01*
X130727727Y-120775320D01*
X130466574Y-120667147D01*
X130189335Y-120612000D01*
X129906665Y-120612000D01*
X129629426Y-120667147D01*
X129368273Y-120775320D01*
X129133241Y-120932363D01*
X128933363Y-121132241D01*
X128776320Y-121367273D01*
X128668147Y-121628426D01*
X128613000Y-121905665D01*
X128613000Y-122188335D01*
X128668147Y-122465574D01*
X128776320Y-122726727D01*
X128933363Y-122961759D01*
X129133241Y-123161637D01*
X129368273Y-123318680D01*
X129412499Y-123336999D01*
X120721853Y-123336999D01*
X120691937Y-123292226D01*
X120547774Y-123148063D01*
X120378256Y-123034795D01*
X120189898Y-122956774D01*
X119989939Y-122917000D01*
X119786061Y-122917000D01*
X119586102Y-122956774D01*
X119397744Y-123034795D01*
X119228226Y-123148063D01*
X119084063Y-123292226D01*
X118970795Y-123461744D01*
X118892774Y-123650102D01*
X118853000Y-123850061D01*
X117812863Y-123850061D01*
X117431648Y-123468847D01*
X117492650Y-123394516D01*
X117552649Y-123282266D01*
X117589596Y-123160467D01*
X117602072Y-123033800D01*
X117602072Y-121586200D01*
X117589596Y-121459533D01*
X117583488Y-121439399D01*
X117573003Y-121332940D01*
X117529546Y-121189679D01*
X117458974Y-121057650D01*
X117364001Y-120941925D01*
X117335004Y-120918128D01*
X116809877Y-120393002D01*
X116786075Y-120363999D01*
X116670350Y-120269026D01*
X116538321Y-120198454D01*
X116395060Y-120154997D01*
X116283407Y-120144000D01*
X116283396Y-120144000D01*
X116246074Y-120140324D01*
X116208752Y-120144000D01*
X116138802Y-120144000D01*
X116136802Y-120142000D01*
X116646802Y-119632000D01*
X131376289Y-119632000D01*
X131420226Y-119675937D01*
X131589744Y-119789205D01*
X131778102Y-119867226D01*
X131978061Y-119907000D01*
X132181939Y-119907000D01*
X132381898Y-119867226D01*
X132570256Y-119789205D01*
X132739774Y-119675937D01*
X132883937Y-119531774D01*
X132997205Y-119362256D01*
X133075226Y-119173898D01*
X133115000Y-118973939D01*
X133115000Y-118770061D01*
X133075226Y-118570102D01*
X132997205Y-118381744D01*
X132883937Y-118212226D01*
X132739774Y-118068063D01*
X132570256Y-117954795D01*
X132381898Y-117876774D01*
X132181939Y-117837000D01*
X131978061Y-117837000D01*
X131778102Y-117876774D01*
X131589744Y-117954795D01*
X131420226Y-118068063D01*
X131376289Y-118112000D01*
X116369322Y-118112000D01*
X116331999Y-118108324D01*
X116294676Y-118112000D01*
X116294667Y-118112000D01*
X116183014Y-118122997D01*
X116039753Y-118166454D01*
X115907724Y-118237026D01*
X115791999Y-118331999D01*
X115768201Y-118360997D01*
X115022199Y-119107000D01*
X114960061Y-119107000D01*
X114760102Y-119146774D01*
X114571744Y-119224795D01*
X114402226Y-119338063D01*
X114258063Y-119482226D01*
X114144795Y-119651744D01*
X114066774Y-119840102D01*
X114027000Y-120040061D01*
X114027000Y-120243939D01*
X114066774Y-120443898D01*
X114144795Y-120632256D01*
X114258063Y-120801774D01*
X114402226Y-120945937D01*
X114457722Y-120983018D01*
X114446734Y-120986351D01*
X114334484Y-121046350D01*
X114236095Y-121127095D01*
X114155350Y-121225484D01*
X114095351Y-121337734D01*
X114058404Y-121459533D01*
X114045928Y-121586200D01*
X114045928Y-123033800D01*
X114058404Y-123160467D01*
X114095351Y-123282266D01*
X114155350Y-123394516D01*
X114236095Y-123492905D01*
X114334484Y-123573650D01*
X114446734Y-123633649D01*
X114563948Y-123669205D01*
X114560324Y-123706000D01*
X114564000Y-123743322D01*
X114564000Y-123743332D01*
X114574997Y-123854985D01*
X114609808Y-123969744D01*
X114618454Y-123998246D01*
X114689026Y-124130276D01*
X114719783Y-124167753D01*
X114783999Y-124246001D01*
X114813002Y-124269803D01*
X115043000Y-124499801D01*
X115043000Y-124561939D01*
X115082774Y-124761898D01*
X115160795Y-124950256D01*
X115274063Y-125119774D01*
X115418226Y-125263937D01*
X115450198Y-125285300D01*
X115446734Y-125286351D01*
X115334484Y-125346350D01*
X115328297Y-125351428D01*
X115326455Y-125349869D01*
X115217042Y-125289248D01*
X115194187Y-125281937D01*
X115152250Y-125240000D01*
X115074000Y-125248531D01*
X114995750Y-125240000D01*
X114953813Y-125281937D01*
X114930958Y-125289248D01*
X114821545Y-125349869D01*
X114789358Y-125377108D01*
X114652250Y-125240000D01*
X114550094Y-125251137D01*
X114430958Y-125289248D01*
X114321545Y-125349869D01*
X114226062Y-125430671D01*
X114148177Y-125528548D01*
X114090883Y-125639739D01*
X114056382Y-125759971D01*
X114046001Y-125884623D01*
X114049000Y-126324250D01*
X114207750Y-126483000D01*
X114964000Y-126483000D01*
X114964000Y-126737000D01*
X114207750Y-126737000D01*
X114049000Y-126895750D01*
X114046001Y-127335377D01*
X114056382Y-127460029D01*
X114090883Y-127580261D01*
X114148177Y-127691452D01*
X114226062Y-127789329D01*
X114321545Y-127870131D01*
X114363707Y-127893491D01*
X112427271Y-129829928D01*
X111164000Y-129829928D01*
X111039518Y-129842188D01*
X110919820Y-129878498D01*
X110809506Y-129937463D01*
X110712815Y-130016815D01*
X110633463Y-130113506D01*
X110574498Y-130223820D01*
X110538188Y-130343518D01*
X110525928Y-130468000D01*
X108553000Y-130468000D01*
X108553000Y-128379000D01*
X109325678Y-128379000D01*
X109363000Y-128382676D01*
X109400322Y-128379000D01*
X109400333Y-128379000D01*
X109511986Y-128368003D01*
X109655247Y-128324546D01*
X109787276Y-128253974D01*
X109903001Y-128159001D01*
X109926803Y-128129998D01*
X110153729Y-127903072D01*
X110282000Y-127903072D01*
X110406482Y-127890812D01*
X110526180Y-127854502D01*
X110636494Y-127795537D01*
X110679796Y-127760000D01*
X110802289Y-127760000D01*
X110846226Y-127803937D01*
X111015744Y-127917205D01*
X111204102Y-127995226D01*
X111404061Y-128035000D01*
X111607939Y-128035000D01*
X111807898Y-127995226D01*
X111996256Y-127917205D01*
X112165774Y-127803937D01*
X112309937Y-127659774D01*
X112423205Y-127490256D01*
X112501226Y-127301898D01*
X112541000Y-127101939D01*
X112541000Y-126898061D01*
X112501226Y-126698102D01*
X112423205Y-126509744D01*
X112309937Y-126340226D01*
X112165774Y-126196063D01*
X111996256Y-126082795D01*
X111807898Y-126004774D01*
X111607939Y-125965000D01*
X111404061Y-125965000D01*
X111204102Y-126004774D01*
X111015744Y-126082795D01*
X110846226Y-126196063D01*
X110802289Y-126240000D01*
X110679796Y-126240000D01*
X110636494Y-126204463D01*
X110526180Y-126145498D01*
X110406482Y-126109188D01*
X110282000Y-126096928D01*
X109682000Y-126096928D01*
X109557518Y-126109188D01*
X109437820Y-126145498D01*
X109327506Y-126204463D01*
X109268363Y-126253000D01*
X109205750Y-126253000D01*
X109047000Y-126411750D01*
X109058368Y-126525977D01*
X109070447Y-126563513D01*
X109056188Y-126610518D01*
X109043928Y-126735000D01*
X109043928Y-126859000D01*
X108346072Y-126859000D01*
X108346072Y-126754000D01*
X108333812Y-126629518D01*
X108297502Y-126509820D01*
X108238537Y-126399506D01*
X108159185Y-126302815D01*
X108062494Y-126223463D01*
X107952180Y-126164498D01*
X107832482Y-126128188D01*
X107708000Y-126115928D01*
X107527572Y-126115928D01*
X107527572Y-125840250D01*
X109047000Y-125840250D01*
X109205750Y-125999000D01*
X109855000Y-125999000D01*
X109855000Y-125384750D01*
X110109000Y-125384750D01*
X110109000Y-125999000D01*
X110758250Y-125999000D01*
X110917000Y-125840250D01*
X110905632Y-125726023D01*
X110867316Y-125606952D01*
X110806507Y-125497644D01*
X110725542Y-125402299D01*
X110627531Y-125324582D01*
X110516242Y-125267479D01*
X110395951Y-125233185D01*
X110271281Y-125223018D01*
X110267750Y-125226000D01*
X110109000Y-125384750D01*
X109855000Y-125384750D01*
X109696250Y-125226000D01*
X109692719Y-125223018D01*
X109568049Y-125233185D01*
X109447758Y-125267479D01*
X109336469Y-125324582D01*
X109238458Y-125402299D01*
X109157493Y-125497644D01*
X109096684Y-125606952D01*
X109058368Y-125726023D01*
X109047000Y-125840250D01*
X107527572Y-125840250D01*
X107527572Y-123954000D01*
X107524501Y-123891477D01*
X107524405Y-123890502D01*
X107499917Y-123767528D01*
X107499632Y-123766590D01*
X107451943Y-123651480D01*
X107451481Y-123650615D01*
X107382236Y-123546852D01*
X107381615Y-123546094D01*
X107292406Y-123456885D01*
X107291648Y-123456264D01*
X107187885Y-123387019D01*
X107187020Y-123386557D01*
X107071910Y-123338868D01*
X107070972Y-123338583D01*
X106947998Y-123314095D01*
X106947023Y-123313999D01*
X106884500Y-123310928D01*
X104951500Y-123310928D01*
X104888977Y-123313999D01*
X104888002Y-123314095D01*
X104765028Y-123338583D01*
X104764090Y-123338868D01*
X104648980Y-123386557D01*
X104648115Y-123387019D01*
X104544352Y-123456264D01*
X104543594Y-123456885D01*
X104454385Y-123546094D01*
X104453764Y-123546852D01*
X104384519Y-123650615D01*
X104384057Y-123651480D01*
X104336368Y-123766590D01*
X104336083Y-123767528D01*
X104311595Y-123890502D01*
X104311499Y-123891477D01*
X104308428Y-123954000D01*
X104308428Y-126115928D01*
X104128000Y-126115928D01*
X104003518Y-126128188D01*
X103883820Y-126164498D01*
X103773506Y-126223463D01*
X103676815Y-126302815D01*
X103597463Y-126399506D01*
X103538498Y-126509820D01*
X103502188Y-126629518D01*
X103489928Y-126754000D01*
X103489928Y-126949000D01*
X102682161Y-126949000D01*
X102690812Y-126920482D01*
X102703072Y-126796000D01*
X102700000Y-126576750D01*
X102541250Y-126418000D01*
X101727000Y-126418000D01*
X101727000Y-126438000D01*
X101473000Y-126438000D01*
X101473000Y-126418000D01*
X101453000Y-126418000D01*
X101453000Y-126164000D01*
X101473000Y-126164000D01*
X101473000Y-125309750D01*
X101727000Y-125309750D01*
X101727000Y-126164000D01*
X102541250Y-126164000D01*
X102700000Y-126005250D01*
X102703072Y-125786000D01*
X102690812Y-125661518D01*
X102654502Y-125541820D01*
X102595537Y-125431506D01*
X102516185Y-125334815D01*
X102419494Y-125255463D01*
X102309180Y-125196498D01*
X102189482Y-125160188D01*
X102065000Y-125147928D01*
X101885750Y-125151000D01*
X101727000Y-125309750D01*
X101473000Y-125309750D01*
X101314250Y-125151000D01*
X101135000Y-125147928D01*
X101010518Y-125160188D01*
X100890820Y-125196498D01*
X100780506Y-125255463D01*
X100683815Y-125334815D01*
X100604463Y-125431506D01*
X100545498Y-125541820D01*
X100509188Y-125661518D01*
X100496928Y-125786000D01*
X100500000Y-126005250D01*
X100658748Y-126163998D01*
X100500000Y-126163998D01*
X100500000Y-126249198D01*
X96518000Y-122267199D01*
X96518000Y-115619293D01*
X100460312Y-115619293D01*
X100544201Y-115873647D01*
X100817058Y-116004714D01*
X101110241Y-116080030D01*
X101412486Y-116096703D01*
X101712175Y-116054090D01*
X101997792Y-115953829D01*
X102147799Y-115873647D01*
X102231688Y-115619293D01*
X101346000Y-114733605D01*
X100460312Y-115619293D01*
X96518000Y-115619293D01*
X96518000Y-115456801D01*
X97354315Y-114620486D01*
X99803297Y-114620486D01*
X99845910Y-114920175D01*
X99946171Y-115205792D01*
X100026353Y-115355799D01*
X100280707Y-115439688D01*
X101166395Y-114554000D01*
X101525605Y-114554000D01*
X102411293Y-115439688D01*
X102665647Y-115355799D01*
X102670414Y-115345874D01*
X118981731Y-115345874D01*
X119025993Y-115566916D01*
X119243089Y-115665301D01*
X119475208Y-115719442D01*
X119713429Y-115727258D01*
X119948598Y-115688450D01*
X120171677Y-115604509D01*
X120242007Y-115566916D01*
X120286269Y-115345874D01*
X119634000Y-114693605D01*
X118981731Y-115345874D01*
X102670414Y-115345874D01*
X102796714Y-115082942D01*
X102872030Y-114789759D01*
X102882860Y-114593429D01*
X118420742Y-114593429D01*
X118459550Y-114828598D01*
X118543491Y-115051677D01*
X118581084Y-115122007D01*
X118802126Y-115166269D01*
X119454395Y-114514000D01*
X119813605Y-114514000D01*
X120465874Y-115166269D01*
X120686916Y-115122007D01*
X120785301Y-114904911D01*
X120839442Y-114672792D01*
X120847258Y-114434571D01*
X120808450Y-114199402D01*
X120724509Y-113976323D01*
X120686916Y-113905993D01*
X120465874Y-113861731D01*
X119813605Y-114514000D01*
X119454395Y-114514000D01*
X118802126Y-113861731D01*
X118581084Y-113905993D01*
X118482699Y-114123089D01*
X118428558Y-114355208D01*
X118420742Y-114593429D01*
X102882860Y-114593429D01*
X102888703Y-114487514D01*
X102846090Y-114187825D01*
X102745829Y-113902208D01*
X102665647Y-113752201D01*
X102453178Y-113682126D01*
X118981731Y-113682126D01*
X119634000Y-114334395D01*
X120286269Y-113682126D01*
X120242007Y-113461084D01*
X120024911Y-113362699D01*
X119792792Y-113308558D01*
X119554571Y-113300742D01*
X119319402Y-113339550D01*
X119096323Y-113423491D01*
X119025993Y-113461084D01*
X118981731Y-113682126D01*
X102453178Y-113682126D01*
X102411293Y-113668312D01*
X101525605Y-114554000D01*
X101166395Y-114554000D01*
X100280707Y-113668312D01*
X100026353Y-113752201D01*
X99895286Y-114025058D01*
X99819970Y-114318241D01*
X99803297Y-114620486D01*
X97354315Y-114620486D01*
X98486094Y-113488707D01*
X100460312Y-113488707D01*
X101346000Y-114374395D01*
X102231688Y-113488707D01*
X102147799Y-113234353D01*
X101874942Y-113103286D01*
X101581759Y-113027970D01*
X101279514Y-113011297D01*
X100979825Y-113053910D01*
X100694208Y-113154171D01*
X100544201Y-113234353D01*
X100460312Y-113488707D01*
X98486094Y-113488707D01*
X100468817Y-111505985D01*
X100525018Y-111536025D01*
X100927467Y-111658107D01*
X101346000Y-111699329D01*
X101764533Y-111658107D01*
X102166982Y-111536025D01*
X102537881Y-111337776D01*
X102781510Y-111137835D01*
X103132044Y-110787301D01*
X106823001Y-110787301D01*
X106823000Y-112094321D01*
X106846657Y-112334515D01*
X106940148Y-112642714D01*
X107091969Y-112926751D01*
X107296286Y-113175714D01*
X107545248Y-113380031D01*
X107829285Y-113531852D01*
X108137484Y-113625343D01*
X108458000Y-113656911D01*
X108778515Y-113625343D01*
X109086714Y-113531852D01*
X109370751Y-113380031D01*
X109602255Y-113190042D01*
X109617463Y-113218494D01*
X109696815Y-113315185D01*
X109793506Y-113394537D01*
X109903820Y-113453502D01*
X110023518Y-113489812D01*
X110148000Y-113502072D01*
X110712250Y-113499000D01*
X110871000Y-113340250D01*
X110871000Y-112141000D01*
X111125000Y-112141000D01*
X111125000Y-113340250D01*
X111283750Y-113499000D01*
X111848000Y-113502072D01*
X111972482Y-113489812D01*
X112092180Y-113453502D01*
X112202494Y-113394537D01*
X112299185Y-113315185D01*
X112378537Y-113218494D01*
X112437502Y-113108180D01*
X112473812Y-112988482D01*
X112486072Y-112864000D01*
X112483000Y-112299750D01*
X112324250Y-112141000D01*
X111125000Y-112141000D01*
X110871000Y-112141000D01*
X110851000Y-112141000D01*
X110851000Y-111887000D01*
X110871000Y-111887000D01*
X110871000Y-111867000D01*
X111125000Y-111867000D01*
X111125000Y-111887000D01*
X112324250Y-111887000D01*
X112483000Y-111728250D01*
X112486072Y-111164000D01*
X112473812Y-111039518D01*
X112437502Y-110919820D01*
X112378537Y-110809506D01*
X112360314Y-110787301D01*
X117887956Y-110787301D01*
X118198490Y-111097835D01*
X118442119Y-111297776D01*
X118813017Y-111496025D01*
X119215466Y-111618107D01*
X119633999Y-111659329D01*
X120052533Y-111618107D01*
X120454981Y-111496025D01*
X120825881Y-111297776D01*
X121150977Y-111030977D01*
X121417776Y-110705881D01*
X121616025Y-110334981D01*
X121738107Y-109932533D01*
X121779329Y-109513999D01*
X121738107Y-109095466D01*
X121616025Y-108693017D01*
X121417776Y-108322119D01*
X121217835Y-108078490D01*
X120356138Y-107216793D01*
X120289278Y-107135324D01*
X119964182Y-106868524D01*
X119593283Y-106670275D01*
X119190834Y-106548193D01*
X118877183Y-106517301D01*
X118877173Y-106517301D01*
X118772301Y-106506972D01*
X118667429Y-106517301D01*
X102352571Y-106517301D01*
X102247699Y-106506972D01*
X102142827Y-106517301D01*
X102142817Y-106517301D01*
X101829166Y-106548193D01*
X101426717Y-106670275D01*
X101055818Y-106868524D01*
X100730722Y-107135324D01*
X100663862Y-107216793D01*
X99762165Y-108118490D01*
X99562224Y-108362119D01*
X99363975Y-108733018D01*
X99241893Y-109135467D01*
X99200671Y-109554000D01*
X99241893Y-109972533D01*
X99363975Y-110374982D01*
X99394015Y-110431183D01*
X95247003Y-114578196D01*
X95217999Y-114601999D01*
X95168971Y-114661740D01*
X95123026Y-114717724D01*
X95084522Y-114789759D01*
X95052454Y-114849754D01*
X95008997Y-114993015D01*
X94998000Y-115104668D01*
X94998000Y-115104678D01*
X94994324Y-115142000D01*
X94132000Y-115142000D01*
X94132000Y-90237625D01*
X103263701Y-90237625D01*
X103263701Y-90610375D01*
X103336421Y-90975964D01*
X103479067Y-91320340D01*
X103505000Y-91359152D01*
X103505000Y-95885000D01*
X103507440Y-95909776D01*
X103514667Y-95933601D01*
X103526403Y-95955557D01*
X103542197Y-95974803D01*
X111416197Y-103848803D01*
X111435443Y-103864597D01*
X111457399Y-103876333D01*
X111481224Y-103883560D01*
X111506000Y-103886000D01*
X122428000Y-103886000D01*
X122452776Y-103883560D01*
X122476601Y-103876333D01*
X122498557Y-103864597D01*
X122517803Y-103848803D01*
X130391803Y-95974803D01*
X130407597Y-95955557D01*
X130419333Y-95933601D01*
X130426560Y-95909776D01*
X130429000Y-95885000D01*
X130429000Y-94996000D01*
X139954000Y-94996000D01*
X139954000Y-105918000D01*
X139956440Y-105942776D01*
X139963667Y-105966601D01*
X139975403Y-105988557D01*
X139991197Y-106007803D01*
X147865197Y-113881803D01*
X147884443Y-113897597D01*
X147906399Y-113909333D01*
X147930224Y-113916560D01*
X147955000Y-113919000D01*
X152486619Y-113919000D01*
X152737049Y-114044107D01*
X153096596Y-114142437D01*
X153468419Y-114168732D01*
X153838226Y-114121983D01*
X154191808Y-114003987D01*
X154350808Y-113919000D01*
X158877000Y-113919000D01*
X158901776Y-113916560D01*
X158925601Y-113909333D01*
X158947557Y-113897597D01*
X158966803Y-113881803D01*
X166840803Y-106007803D01*
X166856597Y-105988557D01*
X166868333Y-105966601D01*
X166875560Y-105942776D01*
X166878000Y-105918000D01*
X166878000Y-94996000D01*
X166875560Y-94971224D01*
X166868333Y-94947399D01*
X166856597Y-94925443D01*
X166840803Y-94906197D01*
X165565875Y-93631269D01*
X171276336Y-93631269D01*
X171335797Y-93865037D01*
X171574242Y-93975934D01*
X171829740Y-94038183D01*
X172092473Y-94049390D01*
X172352344Y-94009125D01*
X172599366Y-93918935D01*
X172700203Y-93865037D01*
X172759664Y-93631269D01*
X172018000Y-92889605D01*
X171276336Y-93631269D01*
X165565875Y-93631269D01*
X164719079Y-92784473D01*
X170678610Y-92784473D01*
X170718875Y-93044344D01*
X170809065Y-93291366D01*
X170862963Y-93392203D01*
X171096731Y-93451664D01*
X171838395Y-92710000D01*
X172197605Y-92710000D01*
X172939269Y-93451664D01*
X173173037Y-93392203D01*
X173283934Y-93153758D01*
X173346183Y-92898260D01*
X173357390Y-92635527D01*
X173317125Y-92375656D01*
X173226935Y-92128634D01*
X173173037Y-92027797D01*
X172939269Y-91968336D01*
X172197605Y-92710000D01*
X171838395Y-92710000D01*
X171096731Y-91968336D01*
X170862963Y-92027797D01*
X170752066Y-92266242D01*
X170689817Y-92521740D01*
X170678610Y-92784473D01*
X164719079Y-92784473D01*
X163723337Y-91788731D01*
X171276336Y-91788731D01*
X172018000Y-92530395D01*
X172759664Y-91788731D01*
X172700203Y-91554963D01*
X172461758Y-91444066D01*
X172206260Y-91381817D01*
X171943527Y-91370610D01*
X171683656Y-91410875D01*
X171436634Y-91501065D01*
X171335797Y-91554963D01*
X171276336Y-91788731D01*
X163723337Y-91788731D01*
X158966803Y-87032197D01*
X158947557Y-87016403D01*
X158925601Y-87004667D01*
X158901776Y-86997440D01*
X158877000Y-86995000D01*
X154318231Y-86995000D01*
X154312340Y-86991064D01*
X153967964Y-86848418D01*
X153602375Y-86775698D01*
X153229625Y-86775698D01*
X152864036Y-86848418D01*
X152519660Y-86991064D01*
X152513769Y-86995000D01*
X147955000Y-86995000D01*
X147930224Y-86997440D01*
X147906399Y-87004667D01*
X147884443Y-87016403D01*
X147865197Y-87032197D01*
X139991197Y-94906197D01*
X139975403Y-94925443D01*
X139963667Y-94947399D01*
X139956440Y-94971224D01*
X139954000Y-94996000D01*
X130429000Y-94996000D01*
X130429000Y-91326231D01*
X130432936Y-91320340D01*
X130575582Y-90975964D01*
X130648302Y-90610375D01*
X130648302Y-90237625D01*
X130575582Y-89872036D01*
X130432936Y-89527660D01*
X130429000Y-89521769D01*
X130429000Y-84963000D01*
X130426560Y-84938224D01*
X130419333Y-84914399D01*
X130407597Y-84892443D01*
X130391803Y-84873197D01*
X130090373Y-84571767D01*
X136988988Y-84571767D01*
X137001248Y-84696249D01*
X137037558Y-84815947D01*
X137096523Y-84926261D01*
X137175875Y-85022952D01*
X137989048Y-85836125D01*
X138085739Y-85915477D01*
X138196053Y-85974442D01*
X138315751Y-86010752D01*
X138440233Y-86023012D01*
X138564715Y-86010752D01*
X138684413Y-85974442D01*
X138794727Y-85915477D01*
X138891418Y-85836125D01*
X139704591Y-85022952D01*
X139783943Y-84926261D01*
X139842908Y-84815947D01*
X139879218Y-84696249D01*
X139891478Y-84571767D01*
X139879218Y-84447285D01*
X139842908Y-84327587D01*
X139783943Y-84217273D01*
X139704591Y-84120582D01*
X138891418Y-83307409D01*
X138794727Y-83228057D01*
X138684413Y-83169092D01*
X138564715Y-83132782D01*
X138440233Y-83120522D01*
X138315751Y-83132782D01*
X138196053Y-83169092D01*
X138085739Y-83228057D01*
X137989048Y-83307409D01*
X137175875Y-84120582D01*
X137096523Y-84217273D01*
X137037558Y-84327587D01*
X137001248Y-84447285D01*
X136988988Y-84571767D01*
X130090373Y-84571767D01*
X126435664Y-80917058D01*
X140765767Y-80917058D01*
X140765767Y-81155408D01*
X140812266Y-81389177D01*
X140903479Y-81609383D01*
X141035898Y-81807563D01*
X141204437Y-81976102D01*
X141402617Y-82108521D01*
X141622823Y-82199734D01*
X141856592Y-82246233D01*
X142094942Y-82246233D01*
X142328711Y-82199734D01*
X142548917Y-82108521D01*
X142747097Y-81976102D01*
X142915636Y-81807563D01*
X143048055Y-81609383D01*
X143139268Y-81389177D01*
X143185767Y-81155408D01*
X143185767Y-80917058D01*
X143139268Y-80683289D01*
X143048055Y-80463083D01*
X142915636Y-80264903D01*
X142747097Y-80096364D01*
X142734869Y-80088193D01*
X156567000Y-80088193D01*
X156567000Y-80439807D01*
X156635596Y-80784665D01*
X156770153Y-81109515D01*
X156965500Y-81401871D01*
X157214129Y-81650500D01*
X157506485Y-81845847D01*
X157831335Y-81980404D01*
X158176193Y-82049000D01*
X158527807Y-82049000D01*
X158872665Y-81980404D01*
X159197515Y-81845847D01*
X159489871Y-81650500D01*
X159738500Y-81401871D01*
X159933847Y-81109515D01*
X160068404Y-80784665D01*
X160137000Y-80439807D01*
X160137000Y-80088193D01*
X160068404Y-79743335D01*
X159933847Y-79418485D01*
X159738500Y-79126129D01*
X159489871Y-78877500D01*
X159197515Y-78682153D01*
X158872665Y-78547596D01*
X158527807Y-78479000D01*
X158176193Y-78479000D01*
X157831335Y-78547596D01*
X157506485Y-78682153D01*
X157214129Y-78877500D01*
X156965500Y-79126129D01*
X156770153Y-79418485D01*
X156635596Y-79743335D01*
X156567000Y-80088193D01*
X142734869Y-80088193D01*
X142548917Y-79963945D01*
X142328711Y-79872732D01*
X142094942Y-79826233D01*
X141856592Y-79826233D01*
X141622823Y-79872732D01*
X141402617Y-79963945D01*
X141204437Y-80096364D01*
X141035898Y-80264903D01*
X140903479Y-80463083D01*
X140812266Y-80683289D01*
X140765767Y-80917058D01*
X126435664Y-80917058D01*
X122517803Y-76999197D01*
X122498557Y-76983403D01*
X122476601Y-76971667D01*
X122452776Y-76964440D01*
X122428000Y-76962000D01*
X111506000Y-76962000D01*
X111481224Y-76964440D01*
X111457399Y-76971667D01*
X111435443Y-76983403D01*
X111416197Y-76999197D01*
X103542197Y-84873197D01*
X103526403Y-84892443D01*
X103514667Y-84914399D01*
X103507440Y-84938224D01*
X103505000Y-84963000D01*
X103505000Y-89488848D01*
X103479067Y-89527660D01*
X103336421Y-89872036D01*
X103263701Y-90237625D01*
X94132000Y-90237625D01*
X94132000Y-75586777D01*
X95637000Y-75586777D01*
X95637000Y-76145223D01*
X95745948Y-76692939D01*
X95959656Y-77208876D01*
X96269912Y-77673207D01*
X96664793Y-78068088D01*
X97129124Y-78378344D01*
X97645061Y-78592052D01*
X98192777Y-78701000D01*
X98751223Y-78701000D01*
X99298939Y-78592052D01*
X99814876Y-78378344D01*
X100279207Y-78068088D01*
X100674088Y-77673207D01*
X100984344Y-77208876D01*
X101198052Y-76692939D01*
X101307000Y-76145223D01*
X101307000Y-75586777D01*
X101198052Y-75039061D01*
X100984344Y-74523124D01*
X100674088Y-74058793D01*
X100279207Y-73663912D01*
X99814876Y-73353656D01*
X99298939Y-73139948D01*
X98751223Y-73031000D01*
X98192777Y-73031000D01*
X97645061Y-73139948D01*
X97129124Y-73353656D01*
X96664793Y-73663912D01*
X96269912Y-74058793D01*
X95959656Y-74523124D01*
X95745948Y-75039061D01*
X95637000Y-75586777D01*
X94132000Y-75586777D01*
X94132000Y-71526000D01*
X199340000Y-71526000D01*
X199340001Y-137262000D01*
G37*
G04 #@! TD.AperFunction*
M02*
