G04 #@! TF.GenerationSoftware,KiCad,Pcbnew,5.1.10*
G04 #@! TF.CreationDate,2021-12-24T15:06:35-08:00*
G04 #@! TF.ProjectId,SEPIC,53455049-432e-46b6-9963-61645f706362,v0.1*
G04 #@! TF.SameCoordinates,Original*
G04 #@! TF.FileFunction,Copper,L2,Bot*
G04 #@! TF.FilePolarity,Positive*
%FSLAX46Y46*%
G04 Gerber Fmt 4.6, Leading zero omitted, Abs format (unit mm)*
G04 Created by KiCad (PCBNEW 5.1.10) date 2021-12-24 15:06:35*
%MOMM*%
%LPD*%
G01*
G04 APERTURE LIST*
G04 #@! TA.AperFunction,ComponentPad*
%ADD10C,4.400000*%
G04 #@! TD*
G04 #@! TA.AperFunction,SMDPad,CuDef*
%ADD11R,10.530000X5.000000*%
G04 #@! TD*
G04 #@! TA.AperFunction,SMDPad,CuDef*
%ADD12R,1.050000X3.210000*%
G04 #@! TD*
G04 #@! TA.AperFunction,ComponentPad*
%ADD13C,2.300000*%
G04 #@! TD*
G04 #@! TA.AperFunction,ComponentPad*
%ADD14R,2.300000X2.300000*%
G04 #@! TD*
G04 #@! TA.AperFunction,ComponentPad*
%ADD15C,2.514600*%
G04 #@! TD*
G04 #@! TA.AperFunction,ComponentPad*
%ADD16R,1.700000X1.700000*%
G04 #@! TD*
G04 #@! TA.AperFunction,ComponentPad*
%ADD17O,1.700000X1.700000*%
G04 #@! TD*
G04 #@! TA.AperFunction,ComponentPad*
%ADD18R,1.150000X1.150000*%
G04 #@! TD*
G04 #@! TA.AperFunction,ComponentPad*
%ADD19C,1.150000*%
G04 #@! TD*
G04 #@! TA.AperFunction,ComponentPad*
%ADD20R,1.400000X1.400000*%
G04 #@! TD*
G04 #@! TA.AperFunction,ComponentPad*
%ADD21C,1.400000*%
G04 #@! TD*
G04 #@! TA.AperFunction,ComponentPad*
%ADD22R,1.800000X1.800000*%
G04 #@! TD*
G04 #@! TA.AperFunction,ComponentPad*
%ADD23C,1.800000*%
G04 #@! TD*
G04 #@! TA.AperFunction,ComponentPad*
%ADD24C,1.803400*%
G04 #@! TD*
G04 #@! TA.AperFunction,ComponentPad*
%ADD25C,1.600000*%
G04 #@! TD*
G04 #@! TA.AperFunction,ComponentPad*
%ADD26O,1.600000X1.600000*%
G04 #@! TD*
G04 #@! TA.AperFunction,ComponentPad*
%ADD27R,1.371600X1.371600*%
G04 #@! TD*
G04 #@! TA.AperFunction,ComponentPad*
%ADD28C,1.371600*%
G04 #@! TD*
G04 #@! TA.AperFunction,ComponentPad*
%ADD29C,0.100000*%
G04 #@! TD*
G04 #@! TA.AperFunction,ViaPad*
%ADD30C,0.800000*%
G04 #@! TD*
G04 #@! TA.AperFunction,Conductor*
%ADD31C,3.000000*%
G04 #@! TD*
G04 #@! TA.AperFunction,Conductor*
%ADD32C,2.000000*%
G04 #@! TD*
G04 #@! TA.AperFunction,Conductor*
%ADD33C,1.000000*%
G04 #@! TD*
G04 #@! TA.AperFunction,Conductor*
%ADD34C,0.250000*%
G04 #@! TD*
G04 #@! TA.AperFunction,Conductor*
%ADD35C,0.254000*%
G04 #@! TD*
G04 #@! TA.AperFunction,Conductor*
%ADD36C,0.100000*%
G04 #@! TD*
G04 APERTURE END LIST*
D10*
X195000000Y-132922000D03*
X195000000Y-75866000D03*
X98472000Y-75866000D03*
D11*
X133858000Y-102576000D03*
D12*
X130458000Y-115556000D03*
X132158000Y-115556000D03*
X133858000Y-115556000D03*
X135558000Y-115556000D03*
X137258000Y-115556000D03*
D10*
X98470000Y-132920000D03*
D13*
X158352000Y-80264000D03*
D14*
X179468000Y-80264000D03*
D15*
X105156001Y-90424000D03*
X128756002Y-90424000D03*
X153416000Y-88667998D03*
X153416000Y-112267999D03*
D16*
X110998000Y-112014000D03*
D17*
X108458000Y-112014000D03*
D18*
X119634000Y-109514000D03*
D19*
X119634000Y-114514000D03*
D20*
X179518000Y-92710000D03*
D21*
X172018000Y-92710000D03*
D22*
X175006000Y-125476000D03*
D23*
X177546000Y-125476000D03*
D24*
X101346000Y-114554000D03*
X101346000Y-109554000D03*
X184150000Y-104220000D03*
X184150000Y-109220000D03*
X184150000Y-130556000D03*
X184150000Y-125556000D03*
D25*
X170180000Y-122936000D03*
D26*
X170180000Y-130556000D03*
D25*
X140208000Y-122047000D03*
D26*
X130048000Y-122047000D03*
D27*
X129886000Y-128524000D03*
D28*
X141570000Y-128524000D03*
D25*
X140208000Y-125222000D03*
D26*
X130048000Y-125222000D03*
D16*
X112014000Y-131318000D03*
D17*
X114554000Y-131318000D03*
X117094000Y-131318000D03*
X119634000Y-131318000D03*
D16*
X184150000Y-119888000D03*
D17*
X184150000Y-117348000D03*
X184150000Y-114808000D03*
G04 #@! TA.AperFunction,ComponentPad*
D29*
G36*
X138440233Y-85384940D02*
G01*
X137627060Y-84571767D01*
X138440233Y-83758594D01*
X139253406Y-84571767D01*
X138440233Y-85384940D01*
G37*
G04 #@! TD.AperFunction*
D19*
X141975767Y-81036233D03*
D30*
X162941000Y-86106000D03*
X164338000Y-87249000D03*
X165608000Y-88646000D03*
X144526000Y-115824000D03*
X146050000Y-115824000D03*
X147574000Y-115824000D03*
X149098000Y-115824000D03*
X150622000Y-115824000D03*
X155702000Y-115824000D03*
X157226000Y-115824000D03*
X95758000Y-107696000D03*
X95758000Y-109220000D03*
X95758000Y-110744000D03*
X95758000Y-112268000D03*
X143510000Y-114300000D03*
X142494000Y-113284000D03*
X141478000Y-112268000D03*
X140462000Y-111252000D03*
X139446000Y-110236000D03*
X125222000Y-76708000D03*
X126238000Y-77724000D03*
X127254000Y-78740000D03*
X128270000Y-79756000D03*
X129286000Y-80772000D03*
X130302000Y-81788000D03*
X131318000Y-82804000D03*
X167894000Y-100076000D03*
X167894000Y-101600000D03*
X167894000Y-103124000D03*
X167894000Y-104648000D03*
X127254000Y-101346000D03*
X127254000Y-102616000D03*
X127254000Y-103886000D03*
X127254000Y-105156000D03*
X127254000Y-106426000D03*
X167894000Y-105918000D03*
X167005000Y-106934000D03*
X165989000Y-107950000D03*
X165100000Y-108966000D03*
X164211000Y-109982000D03*
X163322000Y-110998000D03*
X162433000Y-111887000D03*
X161417000Y-112903000D03*
X160401000Y-113792000D03*
X159258000Y-114808000D03*
X193040000Y-79502000D03*
X193040000Y-80772000D03*
X193040000Y-82042000D03*
X193040000Y-83312000D03*
X193040000Y-84582000D03*
X193040000Y-85852000D03*
X193040000Y-87122000D03*
X178054000Y-73660000D03*
X179324000Y-73660000D03*
X180594000Y-73660000D03*
X181864000Y-73660000D03*
X183134000Y-73660000D03*
X184404000Y-73660000D03*
X185674000Y-73660000D03*
X186944000Y-73660000D03*
X188214000Y-73660000D03*
X189484000Y-73660000D03*
X148844000Y-79502000D03*
X149860000Y-80264000D03*
X150876000Y-81280000D03*
X151892000Y-82042000D03*
X153162000Y-81280000D03*
X154178000Y-80264000D03*
X155448000Y-79502000D03*
X157480000Y-85852000D03*
X158496000Y-84836000D03*
X159512000Y-83820000D03*
X160782000Y-82804000D03*
X161544000Y-84836000D03*
X146050000Y-87630000D03*
X145034000Y-88646000D03*
X144018000Y-89408000D03*
X143002000Y-90424000D03*
X131572000Y-85344000D03*
X131572000Y-86614000D03*
X131572000Y-87884000D03*
X132842000Y-88646000D03*
X134112000Y-89154000D03*
X132842000Y-87376000D03*
X134112000Y-88138000D03*
X132842000Y-86106000D03*
X134112000Y-86868000D03*
X127762000Y-74422000D03*
X129032000Y-74422000D03*
X130302000Y-74422000D03*
X131572000Y-74422000D03*
X132842000Y-74422000D03*
X134112000Y-74422000D03*
X135382000Y-74422000D03*
X136652000Y-74422000D03*
X137922000Y-74422000D03*
X139192000Y-74422000D03*
X111506000Y-75946000D03*
X112776000Y-75946000D03*
X114046000Y-75946000D03*
X115316000Y-75946000D03*
X116586000Y-75946000D03*
X117856000Y-75946000D03*
X119126000Y-75946000D03*
X120396000Y-75946000D03*
X121666000Y-75946000D03*
X122936000Y-75946000D03*
X124206000Y-75946000D03*
X110490000Y-76708000D03*
X109474000Y-77724000D03*
X108458000Y-78740000D03*
X107442000Y-79756000D03*
X106426000Y-80772000D03*
X105410000Y-81788000D03*
X104394000Y-82804000D03*
X103378000Y-83820000D03*
X130810000Y-98552000D03*
X137414000Y-98552000D03*
X138684000Y-97536000D03*
X147574000Y-125984000D03*
X148590000Y-125984000D03*
X149606000Y-125984000D03*
X150622000Y-125984000D03*
X151638000Y-125984000D03*
X147574000Y-128524000D03*
X148590000Y-128524000D03*
X149606000Y-128524000D03*
X150622000Y-128524000D03*
X151638000Y-128524000D03*
X147574000Y-130810000D03*
X148590000Y-130810000D03*
X149606000Y-130810000D03*
X150622000Y-130810000D03*
X151638000Y-130810000D03*
X165100000Y-126492000D03*
X164338000Y-127508000D03*
X163576000Y-128524000D03*
X162814000Y-129540000D03*
X162052000Y-130556000D03*
X165354000Y-129032000D03*
X164592000Y-130048000D03*
X163830000Y-131064000D03*
X163068000Y-132080000D03*
X166116000Y-128016000D03*
X111506000Y-127000000D03*
X115062000Y-120142000D03*
X132080000Y-118872000D03*
X185420000Y-81026000D03*
X185420000Y-82296000D03*
X185420000Y-83566000D03*
X185420000Y-84836000D03*
X185420000Y-86106000D03*
X187198000Y-91440000D03*
X187198000Y-92710000D03*
X187198000Y-93980000D03*
X187198000Y-95250000D03*
X187198000Y-96520000D03*
X179324000Y-106172000D03*
X179324000Y-107442000D03*
X179324000Y-108712000D03*
X179324000Y-109982000D03*
X184404000Y-95758000D03*
X183388000Y-96774000D03*
X182372000Y-97790000D03*
X181356000Y-98806000D03*
X180340000Y-99822000D03*
X179324000Y-100838000D03*
X119888000Y-123952000D03*
X116078000Y-124460000D03*
D31*
X118772301Y-108652301D02*
X119634000Y-109514000D01*
X101346000Y-109554000D02*
X102247699Y-108652301D01*
D32*
X108458000Y-109474000D02*
X109279699Y-108652301D01*
X108458000Y-112014000D02*
X108458000Y-109474000D01*
D31*
X109279699Y-108652301D02*
X118772301Y-108652301D01*
X102247699Y-108652301D02*
X109279699Y-108652301D01*
D33*
X132158000Y-112951000D02*
X132158000Y-115556000D01*
X128721000Y-109514000D02*
X132158000Y-112951000D01*
X119634000Y-109514000D02*
X128721000Y-109514000D01*
D31*
X101346000Y-94234001D02*
X105156001Y-90424000D01*
X101346000Y-109554000D02*
X101346000Y-94234001D01*
X118692301Y-115455699D02*
X119634000Y-114514000D01*
X101346000Y-114554000D02*
X102247699Y-115455699D01*
X111518699Y-115455699D02*
X111518699Y-115455699D01*
X102247699Y-115455699D02*
X107048301Y-115455699D01*
X153416000Y-115824000D02*
X153416000Y-112267999D01*
X110350301Y-115455699D02*
X111518699Y-115455699D01*
X107048301Y-115455699D02*
X108699301Y-115455699D01*
X108699301Y-115455699D02*
X110350301Y-115455699D01*
X111518699Y-115455699D02*
X113271301Y-115455699D01*
X113271301Y-115455699D02*
X118692301Y-115455699D01*
D34*
X111506000Y-127000000D02*
X111506000Y-122936000D01*
X114300000Y-120142000D02*
X115062000Y-120142000D01*
X111506000Y-122936000D02*
X114300000Y-120142000D01*
X132080000Y-118872000D02*
X134097000Y-118872000D01*
X134097000Y-118872000D02*
X135558000Y-117411000D01*
X135558000Y-117411000D02*
X135558000Y-115556000D01*
D33*
X177546000Y-122749919D02*
X177546000Y-125476000D01*
X182947919Y-117348000D02*
X177546000Y-122749919D01*
X184150000Y-117348000D02*
X182947919Y-117348000D01*
X184070000Y-125476000D02*
X184150000Y-125556000D01*
X177546000Y-125476000D02*
X184070000Y-125476000D01*
D32*
X184150000Y-109220000D02*
X184150000Y-114808000D01*
D31*
X128756002Y-90424000D02*
X134112000Y-95779998D01*
X134112000Y-102322000D02*
X133858000Y-102576000D01*
X134112000Y-95779998D02*
X134112000Y-102322000D01*
X138440233Y-91451765D02*
X134112000Y-95779998D01*
X138440233Y-84571767D02*
X138440233Y-91451765D01*
D34*
X172466000Y-122936000D02*
X175006000Y-125476000D01*
X170180000Y-122936000D02*
X172466000Y-122936000D01*
D31*
X145784235Y-81036233D02*
X153416000Y-88667998D01*
X141975767Y-81036233D02*
X145784235Y-81036233D01*
X153416000Y-85200000D02*
X158352000Y-80264000D01*
X153416000Y-88667998D02*
X153416000Y-85200000D01*
D34*
X130048000Y-115966000D02*
X130458000Y-115556000D01*
X130048000Y-122047000D02*
X130048000Y-115966000D01*
X130048000Y-122047000D02*
X130048000Y-125222000D01*
X129886000Y-128524000D02*
X129886000Y-125384000D01*
X129886000Y-125384000D02*
X130048000Y-125222000D01*
X119380000Y-124460000D02*
X116078000Y-124460000D01*
X119888000Y-123952000D02*
X119380000Y-124460000D01*
D35*
X189611000Y-111887000D02*
X175387000Y-111887000D01*
X175387000Y-110285293D01*
X183264312Y-110285293D01*
X183348201Y-110539647D01*
X183621058Y-110670714D01*
X183914241Y-110746030D01*
X184216486Y-110762703D01*
X184516175Y-110720090D01*
X184801792Y-110619829D01*
X184951799Y-110539647D01*
X185035688Y-110285293D01*
X184150000Y-109399605D01*
X183264312Y-110285293D01*
X175387000Y-110285293D01*
X175387000Y-109286486D01*
X182607297Y-109286486D01*
X182649910Y-109586175D01*
X182750171Y-109871792D01*
X182830353Y-110021799D01*
X183084707Y-110105688D01*
X183970395Y-109220000D01*
X184329605Y-109220000D01*
X185215293Y-110105688D01*
X185469647Y-110021799D01*
X185600714Y-109748942D01*
X185676030Y-109455759D01*
X185692703Y-109153514D01*
X185650090Y-108853825D01*
X185549829Y-108568208D01*
X185469647Y-108418201D01*
X185215293Y-108334312D01*
X184329605Y-109220000D01*
X183970395Y-109220000D01*
X183084707Y-108334312D01*
X182830353Y-108418201D01*
X182699286Y-108691058D01*
X182623970Y-108984241D01*
X182607297Y-109286486D01*
X175387000Y-109286486D01*
X175387000Y-108154707D01*
X183264312Y-108154707D01*
X184150000Y-109040395D01*
X185035688Y-108154707D01*
X184951799Y-107900353D01*
X184678942Y-107769286D01*
X184385759Y-107693970D01*
X184083514Y-107677297D01*
X183783825Y-107719910D01*
X183498208Y-107820171D01*
X183348201Y-107900353D01*
X183264312Y-108154707D01*
X175387000Y-108154707D01*
X175387000Y-105285293D01*
X183264312Y-105285293D01*
X183348201Y-105539647D01*
X183621058Y-105670714D01*
X183914241Y-105746030D01*
X184216486Y-105762703D01*
X184516175Y-105720090D01*
X184801792Y-105619829D01*
X184951799Y-105539647D01*
X185035688Y-105285293D01*
X184150000Y-104399605D01*
X183264312Y-105285293D01*
X175387000Y-105285293D01*
X175387000Y-104286486D01*
X182607297Y-104286486D01*
X182649910Y-104586175D01*
X182750171Y-104871792D01*
X182830353Y-105021799D01*
X183084707Y-105105688D01*
X183970395Y-104220000D01*
X184329605Y-104220000D01*
X185215293Y-105105688D01*
X185469647Y-105021799D01*
X185600714Y-104748942D01*
X185676030Y-104455759D01*
X185692703Y-104153514D01*
X185650090Y-103853825D01*
X185549829Y-103568208D01*
X185469647Y-103418201D01*
X185215293Y-103334312D01*
X184329605Y-104220000D01*
X183970395Y-104220000D01*
X183084707Y-103334312D01*
X182830353Y-103418201D01*
X182699286Y-103691058D01*
X182623970Y-103984241D01*
X182607297Y-104286486D01*
X175387000Y-104286486D01*
X175387000Y-103154707D01*
X183264312Y-103154707D01*
X184150000Y-104040395D01*
X185035688Y-103154707D01*
X184951799Y-102900353D01*
X184678942Y-102769286D01*
X184385759Y-102693970D01*
X184083514Y-102677297D01*
X183783825Y-102719910D01*
X183498208Y-102820171D01*
X183348201Y-102900353D01*
X183264312Y-103154707D01*
X175387000Y-103154707D01*
X175387000Y-93410000D01*
X178179928Y-93410000D01*
X178192188Y-93534482D01*
X178228498Y-93654180D01*
X178287463Y-93764494D01*
X178366815Y-93861185D01*
X178463506Y-93940537D01*
X178573820Y-93999502D01*
X178693518Y-94035812D01*
X178818000Y-94048072D01*
X179232250Y-94045000D01*
X179391000Y-93886250D01*
X179391000Y-92837000D01*
X179645000Y-92837000D01*
X179645000Y-93886250D01*
X179803750Y-94045000D01*
X180218000Y-94048072D01*
X180342482Y-94035812D01*
X180462180Y-93999502D01*
X180572494Y-93940537D01*
X180669185Y-93861185D01*
X180748537Y-93764494D01*
X180807502Y-93654180D01*
X180843812Y-93534482D01*
X180856072Y-93410000D01*
X180853000Y-92995750D01*
X180694250Y-92837000D01*
X179645000Y-92837000D01*
X179391000Y-92837000D01*
X178341750Y-92837000D01*
X178183000Y-92995750D01*
X178179928Y-93410000D01*
X175387000Y-93410000D01*
X175387000Y-92010000D01*
X178179928Y-92010000D01*
X178183000Y-92424250D01*
X178341750Y-92583000D01*
X179391000Y-92583000D01*
X179391000Y-91533750D01*
X179645000Y-91533750D01*
X179645000Y-92583000D01*
X180694250Y-92583000D01*
X180853000Y-92424250D01*
X180856072Y-92010000D01*
X180843812Y-91885518D01*
X180807502Y-91765820D01*
X180748537Y-91655506D01*
X180669185Y-91558815D01*
X180572494Y-91479463D01*
X180462180Y-91420498D01*
X180342482Y-91384188D01*
X180218000Y-91371928D01*
X179803750Y-91375000D01*
X179645000Y-91533750D01*
X179391000Y-91533750D01*
X179232250Y-91375000D01*
X178818000Y-91371928D01*
X178693518Y-91384188D01*
X178573820Y-91420498D01*
X178463506Y-91479463D01*
X178366815Y-91558815D01*
X178287463Y-91655506D01*
X178228498Y-91765820D01*
X178192188Y-91885518D01*
X178179928Y-92010000D01*
X175387000Y-92010000D01*
X175387000Y-81414000D01*
X177679928Y-81414000D01*
X177692188Y-81538482D01*
X177728498Y-81658180D01*
X177787463Y-81768494D01*
X177866815Y-81865185D01*
X177963506Y-81944537D01*
X178073820Y-82003502D01*
X178193518Y-82039812D01*
X178318000Y-82052072D01*
X179211250Y-82049000D01*
X179370000Y-81890250D01*
X179370000Y-80362000D01*
X179566000Y-80362000D01*
X179566000Y-81890250D01*
X179724750Y-82049000D01*
X180618000Y-82052072D01*
X180742482Y-82039812D01*
X180862180Y-82003502D01*
X180972494Y-81944537D01*
X181069185Y-81865185D01*
X181148537Y-81768494D01*
X181207502Y-81658180D01*
X181243812Y-81538482D01*
X181256072Y-81414000D01*
X181253000Y-80520750D01*
X181094250Y-80362000D01*
X179566000Y-80362000D01*
X179370000Y-80362000D01*
X177841750Y-80362000D01*
X177683000Y-80520750D01*
X177679928Y-81414000D01*
X175387000Y-81414000D01*
X175387000Y-79114000D01*
X177679928Y-79114000D01*
X177683000Y-80007250D01*
X177841750Y-80166000D01*
X179370000Y-80166000D01*
X179370000Y-78637750D01*
X179566000Y-78637750D01*
X179566000Y-80166000D01*
X181094250Y-80166000D01*
X181253000Y-80007250D01*
X181256072Y-79114000D01*
X181243812Y-78989518D01*
X181207502Y-78869820D01*
X181148537Y-78759506D01*
X181069185Y-78662815D01*
X180972494Y-78583463D01*
X180862180Y-78524498D01*
X180742482Y-78488188D01*
X180618000Y-78475928D01*
X179724750Y-78479000D01*
X179566000Y-78637750D01*
X179370000Y-78637750D01*
X179211250Y-78479000D01*
X178318000Y-78475928D01*
X178193518Y-78488188D01*
X178073820Y-78524498D01*
X177963506Y-78583463D01*
X177866815Y-78662815D01*
X177787463Y-78759506D01*
X177728498Y-78869820D01*
X177692188Y-78989518D01*
X177679928Y-79114000D01*
X175387000Y-79114000D01*
X175387000Y-76327000D01*
X189611000Y-76327000D01*
X189611000Y-111887000D01*
G04 #@! TA.AperFunction,Conductor*
D36*
G36*
X189611000Y-111887000D02*
G01*
X175387000Y-111887000D01*
X175387000Y-110285293D01*
X183264312Y-110285293D01*
X183348201Y-110539647D01*
X183621058Y-110670714D01*
X183914241Y-110746030D01*
X184216486Y-110762703D01*
X184516175Y-110720090D01*
X184801792Y-110619829D01*
X184951799Y-110539647D01*
X185035688Y-110285293D01*
X184150000Y-109399605D01*
X183264312Y-110285293D01*
X175387000Y-110285293D01*
X175387000Y-109286486D01*
X182607297Y-109286486D01*
X182649910Y-109586175D01*
X182750171Y-109871792D01*
X182830353Y-110021799D01*
X183084707Y-110105688D01*
X183970395Y-109220000D01*
X184329605Y-109220000D01*
X185215293Y-110105688D01*
X185469647Y-110021799D01*
X185600714Y-109748942D01*
X185676030Y-109455759D01*
X185692703Y-109153514D01*
X185650090Y-108853825D01*
X185549829Y-108568208D01*
X185469647Y-108418201D01*
X185215293Y-108334312D01*
X184329605Y-109220000D01*
X183970395Y-109220000D01*
X183084707Y-108334312D01*
X182830353Y-108418201D01*
X182699286Y-108691058D01*
X182623970Y-108984241D01*
X182607297Y-109286486D01*
X175387000Y-109286486D01*
X175387000Y-108154707D01*
X183264312Y-108154707D01*
X184150000Y-109040395D01*
X185035688Y-108154707D01*
X184951799Y-107900353D01*
X184678942Y-107769286D01*
X184385759Y-107693970D01*
X184083514Y-107677297D01*
X183783825Y-107719910D01*
X183498208Y-107820171D01*
X183348201Y-107900353D01*
X183264312Y-108154707D01*
X175387000Y-108154707D01*
X175387000Y-105285293D01*
X183264312Y-105285293D01*
X183348201Y-105539647D01*
X183621058Y-105670714D01*
X183914241Y-105746030D01*
X184216486Y-105762703D01*
X184516175Y-105720090D01*
X184801792Y-105619829D01*
X184951799Y-105539647D01*
X185035688Y-105285293D01*
X184150000Y-104399605D01*
X183264312Y-105285293D01*
X175387000Y-105285293D01*
X175387000Y-104286486D01*
X182607297Y-104286486D01*
X182649910Y-104586175D01*
X182750171Y-104871792D01*
X182830353Y-105021799D01*
X183084707Y-105105688D01*
X183970395Y-104220000D01*
X184329605Y-104220000D01*
X185215293Y-105105688D01*
X185469647Y-105021799D01*
X185600714Y-104748942D01*
X185676030Y-104455759D01*
X185692703Y-104153514D01*
X185650090Y-103853825D01*
X185549829Y-103568208D01*
X185469647Y-103418201D01*
X185215293Y-103334312D01*
X184329605Y-104220000D01*
X183970395Y-104220000D01*
X183084707Y-103334312D01*
X182830353Y-103418201D01*
X182699286Y-103691058D01*
X182623970Y-103984241D01*
X182607297Y-104286486D01*
X175387000Y-104286486D01*
X175387000Y-103154707D01*
X183264312Y-103154707D01*
X184150000Y-104040395D01*
X185035688Y-103154707D01*
X184951799Y-102900353D01*
X184678942Y-102769286D01*
X184385759Y-102693970D01*
X184083514Y-102677297D01*
X183783825Y-102719910D01*
X183498208Y-102820171D01*
X183348201Y-102900353D01*
X183264312Y-103154707D01*
X175387000Y-103154707D01*
X175387000Y-93410000D01*
X178179928Y-93410000D01*
X178192188Y-93534482D01*
X178228498Y-93654180D01*
X178287463Y-93764494D01*
X178366815Y-93861185D01*
X178463506Y-93940537D01*
X178573820Y-93999502D01*
X178693518Y-94035812D01*
X178818000Y-94048072D01*
X179232250Y-94045000D01*
X179391000Y-93886250D01*
X179391000Y-92837000D01*
X179645000Y-92837000D01*
X179645000Y-93886250D01*
X179803750Y-94045000D01*
X180218000Y-94048072D01*
X180342482Y-94035812D01*
X180462180Y-93999502D01*
X180572494Y-93940537D01*
X180669185Y-93861185D01*
X180748537Y-93764494D01*
X180807502Y-93654180D01*
X180843812Y-93534482D01*
X180856072Y-93410000D01*
X180853000Y-92995750D01*
X180694250Y-92837000D01*
X179645000Y-92837000D01*
X179391000Y-92837000D01*
X178341750Y-92837000D01*
X178183000Y-92995750D01*
X178179928Y-93410000D01*
X175387000Y-93410000D01*
X175387000Y-92010000D01*
X178179928Y-92010000D01*
X178183000Y-92424250D01*
X178341750Y-92583000D01*
X179391000Y-92583000D01*
X179391000Y-91533750D01*
X179645000Y-91533750D01*
X179645000Y-92583000D01*
X180694250Y-92583000D01*
X180853000Y-92424250D01*
X180856072Y-92010000D01*
X180843812Y-91885518D01*
X180807502Y-91765820D01*
X180748537Y-91655506D01*
X180669185Y-91558815D01*
X180572494Y-91479463D01*
X180462180Y-91420498D01*
X180342482Y-91384188D01*
X180218000Y-91371928D01*
X179803750Y-91375000D01*
X179645000Y-91533750D01*
X179391000Y-91533750D01*
X179232250Y-91375000D01*
X178818000Y-91371928D01*
X178693518Y-91384188D01*
X178573820Y-91420498D01*
X178463506Y-91479463D01*
X178366815Y-91558815D01*
X178287463Y-91655506D01*
X178228498Y-91765820D01*
X178192188Y-91885518D01*
X178179928Y-92010000D01*
X175387000Y-92010000D01*
X175387000Y-81414000D01*
X177679928Y-81414000D01*
X177692188Y-81538482D01*
X177728498Y-81658180D01*
X177787463Y-81768494D01*
X177866815Y-81865185D01*
X177963506Y-81944537D01*
X178073820Y-82003502D01*
X178193518Y-82039812D01*
X178318000Y-82052072D01*
X179211250Y-82049000D01*
X179370000Y-81890250D01*
X179370000Y-80362000D01*
X179566000Y-80362000D01*
X179566000Y-81890250D01*
X179724750Y-82049000D01*
X180618000Y-82052072D01*
X180742482Y-82039812D01*
X180862180Y-82003502D01*
X180972494Y-81944537D01*
X181069185Y-81865185D01*
X181148537Y-81768494D01*
X181207502Y-81658180D01*
X181243812Y-81538482D01*
X181256072Y-81414000D01*
X181253000Y-80520750D01*
X181094250Y-80362000D01*
X179566000Y-80362000D01*
X179370000Y-80362000D01*
X177841750Y-80362000D01*
X177683000Y-80520750D01*
X177679928Y-81414000D01*
X175387000Y-81414000D01*
X175387000Y-79114000D01*
X177679928Y-79114000D01*
X177683000Y-80007250D01*
X177841750Y-80166000D01*
X179370000Y-80166000D01*
X179370000Y-78637750D01*
X179566000Y-78637750D01*
X179566000Y-80166000D01*
X181094250Y-80166000D01*
X181253000Y-80007250D01*
X181256072Y-79114000D01*
X181243812Y-78989518D01*
X181207502Y-78869820D01*
X181148537Y-78759506D01*
X181069185Y-78662815D01*
X180972494Y-78583463D01*
X180862180Y-78524498D01*
X180742482Y-78488188D01*
X180618000Y-78475928D01*
X179724750Y-78479000D01*
X179566000Y-78637750D01*
X179370000Y-78637750D01*
X179211250Y-78479000D01*
X178318000Y-78475928D01*
X178193518Y-78488188D01*
X178073820Y-78524498D01*
X177963506Y-78583463D01*
X177866815Y-78662815D01*
X177787463Y-78759506D01*
X177728498Y-78869820D01*
X177692188Y-78989518D01*
X177679928Y-79114000D01*
X175387000Y-79114000D01*
X175387000Y-76327000D01*
X189611000Y-76327000D01*
X189611000Y-111887000D01*
G37*
G04 #@! TD.AperFunction*
D35*
X199340001Y-137262000D02*
X94132000Y-137262000D01*
X94132000Y-132640777D01*
X95635000Y-132640777D01*
X95635000Y-133199223D01*
X95743948Y-133746939D01*
X95957656Y-134262876D01*
X96267912Y-134727207D01*
X96662793Y-135122088D01*
X97127124Y-135432344D01*
X97643061Y-135646052D01*
X98190777Y-135755000D01*
X98749223Y-135755000D01*
X99296939Y-135646052D01*
X99812876Y-135432344D01*
X100277207Y-135122088D01*
X100672088Y-134727207D01*
X100982344Y-134262876D01*
X101196052Y-133746939D01*
X101305000Y-133199223D01*
X101305000Y-132640777D01*
X101196052Y-132093061D01*
X100982344Y-131577124D01*
X100672088Y-131112793D01*
X100277207Y-130717912D01*
X99903188Y-130468000D01*
X110525928Y-130468000D01*
X110525928Y-132168000D01*
X110538188Y-132292482D01*
X110574498Y-132412180D01*
X110633463Y-132522494D01*
X110712815Y-132619185D01*
X110809506Y-132698537D01*
X110919820Y-132757502D01*
X111039518Y-132793812D01*
X111164000Y-132806072D01*
X112864000Y-132806072D01*
X112988482Y-132793812D01*
X113108180Y-132757502D01*
X113218494Y-132698537D01*
X113315185Y-132619185D01*
X113394537Y-132522494D01*
X113453502Y-132412180D01*
X113475513Y-132339620D01*
X113607368Y-132471475D01*
X113850589Y-132633990D01*
X114120842Y-132745932D01*
X114407740Y-132803000D01*
X114700260Y-132803000D01*
X114987158Y-132745932D01*
X115257411Y-132633990D01*
X115500632Y-132471475D01*
X115707475Y-132264632D01*
X115824000Y-132090240D01*
X115940525Y-132264632D01*
X116147368Y-132471475D01*
X116390589Y-132633990D01*
X116660842Y-132745932D01*
X116947740Y-132803000D01*
X117240260Y-132803000D01*
X117527158Y-132745932D01*
X117797411Y-132633990D01*
X118040632Y-132471475D01*
X118247475Y-132264632D01*
X118364000Y-132090240D01*
X118480525Y-132264632D01*
X118687368Y-132471475D01*
X118930589Y-132633990D01*
X119200842Y-132745932D01*
X119487740Y-132803000D01*
X119780260Y-132803000D01*
X120067158Y-132745932D01*
X120316197Y-132642777D01*
X192165000Y-132642777D01*
X192165000Y-133201223D01*
X192273948Y-133748939D01*
X192487656Y-134264876D01*
X192797912Y-134729207D01*
X193192793Y-135124088D01*
X193657124Y-135434344D01*
X194173061Y-135648052D01*
X194720777Y-135757000D01*
X195279223Y-135757000D01*
X195826939Y-135648052D01*
X196342876Y-135434344D01*
X196807207Y-135124088D01*
X197202088Y-134729207D01*
X197512344Y-134264876D01*
X197726052Y-133748939D01*
X197835000Y-133201223D01*
X197835000Y-132642777D01*
X197726052Y-132095061D01*
X197512344Y-131579124D01*
X197202088Y-131114793D01*
X196807207Y-130719912D01*
X196342876Y-130409656D01*
X195826939Y-130195948D01*
X195279223Y-130087000D01*
X194720777Y-130087000D01*
X194173061Y-130195948D01*
X193657124Y-130409656D01*
X193192793Y-130719912D01*
X192797912Y-131114793D01*
X192487656Y-131579124D01*
X192273948Y-132095061D01*
X192165000Y-132642777D01*
X120316197Y-132642777D01*
X120337411Y-132633990D01*
X120580632Y-132471475D01*
X120787475Y-132264632D01*
X120949990Y-132021411D01*
X121061932Y-131751158D01*
X121119000Y-131464260D01*
X121119000Y-131171740D01*
X121065950Y-130905040D01*
X168788091Y-130905040D01*
X168882930Y-131169881D01*
X169027615Y-131411131D01*
X169216586Y-131619519D01*
X169442580Y-131787037D01*
X169696913Y-131907246D01*
X169830961Y-131947904D01*
X170053000Y-131825915D01*
X170053000Y-130683000D01*
X170307000Y-130683000D01*
X170307000Y-131825915D01*
X170529039Y-131947904D01*
X170663087Y-131907246D01*
X170917420Y-131787037D01*
X171141020Y-131621293D01*
X183264312Y-131621293D01*
X183348201Y-131875647D01*
X183621058Y-132006714D01*
X183914241Y-132082030D01*
X184216486Y-132098703D01*
X184516175Y-132056090D01*
X184801792Y-131955829D01*
X184951799Y-131875647D01*
X185035688Y-131621293D01*
X184150000Y-130735605D01*
X183264312Y-131621293D01*
X171141020Y-131621293D01*
X171143414Y-131619519D01*
X171332385Y-131411131D01*
X171477070Y-131169881D01*
X171571909Y-130905040D01*
X171450624Y-130683000D01*
X170307000Y-130683000D01*
X170053000Y-130683000D01*
X168909376Y-130683000D01*
X168788091Y-130905040D01*
X121065950Y-130905040D01*
X121061932Y-130884842D01*
X120953262Y-130622486D01*
X182607297Y-130622486D01*
X182649910Y-130922175D01*
X182750171Y-131207792D01*
X182830353Y-131357799D01*
X183084707Y-131441688D01*
X183970395Y-130556000D01*
X184329605Y-130556000D01*
X185215293Y-131441688D01*
X185469647Y-131357799D01*
X185600714Y-131084942D01*
X185676030Y-130791759D01*
X185692703Y-130489514D01*
X185650090Y-130189825D01*
X185549829Y-129904208D01*
X185469647Y-129754201D01*
X185215293Y-129670312D01*
X184329605Y-130556000D01*
X183970395Y-130556000D01*
X183084707Y-129670312D01*
X182830353Y-129754201D01*
X182699286Y-130027058D01*
X182623970Y-130320241D01*
X182607297Y-130622486D01*
X120953262Y-130622486D01*
X120949990Y-130614589D01*
X120787475Y-130371368D01*
X120623067Y-130206960D01*
X168788091Y-130206960D01*
X168909376Y-130429000D01*
X170053000Y-130429000D01*
X170053000Y-129286085D01*
X170307000Y-129286085D01*
X170307000Y-130429000D01*
X171450624Y-130429000D01*
X171571909Y-130206960D01*
X171477070Y-129942119D01*
X171332385Y-129700869D01*
X171143414Y-129492481D01*
X171141021Y-129490707D01*
X183264312Y-129490707D01*
X184150000Y-130376395D01*
X185035688Y-129490707D01*
X184951799Y-129236353D01*
X184678942Y-129105286D01*
X184385759Y-129029970D01*
X184083514Y-129013297D01*
X183783825Y-129055910D01*
X183498208Y-129156171D01*
X183348201Y-129236353D01*
X183264312Y-129490707D01*
X171141021Y-129490707D01*
X170917420Y-129324963D01*
X170663087Y-129204754D01*
X170529039Y-129164096D01*
X170307000Y-129286085D01*
X170053000Y-129286085D01*
X169830961Y-129164096D01*
X169696913Y-129204754D01*
X169442580Y-129324963D01*
X169216586Y-129492481D01*
X169027615Y-129700869D01*
X168882930Y-129942119D01*
X168788091Y-130206960D01*
X120623067Y-130206960D01*
X120580632Y-130164525D01*
X120337411Y-130002010D01*
X120067158Y-129890068D01*
X119780260Y-129833000D01*
X119487740Y-129833000D01*
X119200842Y-129890068D01*
X118930589Y-130002010D01*
X118687368Y-130164525D01*
X118480525Y-130371368D01*
X118364000Y-130545760D01*
X118247475Y-130371368D01*
X118040632Y-130164525D01*
X117797411Y-130002010D01*
X117527158Y-129890068D01*
X117240260Y-129833000D01*
X116947740Y-129833000D01*
X116660842Y-129890068D01*
X116390589Y-130002010D01*
X116147368Y-130164525D01*
X115940525Y-130371368D01*
X115824000Y-130545760D01*
X115707475Y-130371368D01*
X115500632Y-130164525D01*
X115257411Y-130002010D01*
X114987158Y-129890068D01*
X114700260Y-129833000D01*
X114407740Y-129833000D01*
X114120842Y-129890068D01*
X113850589Y-130002010D01*
X113607368Y-130164525D01*
X113475513Y-130296380D01*
X113453502Y-130223820D01*
X113394537Y-130113506D01*
X113315185Y-130016815D01*
X113218494Y-129937463D01*
X113108180Y-129878498D01*
X112988482Y-129842188D01*
X112864000Y-129829928D01*
X111164000Y-129829928D01*
X111039518Y-129842188D01*
X110919820Y-129878498D01*
X110809506Y-129937463D01*
X110712815Y-130016815D01*
X110633463Y-130113506D01*
X110574498Y-130223820D01*
X110538188Y-130343518D01*
X110525928Y-130468000D01*
X99903188Y-130468000D01*
X99812876Y-130407656D01*
X99296939Y-130193948D01*
X98749223Y-130085000D01*
X98190777Y-130085000D01*
X97643061Y-130193948D01*
X97127124Y-130407656D01*
X96662793Y-130717912D01*
X96267912Y-131112793D01*
X95957656Y-131577124D01*
X95743948Y-132093061D01*
X95635000Y-132640777D01*
X94132000Y-132640777D01*
X94132000Y-126898061D01*
X110471000Y-126898061D01*
X110471000Y-127101939D01*
X110510774Y-127301898D01*
X110588795Y-127490256D01*
X110702063Y-127659774D01*
X110846226Y-127803937D01*
X111015744Y-127917205D01*
X111204102Y-127995226D01*
X111404061Y-128035000D01*
X111607939Y-128035000D01*
X111807898Y-127995226D01*
X111996256Y-127917205D01*
X112165774Y-127803937D01*
X112309937Y-127659774D01*
X112423205Y-127490256D01*
X112501226Y-127301898D01*
X112541000Y-127101939D01*
X112541000Y-126898061D01*
X112501226Y-126698102D01*
X112423205Y-126509744D01*
X112309937Y-126340226D01*
X112266000Y-126296289D01*
X112266000Y-124358061D01*
X115043000Y-124358061D01*
X115043000Y-124561939D01*
X115082774Y-124761898D01*
X115160795Y-124950256D01*
X115274063Y-125119774D01*
X115418226Y-125263937D01*
X115587744Y-125377205D01*
X115776102Y-125455226D01*
X115976061Y-125495000D01*
X116179939Y-125495000D01*
X116379898Y-125455226D01*
X116568256Y-125377205D01*
X116737774Y-125263937D01*
X116781711Y-125220000D01*
X119342678Y-125220000D01*
X119380000Y-125223676D01*
X119417322Y-125220000D01*
X119417333Y-125220000D01*
X119528986Y-125209003D01*
X119672247Y-125165546D01*
X119804276Y-125094974D01*
X119920001Y-125000001D01*
X119930671Y-124987000D01*
X119989939Y-124987000D01*
X120189898Y-124947226D01*
X120378256Y-124869205D01*
X120547774Y-124755937D01*
X120691937Y-124611774D01*
X120805205Y-124442256D01*
X120883226Y-124253898D01*
X120923000Y-124053939D01*
X120923000Y-123850061D01*
X120883226Y-123650102D01*
X120805205Y-123461744D01*
X120691937Y-123292226D01*
X120547774Y-123148063D01*
X120378256Y-123034795D01*
X120189898Y-122956774D01*
X119989939Y-122917000D01*
X119786061Y-122917000D01*
X119586102Y-122956774D01*
X119397744Y-123034795D01*
X119228226Y-123148063D01*
X119084063Y-123292226D01*
X118970795Y-123461744D01*
X118892774Y-123650102D01*
X118882849Y-123700000D01*
X116781711Y-123700000D01*
X116737774Y-123656063D01*
X116568256Y-123542795D01*
X116379898Y-123464774D01*
X116179939Y-123425000D01*
X115976061Y-123425000D01*
X115776102Y-123464774D01*
X115587744Y-123542795D01*
X115418226Y-123656063D01*
X115274063Y-123800226D01*
X115160795Y-123969744D01*
X115082774Y-124158102D01*
X115043000Y-124358061D01*
X112266000Y-124358061D01*
X112266000Y-123250801D01*
X114503318Y-121013484D01*
X114571744Y-121059205D01*
X114760102Y-121137226D01*
X114960061Y-121177000D01*
X115163939Y-121177000D01*
X115363898Y-121137226D01*
X115552256Y-121059205D01*
X115721774Y-120945937D01*
X115865937Y-120801774D01*
X115979205Y-120632256D01*
X116057226Y-120443898D01*
X116097000Y-120243939D01*
X116097000Y-120040061D01*
X116057226Y-119840102D01*
X115979205Y-119651744D01*
X115865937Y-119482226D01*
X115721774Y-119338063D01*
X115552256Y-119224795D01*
X115363898Y-119146774D01*
X115163939Y-119107000D01*
X114960061Y-119107000D01*
X114760102Y-119146774D01*
X114571744Y-119224795D01*
X114402226Y-119338063D01*
X114358289Y-119382000D01*
X114337325Y-119382000D01*
X114300000Y-119378324D01*
X114262675Y-119382000D01*
X114262667Y-119382000D01*
X114151014Y-119392997D01*
X114007753Y-119436454D01*
X113875724Y-119507026D01*
X113759999Y-119601999D01*
X113736201Y-119630997D01*
X110994998Y-122372201D01*
X110966000Y-122395999D01*
X110942202Y-122424997D01*
X110942201Y-122424998D01*
X110871026Y-122511724D01*
X110800454Y-122643754D01*
X110770180Y-122743558D01*
X110756998Y-122787014D01*
X110756113Y-122796003D01*
X110742324Y-122936000D01*
X110746001Y-122973332D01*
X110746000Y-126296289D01*
X110702063Y-126340226D01*
X110588795Y-126509744D01*
X110510774Y-126698102D01*
X110471000Y-126898061D01*
X94132000Y-126898061D01*
X94132000Y-115619293D01*
X100460312Y-115619293D01*
X100544201Y-115873647D01*
X100817058Y-116004714D01*
X101110241Y-116080030D01*
X101412486Y-116096703D01*
X101712175Y-116054090D01*
X101997792Y-115953829D01*
X102147799Y-115873647D01*
X102231688Y-115619293D01*
X101346000Y-114733605D01*
X100460312Y-115619293D01*
X94132000Y-115619293D01*
X94132000Y-114620486D01*
X99803297Y-114620486D01*
X99845910Y-114920175D01*
X99946171Y-115205792D01*
X100026353Y-115355799D01*
X100280707Y-115439688D01*
X101166395Y-114554000D01*
X101525605Y-114554000D01*
X102411293Y-115439688D01*
X102665647Y-115355799D01*
X102670414Y-115345874D01*
X118981731Y-115345874D01*
X119025993Y-115566916D01*
X119243089Y-115665301D01*
X119475208Y-115719442D01*
X119713429Y-115727258D01*
X119948598Y-115688450D01*
X120171677Y-115604509D01*
X120242007Y-115566916D01*
X120286269Y-115345874D01*
X119634000Y-114693605D01*
X118981731Y-115345874D01*
X102670414Y-115345874D01*
X102796714Y-115082942D01*
X102872030Y-114789759D01*
X102882860Y-114593429D01*
X118420742Y-114593429D01*
X118459550Y-114828598D01*
X118543491Y-115051677D01*
X118581084Y-115122007D01*
X118802126Y-115166269D01*
X119454395Y-114514000D01*
X119813605Y-114514000D01*
X120465874Y-115166269D01*
X120686916Y-115122007D01*
X120785301Y-114904911D01*
X120839442Y-114672792D01*
X120847258Y-114434571D01*
X120808450Y-114199402D01*
X120724509Y-113976323D01*
X120686916Y-113905993D01*
X120465874Y-113861731D01*
X119813605Y-114514000D01*
X119454395Y-114514000D01*
X118802126Y-113861731D01*
X118581084Y-113905993D01*
X118482699Y-114123089D01*
X118428558Y-114355208D01*
X118420742Y-114593429D01*
X102882860Y-114593429D01*
X102888703Y-114487514D01*
X102846090Y-114187825D01*
X102745829Y-113902208D01*
X102665647Y-113752201D01*
X102453178Y-113682126D01*
X118981731Y-113682126D01*
X119634000Y-114334395D01*
X120286269Y-113682126D01*
X120242007Y-113461084D01*
X120024911Y-113362699D01*
X119792792Y-113308558D01*
X119554571Y-113300742D01*
X119319402Y-113339550D01*
X119096323Y-113423491D01*
X119025993Y-113461084D01*
X118981731Y-113682126D01*
X102453178Y-113682126D01*
X102411293Y-113668312D01*
X101525605Y-114554000D01*
X101166395Y-114554000D01*
X100280707Y-113668312D01*
X100026353Y-113752201D01*
X99895286Y-114025058D01*
X99819970Y-114318241D01*
X99803297Y-114620486D01*
X94132000Y-114620486D01*
X94132000Y-113488707D01*
X100460312Y-113488707D01*
X101346000Y-114374395D01*
X102231688Y-113488707D01*
X102147799Y-113234353D01*
X101874942Y-113103286D01*
X101581759Y-113027970D01*
X101279514Y-113011297D01*
X100979825Y-113053910D01*
X100694208Y-113154171D01*
X100544201Y-113234353D01*
X100460312Y-113488707D01*
X94132000Y-113488707D01*
X94132000Y-94234001D01*
X99200671Y-94234001D01*
X99211001Y-94338883D01*
X99211000Y-109449128D01*
X99200671Y-109554000D01*
X99211000Y-109658872D01*
X99211000Y-109658881D01*
X99241892Y-109972532D01*
X99363974Y-110374981D01*
X99562223Y-110745881D01*
X99829023Y-111070977D01*
X100154119Y-111337777D01*
X100525018Y-111536026D01*
X100927467Y-111658108D01*
X101346000Y-111699330D01*
X101764532Y-111658108D01*
X102166981Y-111536026D01*
X102537881Y-111337777D01*
X102862977Y-111070977D01*
X102929837Y-110989508D01*
X103132044Y-110787301D01*
X106823000Y-110787301D01*
X106823000Y-112094321D01*
X106846657Y-112334515D01*
X106940148Y-112642714D01*
X107091969Y-112926751D01*
X107296286Y-113175714D01*
X107545248Y-113380031D01*
X107829285Y-113531852D01*
X108137484Y-113625343D01*
X108458000Y-113656911D01*
X108778515Y-113625343D01*
X109086714Y-113531852D01*
X109370751Y-113380031D01*
X109602255Y-113190042D01*
X109617463Y-113218494D01*
X109696815Y-113315185D01*
X109793506Y-113394537D01*
X109903820Y-113453502D01*
X110023518Y-113489812D01*
X110148000Y-113502072D01*
X110712250Y-113499000D01*
X110871000Y-113340250D01*
X110871000Y-112141000D01*
X111125000Y-112141000D01*
X111125000Y-113340250D01*
X111283750Y-113499000D01*
X111848000Y-113502072D01*
X111972482Y-113489812D01*
X112092180Y-113453502D01*
X112202494Y-113394537D01*
X112299185Y-113315185D01*
X112378537Y-113218494D01*
X112437502Y-113108180D01*
X112473812Y-112988482D01*
X112486072Y-112864000D01*
X112483000Y-112299750D01*
X112324250Y-112141000D01*
X111125000Y-112141000D01*
X110871000Y-112141000D01*
X110851000Y-112141000D01*
X110851000Y-111887000D01*
X110871000Y-111887000D01*
X110871000Y-111867000D01*
X111125000Y-111867000D01*
X111125000Y-111887000D01*
X112324250Y-111887000D01*
X112483000Y-111728250D01*
X112486072Y-111164000D01*
X112473812Y-111039518D01*
X112437502Y-110919820D01*
X112378537Y-110809506D01*
X112360314Y-110787301D01*
X117887956Y-110787301D01*
X118198490Y-111097835D01*
X118442119Y-111297776D01*
X118813017Y-111496025D01*
X119215466Y-111618107D01*
X119633999Y-111659329D01*
X120052533Y-111618107D01*
X120454981Y-111496025D01*
X120825881Y-111297776D01*
X121150977Y-111030977D01*
X121417776Y-110705881D01*
X121448179Y-110649000D01*
X128250869Y-110649000D01*
X130914796Y-113312928D01*
X129933000Y-113312928D01*
X129808518Y-113325188D01*
X129688820Y-113361498D01*
X129578506Y-113420463D01*
X129481815Y-113499815D01*
X129402463Y-113596506D01*
X129343498Y-113706820D01*
X129307188Y-113826518D01*
X129294928Y-113951000D01*
X129294928Y-115858338D01*
X129284324Y-115966000D01*
X129288001Y-116003332D01*
X129288000Y-120828956D01*
X129133241Y-120932363D01*
X128933363Y-121132241D01*
X128776320Y-121367273D01*
X128668147Y-121628426D01*
X128613000Y-121905665D01*
X128613000Y-122188335D01*
X128668147Y-122465574D01*
X128776320Y-122726727D01*
X128933363Y-122961759D01*
X129133241Y-123161637D01*
X129288000Y-123265044D01*
X129288001Y-124003956D01*
X129133241Y-124107363D01*
X128933363Y-124307241D01*
X128776320Y-124542273D01*
X128668147Y-124803426D01*
X128613000Y-125080665D01*
X128613000Y-125363335D01*
X128668147Y-125640574D01*
X128776320Y-125901727D01*
X128933363Y-126136759D01*
X129126001Y-126329397D01*
X129126000Y-127207436D01*
X129075718Y-127212388D01*
X128956020Y-127248698D01*
X128845706Y-127307663D01*
X128749015Y-127387015D01*
X128669663Y-127483706D01*
X128610698Y-127594020D01*
X128574388Y-127713718D01*
X128562128Y-127838200D01*
X128562128Y-129209800D01*
X128574388Y-129334282D01*
X128610698Y-129453980D01*
X128669663Y-129564294D01*
X128749015Y-129660985D01*
X128845706Y-129740337D01*
X128956020Y-129799302D01*
X129075718Y-129835612D01*
X129200200Y-129847872D01*
X130571800Y-129847872D01*
X130696282Y-129835612D01*
X130815980Y-129799302D01*
X130926294Y-129740337D01*
X131022985Y-129660985D01*
X131102337Y-129564294D01*
X131161302Y-129453980D01*
X131167022Y-129435121D01*
X140838485Y-129435121D01*
X140896221Y-129667442D01*
X141132242Y-129776919D01*
X141385086Y-129838247D01*
X141645036Y-129849069D01*
X141902103Y-129808970D01*
X142146407Y-129719490D01*
X142243779Y-129667442D01*
X142301515Y-129435121D01*
X141570000Y-128703605D01*
X140838485Y-129435121D01*
X131167022Y-129435121D01*
X131197612Y-129334282D01*
X131209872Y-129209800D01*
X131209872Y-128599036D01*
X140244931Y-128599036D01*
X140285030Y-128856103D01*
X140374510Y-129100407D01*
X140426558Y-129197779D01*
X140658879Y-129255515D01*
X141390395Y-128524000D01*
X141749605Y-128524000D01*
X142481121Y-129255515D01*
X142713442Y-129197779D01*
X142822919Y-128961758D01*
X142884247Y-128708914D01*
X142895069Y-128448964D01*
X142854970Y-128191897D01*
X142765490Y-127947593D01*
X142713442Y-127850221D01*
X142481121Y-127792485D01*
X141749605Y-128524000D01*
X141390395Y-128524000D01*
X140658879Y-127792485D01*
X140426558Y-127850221D01*
X140317081Y-128086242D01*
X140255753Y-128339086D01*
X140244931Y-128599036D01*
X131209872Y-128599036D01*
X131209872Y-127838200D01*
X131197612Y-127713718D01*
X131167023Y-127612879D01*
X140838485Y-127612879D01*
X141570000Y-128344395D01*
X142301515Y-127612879D01*
X142243779Y-127380558D01*
X142007758Y-127271081D01*
X141754914Y-127209753D01*
X141494964Y-127198931D01*
X141237897Y-127239030D01*
X140993593Y-127328510D01*
X140896221Y-127380558D01*
X140838485Y-127612879D01*
X131167023Y-127612879D01*
X131161302Y-127594020D01*
X131102337Y-127483706D01*
X131022985Y-127387015D01*
X130926294Y-127307663D01*
X130815980Y-127248698D01*
X130696282Y-127212388D01*
X130646000Y-127207436D01*
X130646000Y-126527532D01*
X130727727Y-126493680D01*
X130962759Y-126336637D01*
X131162637Y-126136759D01*
X131319680Y-125901727D01*
X131427853Y-125640574D01*
X131483000Y-125363335D01*
X131483000Y-125080665D01*
X138773000Y-125080665D01*
X138773000Y-125363335D01*
X138828147Y-125640574D01*
X138936320Y-125901727D01*
X139093363Y-126136759D01*
X139293241Y-126336637D01*
X139528273Y-126493680D01*
X139789426Y-126601853D01*
X140066665Y-126657000D01*
X140349335Y-126657000D01*
X140626574Y-126601853D01*
X140887727Y-126493680D01*
X141122759Y-126336637D01*
X141322637Y-126136759D01*
X141479680Y-125901727D01*
X141587853Y-125640574D01*
X141643000Y-125363335D01*
X141643000Y-125080665D01*
X141587853Y-124803426D01*
X141479680Y-124542273D01*
X141322637Y-124307241D01*
X141122759Y-124107363D01*
X140887727Y-123950320D01*
X140626574Y-123842147D01*
X140349335Y-123787000D01*
X140066665Y-123787000D01*
X139789426Y-123842147D01*
X139528273Y-123950320D01*
X139293241Y-124107363D01*
X139093363Y-124307241D01*
X138936320Y-124542273D01*
X138828147Y-124803426D01*
X138773000Y-125080665D01*
X131483000Y-125080665D01*
X131427853Y-124803426D01*
X131319680Y-124542273D01*
X131162637Y-124307241D01*
X130962759Y-124107363D01*
X130808000Y-124003957D01*
X130808000Y-123265043D01*
X130962759Y-123161637D01*
X131162637Y-122961759D01*
X131319680Y-122726727D01*
X131427853Y-122465574D01*
X131483000Y-122188335D01*
X131483000Y-121905665D01*
X138773000Y-121905665D01*
X138773000Y-122188335D01*
X138828147Y-122465574D01*
X138936320Y-122726727D01*
X139093363Y-122961759D01*
X139293241Y-123161637D01*
X139528273Y-123318680D01*
X139789426Y-123426853D01*
X140066665Y-123482000D01*
X140349335Y-123482000D01*
X140626574Y-123426853D01*
X140887727Y-123318680D01*
X141122759Y-123161637D01*
X141322637Y-122961759D01*
X141434285Y-122794665D01*
X168745000Y-122794665D01*
X168745000Y-123077335D01*
X168800147Y-123354574D01*
X168908320Y-123615727D01*
X169065363Y-123850759D01*
X169265241Y-124050637D01*
X169500273Y-124207680D01*
X169761426Y-124315853D01*
X170038665Y-124371000D01*
X170321335Y-124371000D01*
X170598574Y-124315853D01*
X170859727Y-124207680D01*
X171094759Y-124050637D01*
X171294637Y-123850759D01*
X171398043Y-123696000D01*
X172151199Y-123696000D01*
X173467928Y-125012730D01*
X173467928Y-126376000D01*
X173480188Y-126500482D01*
X173516498Y-126620180D01*
X173575463Y-126730494D01*
X173654815Y-126827185D01*
X173751506Y-126906537D01*
X173861820Y-126965502D01*
X173981518Y-127001812D01*
X174106000Y-127014072D01*
X175906000Y-127014072D01*
X176030482Y-127001812D01*
X176150180Y-126965502D01*
X176260494Y-126906537D01*
X176357185Y-126827185D01*
X176436537Y-126730494D01*
X176495502Y-126620180D01*
X176501056Y-126601873D01*
X176567495Y-126668312D01*
X176818905Y-126836299D01*
X177098257Y-126952011D01*
X177394816Y-127011000D01*
X177697184Y-127011000D01*
X177993743Y-126952011D01*
X178273095Y-126836299D01*
X178524505Y-126668312D01*
X178581817Y-126611000D01*
X183031779Y-126611000D01*
X183170411Y-126749632D01*
X183422100Y-126917805D01*
X183701761Y-127033645D01*
X183998648Y-127092700D01*
X184301352Y-127092700D01*
X184598239Y-127033645D01*
X184877900Y-126917805D01*
X185129589Y-126749632D01*
X185343632Y-126535589D01*
X185511805Y-126283900D01*
X185627645Y-126004239D01*
X185686700Y-125707352D01*
X185686700Y-125404648D01*
X185627645Y-125107761D01*
X185511805Y-124828100D01*
X185343632Y-124576411D01*
X185129589Y-124362368D01*
X184877900Y-124194195D01*
X184598239Y-124078355D01*
X184301352Y-124019300D01*
X183998648Y-124019300D01*
X183701761Y-124078355D01*
X183422100Y-124194195D01*
X183202391Y-124341000D01*
X178681000Y-124341000D01*
X178681000Y-123220050D01*
X181163050Y-120738000D01*
X182661928Y-120738000D01*
X182674188Y-120862482D01*
X182710498Y-120982180D01*
X182769463Y-121092494D01*
X182848815Y-121189185D01*
X182945506Y-121268537D01*
X183055820Y-121327502D01*
X183175518Y-121363812D01*
X183300000Y-121376072D01*
X183864250Y-121373000D01*
X184023000Y-121214250D01*
X184023000Y-120015000D01*
X184277000Y-120015000D01*
X184277000Y-121214250D01*
X184435750Y-121373000D01*
X185000000Y-121376072D01*
X185124482Y-121363812D01*
X185244180Y-121327502D01*
X185354494Y-121268537D01*
X185451185Y-121189185D01*
X185530537Y-121092494D01*
X185589502Y-120982180D01*
X185625812Y-120862482D01*
X185638072Y-120738000D01*
X185635000Y-120173750D01*
X185476250Y-120015000D01*
X184277000Y-120015000D01*
X184023000Y-120015000D01*
X182823750Y-120015000D01*
X182665000Y-120173750D01*
X182661928Y-120738000D01*
X181163050Y-120738000D01*
X182663017Y-119238034D01*
X182665000Y-119602250D01*
X182823750Y-119761000D01*
X184023000Y-119761000D01*
X184023000Y-119741000D01*
X184277000Y-119741000D01*
X184277000Y-119761000D01*
X185476250Y-119761000D01*
X185635000Y-119602250D01*
X185638072Y-119038000D01*
X185625812Y-118913518D01*
X185589502Y-118793820D01*
X185530537Y-118683506D01*
X185451185Y-118586815D01*
X185354494Y-118507463D01*
X185244180Y-118448498D01*
X185171620Y-118426487D01*
X185303475Y-118294632D01*
X185465990Y-118051411D01*
X185577932Y-117781158D01*
X185635000Y-117494260D01*
X185635000Y-117201740D01*
X185577932Y-116914842D01*
X185465990Y-116644589D01*
X185303475Y-116401368D01*
X185096632Y-116194525D01*
X185064192Y-116172849D01*
X185311714Y-115969714D01*
X185516031Y-115720752D01*
X185667852Y-115436715D01*
X185761343Y-115128516D01*
X185785000Y-114888322D01*
X185785000Y-112649000D01*
X189738000Y-112649000D01*
X189861882Y-112636799D01*
X189981004Y-112600664D01*
X190090787Y-112541983D01*
X190187013Y-112463013D01*
X190265983Y-112366787D01*
X190324664Y-112257004D01*
X190360799Y-112137882D01*
X190373000Y-112014000D01*
X190373000Y-76200000D01*
X190360799Y-76076118D01*
X190324664Y-75956996D01*
X190265983Y-75847213D01*
X190187013Y-75750987D01*
X190090787Y-75672017D01*
X189981004Y-75613336D01*
X189893451Y-75586777D01*
X192165000Y-75586777D01*
X192165000Y-76145223D01*
X192273948Y-76692939D01*
X192487656Y-77208876D01*
X192797912Y-77673207D01*
X193192793Y-78068088D01*
X193657124Y-78378344D01*
X194173061Y-78592052D01*
X194720777Y-78701000D01*
X195279223Y-78701000D01*
X195826939Y-78592052D01*
X196342876Y-78378344D01*
X196807207Y-78068088D01*
X197202088Y-77673207D01*
X197512344Y-77208876D01*
X197726052Y-76692939D01*
X197835000Y-76145223D01*
X197835000Y-75586777D01*
X197726052Y-75039061D01*
X197512344Y-74523124D01*
X197202088Y-74058793D01*
X196807207Y-73663912D01*
X196342876Y-73353656D01*
X195826939Y-73139948D01*
X195279223Y-73031000D01*
X194720777Y-73031000D01*
X194173061Y-73139948D01*
X193657124Y-73353656D01*
X193192793Y-73663912D01*
X192797912Y-74058793D01*
X192487656Y-74523124D01*
X192273948Y-75039061D01*
X192165000Y-75586777D01*
X189893451Y-75586777D01*
X189861882Y-75577201D01*
X189738000Y-75565000D01*
X175260000Y-75565000D01*
X175136118Y-75577201D01*
X175016996Y-75613336D01*
X174907213Y-75672017D01*
X174810987Y-75750987D01*
X174732017Y-75847213D01*
X174673336Y-75956996D01*
X174637201Y-76076118D01*
X174625000Y-76200000D01*
X174625000Y-112014000D01*
X174637201Y-112137882D01*
X174673336Y-112257004D01*
X174732017Y-112366787D01*
X174810987Y-112463013D01*
X174907213Y-112541983D01*
X175016996Y-112600664D01*
X175136118Y-112636799D01*
X175260000Y-112649000D01*
X182515001Y-112649000D01*
X182515001Y-114888322D01*
X182538658Y-115128516D01*
X182632149Y-115436715D01*
X182783970Y-115720752D01*
X182988287Y-115969714D01*
X183235809Y-116172849D01*
X183203368Y-116194525D01*
X183184893Y-116213000D01*
X183003670Y-116213000D01*
X182947918Y-116207509D01*
X182725419Y-116229423D01*
X182675624Y-116244529D01*
X182511472Y-116294324D01*
X182314296Y-116399716D01*
X182141470Y-116541551D01*
X182105928Y-116584859D01*
X176782865Y-121907923D01*
X176739551Y-121943470D01*
X176597716Y-122116296D01*
X176522898Y-122256273D01*
X176492324Y-122313473D01*
X176427423Y-122527421D01*
X176405509Y-122749919D01*
X176411000Y-122805671D01*
X176411001Y-124190390D01*
X176357185Y-124124815D01*
X176260494Y-124045463D01*
X176150180Y-123986498D01*
X176030482Y-123950188D01*
X175906000Y-123937928D01*
X174542730Y-123937928D01*
X173029804Y-122425003D01*
X173006001Y-122395999D01*
X172890276Y-122301026D01*
X172758247Y-122230454D01*
X172614986Y-122186997D01*
X172503333Y-122176000D01*
X172503322Y-122176000D01*
X172466000Y-122172324D01*
X172428678Y-122176000D01*
X171398043Y-122176000D01*
X171294637Y-122021241D01*
X171094759Y-121821363D01*
X170859727Y-121664320D01*
X170598574Y-121556147D01*
X170321335Y-121501000D01*
X170038665Y-121501000D01*
X169761426Y-121556147D01*
X169500273Y-121664320D01*
X169265241Y-121821363D01*
X169065363Y-122021241D01*
X168908320Y-122256273D01*
X168800147Y-122517426D01*
X168745000Y-122794665D01*
X141434285Y-122794665D01*
X141479680Y-122726727D01*
X141587853Y-122465574D01*
X141643000Y-122188335D01*
X141643000Y-121905665D01*
X141587853Y-121628426D01*
X141479680Y-121367273D01*
X141322637Y-121132241D01*
X141122759Y-120932363D01*
X140887727Y-120775320D01*
X140626574Y-120667147D01*
X140349335Y-120612000D01*
X140066665Y-120612000D01*
X139789426Y-120667147D01*
X139528273Y-120775320D01*
X139293241Y-120932363D01*
X139093363Y-121132241D01*
X138936320Y-121367273D01*
X138828147Y-121628426D01*
X138773000Y-121905665D01*
X131483000Y-121905665D01*
X131427853Y-121628426D01*
X131319680Y-121367273D01*
X131162637Y-121132241D01*
X130962759Y-120932363D01*
X130808000Y-120828957D01*
X130808000Y-117799072D01*
X130983000Y-117799072D01*
X131107482Y-117786812D01*
X131227180Y-117750502D01*
X131308000Y-117707302D01*
X131388820Y-117750502D01*
X131508518Y-117786812D01*
X131633000Y-117799072D01*
X132683000Y-117799072D01*
X132807482Y-117786812D01*
X132927180Y-117750502D01*
X133008000Y-117707302D01*
X133088820Y-117750502D01*
X133208518Y-117786812D01*
X133333000Y-117799072D01*
X134095127Y-117799072D01*
X133782199Y-118112000D01*
X132783711Y-118112000D01*
X132739774Y-118068063D01*
X132570256Y-117954795D01*
X132381898Y-117876774D01*
X132181939Y-117837000D01*
X131978061Y-117837000D01*
X131778102Y-117876774D01*
X131589744Y-117954795D01*
X131420226Y-118068063D01*
X131276063Y-118212226D01*
X131162795Y-118381744D01*
X131084774Y-118570102D01*
X131045000Y-118770061D01*
X131045000Y-118973939D01*
X131084774Y-119173898D01*
X131162795Y-119362256D01*
X131276063Y-119531774D01*
X131420226Y-119675937D01*
X131589744Y-119789205D01*
X131778102Y-119867226D01*
X131978061Y-119907000D01*
X132181939Y-119907000D01*
X132381898Y-119867226D01*
X132570256Y-119789205D01*
X132739774Y-119675937D01*
X132783711Y-119632000D01*
X134059678Y-119632000D01*
X134097000Y-119635676D01*
X134134322Y-119632000D01*
X134134333Y-119632000D01*
X134245986Y-119621003D01*
X134389247Y-119577546D01*
X134521276Y-119506974D01*
X134637001Y-119412001D01*
X134660804Y-119382997D01*
X136069004Y-117974798D01*
X136098001Y-117951001D01*
X136124332Y-117918917D01*
X136192974Y-117835277D01*
X136221085Y-117782686D01*
X136327180Y-117750502D01*
X136408000Y-117707302D01*
X136488820Y-117750502D01*
X136608518Y-117786812D01*
X136733000Y-117799072D01*
X136972250Y-117796000D01*
X137131000Y-117637250D01*
X137131000Y-115683000D01*
X137385000Y-115683000D01*
X137385000Y-117637250D01*
X137543750Y-117796000D01*
X137783000Y-117799072D01*
X137907482Y-117786812D01*
X138027180Y-117750502D01*
X138137494Y-117691537D01*
X138234185Y-117612185D01*
X138313537Y-117515494D01*
X138372502Y-117405180D01*
X138408812Y-117285482D01*
X138421072Y-117161000D01*
X138418000Y-115841750D01*
X138259250Y-115683000D01*
X137385000Y-115683000D01*
X137131000Y-115683000D01*
X137111000Y-115683000D01*
X137111000Y-115429000D01*
X137131000Y-115429000D01*
X137131000Y-113474750D01*
X137385000Y-113474750D01*
X137385000Y-115429000D01*
X138259250Y-115429000D01*
X138418000Y-115270250D01*
X138421072Y-113951000D01*
X138408812Y-113826518D01*
X138372502Y-113706820D01*
X138313537Y-113596506D01*
X138234185Y-113499815D01*
X138137494Y-113420463D01*
X138027180Y-113361498D01*
X137907482Y-113325188D01*
X137783000Y-113312928D01*
X137543750Y-113316000D01*
X137385000Y-113474750D01*
X137131000Y-113474750D01*
X136972250Y-113316000D01*
X136733000Y-113312928D01*
X136608518Y-113325188D01*
X136488820Y-113361498D01*
X136408000Y-113404698D01*
X136327180Y-113361498D01*
X136207482Y-113325188D01*
X136083000Y-113312928D01*
X135033000Y-113312928D01*
X134908518Y-113325188D01*
X134788820Y-113361498D01*
X134708000Y-113404698D01*
X134627180Y-113361498D01*
X134507482Y-113325188D01*
X134383000Y-113312928D01*
X133333000Y-113312928D01*
X133293000Y-113316868D01*
X133293000Y-113006751D01*
X133298491Y-112950999D01*
X133276577Y-112728501D01*
X133211676Y-112514553D01*
X133175653Y-112447158D01*
X133106284Y-112317377D01*
X132964449Y-112144551D01*
X132921141Y-112109009D01*
X129562996Y-108750865D01*
X129527449Y-108707551D01*
X129354623Y-108565716D01*
X129157447Y-108460324D01*
X128943499Y-108395423D01*
X128776752Y-108379000D01*
X128776751Y-108379000D01*
X128721000Y-108373509D01*
X128665249Y-108379000D01*
X121448180Y-108379000D01*
X121417776Y-108322119D01*
X121217835Y-108078490D01*
X120356138Y-107216793D01*
X120289278Y-107135324D01*
X119964182Y-106868524D01*
X119593283Y-106670275D01*
X119190834Y-106548193D01*
X118877183Y-106517301D01*
X118877173Y-106517301D01*
X118772301Y-106506972D01*
X118667429Y-106517301D01*
X103481000Y-106517301D01*
X103481000Y-95118346D01*
X103505000Y-95094346D01*
X103505000Y-95885000D01*
X103507440Y-95909776D01*
X103514667Y-95933601D01*
X103526403Y-95955557D01*
X103542197Y-95974803D01*
X111416197Y-103848803D01*
X111435443Y-103864597D01*
X111457399Y-103876333D01*
X111481224Y-103883560D01*
X111506000Y-103886000D01*
X122428000Y-103886000D01*
X122452776Y-103883560D01*
X122476601Y-103876333D01*
X122498557Y-103864597D01*
X122517803Y-103848803D01*
X130391803Y-95974803D01*
X130407597Y-95955557D01*
X130419333Y-95933601D01*
X130426560Y-95909776D01*
X130429000Y-95885000D01*
X130429000Y-95116344D01*
X131977000Y-96664344D01*
X131977001Y-99437928D01*
X128593000Y-99437928D01*
X128468518Y-99450188D01*
X128348820Y-99486498D01*
X128238506Y-99545463D01*
X128141815Y-99624815D01*
X128062463Y-99721506D01*
X128003498Y-99831820D01*
X127967188Y-99951518D01*
X127954928Y-100076000D01*
X127954928Y-105076000D01*
X127967188Y-105200482D01*
X128003498Y-105320180D01*
X128062463Y-105430494D01*
X128141815Y-105527185D01*
X128238506Y-105606537D01*
X128348820Y-105665502D01*
X128468518Y-105701812D01*
X128593000Y-105714072D01*
X139123000Y-105714072D01*
X139247482Y-105701812D01*
X139367180Y-105665502D01*
X139477494Y-105606537D01*
X139574185Y-105527185D01*
X139653537Y-105430494D01*
X139712502Y-105320180D01*
X139748812Y-105200482D01*
X139761072Y-105076000D01*
X139761072Y-100076000D01*
X139748812Y-99951518D01*
X139712502Y-99831820D01*
X139653537Y-99721506D01*
X139574185Y-99624815D01*
X139477494Y-99545463D01*
X139367180Y-99486498D01*
X139247482Y-99450188D01*
X139123000Y-99437928D01*
X136247000Y-99437928D01*
X136247000Y-96664343D01*
X139875746Y-93035598D01*
X139957210Y-92968742D01*
X140224010Y-92643646D01*
X140422259Y-92272747D01*
X140438337Y-92219744D01*
X140544341Y-91870299D01*
X140565496Y-91655506D01*
X140575233Y-91556647D01*
X140575233Y-91556640D01*
X140585562Y-91451765D01*
X140575233Y-91346891D01*
X140575233Y-84466885D01*
X140544341Y-84153234D01*
X140422259Y-83750785D01*
X140224010Y-83379886D01*
X139957210Y-83054790D01*
X139632114Y-82787990D01*
X139261214Y-82589741D01*
X138858765Y-82467659D01*
X138440233Y-82426437D01*
X138021700Y-82467659D01*
X137619251Y-82589741D01*
X137248352Y-82787990D01*
X136923256Y-83054790D01*
X136656456Y-83379886D01*
X136458207Y-83750786D01*
X136336125Y-84153235D01*
X136305233Y-84466886D01*
X136305234Y-90567418D01*
X134112000Y-92760652D01*
X130429000Y-89077653D01*
X130429000Y-84963000D01*
X130426560Y-84938224D01*
X130419333Y-84914399D01*
X130407597Y-84892443D01*
X130391803Y-84873197D01*
X126554839Y-81036233D01*
X139830437Y-81036233D01*
X139871659Y-81454766D01*
X139993741Y-81857215D01*
X140191990Y-82228114D01*
X140458790Y-82553210D01*
X140783886Y-82820010D01*
X141154785Y-83018259D01*
X141557234Y-83140341D01*
X141870885Y-83171233D01*
X144899890Y-83171233D01*
X148723656Y-86995000D01*
X147955000Y-86995000D01*
X147930224Y-86997440D01*
X147906399Y-87004667D01*
X147884443Y-87016403D01*
X147865197Y-87032197D01*
X139991197Y-94906197D01*
X139975403Y-94925443D01*
X139963667Y-94947399D01*
X139956440Y-94971224D01*
X139954000Y-94996000D01*
X139954000Y-105918000D01*
X139956440Y-105942776D01*
X139963667Y-105966601D01*
X139975403Y-105988557D01*
X139991197Y-106007803D01*
X147865197Y-113881803D01*
X147884443Y-113897597D01*
X147906399Y-113909333D01*
X147930224Y-113916560D01*
X147955000Y-113919000D01*
X152486619Y-113919000D01*
X152737049Y-114044107D01*
X153096596Y-114142437D01*
X153468419Y-114168732D01*
X153838226Y-114121983D01*
X154191808Y-114003987D01*
X154350808Y-113919000D01*
X158877000Y-113919000D01*
X158901776Y-113916560D01*
X158925601Y-113909333D01*
X158947557Y-113897597D01*
X158966803Y-113881803D01*
X166840803Y-106007803D01*
X166856597Y-105988557D01*
X166868333Y-105966601D01*
X166875560Y-105942776D01*
X166878000Y-105918000D01*
X166878000Y-94996000D01*
X166875560Y-94971224D01*
X166868333Y-94947399D01*
X166856597Y-94925443D01*
X166840803Y-94906197D01*
X165565875Y-93631269D01*
X171276336Y-93631269D01*
X171335797Y-93865037D01*
X171574242Y-93975934D01*
X171829740Y-94038183D01*
X172092473Y-94049390D01*
X172352344Y-94009125D01*
X172599366Y-93918935D01*
X172700203Y-93865037D01*
X172759664Y-93631269D01*
X172018000Y-92889605D01*
X171276336Y-93631269D01*
X165565875Y-93631269D01*
X164719079Y-92784473D01*
X170678610Y-92784473D01*
X170718875Y-93044344D01*
X170809065Y-93291366D01*
X170862963Y-93392203D01*
X171096731Y-93451664D01*
X171838395Y-92710000D01*
X172197605Y-92710000D01*
X172939269Y-93451664D01*
X173173037Y-93392203D01*
X173283934Y-93153758D01*
X173346183Y-92898260D01*
X173357390Y-92635527D01*
X173317125Y-92375656D01*
X173226935Y-92128634D01*
X173173037Y-92027797D01*
X172939269Y-91968336D01*
X172197605Y-92710000D01*
X171838395Y-92710000D01*
X171096731Y-91968336D01*
X170862963Y-92027797D01*
X170752066Y-92266242D01*
X170689817Y-92521740D01*
X170678610Y-92784473D01*
X164719079Y-92784473D01*
X163723337Y-91788731D01*
X171276336Y-91788731D01*
X172018000Y-92530395D01*
X172759664Y-91788731D01*
X172700203Y-91554963D01*
X172461758Y-91444066D01*
X172206260Y-91381817D01*
X171943527Y-91370610D01*
X171683656Y-91410875D01*
X171436634Y-91501065D01*
X171335797Y-91554963D01*
X171276336Y-91788731D01*
X163723337Y-91788731D01*
X158966803Y-87032197D01*
X158947557Y-87016403D01*
X158925601Y-87004667D01*
X158901776Y-86997440D01*
X158877000Y-86995000D01*
X155551000Y-86995000D01*
X155551000Y-86084345D01*
X159935835Y-81699511D01*
X160135776Y-81455882D01*
X160334025Y-81084983D01*
X160456107Y-80682534D01*
X160497329Y-80264001D01*
X160456107Y-79845467D01*
X160334025Y-79443019D01*
X160135776Y-79072119D01*
X159868977Y-78747023D01*
X159543881Y-78480224D01*
X159172981Y-78281975D01*
X158770533Y-78159893D01*
X158351999Y-78118671D01*
X157933466Y-78159893D01*
X157531017Y-78281975D01*
X157160118Y-78480224D01*
X156916489Y-78680165D01*
X151980487Y-83616168D01*
X151899024Y-83683023D01*
X151832168Y-83764487D01*
X151832165Y-83764490D01*
X151705530Y-83918795D01*
X151696791Y-83929444D01*
X147368072Y-79600725D01*
X147301212Y-79519256D01*
X146976116Y-79252456D01*
X146605217Y-79054207D01*
X146202768Y-78932125D01*
X145889117Y-78901233D01*
X145889107Y-78901233D01*
X145784235Y-78890904D01*
X145679363Y-78901233D01*
X141870885Y-78901233D01*
X141557234Y-78932125D01*
X141154785Y-79054207D01*
X140783886Y-79252456D01*
X140458790Y-79519256D01*
X140191990Y-79844352D01*
X139993741Y-80215251D01*
X139871659Y-80617700D01*
X139830437Y-81036233D01*
X126554839Y-81036233D01*
X122517803Y-76999197D01*
X122498557Y-76983403D01*
X122476601Y-76971667D01*
X122452776Y-76964440D01*
X122428000Y-76962000D01*
X111506000Y-76962000D01*
X111481224Y-76964440D01*
X111457399Y-76971667D01*
X111435443Y-76983403D01*
X111416197Y-76999197D01*
X103542197Y-84873197D01*
X103526403Y-84892443D01*
X103514667Y-84914399D01*
X103507440Y-84938224D01*
X103505000Y-84963000D01*
X103505000Y-89055655D01*
X99910487Y-92650169D01*
X99829024Y-92717024D01*
X99762168Y-92798488D01*
X99762165Y-92798491D01*
X99562224Y-93042120D01*
X99363975Y-93413019D01*
X99241893Y-93815468D01*
X99200671Y-94234001D01*
X94132000Y-94234001D01*
X94132000Y-75586777D01*
X95637000Y-75586777D01*
X95637000Y-76145223D01*
X95745948Y-76692939D01*
X95959656Y-77208876D01*
X96269912Y-77673207D01*
X96664793Y-78068088D01*
X97129124Y-78378344D01*
X97645061Y-78592052D01*
X98192777Y-78701000D01*
X98751223Y-78701000D01*
X99298939Y-78592052D01*
X99814876Y-78378344D01*
X100279207Y-78068088D01*
X100674088Y-77673207D01*
X100984344Y-77208876D01*
X101198052Y-76692939D01*
X101307000Y-76145223D01*
X101307000Y-75586777D01*
X101198052Y-75039061D01*
X100984344Y-74523124D01*
X100674088Y-74058793D01*
X100279207Y-73663912D01*
X99814876Y-73353656D01*
X99298939Y-73139948D01*
X98751223Y-73031000D01*
X98192777Y-73031000D01*
X97645061Y-73139948D01*
X97129124Y-73353656D01*
X96664793Y-73663912D01*
X96269912Y-74058793D01*
X95959656Y-74523124D01*
X95745948Y-75039061D01*
X95637000Y-75586777D01*
X94132000Y-75586777D01*
X94132000Y-71526000D01*
X199340000Y-71526000D01*
X199340001Y-137262000D01*
G04 #@! TA.AperFunction,Conductor*
D36*
G36*
X199340001Y-137262000D02*
G01*
X94132000Y-137262000D01*
X94132000Y-132640777D01*
X95635000Y-132640777D01*
X95635000Y-133199223D01*
X95743948Y-133746939D01*
X95957656Y-134262876D01*
X96267912Y-134727207D01*
X96662793Y-135122088D01*
X97127124Y-135432344D01*
X97643061Y-135646052D01*
X98190777Y-135755000D01*
X98749223Y-135755000D01*
X99296939Y-135646052D01*
X99812876Y-135432344D01*
X100277207Y-135122088D01*
X100672088Y-134727207D01*
X100982344Y-134262876D01*
X101196052Y-133746939D01*
X101305000Y-133199223D01*
X101305000Y-132640777D01*
X101196052Y-132093061D01*
X100982344Y-131577124D01*
X100672088Y-131112793D01*
X100277207Y-130717912D01*
X99903188Y-130468000D01*
X110525928Y-130468000D01*
X110525928Y-132168000D01*
X110538188Y-132292482D01*
X110574498Y-132412180D01*
X110633463Y-132522494D01*
X110712815Y-132619185D01*
X110809506Y-132698537D01*
X110919820Y-132757502D01*
X111039518Y-132793812D01*
X111164000Y-132806072D01*
X112864000Y-132806072D01*
X112988482Y-132793812D01*
X113108180Y-132757502D01*
X113218494Y-132698537D01*
X113315185Y-132619185D01*
X113394537Y-132522494D01*
X113453502Y-132412180D01*
X113475513Y-132339620D01*
X113607368Y-132471475D01*
X113850589Y-132633990D01*
X114120842Y-132745932D01*
X114407740Y-132803000D01*
X114700260Y-132803000D01*
X114987158Y-132745932D01*
X115257411Y-132633990D01*
X115500632Y-132471475D01*
X115707475Y-132264632D01*
X115824000Y-132090240D01*
X115940525Y-132264632D01*
X116147368Y-132471475D01*
X116390589Y-132633990D01*
X116660842Y-132745932D01*
X116947740Y-132803000D01*
X117240260Y-132803000D01*
X117527158Y-132745932D01*
X117797411Y-132633990D01*
X118040632Y-132471475D01*
X118247475Y-132264632D01*
X118364000Y-132090240D01*
X118480525Y-132264632D01*
X118687368Y-132471475D01*
X118930589Y-132633990D01*
X119200842Y-132745932D01*
X119487740Y-132803000D01*
X119780260Y-132803000D01*
X120067158Y-132745932D01*
X120316197Y-132642777D01*
X192165000Y-132642777D01*
X192165000Y-133201223D01*
X192273948Y-133748939D01*
X192487656Y-134264876D01*
X192797912Y-134729207D01*
X193192793Y-135124088D01*
X193657124Y-135434344D01*
X194173061Y-135648052D01*
X194720777Y-135757000D01*
X195279223Y-135757000D01*
X195826939Y-135648052D01*
X196342876Y-135434344D01*
X196807207Y-135124088D01*
X197202088Y-134729207D01*
X197512344Y-134264876D01*
X197726052Y-133748939D01*
X197835000Y-133201223D01*
X197835000Y-132642777D01*
X197726052Y-132095061D01*
X197512344Y-131579124D01*
X197202088Y-131114793D01*
X196807207Y-130719912D01*
X196342876Y-130409656D01*
X195826939Y-130195948D01*
X195279223Y-130087000D01*
X194720777Y-130087000D01*
X194173061Y-130195948D01*
X193657124Y-130409656D01*
X193192793Y-130719912D01*
X192797912Y-131114793D01*
X192487656Y-131579124D01*
X192273948Y-132095061D01*
X192165000Y-132642777D01*
X120316197Y-132642777D01*
X120337411Y-132633990D01*
X120580632Y-132471475D01*
X120787475Y-132264632D01*
X120949990Y-132021411D01*
X121061932Y-131751158D01*
X121119000Y-131464260D01*
X121119000Y-131171740D01*
X121065950Y-130905040D01*
X168788091Y-130905040D01*
X168882930Y-131169881D01*
X169027615Y-131411131D01*
X169216586Y-131619519D01*
X169442580Y-131787037D01*
X169696913Y-131907246D01*
X169830961Y-131947904D01*
X170053000Y-131825915D01*
X170053000Y-130683000D01*
X170307000Y-130683000D01*
X170307000Y-131825915D01*
X170529039Y-131947904D01*
X170663087Y-131907246D01*
X170917420Y-131787037D01*
X171141020Y-131621293D01*
X183264312Y-131621293D01*
X183348201Y-131875647D01*
X183621058Y-132006714D01*
X183914241Y-132082030D01*
X184216486Y-132098703D01*
X184516175Y-132056090D01*
X184801792Y-131955829D01*
X184951799Y-131875647D01*
X185035688Y-131621293D01*
X184150000Y-130735605D01*
X183264312Y-131621293D01*
X171141020Y-131621293D01*
X171143414Y-131619519D01*
X171332385Y-131411131D01*
X171477070Y-131169881D01*
X171571909Y-130905040D01*
X171450624Y-130683000D01*
X170307000Y-130683000D01*
X170053000Y-130683000D01*
X168909376Y-130683000D01*
X168788091Y-130905040D01*
X121065950Y-130905040D01*
X121061932Y-130884842D01*
X120953262Y-130622486D01*
X182607297Y-130622486D01*
X182649910Y-130922175D01*
X182750171Y-131207792D01*
X182830353Y-131357799D01*
X183084707Y-131441688D01*
X183970395Y-130556000D01*
X184329605Y-130556000D01*
X185215293Y-131441688D01*
X185469647Y-131357799D01*
X185600714Y-131084942D01*
X185676030Y-130791759D01*
X185692703Y-130489514D01*
X185650090Y-130189825D01*
X185549829Y-129904208D01*
X185469647Y-129754201D01*
X185215293Y-129670312D01*
X184329605Y-130556000D01*
X183970395Y-130556000D01*
X183084707Y-129670312D01*
X182830353Y-129754201D01*
X182699286Y-130027058D01*
X182623970Y-130320241D01*
X182607297Y-130622486D01*
X120953262Y-130622486D01*
X120949990Y-130614589D01*
X120787475Y-130371368D01*
X120623067Y-130206960D01*
X168788091Y-130206960D01*
X168909376Y-130429000D01*
X170053000Y-130429000D01*
X170053000Y-129286085D01*
X170307000Y-129286085D01*
X170307000Y-130429000D01*
X171450624Y-130429000D01*
X171571909Y-130206960D01*
X171477070Y-129942119D01*
X171332385Y-129700869D01*
X171143414Y-129492481D01*
X171141021Y-129490707D01*
X183264312Y-129490707D01*
X184150000Y-130376395D01*
X185035688Y-129490707D01*
X184951799Y-129236353D01*
X184678942Y-129105286D01*
X184385759Y-129029970D01*
X184083514Y-129013297D01*
X183783825Y-129055910D01*
X183498208Y-129156171D01*
X183348201Y-129236353D01*
X183264312Y-129490707D01*
X171141021Y-129490707D01*
X170917420Y-129324963D01*
X170663087Y-129204754D01*
X170529039Y-129164096D01*
X170307000Y-129286085D01*
X170053000Y-129286085D01*
X169830961Y-129164096D01*
X169696913Y-129204754D01*
X169442580Y-129324963D01*
X169216586Y-129492481D01*
X169027615Y-129700869D01*
X168882930Y-129942119D01*
X168788091Y-130206960D01*
X120623067Y-130206960D01*
X120580632Y-130164525D01*
X120337411Y-130002010D01*
X120067158Y-129890068D01*
X119780260Y-129833000D01*
X119487740Y-129833000D01*
X119200842Y-129890068D01*
X118930589Y-130002010D01*
X118687368Y-130164525D01*
X118480525Y-130371368D01*
X118364000Y-130545760D01*
X118247475Y-130371368D01*
X118040632Y-130164525D01*
X117797411Y-130002010D01*
X117527158Y-129890068D01*
X117240260Y-129833000D01*
X116947740Y-129833000D01*
X116660842Y-129890068D01*
X116390589Y-130002010D01*
X116147368Y-130164525D01*
X115940525Y-130371368D01*
X115824000Y-130545760D01*
X115707475Y-130371368D01*
X115500632Y-130164525D01*
X115257411Y-130002010D01*
X114987158Y-129890068D01*
X114700260Y-129833000D01*
X114407740Y-129833000D01*
X114120842Y-129890068D01*
X113850589Y-130002010D01*
X113607368Y-130164525D01*
X113475513Y-130296380D01*
X113453502Y-130223820D01*
X113394537Y-130113506D01*
X113315185Y-130016815D01*
X113218494Y-129937463D01*
X113108180Y-129878498D01*
X112988482Y-129842188D01*
X112864000Y-129829928D01*
X111164000Y-129829928D01*
X111039518Y-129842188D01*
X110919820Y-129878498D01*
X110809506Y-129937463D01*
X110712815Y-130016815D01*
X110633463Y-130113506D01*
X110574498Y-130223820D01*
X110538188Y-130343518D01*
X110525928Y-130468000D01*
X99903188Y-130468000D01*
X99812876Y-130407656D01*
X99296939Y-130193948D01*
X98749223Y-130085000D01*
X98190777Y-130085000D01*
X97643061Y-130193948D01*
X97127124Y-130407656D01*
X96662793Y-130717912D01*
X96267912Y-131112793D01*
X95957656Y-131577124D01*
X95743948Y-132093061D01*
X95635000Y-132640777D01*
X94132000Y-132640777D01*
X94132000Y-126898061D01*
X110471000Y-126898061D01*
X110471000Y-127101939D01*
X110510774Y-127301898D01*
X110588795Y-127490256D01*
X110702063Y-127659774D01*
X110846226Y-127803937D01*
X111015744Y-127917205D01*
X111204102Y-127995226D01*
X111404061Y-128035000D01*
X111607939Y-128035000D01*
X111807898Y-127995226D01*
X111996256Y-127917205D01*
X112165774Y-127803937D01*
X112309937Y-127659774D01*
X112423205Y-127490256D01*
X112501226Y-127301898D01*
X112541000Y-127101939D01*
X112541000Y-126898061D01*
X112501226Y-126698102D01*
X112423205Y-126509744D01*
X112309937Y-126340226D01*
X112266000Y-126296289D01*
X112266000Y-124358061D01*
X115043000Y-124358061D01*
X115043000Y-124561939D01*
X115082774Y-124761898D01*
X115160795Y-124950256D01*
X115274063Y-125119774D01*
X115418226Y-125263937D01*
X115587744Y-125377205D01*
X115776102Y-125455226D01*
X115976061Y-125495000D01*
X116179939Y-125495000D01*
X116379898Y-125455226D01*
X116568256Y-125377205D01*
X116737774Y-125263937D01*
X116781711Y-125220000D01*
X119342678Y-125220000D01*
X119380000Y-125223676D01*
X119417322Y-125220000D01*
X119417333Y-125220000D01*
X119528986Y-125209003D01*
X119672247Y-125165546D01*
X119804276Y-125094974D01*
X119920001Y-125000001D01*
X119930671Y-124987000D01*
X119989939Y-124987000D01*
X120189898Y-124947226D01*
X120378256Y-124869205D01*
X120547774Y-124755937D01*
X120691937Y-124611774D01*
X120805205Y-124442256D01*
X120883226Y-124253898D01*
X120923000Y-124053939D01*
X120923000Y-123850061D01*
X120883226Y-123650102D01*
X120805205Y-123461744D01*
X120691937Y-123292226D01*
X120547774Y-123148063D01*
X120378256Y-123034795D01*
X120189898Y-122956774D01*
X119989939Y-122917000D01*
X119786061Y-122917000D01*
X119586102Y-122956774D01*
X119397744Y-123034795D01*
X119228226Y-123148063D01*
X119084063Y-123292226D01*
X118970795Y-123461744D01*
X118892774Y-123650102D01*
X118882849Y-123700000D01*
X116781711Y-123700000D01*
X116737774Y-123656063D01*
X116568256Y-123542795D01*
X116379898Y-123464774D01*
X116179939Y-123425000D01*
X115976061Y-123425000D01*
X115776102Y-123464774D01*
X115587744Y-123542795D01*
X115418226Y-123656063D01*
X115274063Y-123800226D01*
X115160795Y-123969744D01*
X115082774Y-124158102D01*
X115043000Y-124358061D01*
X112266000Y-124358061D01*
X112266000Y-123250801D01*
X114503318Y-121013484D01*
X114571744Y-121059205D01*
X114760102Y-121137226D01*
X114960061Y-121177000D01*
X115163939Y-121177000D01*
X115363898Y-121137226D01*
X115552256Y-121059205D01*
X115721774Y-120945937D01*
X115865937Y-120801774D01*
X115979205Y-120632256D01*
X116057226Y-120443898D01*
X116097000Y-120243939D01*
X116097000Y-120040061D01*
X116057226Y-119840102D01*
X115979205Y-119651744D01*
X115865937Y-119482226D01*
X115721774Y-119338063D01*
X115552256Y-119224795D01*
X115363898Y-119146774D01*
X115163939Y-119107000D01*
X114960061Y-119107000D01*
X114760102Y-119146774D01*
X114571744Y-119224795D01*
X114402226Y-119338063D01*
X114358289Y-119382000D01*
X114337325Y-119382000D01*
X114300000Y-119378324D01*
X114262675Y-119382000D01*
X114262667Y-119382000D01*
X114151014Y-119392997D01*
X114007753Y-119436454D01*
X113875724Y-119507026D01*
X113759999Y-119601999D01*
X113736201Y-119630997D01*
X110994998Y-122372201D01*
X110966000Y-122395999D01*
X110942202Y-122424997D01*
X110942201Y-122424998D01*
X110871026Y-122511724D01*
X110800454Y-122643754D01*
X110770180Y-122743558D01*
X110756998Y-122787014D01*
X110756113Y-122796003D01*
X110742324Y-122936000D01*
X110746001Y-122973332D01*
X110746000Y-126296289D01*
X110702063Y-126340226D01*
X110588795Y-126509744D01*
X110510774Y-126698102D01*
X110471000Y-126898061D01*
X94132000Y-126898061D01*
X94132000Y-115619293D01*
X100460312Y-115619293D01*
X100544201Y-115873647D01*
X100817058Y-116004714D01*
X101110241Y-116080030D01*
X101412486Y-116096703D01*
X101712175Y-116054090D01*
X101997792Y-115953829D01*
X102147799Y-115873647D01*
X102231688Y-115619293D01*
X101346000Y-114733605D01*
X100460312Y-115619293D01*
X94132000Y-115619293D01*
X94132000Y-114620486D01*
X99803297Y-114620486D01*
X99845910Y-114920175D01*
X99946171Y-115205792D01*
X100026353Y-115355799D01*
X100280707Y-115439688D01*
X101166395Y-114554000D01*
X101525605Y-114554000D01*
X102411293Y-115439688D01*
X102665647Y-115355799D01*
X102670414Y-115345874D01*
X118981731Y-115345874D01*
X119025993Y-115566916D01*
X119243089Y-115665301D01*
X119475208Y-115719442D01*
X119713429Y-115727258D01*
X119948598Y-115688450D01*
X120171677Y-115604509D01*
X120242007Y-115566916D01*
X120286269Y-115345874D01*
X119634000Y-114693605D01*
X118981731Y-115345874D01*
X102670414Y-115345874D01*
X102796714Y-115082942D01*
X102872030Y-114789759D01*
X102882860Y-114593429D01*
X118420742Y-114593429D01*
X118459550Y-114828598D01*
X118543491Y-115051677D01*
X118581084Y-115122007D01*
X118802126Y-115166269D01*
X119454395Y-114514000D01*
X119813605Y-114514000D01*
X120465874Y-115166269D01*
X120686916Y-115122007D01*
X120785301Y-114904911D01*
X120839442Y-114672792D01*
X120847258Y-114434571D01*
X120808450Y-114199402D01*
X120724509Y-113976323D01*
X120686916Y-113905993D01*
X120465874Y-113861731D01*
X119813605Y-114514000D01*
X119454395Y-114514000D01*
X118802126Y-113861731D01*
X118581084Y-113905993D01*
X118482699Y-114123089D01*
X118428558Y-114355208D01*
X118420742Y-114593429D01*
X102882860Y-114593429D01*
X102888703Y-114487514D01*
X102846090Y-114187825D01*
X102745829Y-113902208D01*
X102665647Y-113752201D01*
X102453178Y-113682126D01*
X118981731Y-113682126D01*
X119634000Y-114334395D01*
X120286269Y-113682126D01*
X120242007Y-113461084D01*
X120024911Y-113362699D01*
X119792792Y-113308558D01*
X119554571Y-113300742D01*
X119319402Y-113339550D01*
X119096323Y-113423491D01*
X119025993Y-113461084D01*
X118981731Y-113682126D01*
X102453178Y-113682126D01*
X102411293Y-113668312D01*
X101525605Y-114554000D01*
X101166395Y-114554000D01*
X100280707Y-113668312D01*
X100026353Y-113752201D01*
X99895286Y-114025058D01*
X99819970Y-114318241D01*
X99803297Y-114620486D01*
X94132000Y-114620486D01*
X94132000Y-113488707D01*
X100460312Y-113488707D01*
X101346000Y-114374395D01*
X102231688Y-113488707D01*
X102147799Y-113234353D01*
X101874942Y-113103286D01*
X101581759Y-113027970D01*
X101279514Y-113011297D01*
X100979825Y-113053910D01*
X100694208Y-113154171D01*
X100544201Y-113234353D01*
X100460312Y-113488707D01*
X94132000Y-113488707D01*
X94132000Y-94234001D01*
X99200671Y-94234001D01*
X99211001Y-94338883D01*
X99211000Y-109449128D01*
X99200671Y-109554000D01*
X99211000Y-109658872D01*
X99211000Y-109658881D01*
X99241892Y-109972532D01*
X99363974Y-110374981D01*
X99562223Y-110745881D01*
X99829023Y-111070977D01*
X100154119Y-111337777D01*
X100525018Y-111536026D01*
X100927467Y-111658108D01*
X101346000Y-111699330D01*
X101764532Y-111658108D01*
X102166981Y-111536026D01*
X102537881Y-111337777D01*
X102862977Y-111070977D01*
X102929837Y-110989508D01*
X103132044Y-110787301D01*
X106823000Y-110787301D01*
X106823000Y-112094321D01*
X106846657Y-112334515D01*
X106940148Y-112642714D01*
X107091969Y-112926751D01*
X107296286Y-113175714D01*
X107545248Y-113380031D01*
X107829285Y-113531852D01*
X108137484Y-113625343D01*
X108458000Y-113656911D01*
X108778515Y-113625343D01*
X109086714Y-113531852D01*
X109370751Y-113380031D01*
X109602255Y-113190042D01*
X109617463Y-113218494D01*
X109696815Y-113315185D01*
X109793506Y-113394537D01*
X109903820Y-113453502D01*
X110023518Y-113489812D01*
X110148000Y-113502072D01*
X110712250Y-113499000D01*
X110871000Y-113340250D01*
X110871000Y-112141000D01*
X111125000Y-112141000D01*
X111125000Y-113340250D01*
X111283750Y-113499000D01*
X111848000Y-113502072D01*
X111972482Y-113489812D01*
X112092180Y-113453502D01*
X112202494Y-113394537D01*
X112299185Y-113315185D01*
X112378537Y-113218494D01*
X112437502Y-113108180D01*
X112473812Y-112988482D01*
X112486072Y-112864000D01*
X112483000Y-112299750D01*
X112324250Y-112141000D01*
X111125000Y-112141000D01*
X110871000Y-112141000D01*
X110851000Y-112141000D01*
X110851000Y-111887000D01*
X110871000Y-111887000D01*
X110871000Y-111867000D01*
X111125000Y-111867000D01*
X111125000Y-111887000D01*
X112324250Y-111887000D01*
X112483000Y-111728250D01*
X112486072Y-111164000D01*
X112473812Y-111039518D01*
X112437502Y-110919820D01*
X112378537Y-110809506D01*
X112360314Y-110787301D01*
X117887956Y-110787301D01*
X118198490Y-111097835D01*
X118442119Y-111297776D01*
X118813017Y-111496025D01*
X119215466Y-111618107D01*
X119633999Y-111659329D01*
X120052533Y-111618107D01*
X120454981Y-111496025D01*
X120825881Y-111297776D01*
X121150977Y-111030977D01*
X121417776Y-110705881D01*
X121448179Y-110649000D01*
X128250869Y-110649000D01*
X130914796Y-113312928D01*
X129933000Y-113312928D01*
X129808518Y-113325188D01*
X129688820Y-113361498D01*
X129578506Y-113420463D01*
X129481815Y-113499815D01*
X129402463Y-113596506D01*
X129343498Y-113706820D01*
X129307188Y-113826518D01*
X129294928Y-113951000D01*
X129294928Y-115858338D01*
X129284324Y-115966000D01*
X129288001Y-116003332D01*
X129288000Y-120828956D01*
X129133241Y-120932363D01*
X128933363Y-121132241D01*
X128776320Y-121367273D01*
X128668147Y-121628426D01*
X128613000Y-121905665D01*
X128613000Y-122188335D01*
X128668147Y-122465574D01*
X128776320Y-122726727D01*
X128933363Y-122961759D01*
X129133241Y-123161637D01*
X129288000Y-123265044D01*
X129288001Y-124003956D01*
X129133241Y-124107363D01*
X128933363Y-124307241D01*
X128776320Y-124542273D01*
X128668147Y-124803426D01*
X128613000Y-125080665D01*
X128613000Y-125363335D01*
X128668147Y-125640574D01*
X128776320Y-125901727D01*
X128933363Y-126136759D01*
X129126001Y-126329397D01*
X129126000Y-127207436D01*
X129075718Y-127212388D01*
X128956020Y-127248698D01*
X128845706Y-127307663D01*
X128749015Y-127387015D01*
X128669663Y-127483706D01*
X128610698Y-127594020D01*
X128574388Y-127713718D01*
X128562128Y-127838200D01*
X128562128Y-129209800D01*
X128574388Y-129334282D01*
X128610698Y-129453980D01*
X128669663Y-129564294D01*
X128749015Y-129660985D01*
X128845706Y-129740337D01*
X128956020Y-129799302D01*
X129075718Y-129835612D01*
X129200200Y-129847872D01*
X130571800Y-129847872D01*
X130696282Y-129835612D01*
X130815980Y-129799302D01*
X130926294Y-129740337D01*
X131022985Y-129660985D01*
X131102337Y-129564294D01*
X131161302Y-129453980D01*
X131167022Y-129435121D01*
X140838485Y-129435121D01*
X140896221Y-129667442D01*
X141132242Y-129776919D01*
X141385086Y-129838247D01*
X141645036Y-129849069D01*
X141902103Y-129808970D01*
X142146407Y-129719490D01*
X142243779Y-129667442D01*
X142301515Y-129435121D01*
X141570000Y-128703605D01*
X140838485Y-129435121D01*
X131167022Y-129435121D01*
X131197612Y-129334282D01*
X131209872Y-129209800D01*
X131209872Y-128599036D01*
X140244931Y-128599036D01*
X140285030Y-128856103D01*
X140374510Y-129100407D01*
X140426558Y-129197779D01*
X140658879Y-129255515D01*
X141390395Y-128524000D01*
X141749605Y-128524000D01*
X142481121Y-129255515D01*
X142713442Y-129197779D01*
X142822919Y-128961758D01*
X142884247Y-128708914D01*
X142895069Y-128448964D01*
X142854970Y-128191897D01*
X142765490Y-127947593D01*
X142713442Y-127850221D01*
X142481121Y-127792485D01*
X141749605Y-128524000D01*
X141390395Y-128524000D01*
X140658879Y-127792485D01*
X140426558Y-127850221D01*
X140317081Y-128086242D01*
X140255753Y-128339086D01*
X140244931Y-128599036D01*
X131209872Y-128599036D01*
X131209872Y-127838200D01*
X131197612Y-127713718D01*
X131167023Y-127612879D01*
X140838485Y-127612879D01*
X141570000Y-128344395D01*
X142301515Y-127612879D01*
X142243779Y-127380558D01*
X142007758Y-127271081D01*
X141754914Y-127209753D01*
X141494964Y-127198931D01*
X141237897Y-127239030D01*
X140993593Y-127328510D01*
X140896221Y-127380558D01*
X140838485Y-127612879D01*
X131167023Y-127612879D01*
X131161302Y-127594020D01*
X131102337Y-127483706D01*
X131022985Y-127387015D01*
X130926294Y-127307663D01*
X130815980Y-127248698D01*
X130696282Y-127212388D01*
X130646000Y-127207436D01*
X130646000Y-126527532D01*
X130727727Y-126493680D01*
X130962759Y-126336637D01*
X131162637Y-126136759D01*
X131319680Y-125901727D01*
X131427853Y-125640574D01*
X131483000Y-125363335D01*
X131483000Y-125080665D01*
X138773000Y-125080665D01*
X138773000Y-125363335D01*
X138828147Y-125640574D01*
X138936320Y-125901727D01*
X139093363Y-126136759D01*
X139293241Y-126336637D01*
X139528273Y-126493680D01*
X139789426Y-126601853D01*
X140066665Y-126657000D01*
X140349335Y-126657000D01*
X140626574Y-126601853D01*
X140887727Y-126493680D01*
X141122759Y-126336637D01*
X141322637Y-126136759D01*
X141479680Y-125901727D01*
X141587853Y-125640574D01*
X141643000Y-125363335D01*
X141643000Y-125080665D01*
X141587853Y-124803426D01*
X141479680Y-124542273D01*
X141322637Y-124307241D01*
X141122759Y-124107363D01*
X140887727Y-123950320D01*
X140626574Y-123842147D01*
X140349335Y-123787000D01*
X140066665Y-123787000D01*
X139789426Y-123842147D01*
X139528273Y-123950320D01*
X139293241Y-124107363D01*
X139093363Y-124307241D01*
X138936320Y-124542273D01*
X138828147Y-124803426D01*
X138773000Y-125080665D01*
X131483000Y-125080665D01*
X131427853Y-124803426D01*
X131319680Y-124542273D01*
X131162637Y-124307241D01*
X130962759Y-124107363D01*
X130808000Y-124003957D01*
X130808000Y-123265043D01*
X130962759Y-123161637D01*
X131162637Y-122961759D01*
X131319680Y-122726727D01*
X131427853Y-122465574D01*
X131483000Y-122188335D01*
X131483000Y-121905665D01*
X138773000Y-121905665D01*
X138773000Y-122188335D01*
X138828147Y-122465574D01*
X138936320Y-122726727D01*
X139093363Y-122961759D01*
X139293241Y-123161637D01*
X139528273Y-123318680D01*
X139789426Y-123426853D01*
X140066665Y-123482000D01*
X140349335Y-123482000D01*
X140626574Y-123426853D01*
X140887727Y-123318680D01*
X141122759Y-123161637D01*
X141322637Y-122961759D01*
X141434285Y-122794665D01*
X168745000Y-122794665D01*
X168745000Y-123077335D01*
X168800147Y-123354574D01*
X168908320Y-123615727D01*
X169065363Y-123850759D01*
X169265241Y-124050637D01*
X169500273Y-124207680D01*
X169761426Y-124315853D01*
X170038665Y-124371000D01*
X170321335Y-124371000D01*
X170598574Y-124315853D01*
X170859727Y-124207680D01*
X171094759Y-124050637D01*
X171294637Y-123850759D01*
X171398043Y-123696000D01*
X172151199Y-123696000D01*
X173467928Y-125012730D01*
X173467928Y-126376000D01*
X173480188Y-126500482D01*
X173516498Y-126620180D01*
X173575463Y-126730494D01*
X173654815Y-126827185D01*
X173751506Y-126906537D01*
X173861820Y-126965502D01*
X173981518Y-127001812D01*
X174106000Y-127014072D01*
X175906000Y-127014072D01*
X176030482Y-127001812D01*
X176150180Y-126965502D01*
X176260494Y-126906537D01*
X176357185Y-126827185D01*
X176436537Y-126730494D01*
X176495502Y-126620180D01*
X176501056Y-126601873D01*
X176567495Y-126668312D01*
X176818905Y-126836299D01*
X177098257Y-126952011D01*
X177394816Y-127011000D01*
X177697184Y-127011000D01*
X177993743Y-126952011D01*
X178273095Y-126836299D01*
X178524505Y-126668312D01*
X178581817Y-126611000D01*
X183031779Y-126611000D01*
X183170411Y-126749632D01*
X183422100Y-126917805D01*
X183701761Y-127033645D01*
X183998648Y-127092700D01*
X184301352Y-127092700D01*
X184598239Y-127033645D01*
X184877900Y-126917805D01*
X185129589Y-126749632D01*
X185343632Y-126535589D01*
X185511805Y-126283900D01*
X185627645Y-126004239D01*
X185686700Y-125707352D01*
X185686700Y-125404648D01*
X185627645Y-125107761D01*
X185511805Y-124828100D01*
X185343632Y-124576411D01*
X185129589Y-124362368D01*
X184877900Y-124194195D01*
X184598239Y-124078355D01*
X184301352Y-124019300D01*
X183998648Y-124019300D01*
X183701761Y-124078355D01*
X183422100Y-124194195D01*
X183202391Y-124341000D01*
X178681000Y-124341000D01*
X178681000Y-123220050D01*
X181163050Y-120738000D01*
X182661928Y-120738000D01*
X182674188Y-120862482D01*
X182710498Y-120982180D01*
X182769463Y-121092494D01*
X182848815Y-121189185D01*
X182945506Y-121268537D01*
X183055820Y-121327502D01*
X183175518Y-121363812D01*
X183300000Y-121376072D01*
X183864250Y-121373000D01*
X184023000Y-121214250D01*
X184023000Y-120015000D01*
X184277000Y-120015000D01*
X184277000Y-121214250D01*
X184435750Y-121373000D01*
X185000000Y-121376072D01*
X185124482Y-121363812D01*
X185244180Y-121327502D01*
X185354494Y-121268537D01*
X185451185Y-121189185D01*
X185530537Y-121092494D01*
X185589502Y-120982180D01*
X185625812Y-120862482D01*
X185638072Y-120738000D01*
X185635000Y-120173750D01*
X185476250Y-120015000D01*
X184277000Y-120015000D01*
X184023000Y-120015000D01*
X182823750Y-120015000D01*
X182665000Y-120173750D01*
X182661928Y-120738000D01*
X181163050Y-120738000D01*
X182663017Y-119238034D01*
X182665000Y-119602250D01*
X182823750Y-119761000D01*
X184023000Y-119761000D01*
X184023000Y-119741000D01*
X184277000Y-119741000D01*
X184277000Y-119761000D01*
X185476250Y-119761000D01*
X185635000Y-119602250D01*
X185638072Y-119038000D01*
X185625812Y-118913518D01*
X185589502Y-118793820D01*
X185530537Y-118683506D01*
X185451185Y-118586815D01*
X185354494Y-118507463D01*
X185244180Y-118448498D01*
X185171620Y-118426487D01*
X185303475Y-118294632D01*
X185465990Y-118051411D01*
X185577932Y-117781158D01*
X185635000Y-117494260D01*
X185635000Y-117201740D01*
X185577932Y-116914842D01*
X185465990Y-116644589D01*
X185303475Y-116401368D01*
X185096632Y-116194525D01*
X185064192Y-116172849D01*
X185311714Y-115969714D01*
X185516031Y-115720752D01*
X185667852Y-115436715D01*
X185761343Y-115128516D01*
X185785000Y-114888322D01*
X185785000Y-112649000D01*
X189738000Y-112649000D01*
X189861882Y-112636799D01*
X189981004Y-112600664D01*
X190090787Y-112541983D01*
X190187013Y-112463013D01*
X190265983Y-112366787D01*
X190324664Y-112257004D01*
X190360799Y-112137882D01*
X190373000Y-112014000D01*
X190373000Y-76200000D01*
X190360799Y-76076118D01*
X190324664Y-75956996D01*
X190265983Y-75847213D01*
X190187013Y-75750987D01*
X190090787Y-75672017D01*
X189981004Y-75613336D01*
X189893451Y-75586777D01*
X192165000Y-75586777D01*
X192165000Y-76145223D01*
X192273948Y-76692939D01*
X192487656Y-77208876D01*
X192797912Y-77673207D01*
X193192793Y-78068088D01*
X193657124Y-78378344D01*
X194173061Y-78592052D01*
X194720777Y-78701000D01*
X195279223Y-78701000D01*
X195826939Y-78592052D01*
X196342876Y-78378344D01*
X196807207Y-78068088D01*
X197202088Y-77673207D01*
X197512344Y-77208876D01*
X197726052Y-76692939D01*
X197835000Y-76145223D01*
X197835000Y-75586777D01*
X197726052Y-75039061D01*
X197512344Y-74523124D01*
X197202088Y-74058793D01*
X196807207Y-73663912D01*
X196342876Y-73353656D01*
X195826939Y-73139948D01*
X195279223Y-73031000D01*
X194720777Y-73031000D01*
X194173061Y-73139948D01*
X193657124Y-73353656D01*
X193192793Y-73663912D01*
X192797912Y-74058793D01*
X192487656Y-74523124D01*
X192273948Y-75039061D01*
X192165000Y-75586777D01*
X189893451Y-75586777D01*
X189861882Y-75577201D01*
X189738000Y-75565000D01*
X175260000Y-75565000D01*
X175136118Y-75577201D01*
X175016996Y-75613336D01*
X174907213Y-75672017D01*
X174810987Y-75750987D01*
X174732017Y-75847213D01*
X174673336Y-75956996D01*
X174637201Y-76076118D01*
X174625000Y-76200000D01*
X174625000Y-112014000D01*
X174637201Y-112137882D01*
X174673336Y-112257004D01*
X174732017Y-112366787D01*
X174810987Y-112463013D01*
X174907213Y-112541983D01*
X175016996Y-112600664D01*
X175136118Y-112636799D01*
X175260000Y-112649000D01*
X182515001Y-112649000D01*
X182515001Y-114888322D01*
X182538658Y-115128516D01*
X182632149Y-115436715D01*
X182783970Y-115720752D01*
X182988287Y-115969714D01*
X183235809Y-116172849D01*
X183203368Y-116194525D01*
X183184893Y-116213000D01*
X183003670Y-116213000D01*
X182947918Y-116207509D01*
X182725419Y-116229423D01*
X182675624Y-116244529D01*
X182511472Y-116294324D01*
X182314296Y-116399716D01*
X182141470Y-116541551D01*
X182105928Y-116584859D01*
X176782865Y-121907923D01*
X176739551Y-121943470D01*
X176597716Y-122116296D01*
X176522898Y-122256273D01*
X176492324Y-122313473D01*
X176427423Y-122527421D01*
X176405509Y-122749919D01*
X176411000Y-122805671D01*
X176411001Y-124190390D01*
X176357185Y-124124815D01*
X176260494Y-124045463D01*
X176150180Y-123986498D01*
X176030482Y-123950188D01*
X175906000Y-123937928D01*
X174542730Y-123937928D01*
X173029804Y-122425003D01*
X173006001Y-122395999D01*
X172890276Y-122301026D01*
X172758247Y-122230454D01*
X172614986Y-122186997D01*
X172503333Y-122176000D01*
X172503322Y-122176000D01*
X172466000Y-122172324D01*
X172428678Y-122176000D01*
X171398043Y-122176000D01*
X171294637Y-122021241D01*
X171094759Y-121821363D01*
X170859727Y-121664320D01*
X170598574Y-121556147D01*
X170321335Y-121501000D01*
X170038665Y-121501000D01*
X169761426Y-121556147D01*
X169500273Y-121664320D01*
X169265241Y-121821363D01*
X169065363Y-122021241D01*
X168908320Y-122256273D01*
X168800147Y-122517426D01*
X168745000Y-122794665D01*
X141434285Y-122794665D01*
X141479680Y-122726727D01*
X141587853Y-122465574D01*
X141643000Y-122188335D01*
X141643000Y-121905665D01*
X141587853Y-121628426D01*
X141479680Y-121367273D01*
X141322637Y-121132241D01*
X141122759Y-120932363D01*
X140887727Y-120775320D01*
X140626574Y-120667147D01*
X140349335Y-120612000D01*
X140066665Y-120612000D01*
X139789426Y-120667147D01*
X139528273Y-120775320D01*
X139293241Y-120932363D01*
X139093363Y-121132241D01*
X138936320Y-121367273D01*
X138828147Y-121628426D01*
X138773000Y-121905665D01*
X131483000Y-121905665D01*
X131427853Y-121628426D01*
X131319680Y-121367273D01*
X131162637Y-121132241D01*
X130962759Y-120932363D01*
X130808000Y-120828957D01*
X130808000Y-117799072D01*
X130983000Y-117799072D01*
X131107482Y-117786812D01*
X131227180Y-117750502D01*
X131308000Y-117707302D01*
X131388820Y-117750502D01*
X131508518Y-117786812D01*
X131633000Y-117799072D01*
X132683000Y-117799072D01*
X132807482Y-117786812D01*
X132927180Y-117750502D01*
X133008000Y-117707302D01*
X133088820Y-117750502D01*
X133208518Y-117786812D01*
X133333000Y-117799072D01*
X134095127Y-117799072D01*
X133782199Y-118112000D01*
X132783711Y-118112000D01*
X132739774Y-118068063D01*
X132570256Y-117954795D01*
X132381898Y-117876774D01*
X132181939Y-117837000D01*
X131978061Y-117837000D01*
X131778102Y-117876774D01*
X131589744Y-117954795D01*
X131420226Y-118068063D01*
X131276063Y-118212226D01*
X131162795Y-118381744D01*
X131084774Y-118570102D01*
X131045000Y-118770061D01*
X131045000Y-118973939D01*
X131084774Y-119173898D01*
X131162795Y-119362256D01*
X131276063Y-119531774D01*
X131420226Y-119675937D01*
X131589744Y-119789205D01*
X131778102Y-119867226D01*
X131978061Y-119907000D01*
X132181939Y-119907000D01*
X132381898Y-119867226D01*
X132570256Y-119789205D01*
X132739774Y-119675937D01*
X132783711Y-119632000D01*
X134059678Y-119632000D01*
X134097000Y-119635676D01*
X134134322Y-119632000D01*
X134134333Y-119632000D01*
X134245986Y-119621003D01*
X134389247Y-119577546D01*
X134521276Y-119506974D01*
X134637001Y-119412001D01*
X134660804Y-119382997D01*
X136069004Y-117974798D01*
X136098001Y-117951001D01*
X136124332Y-117918917D01*
X136192974Y-117835277D01*
X136221085Y-117782686D01*
X136327180Y-117750502D01*
X136408000Y-117707302D01*
X136488820Y-117750502D01*
X136608518Y-117786812D01*
X136733000Y-117799072D01*
X136972250Y-117796000D01*
X137131000Y-117637250D01*
X137131000Y-115683000D01*
X137385000Y-115683000D01*
X137385000Y-117637250D01*
X137543750Y-117796000D01*
X137783000Y-117799072D01*
X137907482Y-117786812D01*
X138027180Y-117750502D01*
X138137494Y-117691537D01*
X138234185Y-117612185D01*
X138313537Y-117515494D01*
X138372502Y-117405180D01*
X138408812Y-117285482D01*
X138421072Y-117161000D01*
X138418000Y-115841750D01*
X138259250Y-115683000D01*
X137385000Y-115683000D01*
X137131000Y-115683000D01*
X137111000Y-115683000D01*
X137111000Y-115429000D01*
X137131000Y-115429000D01*
X137131000Y-113474750D01*
X137385000Y-113474750D01*
X137385000Y-115429000D01*
X138259250Y-115429000D01*
X138418000Y-115270250D01*
X138421072Y-113951000D01*
X138408812Y-113826518D01*
X138372502Y-113706820D01*
X138313537Y-113596506D01*
X138234185Y-113499815D01*
X138137494Y-113420463D01*
X138027180Y-113361498D01*
X137907482Y-113325188D01*
X137783000Y-113312928D01*
X137543750Y-113316000D01*
X137385000Y-113474750D01*
X137131000Y-113474750D01*
X136972250Y-113316000D01*
X136733000Y-113312928D01*
X136608518Y-113325188D01*
X136488820Y-113361498D01*
X136408000Y-113404698D01*
X136327180Y-113361498D01*
X136207482Y-113325188D01*
X136083000Y-113312928D01*
X135033000Y-113312928D01*
X134908518Y-113325188D01*
X134788820Y-113361498D01*
X134708000Y-113404698D01*
X134627180Y-113361498D01*
X134507482Y-113325188D01*
X134383000Y-113312928D01*
X133333000Y-113312928D01*
X133293000Y-113316868D01*
X133293000Y-113006751D01*
X133298491Y-112950999D01*
X133276577Y-112728501D01*
X133211676Y-112514553D01*
X133175653Y-112447158D01*
X133106284Y-112317377D01*
X132964449Y-112144551D01*
X132921141Y-112109009D01*
X129562996Y-108750865D01*
X129527449Y-108707551D01*
X129354623Y-108565716D01*
X129157447Y-108460324D01*
X128943499Y-108395423D01*
X128776752Y-108379000D01*
X128776751Y-108379000D01*
X128721000Y-108373509D01*
X128665249Y-108379000D01*
X121448180Y-108379000D01*
X121417776Y-108322119D01*
X121217835Y-108078490D01*
X120356138Y-107216793D01*
X120289278Y-107135324D01*
X119964182Y-106868524D01*
X119593283Y-106670275D01*
X119190834Y-106548193D01*
X118877183Y-106517301D01*
X118877173Y-106517301D01*
X118772301Y-106506972D01*
X118667429Y-106517301D01*
X103481000Y-106517301D01*
X103481000Y-95118346D01*
X103505000Y-95094346D01*
X103505000Y-95885000D01*
X103507440Y-95909776D01*
X103514667Y-95933601D01*
X103526403Y-95955557D01*
X103542197Y-95974803D01*
X111416197Y-103848803D01*
X111435443Y-103864597D01*
X111457399Y-103876333D01*
X111481224Y-103883560D01*
X111506000Y-103886000D01*
X122428000Y-103886000D01*
X122452776Y-103883560D01*
X122476601Y-103876333D01*
X122498557Y-103864597D01*
X122517803Y-103848803D01*
X130391803Y-95974803D01*
X130407597Y-95955557D01*
X130419333Y-95933601D01*
X130426560Y-95909776D01*
X130429000Y-95885000D01*
X130429000Y-95116344D01*
X131977000Y-96664344D01*
X131977001Y-99437928D01*
X128593000Y-99437928D01*
X128468518Y-99450188D01*
X128348820Y-99486498D01*
X128238506Y-99545463D01*
X128141815Y-99624815D01*
X128062463Y-99721506D01*
X128003498Y-99831820D01*
X127967188Y-99951518D01*
X127954928Y-100076000D01*
X127954928Y-105076000D01*
X127967188Y-105200482D01*
X128003498Y-105320180D01*
X128062463Y-105430494D01*
X128141815Y-105527185D01*
X128238506Y-105606537D01*
X128348820Y-105665502D01*
X128468518Y-105701812D01*
X128593000Y-105714072D01*
X139123000Y-105714072D01*
X139247482Y-105701812D01*
X139367180Y-105665502D01*
X139477494Y-105606537D01*
X139574185Y-105527185D01*
X139653537Y-105430494D01*
X139712502Y-105320180D01*
X139748812Y-105200482D01*
X139761072Y-105076000D01*
X139761072Y-100076000D01*
X139748812Y-99951518D01*
X139712502Y-99831820D01*
X139653537Y-99721506D01*
X139574185Y-99624815D01*
X139477494Y-99545463D01*
X139367180Y-99486498D01*
X139247482Y-99450188D01*
X139123000Y-99437928D01*
X136247000Y-99437928D01*
X136247000Y-96664343D01*
X139875746Y-93035598D01*
X139957210Y-92968742D01*
X140224010Y-92643646D01*
X140422259Y-92272747D01*
X140438337Y-92219744D01*
X140544341Y-91870299D01*
X140565496Y-91655506D01*
X140575233Y-91556647D01*
X140575233Y-91556640D01*
X140585562Y-91451765D01*
X140575233Y-91346891D01*
X140575233Y-84466885D01*
X140544341Y-84153234D01*
X140422259Y-83750785D01*
X140224010Y-83379886D01*
X139957210Y-83054790D01*
X139632114Y-82787990D01*
X139261214Y-82589741D01*
X138858765Y-82467659D01*
X138440233Y-82426437D01*
X138021700Y-82467659D01*
X137619251Y-82589741D01*
X137248352Y-82787990D01*
X136923256Y-83054790D01*
X136656456Y-83379886D01*
X136458207Y-83750786D01*
X136336125Y-84153235D01*
X136305233Y-84466886D01*
X136305234Y-90567418D01*
X134112000Y-92760652D01*
X130429000Y-89077653D01*
X130429000Y-84963000D01*
X130426560Y-84938224D01*
X130419333Y-84914399D01*
X130407597Y-84892443D01*
X130391803Y-84873197D01*
X126554839Y-81036233D01*
X139830437Y-81036233D01*
X139871659Y-81454766D01*
X139993741Y-81857215D01*
X140191990Y-82228114D01*
X140458790Y-82553210D01*
X140783886Y-82820010D01*
X141154785Y-83018259D01*
X141557234Y-83140341D01*
X141870885Y-83171233D01*
X144899890Y-83171233D01*
X148723656Y-86995000D01*
X147955000Y-86995000D01*
X147930224Y-86997440D01*
X147906399Y-87004667D01*
X147884443Y-87016403D01*
X147865197Y-87032197D01*
X139991197Y-94906197D01*
X139975403Y-94925443D01*
X139963667Y-94947399D01*
X139956440Y-94971224D01*
X139954000Y-94996000D01*
X139954000Y-105918000D01*
X139956440Y-105942776D01*
X139963667Y-105966601D01*
X139975403Y-105988557D01*
X139991197Y-106007803D01*
X147865197Y-113881803D01*
X147884443Y-113897597D01*
X147906399Y-113909333D01*
X147930224Y-113916560D01*
X147955000Y-113919000D01*
X152486619Y-113919000D01*
X152737049Y-114044107D01*
X153096596Y-114142437D01*
X153468419Y-114168732D01*
X153838226Y-114121983D01*
X154191808Y-114003987D01*
X154350808Y-113919000D01*
X158877000Y-113919000D01*
X158901776Y-113916560D01*
X158925601Y-113909333D01*
X158947557Y-113897597D01*
X158966803Y-113881803D01*
X166840803Y-106007803D01*
X166856597Y-105988557D01*
X166868333Y-105966601D01*
X166875560Y-105942776D01*
X166878000Y-105918000D01*
X166878000Y-94996000D01*
X166875560Y-94971224D01*
X166868333Y-94947399D01*
X166856597Y-94925443D01*
X166840803Y-94906197D01*
X165565875Y-93631269D01*
X171276336Y-93631269D01*
X171335797Y-93865037D01*
X171574242Y-93975934D01*
X171829740Y-94038183D01*
X172092473Y-94049390D01*
X172352344Y-94009125D01*
X172599366Y-93918935D01*
X172700203Y-93865037D01*
X172759664Y-93631269D01*
X172018000Y-92889605D01*
X171276336Y-93631269D01*
X165565875Y-93631269D01*
X164719079Y-92784473D01*
X170678610Y-92784473D01*
X170718875Y-93044344D01*
X170809065Y-93291366D01*
X170862963Y-93392203D01*
X171096731Y-93451664D01*
X171838395Y-92710000D01*
X172197605Y-92710000D01*
X172939269Y-93451664D01*
X173173037Y-93392203D01*
X173283934Y-93153758D01*
X173346183Y-92898260D01*
X173357390Y-92635527D01*
X173317125Y-92375656D01*
X173226935Y-92128634D01*
X173173037Y-92027797D01*
X172939269Y-91968336D01*
X172197605Y-92710000D01*
X171838395Y-92710000D01*
X171096731Y-91968336D01*
X170862963Y-92027797D01*
X170752066Y-92266242D01*
X170689817Y-92521740D01*
X170678610Y-92784473D01*
X164719079Y-92784473D01*
X163723337Y-91788731D01*
X171276336Y-91788731D01*
X172018000Y-92530395D01*
X172759664Y-91788731D01*
X172700203Y-91554963D01*
X172461758Y-91444066D01*
X172206260Y-91381817D01*
X171943527Y-91370610D01*
X171683656Y-91410875D01*
X171436634Y-91501065D01*
X171335797Y-91554963D01*
X171276336Y-91788731D01*
X163723337Y-91788731D01*
X158966803Y-87032197D01*
X158947557Y-87016403D01*
X158925601Y-87004667D01*
X158901776Y-86997440D01*
X158877000Y-86995000D01*
X155551000Y-86995000D01*
X155551000Y-86084345D01*
X159935835Y-81699511D01*
X160135776Y-81455882D01*
X160334025Y-81084983D01*
X160456107Y-80682534D01*
X160497329Y-80264001D01*
X160456107Y-79845467D01*
X160334025Y-79443019D01*
X160135776Y-79072119D01*
X159868977Y-78747023D01*
X159543881Y-78480224D01*
X159172981Y-78281975D01*
X158770533Y-78159893D01*
X158351999Y-78118671D01*
X157933466Y-78159893D01*
X157531017Y-78281975D01*
X157160118Y-78480224D01*
X156916489Y-78680165D01*
X151980487Y-83616168D01*
X151899024Y-83683023D01*
X151832168Y-83764487D01*
X151832165Y-83764490D01*
X151705530Y-83918795D01*
X151696791Y-83929444D01*
X147368072Y-79600725D01*
X147301212Y-79519256D01*
X146976116Y-79252456D01*
X146605217Y-79054207D01*
X146202768Y-78932125D01*
X145889117Y-78901233D01*
X145889107Y-78901233D01*
X145784235Y-78890904D01*
X145679363Y-78901233D01*
X141870885Y-78901233D01*
X141557234Y-78932125D01*
X141154785Y-79054207D01*
X140783886Y-79252456D01*
X140458790Y-79519256D01*
X140191990Y-79844352D01*
X139993741Y-80215251D01*
X139871659Y-80617700D01*
X139830437Y-81036233D01*
X126554839Y-81036233D01*
X122517803Y-76999197D01*
X122498557Y-76983403D01*
X122476601Y-76971667D01*
X122452776Y-76964440D01*
X122428000Y-76962000D01*
X111506000Y-76962000D01*
X111481224Y-76964440D01*
X111457399Y-76971667D01*
X111435443Y-76983403D01*
X111416197Y-76999197D01*
X103542197Y-84873197D01*
X103526403Y-84892443D01*
X103514667Y-84914399D01*
X103507440Y-84938224D01*
X103505000Y-84963000D01*
X103505000Y-89055655D01*
X99910487Y-92650169D01*
X99829024Y-92717024D01*
X99762168Y-92798488D01*
X99762165Y-92798491D01*
X99562224Y-93042120D01*
X99363975Y-93413019D01*
X99241893Y-93815468D01*
X99200671Y-94234001D01*
X94132000Y-94234001D01*
X94132000Y-75586777D01*
X95637000Y-75586777D01*
X95637000Y-76145223D01*
X95745948Y-76692939D01*
X95959656Y-77208876D01*
X96269912Y-77673207D01*
X96664793Y-78068088D01*
X97129124Y-78378344D01*
X97645061Y-78592052D01*
X98192777Y-78701000D01*
X98751223Y-78701000D01*
X99298939Y-78592052D01*
X99814876Y-78378344D01*
X100279207Y-78068088D01*
X100674088Y-77673207D01*
X100984344Y-77208876D01*
X101198052Y-76692939D01*
X101307000Y-76145223D01*
X101307000Y-75586777D01*
X101198052Y-75039061D01*
X100984344Y-74523124D01*
X100674088Y-74058793D01*
X100279207Y-73663912D01*
X99814876Y-73353656D01*
X99298939Y-73139948D01*
X98751223Y-73031000D01*
X98192777Y-73031000D01*
X97645061Y-73139948D01*
X97129124Y-73353656D01*
X96664793Y-73663912D01*
X96269912Y-74058793D01*
X95959656Y-74523124D01*
X95745948Y-75039061D01*
X95637000Y-75586777D01*
X94132000Y-75586777D01*
X94132000Y-71526000D01*
X199340000Y-71526000D01*
X199340001Y-137262000D01*
G37*
G04 #@! TD.AperFunction*
M02*
