G04 #@! TF.GenerationSoftware,KiCad,Pcbnew,5.1.10*
G04 #@! TF.CreationDate,2021-12-17T16:10:36-08:00*
G04 #@! TF.ProjectId,SEPIC,53455049-432e-46b6-9963-61645f706362,v0.1*
G04 #@! TF.SameCoordinates,Original*
G04 #@! TF.FileFunction,Paste,Top*
G04 #@! TF.FilePolarity,Positive*
%FSLAX46Y46*%
G04 Gerber Fmt 4.6, Leading zero omitted, Abs format (unit mm)*
G04 Created by KiCad (PCBNEW 5.1.10) date 2021-12-17 16:10:36*
%MOMM*%
%LPD*%
G01*
G04 APERTURE LIST*
%ADD10C,0.010000*%
%ADD11R,0.590000X0.630000*%
%ADD12R,0.930000X1.010000*%
%ADD13R,0.600000X0.530000*%
%ADD14R,0.580000X1.730000*%
G04 APERTURE END LIST*
D10*
G36*
X105308000Y-126429000D02*
G01*
X105308000Y-124509000D01*
X106528000Y-124509000D01*
X106528000Y-126429000D01*
X105308000Y-126429000D01*
G37*
X105308000Y-126429000D02*
X105308000Y-124509000D01*
X106528000Y-124509000D01*
X106528000Y-126429000D01*
X105308000Y-126429000D01*
G36*
X105538000Y-128484000D02*
G01*
X105538000Y-126984000D01*
X106298000Y-126984000D01*
X106298000Y-128484000D01*
X105538000Y-128484000D01*
G37*
X105538000Y-128484000D02*
X105538000Y-126984000D01*
X106298000Y-126984000D01*
X106298000Y-128484000D01*
X105538000Y-128484000D01*
D11*
X189533000Y-85293200D03*
X190373000Y-85293200D03*
X189533000Y-82727800D03*
X190373000Y-82727800D03*
X190373000Y-83997800D03*
X189533000Y-83997800D03*
D12*
X101600000Y-127709000D03*
X101600000Y-126291000D03*
D13*
X109982000Y-127000000D03*
X109982000Y-126126000D03*
D11*
X189558400Y-81432400D03*
X190398400Y-81432400D03*
D14*
X107418000Y-127619000D03*
X104418000Y-127619000D03*
G36*
G01*
X116695200Y-121575000D02*
X116952800Y-121575000D01*
G75*
G02*
X116964000Y-121586200I0J-11200D01*
G01*
X116964000Y-123033800D01*
G75*
G02*
X116952800Y-123045000I-11200J0D01*
G01*
X116695200Y-123045000D01*
G75*
G02*
X116684000Y-123033800I0J11200D01*
G01*
X116684000Y-121586200D01*
G75*
G02*
X116695200Y-121575000I11200J0D01*
G01*
G37*
G36*
G01*
X116195200Y-121575000D02*
X116452800Y-121575000D01*
G75*
G02*
X116464000Y-121586200I0J-11200D01*
G01*
X116464000Y-123033800D01*
G75*
G02*
X116452800Y-123045000I-11200J0D01*
G01*
X116195200Y-123045000D01*
G75*
G02*
X116184000Y-123033800I0J11200D01*
G01*
X116184000Y-121586200D01*
G75*
G02*
X116195200Y-121575000I11200J0D01*
G01*
G37*
G36*
G01*
X115695200Y-121575000D02*
X115952800Y-121575000D01*
G75*
G02*
X115964000Y-121586200I0J-11200D01*
G01*
X115964000Y-123033800D01*
G75*
G02*
X115952800Y-123045000I-11200J0D01*
G01*
X115695200Y-123045000D01*
G75*
G02*
X115684000Y-123033800I0J11200D01*
G01*
X115684000Y-121586200D01*
G75*
G02*
X115695200Y-121575000I11200J0D01*
G01*
G37*
G36*
G01*
X115195200Y-121575000D02*
X115452800Y-121575000D01*
G75*
G02*
X115464000Y-121586200I0J-11200D01*
G01*
X115464000Y-123033800D01*
G75*
G02*
X115452800Y-123045000I-11200J0D01*
G01*
X115195200Y-123045000D01*
G75*
G02*
X115184000Y-123033800I0J11200D01*
G01*
X115184000Y-121586200D01*
G75*
G02*
X115195200Y-121575000I11200J0D01*
G01*
G37*
G36*
G01*
X114695200Y-121575000D02*
X114952800Y-121575000D01*
G75*
G02*
X114964000Y-121586200I0J-11200D01*
G01*
X114964000Y-123033800D01*
G75*
G02*
X114952800Y-123045000I-11200J0D01*
G01*
X114695200Y-123045000D01*
G75*
G02*
X114684000Y-123033800I0J11200D01*
G01*
X114684000Y-121586200D01*
G75*
G02*
X114695200Y-121575000I11200J0D01*
G01*
G37*
G36*
G01*
X114695200Y-125875000D02*
X114952800Y-125875000D01*
G75*
G02*
X114964000Y-125886200I0J-11200D01*
G01*
X114964000Y-127333800D01*
G75*
G02*
X114952800Y-127345000I-11200J0D01*
G01*
X114695200Y-127345000D01*
G75*
G02*
X114684000Y-127333800I0J11200D01*
G01*
X114684000Y-125886200D01*
G75*
G02*
X114695200Y-125875000I11200J0D01*
G01*
G37*
G36*
G01*
X115195200Y-125875000D02*
X115452800Y-125875000D01*
G75*
G02*
X115464000Y-125886200I0J-11200D01*
G01*
X115464000Y-127333800D01*
G75*
G02*
X115452800Y-127345000I-11200J0D01*
G01*
X115195200Y-127345000D01*
G75*
G02*
X115184000Y-127333800I0J11200D01*
G01*
X115184000Y-125886200D01*
G75*
G02*
X115195200Y-125875000I11200J0D01*
G01*
G37*
G36*
G01*
X115695200Y-125875000D02*
X115952800Y-125875000D01*
G75*
G02*
X115964000Y-125886200I0J-11200D01*
G01*
X115964000Y-127333800D01*
G75*
G02*
X115952800Y-127345000I-11200J0D01*
G01*
X115695200Y-127345000D01*
G75*
G02*
X115684000Y-127333800I0J11200D01*
G01*
X115684000Y-125886200D01*
G75*
G02*
X115695200Y-125875000I11200J0D01*
G01*
G37*
G36*
G01*
X116195200Y-125875000D02*
X116452800Y-125875000D01*
G75*
G02*
X116464000Y-125886200I0J-11200D01*
G01*
X116464000Y-127333800D01*
G75*
G02*
X116452800Y-127345000I-11200J0D01*
G01*
X116195200Y-127345000D01*
G75*
G02*
X116184000Y-127333800I0J11200D01*
G01*
X116184000Y-125886200D01*
G75*
G02*
X116195200Y-125875000I11200J0D01*
G01*
G37*
G36*
G01*
X116695200Y-125875000D02*
X116952800Y-125875000D01*
G75*
G02*
X116964000Y-125886200I0J-11200D01*
G01*
X116964000Y-127333800D01*
G75*
G02*
X116952800Y-127345000I-11200J0D01*
G01*
X116695200Y-127345000D01*
G75*
G02*
X116684000Y-127333800I0J11200D01*
G01*
X116684000Y-125886200D01*
G75*
G02*
X116695200Y-125875000I11200J0D01*
G01*
G37*
M02*
