G04 #@! TF.GenerationSoftware,KiCad,Pcbnew,5.1.10*
G04 #@! TF.CreationDate,2021-12-24T15:06:35-08:00*
G04 #@! TF.ProjectId,SEPIC,53455049-432e-46b6-9963-61645f706362,v0.1*
G04 #@! TF.SameCoordinates,Original*
G04 #@! TF.FileFunction,Soldermask,Top*
G04 #@! TF.FilePolarity,Negative*
%FSLAX46Y46*%
G04 Gerber Fmt 4.6, Leading zero omitted, Abs format (unit mm)*
G04 Created by KiCad (PCBNEW 5.1.10) date 2021-12-24 15:06:35*
%MOMM*%
%LPD*%
G01*
G04 APERTURE LIST*
%ADD10C,0.010000*%
%ADD11C,4.400000*%
%ADD12C,2.300000*%
%ADD13R,2.300000X2.300000*%
%ADD14R,0.590000X0.630000*%
%ADD15C,2.514600*%
%ADD16R,1.700000X1.700000*%
%ADD17O,1.700000X1.700000*%
%ADD18R,0.930000X1.010000*%
%ADD19R,1.150000X1.150000*%
%ADD20C,1.150000*%
%ADD21R,0.600000X0.530000*%
%ADD22R,1.400000X1.400000*%
%ADD23C,1.400000*%
%ADD24R,1.800000X1.800000*%
%ADD25C,1.800000*%
%ADD26C,1.803400*%
%ADD27C,1.600000*%
%ADD28O,1.600000X1.600000*%
%ADD29R,1.371600X1.371600*%
%ADD30C,1.371600*%
%ADD31C,0.100000*%
G04 APERTURE END LIST*
D10*
G36*
X104078000Y-128534000D02*
G01*
X104078000Y-126704000D01*
X104758000Y-126704000D01*
X104758000Y-128534000D01*
X104078000Y-128534000D01*
G37*
X104078000Y-128534000D02*
X104078000Y-126704000D01*
X104758000Y-126704000D01*
X104758000Y-128534000D01*
X104078000Y-128534000D01*
G36*
X107078000Y-128534000D02*
G01*
X107078000Y-126704000D01*
X107758000Y-126704000D01*
X107758000Y-128534000D01*
X107078000Y-128534000D01*
G37*
X107078000Y-128534000D02*
X107078000Y-126704000D01*
X107758000Y-126704000D01*
X107758000Y-128534000D01*
X107078000Y-128534000D01*
G36*
X104901500Y-123904000D02*
G01*
X106934500Y-123904000D01*
X106934500Y-127034000D01*
X106348000Y-127034000D01*
X106348000Y-128534000D01*
X105488000Y-128534000D01*
X105488000Y-127034000D01*
X104901500Y-127034000D01*
X104901500Y-123904000D01*
G37*
X104901500Y-123904000D02*
X106934500Y-123904000D01*
X106934500Y-127034000D01*
X106348000Y-127034000D01*
X106348000Y-128534000D01*
X105488000Y-128534000D01*
X105488000Y-127034000D01*
X104901500Y-127034000D01*
X104901500Y-123904000D01*
D11*
X195000000Y-132922000D03*
X195000000Y-75866000D03*
X98472000Y-75866000D03*
X98470000Y-132920000D03*
D12*
X158352000Y-80264000D03*
D13*
X179468000Y-80264000D03*
D14*
X189533000Y-85293200D03*
X190373000Y-85293200D03*
X189533000Y-82727800D03*
X190373000Y-82727800D03*
X190373000Y-83997800D03*
X189533000Y-83997800D03*
D15*
X105156001Y-90424000D03*
X128756002Y-90424000D03*
X153416000Y-88667998D03*
X153416000Y-112267999D03*
D16*
X110998000Y-112014000D03*
D17*
X108458000Y-112014000D03*
D18*
X101600000Y-127709000D03*
X101600000Y-126291000D03*
D19*
X119634000Y-109514000D03*
D20*
X119634000Y-114514000D03*
D21*
X109982000Y-127000000D03*
X109982000Y-126126000D03*
D22*
X179518000Y-92710000D03*
D23*
X172018000Y-92710000D03*
D14*
X189558400Y-81432400D03*
X190398400Y-81432400D03*
D24*
X175006000Y-125476000D03*
D25*
X177546000Y-125476000D03*
D26*
X101346000Y-114554000D03*
X101346000Y-109554000D03*
X184150000Y-104220000D03*
X184150000Y-109220000D03*
X184150000Y-130556000D03*
X184150000Y-125556000D03*
D27*
X170180000Y-122936000D03*
D28*
X170180000Y-130556000D03*
D27*
X140208000Y-122047000D03*
D28*
X130048000Y-122047000D03*
D29*
X129886000Y-128524000D03*
D30*
X141570000Y-128524000D03*
D27*
X140208000Y-125222000D03*
D28*
X130048000Y-125222000D03*
G36*
G01*
X116695200Y-121575000D02*
X116952800Y-121575000D01*
G75*
G02*
X116964000Y-121586200I0J-11200D01*
G01*
X116964000Y-123033800D01*
G75*
G02*
X116952800Y-123045000I-11200J0D01*
G01*
X116695200Y-123045000D01*
G75*
G02*
X116684000Y-123033800I0J11200D01*
G01*
X116684000Y-121586200D01*
G75*
G02*
X116695200Y-121575000I11200J0D01*
G01*
G37*
G36*
G01*
X116195200Y-121575000D02*
X116452800Y-121575000D01*
G75*
G02*
X116464000Y-121586200I0J-11200D01*
G01*
X116464000Y-123033800D01*
G75*
G02*
X116452800Y-123045000I-11200J0D01*
G01*
X116195200Y-123045000D01*
G75*
G02*
X116184000Y-123033800I0J11200D01*
G01*
X116184000Y-121586200D01*
G75*
G02*
X116195200Y-121575000I11200J0D01*
G01*
G37*
G36*
G01*
X115695200Y-121575000D02*
X115952800Y-121575000D01*
G75*
G02*
X115964000Y-121586200I0J-11200D01*
G01*
X115964000Y-123033800D01*
G75*
G02*
X115952800Y-123045000I-11200J0D01*
G01*
X115695200Y-123045000D01*
G75*
G02*
X115684000Y-123033800I0J11200D01*
G01*
X115684000Y-121586200D01*
G75*
G02*
X115695200Y-121575000I11200J0D01*
G01*
G37*
G36*
G01*
X115195200Y-121575000D02*
X115452800Y-121575000D01*
G75*
G02*
X115464000Y-121586200I0J-11200D01*
G01*
X115464000Y-123033800D01*
G75*
G02*
X115452800Y-123045000I-11200J0D01*
G01*
X115195200Y-123045000D01*
G75*
G02*
X115184000Y-123033800I0J11200D01*
G01*
X115184000Y-121586200D01*
G75*
G02*
X115195200Y-121575000I11200J0D01*
G01*
G37*
G36*
G01*
X114695200Y-121575000D02*
X114952800Y-121575000D01*
G75*
G02*
X114964000Y-121586200I0J-11200D01*
G01*
X114964000Y-123033800D01*
G75*
G02*
X114952800Y-123045000I-11200J0D01*
G01*
X114695200Y-123045000D01*
G75*
G02*
X114684000Y-123033800I0J11200D01*
G01*
X114684000Y-121586200D01*
G75*
G02*
X114695200Y-121575000I11200J0D01*
G01*
G37*
G36*
G01*
X114695200Y-125875000D02*
X114952800Y-125875000D01*
G75*
G02*
X114964000Y-125886200I0J-11200D01*
G01*
X114964000Y-127333800D01*
G75*
G02*
X114952800Y-127345000I-11200J0D01*
G01*
X114695200Y-127345000D01*
G75*
G02*
X114684000Y-127333800I0J11200D01*
G01*
X114684000Y-125886200D01*
G75*
G02*
X114695200Y-125875000I11200J0D01*
G01*
G37*
G36*
G01*
X115195200Y-125875000D02*
X115452800Y-125875000D01*
G75*
G02*
X115464000Y-125886200I0J-11200D01*
G01*
X115464000Y-127333800D01*
G75*
G02*
X115452800Y-127345000I-11200J0D01*
G01*
X115195200Y-127345000D01*
G75*
G02*
X115184000Y-127333800I0J11200D01*
G01*
X115184000Y-125886200D01*
G75*
G02*
X115195200Y-125875000I11200J0D01*
G01*
G37*
G36*
G01*
X115695200Y-125875000D02*
X115952800Y-125875000D01*
G75*
G02*
X115964000Y-125886200I0J-11200D01*
G01*
X115964000Y-127333800D01*
G75*
G02*
X115952800Y-127345000I-11200J0D01*
G01*
X115695200Y-127345000D01*
G75*
G02*
X115684000Y-127333800I0J11200D01*
G01*
X115684000Y-125886200D01*
G75*
G02*
X115695200Y-125875000I11200J0D01*
G01*
G37*
G36*
G01*
X116195200Y-125875000D02*
X116452800Y-125875000D01*
G75*
G02*
X116464000Y-125886200I0J-11200D01*
G01*
X116464000Y-127333800D01*
G75*
G02*
X116452800Y-127345000I-11200J0D01*
G01*
X116195200Y-127345000D01*
G75*
G02*
X116184000Y-127333800I0J11200D01*
G01*
X116184000Y-125886200D01*
G75*
G02*
X116195200Y-125875000I11200J0D01*
G01*
G37*
G36*
G01*
X116695200Y-125875000D02*
X116952800Y-125875000D01*
G75*
G02*
X116964000Y-125886200I0J-11200D01*
G01*
X116964000Y-127333800D01*
G75*
G02*
X116952800Y-127345000I-11200J0D01*
G01*
X116695200Y-127345000D01*
G75*
G02*
X116684000Y-127333800I0J11200D01*
G01*
X116684000Y-125886200D01*
G75*
G02*
X116695200Y-125875000I11200J0D01*
G01*
G37*
D16*
X112014000Y-131318000D03*
D17*
X114554000Y-131318000D03*
X117094000Y-131318000D03*
X119634000Y-131318000D03*
D16*
X184150000Y-119888000D03*
D17*
X184150000Y-117348000D03*
X184150000Y-114808000D03*
D31*
G36*
X138440233Y-85384940D02*
G01*
X137627060Y-84571767D01*
X138440233Y-83758594D01*
X139253406Y-84571767D01*
X138440233Y-85384940D01*
G37*
D20*
X141975767Y-81036233D03*
M02*
