M48
; DRILL file {KiCad 5.1.10} date Fri Dec 17 16:59:49 2021
; FORMAT={-:-/ absolute / metric / decimal}
; #@! TF.CreationDate,2021-12-17T16:59:49-08:00
; #@! TF.GenerationSoftware,Kicad,Pcbnew,5.1.10
; #@! TF.FileFunction,Plated,1,2,PTH
FMAT,2
METRIC
T1C0.400
T2C0.800
T3C0.864
T4C0.900
T5C1.000
T6C1.050
T7C1.295
T8C1.500
T9C2.007
T10C2.200
%
G90
G05
T1
X95.758Y-107.696
X95.758Y-109.22
X95.758Y-110.744
X95.758Y-112.268
X103.378Y-83.82
X104.394Y-82.804
X105.41Y-81.788
X106.426Y-80.772
X107.442Y-79.756
X108.458Y-78.74
X109.474Y-77.724
X110.49Y-76.708
X111.506Y-75.946
X111.506Y-127.0
X112.776Y-75.946
X114.046Y-75.946
X115.062Y-120.142
X115.316Y-75.946
X116.078Y-124.46
X116.586Y-75.946
X117.856Y-75.946
X119.126Y-75.946
X119.888Y-123.952
X120.396Y-75.946
X121.666Y-75.946
X122.936Y-75.946
X124.206Y-75.946
X125.222Y-76.708
X126.238Y-77.724
X127.254Y-78.74
X127.254Y-101.346
X127.254Y-102.616
X127.254Y-103.886
X127.254Y-105.156
X127.254Y-106.426
X127.762Y-74.422
X128.27Y-79.756
X129.032Y-74.422
X129.286Y-80.772
X130.302Y-74.422
X130.302Y-81.788
X130.81Y-98.552
X131.318Y-82.804
X131.572Y-74.422
X131.572Y-85.344
X131.572Y-86.614
X131.572Y-87.884
X132.08Y-118.872
X132.842Y-74.422
X132.842Y-86.106
X132.842Y-87.376
X132.842Y-88.646
X134.112Y-74.422
X134.112Y-86.868
X134.112Y-88.138
X134.112Y-89.154
X135.382Y-74.422
X136.652Y-74.422
X137.414Y-98.552
X137.922Y-74.422
X138.684Y-97.536
X139.192Y-74.422
X139.446Y-110.236
X140.462Y-111.252
X141.478Y-112.268
X142.494Y-113.284
X143.002Y-90.424
X143.51Y-114.3
X144.018Y-89.408
X144.526Y-115.824
X145.034Y-88.646
X146.05Y-87.63
X146.05Y-115.824
X147.574Y-115.824
X147.574Y-125.984
X147.574Y-128.524
X147.574Y-130.81
X148.59Y-125.984
X148.59Y-128.524
X148.59Y-130.81
X148.844Y-79.502
X149.098Y-115.824
X149.606Y-125.984
X149.606Y-128.524
X149.606Y-130.81
X149.86Y-80.264
X150.622Y-115.824
X150.622Y-125.984
X150.622Y-128.524
X150.622Y-130.81
X150.876Y-81.28
X151.638Y-125.984
X151.638Y-128.524
X151.638Y-130.81
X151.892Y-82.042
X153.162Y-81.28
X154.178Y-80.264
X155.448Y-79.502
X155.702Y-115.824
X157.226Y-115.824
X157.48Y-85.852
X158.496Y-84.836
X159.258Y-114.808
X159.512Y-83.82
X160.401Y-113.792
X160.782Y-82.804
X161.417Y-112.903
X161.544Y-84.836
X162.052Y-130.556
X162.433Y-111.887
X162.814Y-129.54
X162.941Y-86.106
X163.068Y-132.08
X163.322Y-110.998
X163.576Y-128.524
X163.83Y-131.064
X164.211Y-109.982
X164.338Y-87.249
X164.338Y-127.508
X164.592Y-130.048
X165.1Y-108.966
X165.1Y-126.492
X165.354Y-129.032
X165.608Y-88.646
X165.989Y-107.95
X166.116Y-128.016
X167.005Y-106.934
X167.894Y-100.076
X167.894Y-101.6
X167.894Y-103.124
X167.894Y-104.648
X167.894Y-105.918
X178.054Y-73.66
X179.324Y-73.66
X179.324Y-100.838
X179.324Y-106.172
X179.324Y-107.442
X179.324Y-108.712
X179.324Y-109.982
X180.34Y-99.822
X180.594Y-73.66
X181.356Y-98.806
X181.864Y-73.66
X182.372Y-97.79
X183.134Y-73.66
X183.388Y-96.774
X184.404Y-73.66
X184.404Y-95.758
X185.42Y-81.026
X185.42Y-82.296
X185.42Y-83.566
X185.42Y-84.836
X185.42Y-86.106
X185.674Y-73.66
X186.944Y-73.66
X187.198Y-91.44
X187.198Y-92.71
X187.198Y-93.98
X187.198Y-95.25
X187.198Y-96.52
X188.214Y-73.66
X189.484Y-73.66
X193.04Y-79.502
X193.04Y-80.772
X193.04Y-82.042
X193.04Y-83.312
X193.04Y-84.582
X193.04Y-85.852
X193.04Y-87.122
T2
X119.634Y-109.514
X119.634Y-114.514
X130.048Y-122.047
X130.048Y-125.222
X138.44Y-84.572
X140.208Y-122.047
X140.208Y-125.222
X141.976Y-81.036
X170.18Y-122.936
X170.18Y-130.556
T3
X129.886Y-128.524
X141.57Y-128.524
T4
X175.006Y-125.476
X177.546Y-125.476
T5
X108.458Y-112.014
X110.998Y-112.014
X112.014Y-131.318
X114.554Y-131.318
X117.094Y-131.318
X119.634Y-131.318
X184.15Y-114.808
X184.15Y-117.348
X184.15Y-119.888
T6
X172.018Y-92.71
X179.518Y-92.71
T7
X101.346Y-109.554
X101.346Y-114.554
X184.15Y-104.22
X184.15Y-109.22
X184.15Y-125.556
X184.15Y-130.556
T8
X158.352Y-80.264
X179.468Y-80.264
T9
X105.156Y-90.424
X128.756Y-90.424
X153.416Y-88.668
X153.416Y-112.268
T10
X98.47Y-132.92
X98.472Y-75.866
X195.0Y-75.866
X195.0Y-132.922
T0
M30
