G04 #@! TF.GenerationSoftware,KiCad,Pcbnew,5.1.10*
G04 #@! TF.CreationDate,2021-12-17T16:10:36-08:00*
G04 #@! TF.ProjectId,SEPIC,53455049-432e-46b6-9963-61645f706362,v0.1*
G04 #@! TF.SameCoordinates,Original*
G04 #@! TF.FileFunction,Soldermask,Bot*
G04 #@! TF.FilePolarity,Negative*
%FSLAX46Y46*%
G04 Gerber Fmt 4.6, Leading zero omitted, Abs format (unit mm)*
G04 Created by KiCad (PCBNEW 5.1.10) date 2021-12-17 16:10:36*
%MOMM*%
%LPD*%
G01*
G04 APERTURE LIST*
%ADD10R,10.530000X5.000000*%
%ADD11R,1.050000X3.210000*%
%ADD12C,2.300000*%
%ADD13R,2.300000X2.300000*%
%ADD14C,2.514600*%
%ADD15R,1.700000X1.700000*%
%ADD16O,1.700000X1.700000*%
%ADD17R,1.150000X1.150000*%
%ADD18C,1.150000*%
%ADD19R,1.400000X1.400000*%
%ADD20C,1.400000*%
%ADD21R,1.800000X1.800000*%
%ADD22C,1.800000*%
%ADD23C,1.803400*%
%ADD24C,1.600000*%
%ADD25O,1.600000X1.600000*%
%ADD26R,1.371600X1.371600*%
%ADD27C,1.371600*%
%ADD28C,0.100000*%
G04 APERTURE END LIST*
D10*
X133858000Y-102576000D03*
D11*
X130458000Y-115556000D03*
X132158000Y-115556000D03*
X133858000Y-115556000D03*
X135558000Y-115556000D03*
X137258000Y-115556000D03*
D12*
X158352000Y-80264000D03*
D13*
X179468000Y-80264000D03*
D14*
X105156001Y-90424000D03*
X128756002Y-90424000D03*
X153416000Y-88667998D03*
X153416000Y-112267999D03*
D15*
X110998000Y-112014000D03*
D16*
X108458000Y-112014000D03*
D17*
X119634000Y-109514000D03*
D18*
X119634000Y-114514000D03*
D19*
X179518000Y-92710000D03*
D20*
X172018000Y-92710000D03*
D21*
X175006000Y-125476000D03*
D22*
X177546000Y-125476000D03*
D23*
X101346000Y-114554000D03*
X101346000Y-109554000D03*
X184150000Y-104220000D03*
X184150000Y-109220000D03*
X184150000Y-130556000D03*
X184150000Y-125556000D03*
D24*
X170180000Y-122936000D03*
D25*
X170180000Y-130556000D03*
D24*
X140208000Y-122047000D03*
D25*
X130048000Y-122047000D03*
D26*
X129886000Y-128524000D03*
D27*
X141570000Y-128524000D03*
D24*
X140208000Y-125222000D03*
D25*
X130048000Y-125222000D03*
D15*
X112014000Y-131318000D03*
D16*
X114554000Y-131318000D03*
X117094000Y-131318000D03*
X119634000Y-131318000D03*
D15*
X184150000Y-119888000D03*
D16*
X184150000Y-117348000D03*
X184150000Y-114808000D03*
D28*
G36*
X138440233Y-85384940D02*
G01*
X137627060Y-84571767D01*
X138440233Y-83758594D01*
X139253406Y-84571767D01*
X138440233Y-85384940D01*
G37*
D18*
X141975767Y-81036233D03*
M02*
