G04 #@! TF.GenerationSoftware,KiCad,Pcbnew,5.1.10*
G04 #@! TF.CreationDate,2021-12-17T16:10:36-08:00*
G04 #@! TF.ProjectId,SEPIC,53455049-432e-46b6-9963-61645f706362,v0.1*
G04 #@! TF.SameCoordinates,Original*
G04 #@! TF.FileFunction,Legend,Bot*
G04 #@! TF.FilePolarity,Positive*
%FSLAX46Y46*%
G04 Gerber Fmt 4.6, Leading zero omitted, Abs format (unit mm)*
G04 Created by KiCad (PCBNEW 5.1.10) date 2021-12-17 16:10:36*
%MOMM*%
%LPD*%
G01*
G04 APERTURE LIST*
%ADD10C,0.150000*%
%ADD11C,0.200000*%
%ADD12C,0.127000*%
%ADD13C,0.120000*%
%ADD14R,10.530000X5.000000*%
%ADD15R,1.050000X3.210000*%
%ADD16C,2.300000*%
%ADD17R,2.300000X2.300000*%
%ADD18C,2.514600*%
%ADD19R,1.700000X1.700000*%
%ADD20O,1.700000X1.700000*%
%ADD21R,1.150000X1.150000*%
%ADD22C,1.150000*%
%ADD23R,1.400000X1.400000*%
%ADD24C,1.400000*%
%ADD25R,1.800000X1.800000*%
%ADD26C,1.800000*%
%ADD27C,1.803400*%
%ADD28C,1.600000*%
%ADD29O,1.600000X1.600000*%
%ADD30R,1.371600X1.371600*%
%ADD31C,1.371600*%
%ADD32C,0.100000*%
G04 APERTURE END LIST*
D10*
X164708761Y-134818380D02*
X164708761Y-133818380D01*
X164470666Y-134913619D02*
X163708761Y-134913619D01*
X163280190Y-133818380D02*
X163089714Y-133818380D01*
X162994476Y-133866000D01*
X162899238Y-133961238D01*
X162851619Y-134151714D01*
X162851619Y-134485047D01*
X162899238Y-134675523D01*
X162994476Y-134770761D01*
X163089714Y-134818380D01*
X163280190Y-134818380D01*
X163375428Y-134770761D01*
X163470666Y-134675523D01*
X163518285Y-134485047D01*
X163518285Y-134151714D01*
X163470666Y-133961238D01*
X163375428Y-133866000D01*
X163280190Y-133818380D01*
X162423047Y-133818380D02*
X162423047Y-134627904D01*
X162375428Y-134723142D01*
X162327809Y-134770761D01*
X162232571Y-134818380D01*
X162042095Y-134818380D01*
X161946857Y-134770761D01*
X161899238Y-134723142D01*
X161851619Y-134627904D01*
X161851619Y-133818380D01*
X161518285Y-133818380D02*
X160946857Y-133818380D01*
X161232571Y-134818380D02*
X161232571Y-133818380D01*
X159851619Y-134294571D02*
X159089714Y-134294571D01*
X159089714Y-134580285D02*
X159851619Y-134580285D01*
X157423047Y-134151714D02*
X157423047Y-134818380D01*
X157661142Y-133770761D02*
X157899238Y-134485047D01*
X157280190Y-134485047D01*
X155423047Y-133770761D02*
X156280190Y-135056476D01*
X153804000Y-134818380D02*
X154375428Y-134818380D01*
X154089714Y-134818380D02*
X154089714Y-133818380D01*
X154184952Y-133961238D01*
X154280190Y-134056476D01*
X154375428Y-134104095D01*
X153375428Y-134723142D02*
X153327809Y-134770761D01*
X153375428Y-134818380D01*
X153423047Y-134770761D01*
X153375428Y-134723142D01*
X153375428Y-134818380D01*
X152946857Y-133913619D02*
X152899238Y-133866000D01*
X152804000Y-133818380D01*
X152565904Y-133818380D01*
X152470666Y-133866000D01*
X152423047Y-133913619D01*
X152375428Y-134008857D01*
X152375428Y-134104095D01*
X152423047Y-134246952D01*
X152994476Y-134818380D01*
X152375428Y-134818380D01*
X150470666Y-133770761D02*
X151327809Y-135056476D01*
X149089714Y-135199333D02*
X149137333Y-135151714D01*
X149232571Y-135008857D01*
X149280190Y-134913619D01*
X149327809Y-134770761D01*
X149375428Y-134532666D01*
X149375428Y-134342190D01*
X149327809Y-134104095D01*
X149280190Y-133961238D01*
X149232571Y-133866000D01*
X149137333Y-133723142D01*
X149089714Y-133675523D01*
X148184952Y-134818380D02*
X148756380Y-134818380D01*
X148470666Y-134818380D02*
X148470666Y-133818380D01*
X148565904Y-133961238D01*
X148661142Y-134056476D01*
X148756380Y-134104095D01*
X146994476Y-134437428D02*
X146232571Y-134437428D01*
X146613523Y-134818380D02*
X146613523Y-134056476D01*
X144708761Y-135199333D02*
X144756380Y-135151714D01*
X144851619Y-135008857D01*
X144899238Y-134913619D01*
X144946857Y-134770761D01*
X144994476Y-134532666D01*
X144994476Y-134342190D01*
X144946857Y-134104095D01*
X144899238Y-133961238D01*
X144851619Y-133866000D01*
X144756380Y-133723142D01*
X144708761Y-133675523D01*
X144470666Y-133818380D02*
X144137333Y-134818380D01*
X143804000Y-133818380D01*
X143708761Y-134913619D02*
X142946857Y-134913619D01*
X142518285Y-133818380D02*
X142327809Y-133818380D01*
X142232571Y-133866000D01*
X142137333Y-133961238D01*
X142089714Y-134151714D01*
X142089714Y-134485047D01*
X142137333Y-134675523D01*
X142232571Y-134770761D01*
X142327809Y-134818380D01*
X142518285Y-134818380D01*
X142613523Y-134770761D01*
X142708761Y-134675523D01*
X142756380Y-134485047D01*
X142756380Y-134151714D01*
X142708761Y-133961238D01*
X142613523Y-133866000D01*
X142518285Y-133818380D01*
X141661142Y-133818380D02*
X141661142Y-134627904D01*
X141613523Y-134723142D01*
X141565904Y-134770761D01*
X141470666Y-134818380D01*
X141280190Y-134818380D01*
X141184952Y-134770761D01*
X141137333Y-134723142D01*
X141089714Y-134627904D01*
X141089714Y-133818380D01*
X140756380Y-133818380D02*
X140184952Y-133818380D01*
X140470666Y-134818380D02*
X140470666Y-133818380D01*
X139089714Y-134437428D02*
X138327809Y-134437428D01*
X138708761Y-134818380D02*
X138708761Y-134056476D01*
X137232571Y-133818380D02*
X136899238Y-134818380D01*
X136565904Y-133818380D01*
X136470666Y-134913619D02*
X135708761Y-134913619D01*
X135470666Y-134818380D02*
X135470666Y-133818380D01*
X135232571Y-133818380D01*
X135089714Y-133866000D01*
X134994476Y-133961238D01*
X134946857Y-134056476D01*
X134899238Y-134246952D01*
X134899238Y-134389809D01*
X134946857Y-134580285D01*
X134994476Y-134675523D01*
X135089714Y-134770761D01*
X135232571Y-134818380D01*
X135470666Y-134818380D01*
X134565904Y-135199333D02*
X134518285Y-135151714D01*
X134423047Y-135008857D01*
X134375428Y-134913619D01*
X134327809Y-134770761D01*
X134280190Y-134532666D01*
X134280190Y-134342190D01*
X134327809Y-134104095D01*
X134375428Y-133961238D01*
X134423047Y-133866000D01*
X134518285Y-133723142D01*
X134565904Y-133675523D01*
X132327809Y-133770761D02*
X133184952Y-135056476D01*
X131375428Y-133818380D02*
X131042095Y-134818380D01*
X130708761Y-133818380D01*
X130613523Y-134913619D02*
X129851619Y-134913619D01*
X129613523Y-134818380D02*
X129613523Y-133818380D01*
X129137333Y-134818380D02*
X129137333Y-133818380D01*
X128565904Y-134818380D01*
X128565904Y-133818380D01*
X128184952Y-135199333D02*
X128137333Y-135151714D01*
X128042095Y-135008857D01*
X127994476Y-134913619D01*
X127946857Y-134770761D01*
X127899238Y-134532666D01*
X127899238Y-134342190D01*
X127946857Y-134104095D01*
X127994476Y-133961238D01*
X128042095Y-133866000D01*
X128137333Y-133723142D01*
X128184952Y-133675523D01*
D11*
X137458000Y-117726000D02*
G75*
G03*
X137458000Y-117726000I-100000J0D01*
G01*
D12*
X139038000Y-112131000D02*
X128678000Y-112131000D01*
X139038000Y-110526000D02*
X139038000Y-112131000D01*
X128678000Y-110526000D02*
X128678000Y-112131000D01*
X139038000Y-99826000D02*
X128678000Y-99826000D01*
D13*
X101727000Y-118962800D02*
G75*
G03*
X101727000Y-118962800I-381000J0D01*
G01*
X184531000Y-113628800D02*
G75*
G03*
X184531000Y-113628800I-381000J0D01*
G01*
X184531000Y-134964800D02*
G75*
G03*
X184531000Y-134964800I-381000J0D01*
G01*
D10*
X139660380Y-113109095D02*
X140469904Y-113109095D01*
X140565142Y-113156714D01*
X140612761Y-113204333D01*
X140660380Y-113299571D01*
X140660380Y-113490047D01*
X140612761Y-113585285D01*
X140565142Y-113632904D01*
X140469904Y-113680523D01*
X139660380Y-113680523D01*
X139755619Y-114109095D02*
X139708000Y-114156714D01*
X139660380Y-114251952D01*
X139660380Y-114490047D01*
X139708000Y-114585285D01*
X139755619Y-114632904D01*
X139850857Y-114680523D01*
X139946095Y-114680523D01*
X140088952Y-114632904D01*
X140660380Y-114061476D01*
X140660380Y-114680523D01*
%LPC*%
D14*
X133858000Y-102576000D03*
D15*
X130458000Y-115556000D03*
X132158000Y-115556000D03*
X133858000Y-115556000D03*
X135558000Y-115556000D03*
X137258000Y-115556000D03*
D16*
X158352000Y-80264000D03*
D17*
X179468000Y-80264000D03*
D18*
X105156001Y-90424000D03*
X128756002Y-90424000D03*
X153416000Y-88667998D03*
X153416000Y-112267999D03*
D19*
X110998000Y-112014000D03*
D20*
X108458000Y-112014000D03*
D21*
X119634000Y-109514000D03*
D22*
X119634000Y-114514000D03*
D23*
X179518000Y-92710000D03*
D24*
X172018000Y-92710000D03*
D25*
X175006000Y-125476000D03*
D26*
X177546000Y-125476000D03*
D27*
X101346000Y-114554000D03*
X101346000Y-109554000D03*
X184150000Y-104220000D03*
X184150000Y-109220000D03*
X184150000Y-130556000D03*
X184150000Y-125556000D03*
D28*
X170180000Y-122936000D03*
D29*
X170180000Y-130556000D03*
D28*
X140208000Y-122047000D03*
D29*
X130048000Y-122047000D03*
D30*
X129886000Y-128524000D03*
D31*
X141570000Y-128524000D03*
D28*
X140208000Y-125222000D03*
D29*
X130048000Y-125222000D03*
D19*
X112014000Y-131318000D03*
D20*
X114554000Y-131318000D03*
X117094000Y-131318000D03*
X119634000Y-131318000D03*
D19*
X184150000Y-119888000D03*
D20*
X184150000Y-117348000D03*
X184150000Y-114808000D03*
D32*
G36*
X138440233Y-85384940D02*
G01*
X137627060Y-84571767D01*
X138440233Y-83758594D01*
X139253406Y-84571767D01*
X138440233Y-85384940D01*
G37*
D22*
X141975767Y-81036233D03*
M02*
