G04 #@! TF.GenerationSoftware,KiCad,Pcbnew,5.1.10*
G04 #@! TF.CreationDate,2021-12-17T16:59:52-08:00*
G04 #@! TF.ProjectId,SEPIC,53455049-432e-46b6-9963-61645f706362,v0.1*
G04 #@! TF.SameCoordinates,Original*
G04 #@! TF.FileFunction,Legend,Top*
G04 #@! TF.FilePolarity,Positive*
%FSLAX46Y46*%
G04 Gerber Fmt 4.6, Leading zero omitted, Abs format (unit mm)*
G04 Created by KiCad (PCBNEW 5.1.10) date 2021-12-17 16:59:52*
%MOMM*%
%LPD*%
G01*
G04 APERTURE LIST*
%ADD10C,0.120000*%
%ADD11C,0.300000*%
%ADD12C,0.150000*%
%ADD13C,0.127000*%
%ADD14C,0.200000*%
%ADD15C,0.098425*%
%ADD16C,0.010000*%
%ADD17C,4.400000*%
%ADD18C,2.300000*%
%ADD19R,2.300000X2.300000*%
%ADD20R,0.590000X0.630000*%
%ADD21C,2.514600*%
%ADD22R,1.700000X1.700000*%
%ADD23O,1.700000X1.700000*%
%ADD24R,0.930000X1.010000*%
%ADD25R,1.150000X1.150000*%
%ADD26C,1.150000*%
%ADD27R,0.600000X0.530000*%
%ADD28R,1.400000X1.400000*%
%ADD29C,1.400000*%
%ADD30R,1.800000X1.800000*%
%ADD31C,1.800000*%
%ADD32C,1.803400*%
%ADD33C,1.600000*%
%ADD34O,1.600000X1.600000*%
%ADD35R,1.371600X1.371600*%
%ADD36C,1.371600*%
%ADD37C,0.100000*%
G04 APERTURE END LIST*
D10*
X192252600Y-86258400D02*
X192252600Y-85521800D01*
X187985400Y-86258400D02*
X192252600Y-86258400D01*
X187985400Y-82067400D02*
X187985400Y-86258400D01*
X192252600Y-82067400D02*
X192252600Y-86182200D01*
X187985400Y-82067400D02*
X192252600Y-82067400D01*
D11*
X196692357Y-90767000D02*
X196620928Y-90981285D01*
X196620928Y-91338428D01*
X196692357Y-91481285D01*
X196763785Y-91552714D01*
X196906642Y-91624142D01*
X197049500Y-91624142D01*
X197192357Y-91552714D01*
X197263785Y-91481285D01*
X197335214Y-91338428D01*
X197406642Y-91052714D01*
X197478071Y-90909857D01*
X197549500Y-90838428D01*
X197692357Y-90767000D01*
X197835214Y-90767000D01*
X197978071Y-90838428D01*
X198049500Y-90909857D01*
X198120928Y-91052714D01*
X198120928Y-91409857D01*
X198049500Y-91624142D01*
X196692357Y-92838428D02*
X196620928Y-92695571D01*
X196620928Y-92409857D01*
X196692357Y-92267000D01*
X196835214Y-92195571D01*
X197406642Y-92195571D01*
X197549500Y-92267000D01*
X197620928Y-92409857D01*
X197620928Y-92695571D01*
X197549500Y-92838428D01*
X197406642Y-92909857D01*
X197263785Y-92909857D01*
X197120928Y-92195571D01*
X196692357Y-94124142D02*
X196620928Y-93981285D01*
X196620928Y-93695571D01*
X196692357Y-93552714D01*
X196835214Y-93481285D01*
X197406642Y-93481285D01*
X197549500Y-93552714D01*
X197620928Y-93695571D01*
X197620928Y-93981285D01*
X197549500Y-94124142D01*
X197406642Y-94195571D01*
X197263785Y-94195571D01*
X197120928Y-93481285D01*
X196620928Y-95981285D02*
X198120928Y-95981285D01*
X197049500Y-96481285D01*
X198120928Y-96981285D01*
X196620928Y-96981285D01*
X196763785Y-98552714D02*
X196692357Y-98481285D01*
X196620928Y-98267000D01*
X196620928Y-98124142D01*
X196692357Y-97909857D01*
X196835214Y-97767000D01*
X196978071Y-97695571D01*
X197263785Y-97624142D01*
X197478071Y-97624142D01*
X197763785Y-97695571D01*
X197906642Y-97767000D01*
X198049500Y-97909857D01*
X198120928Y-98124142D01*
X198120928Y-98267000D01*
X198049500Y-98481285D01*
X197978071Y-98552714D01*
X196620928Y-99195571D02*
X198120928Y-99195571D01*
X198120928Y-99767000D01*
X198049500Y-99909857D01*
X197978071Y-99981285D01*
X197835214Y-100052714D01*
X197620928Y-100052714D01*
X197478071Y-99981285D01*
X197406642Y-99909857D01*
X197335214Y-99767000D01*
X197335214Y-99195571D01*
X197620928Y-101338428D02*
X196620928Y-101338428D01*
X198192357Y-100981285D02*
X197120928Y-100624142D01*
X197120928Y-101552714D01*
X197478071Y-102338428D02*
X197549500Y-102195571D01*
X197620928Y-102124142D01*
X197763785Y-102052714D01*
X197835214Y-102052714D01*
X197978071Y-102124142D01*
X198049500Y-102195571D01*
X198120928Y-102338428D01*
X198120928Y-102624142D01*
X198049500Y-102767000D01*
X197978071Y-102838428D01*
X197835214Y-102909857D01*
X197763785Y-102909857D01*
X197620928Y-102838428D01*
X197549500Y-102767000D01*
X197478071Y-102624142D01*
X197478071Y-102338428D01*
X197406642Y-102195571D01*
X197335214Y-102124142D01*
X197192357Y-102052714D01*
X196906642Y-102052714D01*
X196763785Y-102124142D01*
X196692357Y-102195571D01*
X196620928Y-102338428D01*
X196620928Y-102624142D01*
X196692357Y-102767000D01*
X196763785Y-102838428D01*
X196906642Y-102909857D01*
X197192357Y-102909857D01*
X197335214Y-102838428D01*
X197406642Y-102767000D01*
X197478071Y-102624142D01*
X197406642Y-104052714D02*
X197406642Y-103552714D01*
X196620928Y-103552714D02*
X198120928Y-103552714D01*
X198120928Y-104267000D01*
X198120928Y-104624142D02*
X196620928Y-105124142D01*
X198120928Y-105624142D01*
X197406642Y-106624142D02*
X197335214Y-106838428D01*
X197263785Y-106909857D01*
X197120928Y-106981285D01*
X196906642Y-106981285D01*
X196763785Y-106909857D01*
X196692357Y-106838428D01*
X196620928Y-106695571D01*
X196620928Y-106124142D01*
X198120928Y-106124142D01*
X198120928Y-106624142D01*
X198049500Y-106767000D01*
X197978071Y-106838428D01*
X197835214Y-106909857D01*
X197692357Y-106909857D01*
X197549500Y-106838428D01*
X197478071Y-106767000D01*
X197406642Y-106624142D01*
X197406642Y-106124142D01*
X197978071Y-107552714D02*
X198049500Y-107624142D01*
X198120928Y-107767000D01*
X198120928Y-108124142D01*
X198049500Y-108267000D01*
X197978071Y-108338428D01*
X197835214Y-108409857D01*
X197692357Y-108409857D01*
X197478071Y-108338428D01*
X196620928Y-107481285D01*
X196620928Y-108409857D01*
X196620928Y-109838428D02*
X196620928Y-108981285D01*
X196620928Y-109409857D02*
X198120928Y-109409857D01*
X197906642Y-109267000D01*
X197763785Y-109124142D01*
X197692357Y-108981285D01*
X197192357Y-110481285D02*
X197192357Y-111624142D01*
X197406642Y-112338428D02*
X197406642Y-112838428D01*
X196620928Y-113052714D02*
X196620928Y-112338428D01*
X198120928Y-112338428D01*
X198120928Y-113052714D01*
X198192357Y-114767000D02*
X196263785Y-113481285D01*
X198120928Y-115267000D02*
X196906642Y-115267000D01*
X196763785Y-115338428D01*
X196692357Y-115409857D01*
X196620928Y-115552714D01*
X196620928Y-115838428D01*
X196692357Y-115981285D01*
X196763785Y-116052714D01*
X196906642Y-116124142D01*
X198120928Y-116124142D01*
X196620928Y-116838428D02*
X198120928Y-116838428D01*
X196620928Y-117695571D01*
X198120928Y-117695571D01*
X194070928Y-89731285D02*
X195570928Y-89731285D01*
X194142357Y-89731285D02*
X194070928Y-89588428D01*
X194070928Y-89302714D01*
X194142357Y-89159857D01*
X194213785Y-89088428D01*
X194356642Y-89017000D01*
X194785214Y-89017000D01*
X194928071Y-89088428D01*
X194999500Y-89159857D01*
X195070928Y-89302714D01*
X195070928Y-89588428D01*
X194999500Y-89731285D01*
X194070928Y-91088428D02*
X194856642Y-91088428D01*
X194999500Y-91017000D01*
X195070928Y-90874142D01*
X195070928Y-90588428D01*
X194999500Y-90445571D01*
X194142357Y-91088428D02*
X194070928Y-90945571D01*
X194070928Y-90588428D01*
X194142357Y-90445571D01*
X194285214Y-90374142D01*
X194428071Y-90374142D01*
X194570928Y-90445571D01*
X194642357Y-90588428D01*
X194642357Y-90945571D01*
X194713785Y-91088428D01*
X195070928Y-91588428D02*
X195070928Y-92159857D01*
X195570928Y-91802714D02*
X194285214Y-91802714D01*
X194142357Y-91874142D01*
X194070928Y-92017000D01*
X194070928Y-92159857D01*
X194070928Y-93302714D02*
X194856642Y-93302714D01*
X194999500Y-93231285D01*
X195070928Y-93088428D01*
X195070928Y-92802714D01*
X194999500Y-92659857D01*
X194142357Y-93302714D02*
X194070928Y-93159857D01*
X194070928Y-92802714D01*
X194142357Y-92659857D01*
X194285214Y-92588428D01*
X194428071Y-92588428D01*
X194570928Y-92659857D01*
X194642357Y-92802714D01*
X194642357Y-93159857D01*
X194713785Y-93302714D01*
X194142357Y-93945571D02*
X194070928Y-94088428D01*
X194070928Y-94374142D01*
X194142357Y-94517000D01*
X194285214Y-94588428D01*
X194356642Y-94588428D01*
X194499500Y-94517000D01*
X194570928Y-94374142D01*
X194570928Y-94159857D01*
X194642357Y-94017000D01*
X194785214Y-93945571D01*
X194856642Y-93945571D01*
X194999500Y-94017000D01*
X195070928Y-94159857D01*
X195070928Y-94374142D01*
X194999500Y-94517000D01*
X194070928Y-95231285D02*
X195570928Y-95231285D01*
X194070928Y-95874142D02*
X194856642Y-95874142D01*
X194999500Y-95802714D01*
X195070928Y-95659857D01*
X195070928Y-95445571D01*
X194999500Y-95302714D01*
X194928071Y-95231285D01*
X194142357Y-97159857D02*
X194070928Y-97017000D01*
X194070928Y-96731285D01*
X194142357Y-96588428D01*
X194285214Y-96517000D01*
X194856642Y-96517000D01*
X194999500Y-96588428D01*
X195070928Y-96731285D01*
X195070928Y-97017000D01*
X194999500Y-97159857D01*
X194856642Y-97231285D01*
X194713785Y-97231285D01*
X194570928Y-96517000D01*
X194142357Y-98445571D02*
X194070928Y-98302714D01*
X194070928Y-98017000D01*
X194142357Y-97874142D01*
X194285214Y-97802714D01*
X194856642Y-97802714D01*
X194999500Y-97874142D01*
X195070928Y-98017000D01*
X195070928Y-98302714D01*
X194999500Y-98445571D01*
X194856642Y-98517000D01*
X194713785Y-98517000D01*
X194570928Y-97802714D01*
X195070928Y-98945571D02*
X195070928Y-99517000D01*
X195570928Y-99159857D02*
X194285214Y-99159857D01*
X194142357Y-99231285D01*
X194070928Y-99374142D01*
X194070928Y-99517000D01*
X195070928Y-100945571D02*
X195070928Y-101517000D01*
X194070928Y-101159857D02*
X195356642Y-101159857D01*
X195499500Y-101231285D01*
X195570928Y-101374142D01*
X195570928Y-101517000D01*
X194070928Y-102231285D02*
X194142357Y-102088428D01*
X194213785Y-102017000D01*
X194356642Y-101945571D01*
X194785214Y-101945571D01*
X194928071Y-102017000D01*
X194999500Y-102088428D01*
X195070928Y-102231285D01*
X195070928Y-102445571D01*
X194999500Y-102588428D01*
X194928071Y-102659857D01*
X194785214Y-102731285D01*
X194356642Y-102731285D01*
X194213785Y-102659857D01*
X194142357Y-102588428D01*
X194070928Y-102445571D01*
X194070928Y-102231285D01*
X194070928Y-103374142D02*
X195070928Y-103374142D01*
X194785214Y-103374142D02*
X194928071Y-103445571D01*
X194999500Y-103517000D01*
X195070928Y-103659857D01*
X195070928Y-103802714D01*
X194142357Y-105374142D02*
X194070928Y-105588428D01*
X194070928Y-105945571D01*
X194142357Y-106088428D01*
X194213785Y-106159857D01*
X194356642Y-106231285D01*
X194499500Y-106231285D01*
X194642357Y-106159857D01*
X194713785Y-106088428D01*
X194785214Y-105945571D01*
X194856642Y-105659857D01*
X194928071Y-105517000D01*
X194999500Y-105445571D01*
X195142357Y-105374142D01*
X195285214Y-105374142D01*
X195428071Y-105445571D01*
X195499500Y-105517000D01*
X195570928Y-105659857D01*
X195570928Y-106017000D01*
X195499500Y-106231285D01*
X194070928Y-106874142D02*
X195570928Y-106874142D01*
X195570928Y-107445571D01*
X195499500Y-107588428D01*
X195428071Y-107659857D01*
X195285214Y-107731285D01*
X195070928Y-107731285D01*
X194928071Y-107659857D01*
X194856642Y-107588428D01*
X194785214Y-107445571D01*
X194785214Y-106874142D01*
X194070928Y-108374142D02*
X195570928Y-108374142D01*
X194070928Y-110231285D02*
X195070928Y-110231285D01*
X195570928Y-110231285D02*
X195499500Y-110159857D01*
X195428071Y-110231285D01*
X195499500Y-110302714D01*
X195570928Y-110231285D01*
X195428071Y-110231285D01*
X195070928Y-110945571D02*
X194070928Y-110945571D01*
X194928071Y-110945571D02*
X194999500Y-111016999D01*
X195070928Y-111159857D01*
X195070928Y-111374142D01*
X194999500Y-111516999D01*
X194856642Y-111588428D01*
X194070928Y-111588428D01*
X195070928Y-112088428D02*
X195070928Y-112659857D01*
X195570928Y-112302714D02*
X194285214Y-112302714D01*
X194142357Y-112374142D01*
X194070928Y-112516999D01*
X194070928Y-112659857D01*
X194142357Y-113731285D02*
X194070928Y-113588428D01*
X194070928Y-113302714D01*
X194142357Y-113159857D01*
X194285214Y-113088428D01*
X194856642Y-113088428D01*
X194999500Y-113159857D01*
X195070928Y-113302714D01*
X195070928Y-113588428D01*
X194999500Y-113731285D01*
X194856642Y-113802714D01*
X194713785Y-113802714D01*
X194570928Y-113088428D01*
X194070928Y-114445571D02*
X195070928Y-114445571D01*
X194785214Y-114445571D02*
X194928071Y-114517000D01*
X194999500Y-114588428D01*
X195070928Y-114731285D01*
X195070928Y-114874142D01*
X195070928Y-115159857D02*
X195070928Y-115731285D01*
X194070928Y-115374142D02*
X195356642Y-115374142D01*
X195499500Y-115445571D01*
X195570928Y-115588428D01*
X195570928Y-115731285D01*
X194070928Y-116874142D02*
X194856642Y-116874142D01*
X194999500Y-116802714D01*
X195070928Y-116659857D01*
X195070928Y-116374142D01*
X194999500Y-116231285D01*
X194142357Y-116874142D02*
X194070928Y-116731285D01*
X194070928Y-116374142D01*
X194142357Y-116231285D01*
X194285214Y-116159857D01*
X194428071Y-116159857D01*
X194570928Y-116231285D01*
X194642357Y-116374142D01*
X194642357Y-116731285D01*
X194713785Y-116874142D01*
X194142357Y-118231285D02*
X194070928Y-118088428D01*
X194070928Y-117802714D01*
X194142357Y-117659857D01*
X194213785Y-117588428D01*
X194356642Y-117517000D01*
X194785214Y-117517000D01*
X194928071Y-117588428D01*
X194999500Y-117659857D01*
X195070928Y-117802714D01*
X195070928Y-118088428D01*
X194999500Y-118231285D01*
X194142357Y-119445571D02*
X194070928Y-119302714D01*
X194070928Y-119017000D01*
X194142357Y-118874142D01*
X194285214Y-118802714D01*
X194856642Y-118802714D01*
X194999500Y-118874142D01*
X195070928Y-119017000D01*
X195070928Y-119302714D01*
X194999500Y-119445571D01*
X194856642Y-119517000D01*
X194713785Y-119517000D01*
X194570928Y-118802714D01*
D12*
X110498000Y-116331904D02*
X110450380Y-116427142D01*
X110450380Y-116570000D01*
X110498000Y-116712857D01*
X110593238Y-116808095D01*
X110688476Y-116855714D01*
X110878952Y-116903333D01*
X111021809Y-116903333D01*
X111212285Y-116855714D01*
X111307523Y-116808095D01*
X111402761Y-116712857D01*
X111450380Y-116570000D01*
X111450380Y-116474761D01*
X111402761Y-116331904D01*
X111355142Y-116284285D01*
X111021809Y-116284285D01*
X111021809Y-116474761D01*
X111450380Y-115855714D02*
X110450380Y-115855714D01*
X111450380Y-115284285D01*
X110450380Y-115284285D01*
X111450380Y-114808095D02*
X110450380Y-114808095D01*
X110450380Y-114570000D01*
X110498000Y-114427142D01*
X110593238Y-114331904D01*
X110688476Y-114284285D01*
X110878952Y-114236666D01*
X111021809Y-114236666D01*
X111212285Y-114284285D01*
X111307523Y-114331904D01*
X111402761Y-114427142D01*
X111450380Y-114570000D01*
X111450380Y-114808095D01*
X107656380Y-116665238D02*
X108656380Y-116331904D01*
X107656380Y-115998571D01*
X108656380Y-115665238D02*
X107656380Y-115665238D01*
X108656380Y-115189047D02*
X107656380Y-115189047D01*
X108656380Y-114617619D01*
X107656380Y-114617619D01*
X96266095Y-117864000D02*
X96170857Y-117816380D01*
X96028000Y-117816380D01*
X95885142Y-117864000D01*
X95789904Y-117959238D01*
X95742285Y-118054476D01*
X95694666Y-118244952D01*
X95694666Y-118387809D01*
X95742285Y-118578285D01*
X95789904Y-118673523D01*
X95885142Y-118768761D01*
X96028000Y-118816380D01*
X96123238Y-118816380D01*
X96266095Y-118768761D01*
X96313714Y-118721142D01*
X96313714Y-118387809D01*
X96123238Y-118387809D01*
X96742285Y-118816380D02*
X96742285Y-117816380D01*
X97313714Y-118816380D01*
X97313714Y-117816380D01*
X97789904Y-118816380D02*
X97789904Y-117816380D01*
X98028000Y-117816380D01*
X98170857Y-117864000D01*
X98266095Y-117959238D01*
X98313714Y-118054476D01*
X98361333Y-118244952D01*
X98361333Y-118387809D01*
X98313714Y-118578285D01*
X98266095Y-118673523D01*
X98170857Y-118768761D01*
X98028000Y-118816380D01*
X97789904Y-118816380D01*
X95932761Y-105116380D02*
X96266095Y-106116380D01*
X96599428Y-105116380D01*
X96932761Y-106116380D02*
X96932761Y-105116380D01*
X97408952Y-106116380D02*
X97408952Y-105116380D01*
X97980380Y-106116380D01*
X97980380Y-105116380D01*
X189230095Y-130056000D02*
X189134857Y-130008380D01*
X188992000Y-130008380D01*
X188849142Y-130056000D01*
X188753904Y-130151238D01*
X188706285Y-130246476D01*
X188658666Y-130436952D01*
X188658666Y-130579809D01*
X188706285Y-130770285D01*
X188753904Y-130865523D01*
X188849142Y-130960761D01*
X188992000Y-131008380D01*
X189087238Y-131008380D01*
X189230095Y-130960761D01*
X189277714Y-130913142D01*
X189277714Y-130579809D01*
X189087238Y-130579809D01*
X189706285Y-131008380D02*
X189706285Y-130008380D01*
X190277714Y-131008380D01*
X190277714Y-130008380D01*
X190753904Y-131008380D02*
X190753904Y-130008380D01*
X190992000Y-130008380D01*
X191134857Y-130056000D01*
X191230095Y-130151238D01*
X191277714Y-130246476D01*
X191325333Y-130436952D01*
X191325333Y-130579809D01*
X191277714Y-130770285D01*
X191230095Y-130865523D01*
X191134857Y-130960761D01*
X190992000Y-131008380D01*
X190753904Y-131008380D01*
X188753904Y-124928380D02*
X189372952Y-124928380D01*
X189039619Y-125309333D01*
X189182476Y-125309333D01*
X189277714Y-125356952D01*
X189325333Y-125404571D01*
X189372952Y-125499809D01*
X189372952Y-125737904D01*
X189325333Y-125833142D01*
X189277714Y-125880761D01*
X189182476Y-125928380D01*
X188896761Y-125928380D01*
X188801523Y-125880761D01*
X188753904Y-125833142D01*
X189658666Y-124928380D02*
X189992000Y-125928380D01*
X190325333Y-124928380D01*
X190563428Y-124928380D02*
X191182476Y-124928380D01*
X190849142Y-125309333D01*
X190992000Y-125309333D01*
X191087238Y-125356952D01*
X191134857Y-125404571D01*
X191182476Y-125499809D01*
X191182476Y-125737904D01*
X191134857Y-125833142D01*
X191087238Y-125880761D01*
X190992000Y-125928380D01*
X190706285Y-125928380D01*
X190611047Y-125880761D01*
X190563428Y-125833142D01*
X188992095Y-108672380D02*
X189325428Y-109672380D01*
X189658761Y-108672380D01*
X190182571Y-108672380D02*
X190373047Y-108672380D01*
X190468285Y-108720000D01*
X190563523Y-108815238D01*
X190611142Y-109005714D01*
X190611142Y-109339047D01*
X190563523Y-109529523D01*
X190468285Y-109624761D01*
X190373047Y-109672380D01*
X190182571Y-109672380D01*
X190087333Y-109624761D01*
X189992095Y-109529523D01*
X189944476Y-109339047D01*
X189944476Y-109005714D01*
X189992095Y-108815238D01*
X190087333Y-108720000D01*
X190182571Y-108672380D01*
X191039714Y-108672380D02*
X191039714Y-109481904D01*
X191087333Y-109577142D01*
X191134952Y-109624761D01*
X191230190Y-109672380D01*
X191420666Y-109672380D01*
X191515904Y-109624761D01*
X191563523Y-109577142D01*
X191611142Y-109481904D01*
X191611142Y-108672380D01*
X191944476Y-108672380D02*
X192515904Y-108672380D01*
X192230190Y-109672380D02*
X192230190Y-108672380D01*
X188992095Y-103592380D02*
X189325428Y-104592380D01*
X189658761Y-103592380D01*
X190182571Y-103592380D02*
X190373047Y-103592380D01*
X190468285Y-103640000D01*
X190563523Y-103735238D01*
X190611142Y-103925714D01*
X190611142Y-104259047D01*
X190563523Y-104449523D01*
X190468285Y-104544761D01*
X190373047Y-104592380D01*
X190182571Y-104592380D01*
X190087333Y-104544761D01*
X189992095Y-104449523D01*
X189944476Y-104259047D01*
X189944476Y-103925714D01*
X189992095Y-103735238D01*
X190087333Y-103640000D01*
X190182571Y-103592380D01*
X191039714Y-103592380D02*
X191039714Y-104401904D01*
X191087333Y-104497142D01*
X191134952Y-104544761D01*
X191230190Y-104592380D01*
X191420666Y-104592380D01*
X191515904Y-104544761D01*
X191563523Y-104497142D01*
X191611142Y-104401904D01*
X191611142Y-103592380D01*
X191944476Y-103592380D02*
X192515904Y-103592380D01*
X192230190Y-104592380D02*
X192230190Y-103592380D01*
X186690095Y-119642000D02*
X186594857Y-119594380D01*
X186452000Y-119594380D01*
X186309142Y-119642000D01*
X186213904Y-119737238D01*
X186166285Y-119832476D01*
X186118666Y-120022952D01*
X186118666Y-120165809D01*
X186166285Y-120356285D01*
X186213904Y-120451523D01*
X186309142Y-120546761D01*
X186452000Y-120594380D01*
X186547238Y-120594380D01*
X186690095Y-120546761D01*
X186737714Y-120499142D01*
X186737714Y-120165809D01*
X186547238Y-120165809D01*
X187166285Y-120594380D02*
X187166285Y-119594380D01*
X187737714Y-120594380D01*
X187737714Y-119594380D01*
X188213904Y-120594380D02*
X188213904Y-119594380D01*
X188452000Y-119594380D01*
X188594857Y-119642000D01*
X188690095Y-119737238D01*
X188737714Y-119832476D01*
X188785333Y-120022952D01*
X188785333Y-120165809D01*
X188737714Y-120356285D01*
X188690095Y-120451523D01*
X188594857Y-120546761D01*
X188452000Y-120594380D01*
X188213904Y-120594380D01*
X186213904Y-117054380D02*
X186832952Y-117054380D01*
X186499619Y-117435333D01*
X186642476Y-117435333D01*
X186737714Y-117482952D01*
X186785333Y-117530571D01*
X186832952Y-117625809D01*
X186832952Y-117863904D01*
X186785333Y-117959142D01*
X186737714Y-118006761D01*
X186642476Y-118054380D01*
X186356761Y-118054380D01*
X186261523Y-118006761D01*
X186213904Y-117959142D01*
X187118666Y-117054380D02*
X187452000Y-118054380D01*
X187785333Y-117054380D01*
X188023428Y-117054380D02*
X188642476Y-117054380D01*
X188309142Y-117435333D01*
X188452000Y-117435333D01*
X188547238Y-117482952D01*
X188594857Y-117530571D01*
X188642476Y-117625809D01*
X188642476Y-117863904D01*
X188594857Y-117959142D01*
X188547238Y-118006761D01*
X188452000Y-118054380D01*
X188166285Y-118054380D01*
X188071047Y-118006761D01*
X188023428Y-117959142D01*
X186198095Y-114514380D02*
X186531428Y-115514380D01*
X186864761Y-114514380D01*
X187388571Y-114514380D02*
X187579047Y-114514380D01*
X187674285Y-114562000D01*
X187769523Y-114657238D01*
X187817142Y-114847714D01*
X187817142Y-115181047D01*
X187769523Y-115371523D01*
X187674285Y-115466761D01*
X187579047Y-115514380D01*
X187388571Y-115514380D01*
X187293333Y-115466761D01*
X187198095Y-115371523D01*
X187150476Y-115181047D01*
X187150476Y-114847714D01*
X187198095Y-114657238D01*
X187293333Y-114562000D01*
X187388571Y-114514380D01*
X188245714Y-114514380D02*
X188245714Y-115323904D01*
X188293333Y-115419142D01*
X188340952Y-115466761D01*
X188436190Y-115514380D01*
X188626666Y-115514380D01*
X188721904Y-115466761D01*
X188769523Y-115419142D01*
X188817142Y-115323904D01*
X188817142Y-114514380D01*
X189150476Y-114514380D02*
X189721904Y-114514380D01*
X189436190Y-115514380D02*
X189436190Y-114514380D01*
X178181047Y-128341428D02*
X178942952Y-128341428D01*
X178562000Y-128722380D02*
X178562000Y-127960476D01*
X120118142Y-135548666D02*
X120165761Y-135596285D01*
X120213380Y-135739142D01*
X120213380Y-135834380D01*
X120165761Y-135977238D01*
X120070523Y-136072476D01*
X119975285Y-136120095D01*
X119784809Y-136167714D01*
X119641952Y-136167714D01*
X119451476Y-136120095D01*
X119356238Y-136072476D01*
X119261000Y-135977238D01*
X119213380Y-135834380D01*
X119213380Y-135739142D01*
X119261000Y-135596285D01*
X119308619Y-135548666D01*
X120165761Y-135167714D02*
X120213380Y-135024857D01*
X120213380Y-134786761D01*
X120165761Y-134691523D01*
X120118142Y-134643904D01*
X120022904Y-134596285D01*
X119927666Y-134596285D01*
X119832428Y-134643904D01*
X119784809Y-134691523D01*
X119737190Y-134786761D01*
X119689571Y-134977238D01*
X119641952Y-135072476D01*
X119594333Y-135120095D01*
X119499095Y-135167714D01*
X119403857Y-135167714D01*
X119308619Y-135120095D01*
X119261000Y-135072476D01*
X119213380Y-134977238D01*
X119213380Y-134739142D01*
X119261000Y-134596285D01*
X117498761Y-136159714D02*
X117546380Y-136016857D01*
X117546380Y-135778761D01*
X117498761Y-135683523D01*
X117451142Y-135635904D01*
X117355904Y-135588285D01*
X117260666Y-135588285D01*
X117165428Y-135635904D01*
X117117809Y-135683523D01*
X117070190Y-135778761D01*
X117022571Y-135969238D01*
X116974952Y-136064476D01*
X116927333Y-136112095D01*
X116832095Y-136159714D01*
X116736857Y-136159714D01*
X116641619Y-136112095D01*
X116594000Y-136064476D01*
X116546380Y-135969238D01*
X116546380Y-135731142D01*
X116594000Y-135588285D01*
X117451142Y-134588285D02*
X117498761Y-134635904D01*
X117546380Y-134778761D01*
X117546380Y-134874000D01*
X117498761Y-135016857D01*
X117403523Y-135112095D01*
X117308285Y-135159714D01*
X117117809Y-135207333D01*
X116974952Y-135207333D01*
X116784476Y-135159714D01*
X116689238Y-135112095D01*
X116594000Y-135016857D01*
X116546380Y-134874000D01*
X116546380Y-134778761D01*
X116594000Y-134635904D01*
X116641619Y-134588285D01*
X117546380Y-134159714D02*
X116546380Y-134159714D01*
X117546380Y-133588285D02*
X116974952Y-134016857D01*
X116546380Y-133588285D02*
X117117809Y-134159714D01*
X114831761Y-136151809D02*
X114879380Y-136008952D01*
X114879380Y-135770857D01*
X114831761Y-135675619D01*
X114784142Y-135628000D01*
X114688904Y-135580380D01*
X114593666Y-135580380D01*
X114498428Y-135628000D01*
X114450809Y-135675619D01*
X114403190Y-135770857D01*
X114355571Y-135961333D01*
X114307952Y-136056571D01*
X114260333Y-136104190D01*
X114165095Y-136151809D01*
X114069857Y-136151809D01*
X113974619Y-136104190D01*
X113927000Y-136056571D01*
X113879380Y-135961333D01*
X113879380Y-135723238D01*
X113927000Y-135580380D01*
X114879380Y-135151809D02*
X113879380Y-135151809D01*
X113879380Y-134913714D01*
X113927000Y-134770857D01*
X114022238Y-134675619D01*
X114117476Y-134628000D01*
X114307952Y-134580380D01*
X114450809Y-134580380D01*
X114641285Y-134628000D01*
X114736523Y-134675619D01*
X114831761Y-134770857D01*
X114879380Y-134913714D01*
X114879380Y-135151809D01*
X114879380Y-134151809D02*
X113879380Y-134151809D01*
X112291761Y-136183523D02*
X112339380Y-136040666D01*
X112339380Y-135802571D01*
X112291761Y-135707333D01*
X112244142Y-135659714D01*
X112148904Y-135612095D01*
X112053666Y-135612095D01*
X111958428Y-135659714D01*
X111910809Y-135707333D01*
X111863190Y-135802571D01*
X111815571Y-135993047D01*
X111767952Y-136088285D01*
X111720333Y-136135904D01*
X111625095Y-136183523D01*
X111529857Y-136183523D01*
X111434619Y-136135904D01*
X111387000Y-136088285D01*
X111339380Y-135993047D01*
X111339380Y-135754952D01*
X111387000Y-135612095D01*
X112339380Y-135183523D02*
X111339380Y-135183523D01*
X111339380Y-134945428D01*
X111387000Y-134802571D01*
X111482238Y-134707333D01*
X111577476Y-134659714D01*
X111767952Y-134612095D01*
X111910809Y-134612095D01*
X112101285Y-134659714D01*
X112196523Y-134707333D01*
X112291761Y-134802571D01*
X112339380Y-134945428D01*
X112339380Y-135183523D01*
X111339380Y-133993047D02*
X111339380Y-133802571D01*
X111387000Y-133707333D01*
X111482238Y-133612095D01*
X111672714Y-133564476D01*
X112006047Y-133564476D01*
X112196523Y-133612095D01*
X112291761Y-133707333D01*
X112339380Y-133802571D01*
X112339380Y-133993047D01*
X112291761Y-134088285D01*
X112196523Y-134183523D01*
X112006047Y-134231142D01*
X111672714Y-134231142D01*
X111482238Y-134183523D01*
X111387000Y-134088285D01*
X111339380Y-133993047D01*
X159195190Y-134072761D02*
X159338047Y-134120380D01*
X159576142Y-134120380D01*
X159671380Y-134072761D01*
X159719000Y-134025142D01*
X159766619Y-133929904D01*
X159766619Y-133834666D01*
X159719000Y-133739428D01*
X159671380Y-133691809D01*
X159576142Y-133644190D01*
X159385666Y-133596571D01*
X159290428Y-133548952D01*
X159242809Y-133501333D01*
X159195190Y-133406095D01*
X159195190Y-133310857D01*
X159242809Y-133215619D01*
X159290428Y-133168000D01*
X159385666Y-133120380D01*
X159623761Y-133120380D01*
X159766619Y-133168000D01*
X160195190Y-134120380D02*
X160195190Y-133120380D01*
X160576142Y-133120380D01*
X160671380Y-133168000D01*
X160719000Y-133215619D01*
X160766619Y-133310857D01*
X160766619Y-133453714D01*
X160719000Y-133548952D01*
X160671380Y-133596571D01*
X160576142Y-133644190D01*
X160195190Y-133644190D01*
X161195190Y-134120380D02*
X161195190Y-133120380D01*
X162385666Y-134072761D02*
X162528523Y-134120380D01*
X162766619Y-134120380D01*
X162861857Y-134072761D01*
X162909476Y-134025142D01*
X162957095Y-133929904D01*
X162957095Y-133834666D01*
X162909476Y-133739428D01*
X162861857Y-133691809D01*
X162766619Y-133644190D01*
X162576142Y-133596571D01*
X162480904Y-133548952D01*
X162433285Y-133501333D01*
X162385666Y-133406095D01*
X162385666Y-133310857D01*
X162433285Y-133215619D01*
X162480904Y-133168000D01*
X162576142Y-133120380D01*
X162814238Y-133120380D01*
X162957095Y-133168000D01*
X163385666Y-133596571D02*
X163719000Y-133596571D01*
X163861857Y-134120380D02*
X163385666Y-134120380D01*
X163385666Y-133120380D01*
X163861857Y-133120380D01*
X164290428Y-134120380D02*
X164290428Y-133120380D01*
X164671380Y-133120380D01*
X164766619Y-133168000D01*
X164814238Y-133215619D01*
X164861857Y-133310857D01*
X164861857Y-133453714D01*
X164814238Y-133548952D01*
X164766619Y-133596571D01*
X164671380Y-133644190D01*
X164290428Y-133644190D01*
X165290428Y-134120380D02*
X165290428Y-133120380D01*
X166338047Y-134025142D02*
X166290428Y-134072761D01*
X166147571Y-134120380D01*
X166052333Y-134120380D01*
X165909476Y-134072761D01*
X165814238Y-133977523D01*
X165766619Y-133882285D01*
X165719000Y-133691809D01*
X165719000Y-133548952D01*
X165766619Y-133358476D01*
X165814238Y-133263238D01*
X165909476Y-133168000D01*
X166052333Y-133120380D01*
X166147571Y-133120380D01*
X166290428Y-133168000D01*
X166338047Y-133215619D01*
X167433285Y-133453714D02*
X167671380Y-134120380D01*
X167909476Y-133453714D01*
X168480904Y-133120380D02*
X168576142Y-133120380D01*
X168671380Y-133168000D01*
X168719000Y-133215619D01*
X168766619Y-133310857D01*
X168814238Y-133501333D01*
X168814238Y-133739428D01*
X168766619Y-133929904D01*
X168719000Y-134025142D01*
X168671380Y-134072761D01*
X168576142Y-134120380D01*
X168480904Y-134120380D01*
X168385666Y-134072761D01*
X168338047Y-134025142D01*
X168290428Y-133929904D01*
X168242809Y-133739428D01*
X168242809Y-133501333D01*
X168290428Y-133310857D01*
X168338047Y-133215619D01*
X168385666Y-133168000D01*
X168480904Y-133120380D01*
X169242809Y-134025142D02*
X169290428Y-134072761D01*
X169242809Y-134120380D01*
X169195190Y-134072761D01*
X169242809Y-134025142D01*
X169242809Y-134120380D01*
X170242809Y-134120380D02*
X169671380Y-134120380D01*
X169957095Y-134120380D02*
X169957095Y-133120380D01*
X169861857Y-133263238D01*
X169766619Y-133358476D01*
X169671380Y-133406095D01*
X158147571Y-135770380D02*
X157671380Y-135770380D01*
X157671380Y-134770380D01*
X158480904Y-135770380D02*
X158480904Y-135103714D01*
X158480904Y-134770380D02*
X158433285Y-134818000D01*
X158480904Y-134865619D01*
X158528523Y-134818000D01*
X158480904Y-134770380D01*
X158480904Y-134865619D01*
X159385666Y-135722761D02*
X159290428Y-135770380D01*
X159099952Y-135770380D01*
X159004714Y-135722761D01*
X158957095Y-135675142D01*
X158909476Y-135579904D01*
X158909476Y-135294190D01*
X158957095Y-135198952D01*
X159004714Y-135151333D01*
X159099952Y-135103714D01*
X159290428Y-135103714D01*
X159385666Y-135151333D01*
X160195190Y-135722761D02*
X160099952Y-135770380D01*
X159909476Y-135770380D01*
X159814238Y-135722761D01*
X159766619Y-135627523D01*
X159766619Y-135246571D01*
X159814238Y-135151333D01*
X159909476Y-135103714D01*
X160099952Y-135103714D01*
X160195190Y-135151333D01*
X160242809Y-135246571D01*
X160242809Y-135341809D01*
X159766619Y-135437047D01*
X160671380Y-135103714D02*
X160671380Y-135770380D01*
X160671380Y-135198952D02*
X160719000Y-135151333D01*
X160814238Y-135103714D01*
X160957095Y-135103714D01*
X161052333Y-135151333D01*
X161099952Y-135246571D01*
X161099952Y-135770380D01*
X161528523Y-135722761D02*
X161623761Y-135770380D01*
X161814238Y-135770380D01*
X161909476Y-135722761D01*
X161957095Y-135627523D01*
X161957095Y-135579904D01*
X161909476Y-135484666D01*
X161814238Y-135437047D01*
X161671380Y-135437047D01*
X161576142Y-135389428D01*
X161528523Y-135294190D01*
X161528523Y-135246571D01*
X161576142Y-135151333D01*
X161671380Y-135103714D01*
X161814238Y-135103714D01*
X161909476Y-135151333D01*
X162766619Y-135722761D02*
X162671380Y-135770380D01*
X162480904Y-135770380D01*
X162385666Y-135722761D01*
X162338047Y-135627523D01*
X162338047Y-135246571D01*
X162385666Y-135151333D01*
X162480904Y-135103714D01*
X162671380Y-135103714D01*
X162766619Y-135151333D01*
X162814238Y-135246571D01*
X162814238Y-135341809D01*
X162338047Y-135437047D01*
X163242809Y-135675142D02*
X163290428Y-135722761D01*
X163242809Y-135770380D01*
X163195190Y-135722761D01*
X163242809Y-135675142D01*
X163242809Y-135770380D01*
X163242809Y-135151333D02*
X163290428Y-135198952D01*
X163242809Y-135246571D01*
X163195190Y-135198952D01*
X163242809Y-135151333D01*
X163242809Y-135246571D01*
X165052333Y-135675142D02*
X165004714Y-135722761D01*
X164861857Y-135770380D01*
X164766619Y-135770380D01*
X164623761Y-135722761D01*
X164528523Y-135627523D01*
X164480904Y-135532285D01*
X164433285Y-135341809D01*
X164433285Y-135198952D01*
X164480904Y-135008476D01*
X164528523Y-134913238D01*
X164623761Y-134818000D01*
X164766619Y-134770380D01*
X164861857Y-134770380D01*
X165004714Y-134818000D01*
X165052333Y-134865619D01*
X166052333Y-135675142D02*
X166004714Y-135722761D01*
X165861857Y-135770380D01*
X165766619Y-135770380D01*
X165623761Y-135722761D01*
X165528523Y-135627523D01*
X165480904Y-135532285D01*
X165433285Y-135341809D01*
X165433285Y-135198952D01*
X165480904Y-135008476D01*
X165528523Y-134913238D01*
X165623761Y-134818000D01*
X165766619Y-134770380D01*
X165861857Y-134770380D01*
X166004714Y-134818000D01*
X166052333Y-134865619D01*
X167576142Y-135246571D02*
X167719000Y-135294190D01*
X167766619Y-135341809D01*
X167814238Y-135437047D01*
X167814238Y-135579904D01*
X167766619Y-135675142D01*
X167719000Y-135722761D01*
X167623761Y-135770380D01*
X167242809Y-135770380D01*
X167242809Y-134770380D01*
X167576142Y-134770380D01*
X167671380Y-134818000D01*
X167719000Y-134865619D01*
X167766619Y-134960857D01*
X167766619Y-135056095D01*
X167719000Y-135151333D01*
X167671380Y-135198952D01*
X167576142Y-135246571D01*
X167242809Y-135246571D01*
X168433285Y-135294190D02*
X168433285Y-135770380D01*
X168099952Y-134770380D02*
X168433285Y-135294190D01*
X168766619Y-134770380D01*
X170290428Y-135103714D02*
X170290428Y-135770380D01*
X170052333Y-134722761D02*
X169814238Y-135437047D01*
X170433285Y-135437047D01*
X170814238Y-135675142D02*
X170861857Y-135722761D01*
X170814238Y-135770380D01*
X170766619Y-135722761D01*
X170814238Y-135675142D01*
X170814238Y-135770380D01*
X171480904Y-134770380D02*
X171576142Y-134770380D01*
X171671380Y-134818000D01*
X171718999Y-134865619D01*
X171766619Y-134960857D01*
X171814238Y-135151333D01*
X171814238Y-135389428D01*
X171766619Y-135579904D01*
X171718999Y-135675142D01*
X171671380Y-135722761D01*
X171576142Y-135770380D01*
X171480904Y-135770380D01*
X171385666Y-135722761D01*
X171338047Y-135675142D01*
X171290428Y-135579904D01*
X171242809Y-135389428D01*
X171242809Y-135151333D01*
X171290428Y-134960857D01*
X171338047Y-134865619D01*
X171385666Y-134818000D01*
X171480904Y-134770380D01*
D11*
X170997500Y-77809000D02*
X170997500Y-82719000D01*
D12*
X164735000Y-80264000D02*
X159902000Y-80264000D01*
X173085000Y-80264000D02*
X177918000Y-80264000D01*
X164735000Y-77739000D02*
X173085000Y-77739000D01*
X164735000Y-82789000D02*
X164735000Y-77739000D01*
X173085000Y-82789000D02*
X164735000Y-82789000D01*
X173085000Y-77739000D02*
X173085000Y-82789000D01*
D10*
X119838901Y-90424000D02*
G75*
G03*
X119838901Y-90424000I-2882900J0D01*
G01*
X103009699Y-89789000D02*
X103009699Y-91059000D01*
X102374699Y-90424000D02*
X103565961Y-90424000D01*
X104719450Y-88895065D02*
G75*
G02*
X129192552Y-88895062I12236551J-1528935D01*
G01*
X129192552Y-91952937D02*
G75*
G02*
X104719450Y-91952936I-12236551J1528937D01*
G01*
X153416000Y-115049301D02*
X153416000Y-113858039D01*
X152781000Y-114414301D02*
X154051000Y-114414301D01*
X156298900Y-100467999D02*
G75*
G03*
X156298900Y-100467999I-2882900J0D01*
G01*
X154944937Y-88231448D02*
G75*
G02*
X154944936Y-112704550I-1528937J-12236551D01*
G01*
X151887065Y-112704550D02*
G75*
G02*
X151887062Y-88231448I1528935J12236551D01*
G01*
X107128000Y-110684000D02*
X107128000Y-113344000D01*
X109728000Y-110684000D02*
X107128000Y-110684000D01*
X109728000Y-113344000D02*
X107128000Y-113344000D01*
X109728000Y-110684000D02*
X109728000Y-113344000D01*
X110998000Y-110684000D02*
X112328000Y-110684000D01*
X112328000Y-110684000D02*
X112328000Y-112014000D01*
D13*
X124634000Y-112014000D02*
G75*
G03*
X124634000Y-112014000I-5000000J0D01*
G01*
D14*
X119734000Y-106264000D02*
G75*
G03*
X119734000Y-106264000I-100000J0D01*
G01*
D13*
X183768000Y-92710000D02*
G75*
G03*
X183768000Y-92710000I-8000000J0D01*
G01*
D14*
X184618000Y-92710000D02*
G75*
G03*
X184618000Y-92710000I-100000J0D01*
G01*
D10*
X178776000Y-125476000D02*
G75*
G03*
X178776000Y-125476000I-2500000J0D01*
G01*
X173716000Y-123931000D02*
X173716000Y-127021000D01*
X179266000Y-125476462D02*
G75*
G03*
X173716000Y-123931170I-2990000J462D01*
G01*
X179266000Y-125475538D02*
G75*
G02*
X173716000Y-127020830I-2990000J-462D01*
G01*
X101727000Y-118962800D02*
G75*
G03*
X101727000Y-118962800I-381000J0D01*
G01*
X97718999Y-117184800D02*
X105567599Y-117184800D01*
X97718999Y-106923200D02*
X97718999Y-117184800D01*
X105567599Y-106923200D02*
X97718999Y-106923200D01*
X105567599Y-117184800D02*
X105567599Y-106923200D01*
X188371599Y-111850800D02*
X188371599Y-101589200D01*
X188371599Y-101589200D02*
X180522999Y-101589200D01*
X180522999Y-101589200D02*
X180522999Y-111850800D01*
X180522999Y-111850800D02*
X188371599Y-111850800D01*
X184531000Y-113628800D02*
G75*
G03*
X184531000Y-113628800I-381000J0D01*
G01*
X184531000Y-134964800D02*
G75*
G03*
X184531000Y-134964800I-381000J0D01*
G01*
X180522999Y-133186800D02*
X188371599Y-133186800D01*
X180522999Y-122925200D02*
X180522999Y-133186800D01*
X188371599Y-122925200D02*
X180522999Y-122925200D01*
X188371599Y-133186800D02*
X188371599Y-122925200D01*
X171220000Y-123476000D02*
X171550000Y-123476000D01*
X171550000Y-123476000D02*
X171550000Y-130016000D01*
X171550000Y-130016000D02*
X171220000Y-130016000D01*
X169140000Y-123476000D02*
X168810000Y-123476000D01*
X168810000Y-123476000D02*
X168810000Y-130016000D01*
X168810000Y-130016000D02*
X169140000Y-130016000D01*
X131088000Y-122047000D02*
X131858000Y-122047000D01*
X139168000Y-122047000D02*
X138398000Y-122047000D01*
X131858000Y-123417000D02*
X138398000Y-123417000D01*
X131858000Y-120677000D02*
X131858000Y-123417000D01*
X138398000Y-120677000D02*
X131858000Y-120677000D01*
X138398000Y-123417000D02*
X138398000Y-120677000D01*
X132197400Y-127088900D02*
X132197400Y-129959100D01*
X139258600Y-127088900D02*
X132197400Y-127088900D01*
X139258600Y-129959100D02*
X139258600Y-127088900D01*
X132197400Y-129959100D02*
X139258600Y-129959100D01*
X138398000Y-126592000D02*
X138398000Y-123852000D01*
X138398000Y-123852000D02*
X131858000Y-123852000D01*
X131858000Y-123852000D02*
X131858000Y-126592000D01*
X131858000Y-126592000D02*
X138398000Y-126592000D01*
X139168000Y-125222000D02*
X138398000Y-125222000D01*
X131088000Y-125222000D02*
X131858000Y-125222000D01*
D14*
X104518000Y-128984000D02*
G75*
G03*
X104518000Y-128984000I-100000J0D01*
G01*
D13*
X103668000Y-127234000D02*
X103668000Y-124734000D01*
X108168000Y-127234000D02*
X108168000Y-124734000D01*
X108168000Y-127234000D02*
X108028000Y-127234000D01*
X103808000Y-127234000D02*
X103668000Y-127234000D01*
X107218000Y-124734000D02*
X108168000Y-124734000D01*
X104618000Y-124734000D02*
X103668000Y-124734000D01*
X114299000Y-122935000D02*
X114299000Y-125985000D01*
X117349000Y-122935000D02*
X117349000Y-125985000D01*
D14*
X117204000Y-120840000D02*
G75*
G03*
X117204000Y-120840000I-100000J0D01*
G01*
D10*
X120964000Y-132648000D02*
X120964000Y-129988000D01*
X113284000Y-132648000D02*
X120964000Y-132648000D01*
X113284000Y-129988000D02*
X120964000Y-129988000D01*
X113284000Y-132648000D02*
X113284000Y-129988000D01*
X112014000Y-132648000D02*
X110684000Y-132648000D01*
X110684000Y-132648000D02*
X110684000Y-131318000D01*
X185480000Y-113478000D02*
X182820000Y-113478000D01*
X185480000Y-118618000D02*
X185480000Y-113478000D01*
X182820000Y-118618000D02*
X182820000Y-113478000D01*
X185480000Y-118618000D02*
X182820000Y-118618000D01*
X185480000Y-119888000D02*
X185480000Y-121218000D01*
X185480000Y-121218000D02*
X184150000Y-121218000D01*
D13*
X146457999Y-82804000D02*
G75*
G03*
X146457999Y-82804000I-6249999J0D01*
G01*
D14*
X135358252Y-87753747D02*
G75*
G03*
X135358252Y-87753747I-99999J0D01*
G01*
D12*
X171406214Y-84216380D02*
X171406214Y-83216380D01*
X171644309Y-83216380D01*
X171787166Y-83264000D01*
X171882404Y-83359238D01*
X171930023Y-83454476D01*
X171977642Y-83644952D01*
X171977642Y-83787809D01*
X171930023Y-83978285D01*
X171882404Y-84073523D01*
X171787166Y-84168761D01*
X171644309Y-84216380D01*
X171406214Y-84216380D01*
X172930023Y-84216380D02*
X172358595Y-84216380D01*
X172644309Y-84216380D02*
X172644309Y-83216380D01*
X172549071Y-83359238D01*
X172453833Y-83454476D01*
X172358595Y-83502095D01*
D15*
X191247183Y-85433807D02*
X191228435Y-85452555D01*
X191172192Y-85471302D01*
X191134697Y-85471302D01*
X191078454Y-85452555D01*
X191040958Y-85415059D01*
X191022211Y-85377564D01*
X191003463Y-85302573D01*
X191003463Y-85246330D01*
X191022211Y-85171340D01*
X191040958Y-85133844D01*
X191078454Y-85096349D01*
X191134697Y-85077601D01*
X191172192Y-85077601D01*
X191228435Y-85096349D01*
X191247183Y-85115097D01*
X191434659Y-85471302D02*
X191509650Y-85471302D01*
X191547145Y-85452555D01*
X191565893Y-85433807D01*
X191603388Y-85377564D01*
X191622136Y-85302573D01*
X191622136Y-85152592D01*
X191603388Y-85115097D01*
X191584641Y-85096349D01*
X191547145Y-85077601D01*
X191472155Y-85077601D01*
X191434659Y-85096349D01*
X191415912Y-85115097D01*
X191397164Y-85152592D01*
X191397164Y-85246330D01*
X191415912Y-85283826D01*
X191434659Y-85302573D01*
X191472155Y-85321321D01*
X191547145Y-85321321D01*
X191584641Y-85302573D01*
X191603388Y-85283826D01*
X191622136Y-85246330D01*
D12*
D15*
X191272583Y-82893807D02*
X191253835Y-82912555D01*
X191197592Y-82931302D01*
X191160097Y-82931302D01*
X191103854Y-82912555D01*
X191066358Y-82875059D01*
X191047611Y-82837564D01*
X191028863Y-82762573D01*
X191028863Y-82706330D01*
X191047611Y-82631340D01*
X191066358Y-82593844D01*
X191103854Y-82556349D01*
X191160097Y-82537601D01*
X191197592Y-82537601D01*
X191253835Y-82556349D01*
X191272583Y-82575097D01*
X191403816Y-82537601D02*
X191666284Y-82537601D01*
X191497555Y-82931302D01*
D12*
D15*
X191208183Y-84138407D02*
X191189435Y-84157155D01*
X191133192Y-84175902D01*
X191095697Y-84175902D01*
X191039454Y-84157155D01*
X191001958Y-84119659D01*
X190983211Y-84082164D01*
X190964463Y-84007173D01*
X190964463Y-83950930D01*
X190983211Y-83875940D01*
X191001958Y-83838444D01*
X191039454Y-83800949D01*
X191095697Y-83782201D01*
X191133192Y-83782201D01*
X191189435Y-83800949D01*
X191208183Y-83819697D01*
X191433155Y-83950930D02*
X191395659Y-83932183D01*
X191376912Y-83913435D01*
X191358164Y-83875940D01*
X191358164Y-83857192D01*
X191376912Y-83819697D01*
X191395659Y-83800949D01*
X191433155Y-83782201D01*
X191508145Y-83782201D01*
X191545641Y-83800949D01*
X191564388Y-83819697D01*
X191583136Y-83857192D01*
X191583136Y-83875940D01*
X191564388Y-83913435D01*
X191545641Y-83932183D01*
X191508145Y-83950930D01*
X191433155Y-83950930D01*
X191395659Y-83969678D01*
X191376912Y-83988426D01*
X191358164Y-84025921D01*
X191358164Y-84100912D01*
X191376912Y-84138407D01*
X191395659Y-84157155D01*
X191433155Y-84175902D01*
X191508145Y-84175902D01*
X191545641Y-84157155D01*
X191564388Y-84138407D01*
X191583136Y-84100912D01*
X191583136Y-84025921D01*
X191564388Y-83988426D01*
X191545641Y-83969678D01*
X191508145Y-83950930D01*
D12*
X116789334Y-90876380D02*
X116313143Y-90876380D01*
X116313143Y-89876380D01*
X117646477Y-90876380D02*
X117075048Y-90876380D01*
X117360762Y-90876380D02*
X117360762Y-89876380D01*
X117265524Y-90019238D01*
X117170286Y-90114476D01*
X117075048Y-90162095D01*
X153868380Y-100496666D02*
X153868380Y-100972857D01*
X152868380Y-100972857D01*
X152963619Y-100210952D02*
X152916000Y-100163333D01*
X152868380Y-100068095D01*
X152868380Y-99830000D01*
X152916000Y-99734761D01*
X152963619Y-99687142D01*
X153058857Y-99639523D01*
X153154095Y-99639523D01*
X153296952Y-99687142D01*
X153868380Y-100258571D01*
X153868380Y-99639523D01*
X112780380Y-112347333D02*
X113494666Y-112347333D01*
X113637523Y-112394952D01*
X113732761Y-112490190D01*
X113780380Y-112633047D01*
X113780380Y-112728285D01*
X112780380Y-111394952D02*
X112780380Y-111871142D01*
X113256571Y-111918761D01*
X113208952Y-111871142D01*
X113161333Y-111775904D01*
X113161333Y-111537809D01*
X113208952Y-111442571D01*
X113256571Y-111394952D01*
X113351809Y-111347333D01*
X113589904Y-111347333D01*
X113685142Y-111394952D01*
X113732761Y-111442571D01*
X113780380Y-111537809D01*
X113780380Y-111775904D01*
X113732761Y-111871142D01*
X113685142Y-111918761D01*
D15*
X100690607Y-127275616D02*
X100709355Y-127294364D01*
X100728102Y-127350607D01*
X100728102Y-127388102D01*
X100709355Y-127444345D01*
X100671859Y-127481841D01*
X100634364Y-127500588D01*
X100559373Y-127519336D01*
X100503130Y-127519336D01*
X100428140Y-127500588D01*
X100390644Y-127481841D01*
X100353149Y-127444345D01*
X100334401Y-127388102D01*
X100334401Y-127350607D01*
X100353149Y-127294364D01*
X100371897Y-127275616D01*
X100371897Y-127125635D02*
X100353149Y-127106887D01*
X100334401Y-127069392D01*
X100334401Y-126975654D01*
X100353149Y-126938158D01*
X100371897Y-126919411D01*
X100409392Y-126900663D01*
X100446887Y-126900663D01*
X100503130Y-126919411D01*
X100728102Y-127144383D01*
X100728102Y-126900663D01*
D12*
X126341142Y-112180666D02*
X126388761Y-112228285D01*
X126436380Y-112371142D01*
X126436380Y-112466380D01*
X126388761Y-112609238D01*
X126293523Y-112704476D01*
X126198285Y-112752095D01*
X126007809Y-112799714D01*
X125864952Y-112799714D01*
X125674476Y-112752095D01*
X125579238Y-112704476D01*
X125484000Y-112609238D01*
X125436380Y-112466380D01*
X125436380Y-112371142D01*
X125484000Y-112228285D01*
X125531619Y-112180666D01*
X126436380Y-111228285D02*
X126436380Y-111799714D01*
X126436380Y-111514000D02*
X125436380Y-111514000D01*
X125579238Y-111609238D01*
X125674476Y-111704476D01*
X125722095Y-111799714D01*
D15*
X109242607Y-126328616D02*
X109261355Y-126347364D01*
X109280102Y-126403607D01*
X109280102Y-126441102D01*
X109261355Y-126497345D01*
X109223859Y-126534841D01*
X109186364Y-126553588D01*
X109111373Y-126572336D01*
X109055130Y-126572336D01*
X108980140Y-126553588D01*
X108942644Y-126534841D01*
X108905149Y-126497345D01*
X108886401Y-126441102D01*
X108886401Y-126403607D01*
X108905149Y-126347364D01*
X108923897Y-126328616D01*
X109017635Y-125991158D02*
X109280102Y-125991158D01*
X108867654Y-126084897D02*
X109148869Y-126178635D01*
X109148869Y-125934915D01*
D12*
X176551333Y-102402142D02*
X176503714Y-102449761D01*
X176360857Y-102497380D01*
X176265619Y-102497380D01*
X176122761Y-102449761D01*
X176027523Y-102354523D01*
X175979904Y-102259285D01*
X175932285Y-102068809D01*
X175932285Y-101925952D01*
X175979904Y-101735476D01*
X176027523Y-101640238D01*
X176122761Y-101545000D01*
X176265619Y-101497380D01*
X176360857Y-101497380D01*
X176503714Y-101545000D01*
X176551333Y-101592619D01*
X177456095Y-101497380D02*
X176979904Y-101497380D01*
X176932285Y-101973571D01*
X176979904Y-101925952D01*
X177075142Y-101878333D01*
X177313238Y-101878333D01*
X177408476Y-101925952D01*
X177456095Y-101973571D01*
X177503714Y-102068809D01*
X177503714Y-102306904D01*
X177456095Y-102402142D01*
X177408476Y-102449761D01*
X177313238Y-102497380D01*
X177075142Y-102497380D01*
X176979904Y-102449761D01*
X176932285Y-102402142D01*
D15*
X191247183Y-81573007D02*
X191228435Y-81591755D01*
X191172192Y-81610502D01*
X191134697Y-81610502D01*
X191078454Y-81591755D01*
X191040958Y-81554259D01*
X191022211Y-81516764D01*
X191003463Y-81441773D01*
X191003463Y-81385530D01*
X191022211Y-81310540D01*
X191040958Y-81273044D01*
X191078454Y-81235549D01*
X191134697Y-81216801D01*
X191172192Y-81216801D01*
X191228435Y-81235549D01*
X191247183Y-81254297D01*
X191584641Y-81216801D02*
X191509650Y-81216801D01*
X191472155Y-81235549D01*
X191453407Y-81254297D01*
X191415912Y-81310540D01*
X191397164Y-81385530D01*
X191397164Y-81535512D01*
X191415912Y-81573007D01*
X191434659Y-81591755D01*
X191472155Y-81610502D01*
X191547145Y-81610502D01*
X191584641Y-81591755D01*
X191603388Y-81573007D01*
X191622136Y-81535512D01*
X191622136Y-81441773D01*
X191603388Y-81404278D01*
X191584641Y-81385530D01*
X191547145Y-81366783D01*
X191472155Y-81366783D01*
X191434659Y-81385530D01*
X191415912Y-81404278D01*
X191397164Y-81441773D01*
D12*
X175537904Y-121968380D02*
X175537904Y-120968380D01*
X175776000Y-120968380D01*
X175918857Y-121016000D01*
X176014095Y-121111238D01*
X176061714Y-121206476D01*
X176109333Y-121396952D01*
X176109333Y-121539809D01*
X176061714Y-121730285D01*
X176014095Y-121825523D01*
X175918857Y-121920761D01*
X175776000Y-121968380D01*
X175537904Y-121968380D01*
X176490285Y-121063619D02*
X176537904Y-121016000D01*
X176633142Y-120968380D01*
X176871238Y-120968380D01*
X176966476Y-121016000D01*
X177014095Y-121063619D01*
X177061714Y-121158857D01*
X177061714Y-121254095D01*
X177014095Y-121396952D01*
X176442666Y-121968380D01*
X177061714Y-121968380D01*
X98598380Y-112387333D02*
X99312666Y-112387333D01*
X99455523Y-112434952D01*
X99550761Y-112530190D01*
X99598380Y-112673047D01*
X99598380Y-112768285D01*
X99598380Y-111387333D02*
X99598380Y-111958761D01*
X99598380Y-111673047D02*
X98598380Y-111673047D01*
X98741238Y-111768285D01*
X98836476Y-111863523D01*
X98884095Y-111958761D01*
X181402380Y-107053333D02*
X182116666Y-107053333D01*
X182259523Y-107100952D01*
X182354761Y-107196190D01*
X182402380Y-107339047D01*
X182402380Y-107434285D01*
X181402380Y-106672380D02*
X181402380Y-106053333D01*
X181783333Y-106386666D01*
X181783333Y-106243809D01*
X181830952Y-106148571D01*
X181878571Y-106100952D01*
X181973809Y-106053333D01*
X182211904Y-106053333D01*
X182307142Y-106100952D01*
X182354761Y-106148571D01*
X182402380Y-106243809D01*
X182402380Y-106529523D01*
X182354761Y-106624761D01*
X182307142Y-106672380D01*
X181402380Y-128389333D02*
X182116666Y-128389333D01*
X182259523Y-128436952D01*
X182354761Y-128532190D01*
X182402380Y-128675047D01*
X182402380Y-128770285D01*
X181402380Y-128008380D02*
X181402380Y-127341714D01*
X182402380Y-127770285D01*
X173002380Y-126912666D02*
X172526190Y-127246000D01*
X173002380Y-127484095D02*
X172002380Y-127484095D01*
X172002380Y-127103142D01*
X172050000Y-127007904D01*
X172097619Y-126960285D01*
X172192857Y-126912666D01*
X172335714Y-126912666D01*
X172430952Y-126960285D01*
X172478571Y-127007904D01*
X172526190Y-127103142D01*
X172526190Y-127484095D01*
X173002380Y-125960285D02*
X173002380Y-126531714D01*
X173002380Y-126246000D02*
X172002380Y-126246000D01*
X172145238Y-126341238D01*
X172240476Y-126436476D01*
X172288095Y-126531714D01*
X134961333Y-122372380D02*
X134628000Y-121896190D01*
X134389904Y-122372380D02*
X134389904Y-121372380D01*
X134770857Y-121372380D01*
X134866095Y-121420000D01*
X134913714Y-121467619D01*
X134961333Y-121562857D01*
X134961333Y-121705714D01*
X134913714Y-121800952D01*
X134866095Y-121848571D01*
X134770857Y-121896190D01*
X134389904Y-121896190D01*
X135342285Y-121467619D02*
X135389904Y-121420000D01*
X135485142Y-121372380D01*
X135723238Y-121372380D01*
X135818476Y-121420000D01*
X135866095Y-121467619D01*
X135913714Y-121562857D01*
X135913714Y-121658095D01*
X135866095Y-121800952D01*
X135294666Y-122372380D01*
X135913714Y-122372380D01*
X135469333Y-128976380D02*
X135136000Y-128500190D01*
X134897904Y-128976380D02*
X134897904Y-127976380D01*
X135278857Y-127976380D01*
X135374095Y-128024000D01*
X135421714Y-128071619D01*
X135469333Y-128166857D01*
X135469333Y-128309714D01*
X135421714Y-128404952D01*
X135374095Y-128452571D01*
X135278857Y-128500190D01*
X134897904Y-128500190D01*
X135802666Y-127976380D02*
X136421714Y-127976380D01*
X136088380Y-128357333D01*
X136231238Y-128357333D01*
X136326476Y-128404952D01*
X136374095Y-128452571D01*
X136421714Y-128547809D01*
X136421714Y-128785904D01*
X136374095Y-128881142D01*
X136326476Y-128928761D01*
X136231238Y-128976380D01*
X135945523Y-128976380D01*
X135850285Y-128928761D01*
X135802666Y-128881142D01*
X134707333Y-125674380D02*
X134374000Y-125198190D01*
X134135904Y-125674380D02*
X134135904Y-124674380D01*
X134516857Y-124674380D01*
X134612095Y-124722000D01*
X134659714Y-124769619D01*
X134707333Y-124864857D01*
X134707333Y-125007714D01*
X134659714Y-125102952D01*
X134612095Y-125150571D01*
X134516857Y-125198190D01*
X134135904Y-125198190D01*
X135564476Y-125007714D02*
X135564476Y-125674380D01*
X135326380Y-124626761D02*
X135088285Y-125341047D01*
X135707333Y-125341047D01*
X101971904Y-126553523D02*
X102619523Y-126553523D01*
X102695714Y-126515428D01*
X102733809Y-126477333D01*
X102771904Y-126401142D01*
X102771904Y-126248761D01*
X102733809Y-126172571D01*
X102695714Y-126134476D01*
X102619523Y-126096380D01*
X101971904Y-126096380D01*
X102771904Y-125296380D02*
X102771904Y-125753523D01*
X102771904Y-125524952D02*
X101971904Y-125524952D01*
X102086190Y-125601142D01*
X102162380Y-125677333D01*
X102200476Y-125753523D01*
X112990380Y-125221904D02*
X113799904Y-125221904D01*
X113895142Y-125174285D01*
X113942761Y-125126666D01*
X113990380Y-125031428D01*
X113990380Y-124840952D01*
X113942761Y-124745714D01*
X113895142Y-124698095D01*
X113799904Y-124650476D01*
X112990380Y-124650476D01*
X112990380Y-124269523D02*
X112990380Y-123650476D01*
X113371333Y-123983809D01*
X113371333Y-123840952D01*
X113418952Y-123745714D01*
X113466571Y-123698095D01*
X113561809Y-123650476D01*
X113799904Y-123650476D01*
X113895142Y-123698095D01*
X113942761Y-123745714D01*
X113990380Y-123840952D01*
X113990380Y-124126666D01*
X113942761Y-124221904D01*
X113895142Y-124269523D01*
X109136380Y-131651333D02*
X109850666Y-131651333D01*
X109993523Y-131698952D01*
X110088761Y-131794190D01*
X110136380Y-131937047D01*
X110136380Y-132032285D01*
X109469714Y-130746571D02*
X110136380Y-130746571D01*
X109088761Y-130984666D02*
X109803047Y-131222761D01*
X109803047Y-130603714D01*
X183816666Y-121670380D02*
X183816666Y-122384666D01*
X183769047Y-122527523D01*
X183673809Y-122622761D01*
X183530952Y-122670380D01*
X183435714Y-122670380D01*
X184721428Y-121670380D02*
X184530952Y-121670380D01*
X184435714Y-121718000D01*
X184388095Y-121765619D01*
X184292857Y-121908476D01*
X184245238Y-122098952D01*
X184245238Y-122479904D01*
X184292857Y-122575142D01*
X184340476Y-122622761D01*
X184435714Y-122670380D01*
X184626190Y-122670380D01*
X184721428Y-122622761D01*
X184769047Y-122575142D01*
X184816666Y-122479904D01*
X184816666Y-122241809D01*
X184769047Y-122146571D01*
X184721428Y-122098952D01*
X184626190Y-122051333D01*
X184435714Y-122051333D01*
X184340476Y-122098952D01*
X184292857Y-122146571D01*
X184245238Y-122241809D01*
X134926249Y-77864017D02*
X134926249Y-77931360D01*
X134858905Y-78066047D01*
X134791562Y-78133391D01*
X134656874Y-78200734D01*
X134522187Y-78200734D01*
X134421172Y-78167063D01*
X134252813Y-78066047D01*
X134151798Y-77965032D01*
X134050783Y-77796673D01*
X134017111Y-77695658D01*
X134017111Y-77560971D01*
X134084455Y-77426284D01*
X134151798Y-77358940D01*
X134286485Y-77291597D01*
X134353829Y-77291597D01*
X134522187Y-76988551D02*
X134959920Y-76550818D01*
X134993592Y-77055895D01*
X135094607Y-76954879D01*
X135195623Y-76921208D01*
X135262966Y-76921208D01*
X135363981Y-76954879D01*
X135532340Y-77123238D01*
X135566012Y-77224253D01*
X135566012Y-77291597D01*
X135532340Y-77392612D01*
X135330310Y-77594643D01*
X135229294Y-77628315D01*
X135161951Y-77628315D01*
%LPC*%
D16*
G36*
X104078000Y-128534000D02*
G01*
X104078000Y-126704000D01*
X104758000Y-126704000D01*
X104758000Y-128534000D01*
X104078000Y-128534000D01*
G37*
X104078000Y-128534000D02*
X104078000Y-126704000D01*
X104758000Y-126704000D01*
X104758000Y-128534000D01*
X104078000Y-128534000D01*
G36*
X107078000Y-128534000D02*
G01*
X107078000Y-126704000D01*
X107758000Y-126704000D01*
X107758000Y-128534000D01*
X107078000Y-128534000D01*
G37*
X107078000Y-128534000D02*
X107078000Y-126704000D01*
X107758000Y-126704000D01*
X107758000Y-128534000D01*
X107078000Y-128534000D01*
G36*
X104901500Y-123904000D02*
G01*
X106934500Y-123904000D01*
X106934500Y-127034000D01*
X106348000Y-127034000D01*
X106348000Y-128534000D01*
X105488000Y-128534000D01*
X105488000Y-127034000D01*
X104901500Y-127034000D01*
X104901500Y-123904000D01*
G37*
X104901500Y-123904000D02*
X106934500Y-123904000D01*
X106934500Y-127034000D01*
X106348000Y-127034000D01*
X106348000Y-128534000D01*
X105488000Y-128534000D01*
X105488000Y-127034000D01*
X104901500Y-127034000D01*
X104901500Y-123904000D01*
D17*
X195000000Y-132922000D03*
X195000000Y-75866000D03*
X98472000Y-75866000D03*
X98470000Y-132920000D03*
D18*
X158352000Y-80264000D03*
D19*
X179468000Y-80264000D03*
D20*
X189533000Y-85293200D03*
X190373000Y-85293200D03*
X189533000Y-82727800D03*
X190373000Y-82727800D03*
X190373000Y-83997800D03*
X189533000Y-83997800D03*
D21*
X105156001Y-90424000D03*
X128756002Y-90424000D03*
X153416000Y-88667998D03*
X153416000Y-112267999D03*
D22*
X110998000Y-112014000D03*
D23*
X108458000Y-112014000D03*
D24*
X101600000Y-127709000D03*
X101600000Y-126291000D03*
D25*
X119634000Y-109514000D03*
D26*
X119634000Y-114514000D03*
D27*
X109982000Y-127000000D03*
X109982000Y-126126000D03*
D28*
X179518000Y-92710000D03*
D29*
X172018000Y-92710000D03*
D20*
X189558400Y-81432400D03*
X190398400Y-81432400D03*
D30*
X175006000Y-125476000D03*
D31*
X177546000Y-125476000D03*
D32*
X101346000Y-114554000D03*
X101346000Y-109554000D03*
X184150000Y-104220000D03*
X184150000Y-109220000D03*
X184150000Y-130556000D03*
X184150000Y-125556000D03*
D33*
X170180000Y-122936000D03*
D34*
X170180000Y-130556000D03*
D33*
X140208000Y-122047000D03*
D34*
X130048000Y-122047000D03*
D35*
X129886000Y-128524000D03*
D36*
X141570000Y-128524000D03*
D33*
X140208000Y-125222000D03*
D34*
X130048000Y-125222000D03*
G36*
G01*
X116695200Y-121575000D02*
X116952800Y-121575000D01*
G75*
G02*
X116964000Y-121586200I0J-11200D01*
G01*
X116964000Y-123033800D01*
G75*
G02*
X116952800Y-123045000I-11200J0D01*
G01*
X116695200Y-123045000D01*
G75*
G02*
X116684000Y-123033800I0J11200D01*
G01*
X116684000Y-121586200D01*
G75*
G02*
X116695200Y-121575000I11200J0D01*
G01*
G37*
G36*
G01*
X116195200Y-121575000D02*
X116452800Y-121575000D01*
G75*
G02*
X116464000Y-121586200I0J-11200D01*
G01*
X116464000Y-123033800D01*
G75*
G02*
X116452800Y-123045000I-11200J0D01*
G01*
X116195200Y-123045000D01*
G75*
G02*
X116184000Y-123033800I0J11200D01*
G01*
X116184000Y-121586200D01*
G75*
G02*
X116195200Y-121575000I11200J0D01*
G01*
G37*
G36*
G01*
X115695200Y-121575000D02*
X115952800Y-121575000D01*
G75*
G02*
X115964000Y-121586200I0J-11200D01*
G01*
X115964000Y-123033800D01*
G75*
G02*
X115952800Y-123045000I-11200J0D01*
G01*
X115695200Y-123045000D01*
G75*
G02*
X115684000Y-123033800I0J11200D01*
G01*
X115684000Y-121586200D01*
G75*
G02*
X115695200Y-121575000I11200J0D01*
G01*
G37*
G36*
G01*
X115195200Y-121575000D02*
X115452800Y-121575000D01*
G75*
G02*
X115464000Y-121586200I0J-11200D01*
G01*
X115464000Y-123033800D01*
G75*
G02*
X115452800Y-123045000I-11200J0D01*
G01*
X115195200Y-123045000D01*
G75*
G02*
X115184000Y-123033800I0J11200D01*
G01*
X115184000Y-121586200D01*
G75*
G02*
X115195200Y-121575000I11200J0D01*
G01*
G37*
G36*
G01*
X114695200Y-121575000D02*
X114952800Y-121575000D01*
G75*
G02*
X114964000Y-121586200I0J-11200D01*
G01*
X114964000Y-123033800D01*
G75*
G02*
X114952800Y-123045000I-11200J0D01*
G01*
X114695200Y-123045000D01*
G75*
G02*
X114684000Y-123033800I0J11200D01*
G01*
X114684000Y-121586200D01*
G75*
G02*
X114695200Y-121575000I11200J0D01*
G01*
G37*
G36*
G01*
X114695200Y-125875000D02*
X114952800Y-125875000D01*
G75*
G02*
X114964000Y-125886200I0J-11200D01*
G01*
X114964000Y-127333800D01*
G75*
G02*
X114952800Y-127345000I-11200J0D01*
G01*
X114695200Y-127345000D01*
G75*
G02*
X114684000Y-127333800I0J11200D01*
G01*
X114684000Y-125886200D01*
G75*
G02*
X114695200Y-125875000I11200J0D01*
G01*
G37*
G36*
G01*
X115195200Y-125875000D02*
X115452800Y-125875000D01*
G75*
G02*
X115464000Y-125886200I0J-11200D01*
G01*
X115464000Y-127333800D01*
G75*
G02*
X115452800Y-127345000I-11200J0D01*
G01*
X115195200Y-127345000D01*
G75*
G02*
X115184000Y-127333800I0J11200D01*
G01*
X115184000Y-125886200D01*
G75*
G02*
X115195200Y-125875000I11200J0D01*
G01*
G37*
G36*
G01*
X115695200Y-125875000D02*
X115952800Y-125875000D01*
G75*
G02*
X115964000Y-125886200I0J-11200D01*
G01*
X115964000Y-127333800D01*
G75*
G02*
X115952800Y-127345000I-11200J0D01*
G01*
X115695200Y-127345000D01*
G75*
G02*
X115684000Y-127333800I0J11200D01*
G01*
X115684000Y-125886200D01*
G75*
G02*
X115695200Y-125875000I11200J0D01*
G01*
G37*
G36*
G01*
X116195200Y-125875000D02*
X116452800Y-125875000D01*
G75*
G02*
X116464000Y-125886200I0J-11200D01*
G01*
X116464000Y-127333800D01*
G75*
G02*
X116452800Y-127345000I-11200J0D01*
G01*
X116195200Y-127345000D01*
G75*
G02*
X116184000Y-127333800I0J11200D01*
G01*
X116184000Y-125886200D01*
G75*
G02*
X116195200Y-125875000I11200J0D01*
G01*
G37*
G36*
G01*
X116695200Y-125875000D02*
X116952800Y-125875000D01*
G75*
G02*
X116964000Y-125886200I0J-11200D01*
G01*
X116964000Y-127333800D01*
G75*
G02*
X116952800Y-127345000I-11200J0D01*
G01*
X116695200Y-127345000D01*
G75*
G02*
X116684000Y-127333800I0J11200D01*
G01*
X116684000Y-125886200D01*
G75*
G02*
X116695200Y-125875000I11200J0D01*
G01*
G37*
D22*
X112014000Y-131318000D03*
D23*
X114554000Y-131318000D03*
X117094000Y-131318000D03*
X119634000Y-131318000D03*
D22*
X184150000Y-119888000D03*
D23*
X184150000Y-117348000D03*
X184150000Y-114808000D03*
D37*
G36*
X138440233Y-85384940D02*
G01*
X137627060Y-84571767D01*
X138440233Y-83758594D01*
X139253406Y-84571767D01*
X138440233Y-85384940D01*
G37*
D26*
X141975767Y-81036233D03*
M02*
