%FSLAX45Y45*%
G04 Gerber Fmt 4.5, Leading zero omitted, Abs format (unit mm)*
G04 Created by KiCad (PCBNEW 5.1.10) date 2021-12-17 16:59:48*
%MOMM*%
%LPD*%
G01*
G04 APERTURE LIST*
%TA.AperFunction,Profile*%
%ADD10C,0.050000*%
%TD*%
%ADD11C,0.200000*%
%ADD12C,0.300000*%
G04 APERTURE END LIST*
D10*
X20000000Y-7086600D02*
X20000000Y-13792200D01*
X9347200Y-7086600D02*
X20000000Y-7086600D01*
X9347200Y-13792200D02*
X9347200Y-7086600D01*
X20000000Y-13792200D02*
X9347200Y-13792200D01*
D11*
X9555800Y-10749600D02*
X9595800Y-10789600D01*
X9595800Y-10749600D02*
X9555800Y-10789600D01*
X9555800Y-10902000D02*
X9595800Y-10942000D01*
X9595800Y-10902000D02*
X9555800Y-10942000D01*
X9555800Y-11054400D02*
X9595800Y-11094400D01*
X9595800Y-11054400D02*
X9555800Y-11094400D01*
X9555800Y-11206800D02*
X9595800Y-11246800D01*
X9595800Y-11206800D02*
X9555800Y-11246800D01*
X10317800Y-8362000D02*
X10357800Y-8402000D01*
X10357800Y-8362000D02*
X10317800Y-8402000D01*
X10419400Y-8260400D02*
X10459400Y-8300400D01*
X10459400Y-8260400D02*
X10419400Y-8300400D01*
X10521000Y-8158800D02*
X10561000Y-8198800D01*
X10561000Y-8158800D02*
X10521000Y-8198800D01*
X10622600Y-8057200D02*
X10662600Y-8097200D01*
X10662600Y-8057200D02*
X10622600Y-8097200D01*
X10724200Y-7955600D02*
X10764200Y-7995600D01*
X10764200Y-7955600D02*
X10724200Y-7995600D01*
X10825800Y-7854000D02*
X10865800Y-7894000D01*
X10865800Y-7854000D02*
X10825800Y-7894000D01*
X10927400Y-7752400D02*
X10967400Y-7792400D01*
X10967400Y-7752400D02*
X10927400Y-7792400D01*
X11029000Y-7650800D02*
X11069000Y-7690800D01*
X11069000Y-7650800D02*
X11029000Y-7690800D01*
X11130600Y-7574600D02*
X11170600Y-7614600D01*
X11170600Y-7574600D02*
X11130600Y-7614600D01*
X11130600Y-12680000D02*
X11170600Y-12720000D01*
X11170600Y-12680000D02*
X11130600Y-12720000D01*
X11257600Y-7574600D02*
X11297600Y-7614600D01*
X11297600Y-7574600D02*
X11257600Y-7614600D01*
X11384600Y-7574600D02*
X11424600Y-7614600D01*
X11424600Y-7574600D02*
X11384600Y-7614600D01*
X11486200Y-11994200D02*
X11526200Y-12034200D01*
X11526200Y-11994200D02*
X11486200Y-12034200D01*
X11511600Y-7574600D02*
X11551600Y-7614600D01*
X11551600Y-7574600D02*
X11511600Y-7614600D01*
X11587800Y-12426000D02*
X11627800Y-12466000D01*
X11627800Y-12426000D02*
X11587800Y-12466000D01*
X11638600Y-7574600D02*
X11678600Y-7614600D01*
X11678600Y-7574600D02*
X11638600Y-7614600D01*
X11765600Y-7574600D02*
X11805600Y-7614600D01*
X11805600Y-7574600D02*
X11765600Y-7614600D01*
X11892600Y-7574600D02*
X11932600Y-7614600D01*
X11932600Y-7574600D02*
X11892600Y-7614600D01*
X11968800Y-12375200D02*
X12008800Y-12415200D01*
X12008800Y-12375200D02*
X11968800Y-12415200D01*
X12019600Y-7574600D02*
X12059600Y-7614600D01*
X12059600Y-7574600D02*
X12019600Y-7614600D01*
X12146600Y-7574600D02*
X12186600Y-7614600D01*
X12186600Y-7574600D02*
X12146600Y-7614600D01*
X12273600Y-7574600D02*
X12313600Y-7614600D01*
X12313600Y-7574600D02*
X12273600Y-7614600D01*
X12400600Y-7574600D02*
X12440600Y-7614600D01*
X12440600Y-7574600D02*
X12400600Y-7614600D01*
X12502200Y-7650800D02*
X12542200Y-7690800D01*
X12542200Y-7650800D02*
X12502200Y-7690800D01*
X12603800Y-7752400D02*
X12643800Y-7792400D01*
X12643800Y-7752400D02*
X12603800Y-7792400D01*
X12705400Y-7854000D02*
X12745400Y-7894000D01*
X12745400Y-7854000D02*
X12705400Y-7894000D01*
X12705400Y-10114600D02*
X12745400Y-10154600D01*
X12745400Y-10114600D02*
X12705400Y-10154600D01*
X12705400Y-10241600D02*
X12745400Y-10281600D01*
X12745400Y-10241600D02*
X12705400Y-10281600D01*
X12705400Y-10368600D02*
X12745400Y-10408600D01*
X12745400Y-10368600D02*
X12705400Y-10408600D01*
X12705400Y-10495600D02*
X12745400Y-10535600D01*
X12745400Y-10495600D02*
X12705400Y-10535600D01*
X12705400Y-10622600D02*
X12745400Y-10662600D01*
X12745400Y-10622600D02*
X12705400Y-10662600D01*
X12756200Y-7422200D02*
X12796200Y-7462200D01*
X12796200Y-7422200D02*
X12756200Y-7462200D01*
X12807000Y-7955600D02*
X12847000Y-7995600D01*
X12847000Y-7955600D02*
X12807000Y-7995600D01*
X12883200Y-7422200D02*
X12923200Y-7462200D01*
X12923200Y-7422200D02*
X12883200Y-7462200D01*
X12908600Y-8057200D02*
X12948600Y-8097200D01*
X12948600Y-8057200D02*
X12908600Y-8097200D01*
X13010200Y-7422200D02*
X13050200Y-7462200D01*
X13050200Y-7422200D02*
X13010200Y-7462200D01*
X13010200Y-8158800D02*
X13050200Y-8198800D01*
X13050200Y-8158800D02*
X13010200Y-8198800D01*
X13061000Y-9835200D02*
X13101000Y-9875200D01*
X13101000Y-9835200D02*
X13061000Y-9875200D01*
X13111800Y-8260400D02*
X13151800Y-8300400D01*
X13151800Y-8260400D02*
X13111800Y-8300400D01*
X13137200Y-7422200D02*
X13177200Y-7462200D01*
X13177200Y-7422200D02*
X13137200Y-7462200D01*
X13137200Y-8514400D02*
X13177200Y-8554400D01*
X13177200Y-8514400D02*
X13137200Y-8554400D01*
X13137200Y-8641400D02*
X13177200Y-8681400D01*
X13177200Y-8641400D02*
X13137200Y-8681400D01*
X13137200Y-8768400D02*
X13177200Y-8808400D01*
X13177200Y-8768400D02*
X13137200Y-8808400D01*
X13188000Y-11867200D02*
X13228000Y-11907200D01*
X13228000Y-11867200D02*
X13188000Y-11907200D01*
X13264200Y-7422200D02*
X13304200Y-7462200D01*
X13304200Y-7422200D02*
X13264200Y-7462200D01*
X13264200Y-8590600D02*
X13304200Y-8630600D01*
X13304200Y-8590600D02*
X13264200Y-8630600D01*
X13264200Y-8717600D02*
X13304200Y-8757600D01*
X13304200Y-8717600D02*
X13264200Y-8757600D01*
X13264200Y-8844600D02*
X13304200Y-8884600D01*
X13304200Y-8844600D02*
X13264200Y-8884600D01*
X13391200Y-7422200D02*
X13431200Y-7462200D01*
X13431200Y-7422200D02*
X13391200Y-7462200D01*
X13391200Y-8666800D02*
X13431200Y-8706800D01*
X13431200Y-8666800D02*
X13391200Y-8706800D01*
X13391200Y-8793800D02*
X13431200Y-8833800D01*
X13431200Y-8793800D02*
X13391200Y-8833800D01*
X13391200Y-8895400D02*
X13431200Y-8935400D01*
X13431200Y-8895400D02*
X13391200Y-8935400D01*
X13518200Y-7422200D02*
X13558200Y-7462200D01*
X13558200Y-7422200D02*
X13518200Y-7462200D01*
X13645200Y-7422200D02*
X13685200Y-7462200D01*
X13685200Y-7422200D02*
X13645200Y-7462200D01*
X13721400Y-9835200D02*
X13761400Y-9875200D01*
X13761400Y-9835200D02*
X13721400Y-9875200D01*
X13772200Y-7422200D02*
X13812200Y-7462200D01*
X13812200Y-7422200D02*
X13772200Y-7462200D01*
X13848400Y-9733600D02*
X13888400Y-9773600D01*
X13888400Y-9733600D02*
X13848400Y-9773600D01*
X13899200Y-7422200D02*
X13939200Y-7462200D01*
X13939200Y-7422200D02*
X13899200Y-7462200D01*
X13924600Y-11003600D02*
X13964600Y-11043600D01*
X13964600Y-11003600D02*
X13924600Y-11043600D01*
X14026200Y-11105200D02*
X14066200Y-11145200D01*
X14066200Y-11105200D02*
X14026200Y-11145200D01*
X14127800Y-11206800D02*
X14167800Y-11246800D01*
X14167800Y-11206800D02*
X14127800Y-11246800D01*
X14229400Y-11308400D02*
X14269400Y-11348400D01*
X14269400Y-11308400D02*
X14229400Y-11348400D01*
X14280200Y-9022400D02*
X14320200Y-9062400D01*
X14320200Y-9022400D02*
X14280200Y-9062400D01*
X14331000Y-11410000D02*
X14371000Y-11450000D01*
X14371000Y-11410000D02*
X14331000Y-11450000D01*
X14381800Y-8920800D02*
X14421800Y-8960800D01*
X14421800Y-8920800D02*
X14381800Y-8960800D01*
X14432600Y-11562400D02*
X14472600Y-11602400D01*
X14472600Y-11562400D02*
X14432600Y-11602400D01*
X14483400Y-8844600D02*
X14523400Y-8884600D01*
X14523400Y-8844600D02*
X14483400Y-8884600D01*
X14585000Y-8743000D02*
X14625000Y-8783000D01*
X14625000Y-8743000D02*
X14585000Y-8783000D01*
X14585000Y-11562400D02*
X14625000Y-11602400D01*
X14625000Y-11562400D02*
X14585000Y-11602400D01*
X14737400Y-11562400D02*
X14777400Y-11602400D01*
X14777400Y-11562400D02*
X14737400Y-11602400D01*
X14737400Y-12578400D02*
X14777400Y-12618400D01*
X14777400Y-12578400D02*
X14737400Y-12618400D01*
X14737400Y-12832400D02*
X14777400Y-12872400D01*
X14777400Y-12832400D02*
X14737400Y-12872400D01*
X14737400Y-13061000D02*
X14777400Y-13101000D01*
X14777400Y-13061000D02*
X14737400Y-13101000D01*
X14839000Y-12578400D02*
X14879000Y-12618400D01*
X14879000Y-12578400D02*
X14839000Y-12618400D01*
X14839000Y-12832400D02*
X14879000Y-12872400D01*
X14879000Y-12832400D02*
X14839000Y-12872400D01*
X14839000Y-13061000D02*
X14879000Y-13101000D01*
X14879000Y-13061000D02*
X14839000Y-13101000D01*
X14864400Y-7930200D02*
X14904400Y-7970200D01*
X14904400Y-7930200D02*
X14864400Y-7970200D01*
X14889800Y-11562400D02*
X14929800Y-11602400D01*
X14929800Y-11562400D02*
X14889800Y-11602400D01*
X14940600Y-12578400D02*
X14980600Y-12618400D01*
X14980600Y-12578400D02*
X14940600Y-12618400D01*
X14940600Y-12832400D02*
X14980600Y-12872400D01*
X14980600Y-12832400D02*
X14940600Y-12872400D01*
X14940600Y-13061000D02*
X14980600Y-13101000D01*
X14980600Y-13061000D02*
X14940600Y-13101000D01*
X14966000Y-8006400D02*
X15006000Y-8046400D01*
X15006000Y-8006400D02*
X14966000Y-8046400D01*
X15042200Y-11562400D02*
X15082200Y-11602400D01*
X15082200Y-11562400D02*
X15042200Y-11602400D01*
X15042200Y-12578400D02*
X15082200Y-12618400D01*
X15082200Y-12578400D02*
X15042200Y-12618400D01*
X15042200Y-12832400D02*
X15082200Y-12872400D01*
X15082200Y-12832400D02*
X15042200Y-12872400D01*
X15042200Y-13061000D02*
X15082200Y-13101000D01*
X15082200Y-13061000D02*
X15042200Y-13101000D01*
X15067600Y-8108000D02*
X15107600Y-8148000D01*
X15107600Y-8108000D02*
X15067600Y-8148000D01*
X15143800Y-12578400D02*
X15183800Y-12618400D01*
X15183800Y-12578400D02*
X15143800Y-12618400D01*
X15143800Y-12832400D02*
X15183800Y-12872400D01*
X15183800Y-12832400D02*
X15143800Y-12872400D01*
X15143800Y-13061000D02*
X15183800Y-13101000D01*
X15183800Y-13061000D02*
X15143800Y-13101000D01*
X15169200Y-8184200D02*
X15209200Y-8224200D01*
X15209200Y-8184200D02*
X15169200Y-8224200D01*
X15296200Y-8108000D02*
X15336200Y-8148000D01*
X15336200Y-8108000D02*
X15296200Y-8148000D01*
X15397800Y-8006400D02*
X15437800Y-8046400D01*
X15437800Y-8006400D02*
X15397800Y-8046400D01*
X15524800Y-7930200D02*
X15564800Y-7970200D01*
X15564800Y-7930200D02*
X15524800Y-7970200D01*
X15550200Y-11562400D02*
X15590200Y-11602400D01*
X15590200Y-11562400D02*
X15550200Y-11602400D01*
X15702600Y-11562400D02*
X15742600Y-11602400D01*
X15742600Y-11562400D02*
X15702600Y-11602400D01*
X15728000Y-8565200D02*
X15768000Y-8605200D01*
X15768000Y-8565200D02*
X15728000Y-8605200D01*
X15829600Y-8463600D02*
X15869600Y-8503600D01*
X15869600Y-8463600D02*
X15829600Y-8503600D01*
X15905800Y-11460800D02*
X15945800Y-11500800D01*
X15945800Y-11460800D02*
X15905800Y-11500800D01*
X15931200Y-8362000D02*
X15971200Y-8402000D01*
X15971200Y-8362000D02*
X15931200Y-8402000D01*
X16020100Y-11359200D02*
X16060100Y-11399200D01*
X16060100Y-11359200D02*
X16020100Y-11399200D01*
X16058200Y-8260400D02*
X16098200Y-8300400D01*
X16098200Y-8260400D02*
X16058200Y-8300400D01*
X16121700Y-11270300D02*
X16161700Y-11310300D01*
X16161700Y-11270300D02*
X16121700Y-11310300D01*
X16134400Y-8463600D02*
X16174400Y-8503600D01*
X16174400Y-8463600D02*
X16134400Y-8503600D01*
X16185200Y-13035600D02*
X16225200Y-13075600D01*
X16225200Y-13035600D02*
X16185200Y-13075600D01*
X16223300Y-11168700D02*
X16263300Y-11208700D01*
X16263300Y-11168700D02*
X16223300Y-11208700D01*
X16261400Y-12934000D02*
X16301400Y-12974000D01*
X16301400Y-12934000D02*
X16261400Y-12974000D01*
X16274100Y-8590600D02*
X16314100Y-8630600D01*
X16314100Y-8590600D02*
X16274100Y-8630600D01*
X16286800Y-13188000D02*
X16326800Y-13228000D01*
X16326800Y-13188000D02*
X16286800Y-13228000D01*
X16312200Y-11079800D02*
X16352200Y-11119800D01*
X16352200Y-11079800D02*
X16312200Y-11119800D01*
X16337600Y-12832400D02*
X16377600Y-12872400D01*
X16377600Y-12832400D02*
X16337600Y-12872400D01*
X16363000Y-13086400D02*
X16403000Y-13126400D01*
X16403000Y-13086400D02*
X16363000Y-13126400D01*
X16401100Y-10978200D02*
X16441100Y-11018200D01*
X16441100Y-10978200D02*
X16401100Y-11018200D01*
X16413800Y-8704900D02*
X16453800Y-8744900D01*
X16453800Y-8704900D02*
X16413800Y-8744900D01*
X16413800Y-12730800D02*
X16453800Y-12770800D01*
X16453800Y-12730800D02*
X16413800Y-12770800D01*
X16439200Y-12984800D02*
X16479200Y-13024800D01*
X16479200Y-12984800D02*
X16439200Y-13024800D01*
X16490000Y-10876600D02*
X16530000Y-10916600D01*
X16530000Y-10876600D02*
X16490000Y-10916600D01*
X16490000Y-12629200D02*
X16530000Y-12669200D01*
X16530000Y-12629200D02*
X16490000Y-12669200D01*
X16515400Y-12883200D02*
X16555400Y-12923200D01*
X16555400Y-12883200D02*
X16515400Y-12923200D01*
X16540800Y-8844600D02*
X16580800Y-8884600D01*
X16580800Y-8844600D02*
X16540800Y-8884600D01*
X16578900Y-10775000D02*
X16618900Y-10815000D01*
X16618900Y-10775000D02*
X16578900Y-10815000D01*
X16591600Y-12781600D02*
X16631600Y-12821600D01*
X16631600Y-12781600D02*
X16591600Y-12821600D01*
X16680500Y-10673400D02*
X16720500Y-10713400D01*
X16720500Y-10673400D02*
X16680500Y-10713400D01*
X16769400Y-9987600D02*
X16809400Y-10027600D01*
X16809400Y-9987600D02*
X16769400Y-10027600D01*
X16769400Y-10140000D02*
X16809400Y-10180000D01*
X16809400Y-10140000D02*
X16769400Y-10180000D01*
X16769400Y-10292400D02*
X16809400Y-10332400D01*
X16809400Y-10292400D02*
X16769400Y-10332400D01*
X16769400Y-10444800D02*
X16809400Y-10484800D01*
X16809400Y-10444800D02*
X16769400Y-10484800D01*
X16769400Y-10571800D02*
X16809400Y-10611800D01*
X16809400Y-10571800D02*
X16769400Y-10611800D01*
X17785400Y-7346000D02*
X17825400Y-7386000D01*
X17825400Y-7346000D02*
X17785400Y-7386000D01*
X17912400Y-7346000D02*
X17952400Y-7386000D01*
X17952400Y-7346000D02*
X17912400Y-7386000D01*
X17912400Y-10063800D02*
X17952400Y-10103800D01*
X17952400Y-10063800D02*
X17912400Y-10103800D01*
X17912400Y-10597200D02*
X17952400Y-10637200D01*
X17952400Y-10597200D02*
X17912400Y-10637200D01*
X17912400Y-10724200D02*
X17952400Y-10764200D01*
X17952400Y-10724200D02*
X17912400Y-10764200D01*
X17912400Y-10851200D02*
X17952400Y-10891200D01*
X17952400Y-10851200D02*
X17912400Y-10891200D01*
X17912400Y-10978200D02*
X17952400Y-11018200D01*
X17952400Y-10978200D02*
X17912400Y-11018200D01*
X18014000Y-9962200D02*
X18054000Y-10002200D01*
X18054000Y-9962200D02*
X18014000Y-10002200D01*
X18039400Y-7346000D02*
X18079400Y-7386000D01*
X18079400Y-7346000D02*
X18039400Y-7386000D01*
X18115600Y-9860600D02*
X18155600Y-9900600D01*
X18155600Y-9860600D02*
X18115600Y-9900600D01*
X18166400Y-7346000D02*
X18206400Y-7386000D01*
X18206400Y-7346000D02*
X18166400Y-7386000D01*
X18217200Y-9759000D02*
X18257200Y-9799000D01*
X18257200Y-9759000D02*
X18217200Y-9799000D01*
X18293400Y-7346000D02*
X18333400Y-7386000D01*
X18333400Y-7346000D02*
X18293400Y-7386000D01*
X18318800Y-9657400D02*
X18358800Y-9697400D01*
X18358800Y-9657400D02*
X18318800Y-9697400D01*
X18420400Y-7346000D02*
X18460400Y-7386000D01*
X18460400Y-7346000D02*
X18420400Y-7386000D01*
X18420400Y-9555800D02*
X18460400Y-9595800D01*
X18460400Y-9555800D02*
X18420400Y-9595800D01*
X18522000Y-8082600D02*
X18562000Y-8122600D01*
X18562000Y-8082600D02*
X18522000Y-8122600D01*
X18522000Y-8209600D02*
X18562000Y-8249600D01*
X18562000Y-8209600D02*
X18522000Y-8249600D01*
X18522000Y-8336600D02*
X18562000Y-8376600D01*
X18562000Y-8336600D02*
X18522000Y-8376600D01*
X18522000Y-8463600D02*
X18562000Y-8503600D01*
X18562000Y-8463600D02*
X18522000Y-8503600D01*
X18522000Y-8590600D02*
X18562000Y-8630600D01*
X18562000Y-8590600D02*
X18522000Y-8630600D01*
X18547400Y-7346000D02*
X18587400Y-7386000D01*
X18587400Y-7346000D02*
X18547400Y-7386000D01*
X18674400Y-7346000D02*
X18714400Y-7386000D01*
X18714400Y-7346000D02*
X18674400Y-7386000D01*
X18699800Y-9124000D02*
X18739800Y-9164000D01*
X18739800Y-9124000D02*
X18699800Y-9164000D01*
X18699800Y-9251000D02*
X18739800Y-9291000D01*
X18739800Y-9251000D02*
X18699800Y-9291000D01*
X18699800Y-9378000D02*
X18739800Y-9418000D01*
X18739800Y-9378000D02*
X18699800Y-9418000D01*
X18699800Y-9505000D02*
X18739800Y-9545000D01*
X18739800Y-9505000D02*
X18699800Y-9545000D01*
X18699800Y-9632000D02*
X18739800Y-9672000D01*
X18739800Y-9632000D02*
X18699800Y-9672000D01*
X18801400Y-7346000D02*
X18841400Y-7386000D01*
X18841400Y-7346000D02*
X18801400Y-7386000D01*
X18928400Y-7346000D02*
X18968400Y-7386000D01*
X18968400Y-7346000D02*
X18928400Y-7386000D01*
X19284000Y-7930200D02*
X19324000Y-7970200D01*
X19324000Y-7930200D02*
X19284000Y-7970200D01*
X19284000Y-8057200D02*
X19324000Y-8097200D01*
X19324000Y-8057200D02*
X19284000Y-8097200D01*
X19284000Y-8184200D02*
X19324000Y-8224200D01*
X19324000Y-8184200D02*
X19284000Y-8224200D01*
X19284000Y-8311200D02*
X19324000Y-8351200D01*
X19324000Y-8311200D02*
X19284000Y-8351200D01*
X19284000Y-8438200D02*
X19324000Y-8478200D01*
X19324000Y-8438200D02*
X19284000Y-8478200D01*
X19284000Y-8565200D02*
X19324000Y-8605200D01*
X19324000Y-8565200D02*
X19284000Y-8605200D01*
X19284000Y-8692200D02*
X19324000Y-8732200D01*
X19324000Y-8692200D02*
X19284000Y-8732200D01*
X12003400Y-10951400D02*
G75*
G03*
X12003400Y-10951400I-40000J0D01*
G01*
X12003400Y-11451400D02*
G75*
G03*
X12003400Y-11451400I-40000J0D01*
G01*
X13044800Y-12204700D02*
G75*
G03*
X13044800Y-12204700I-40000J0D01*
G01*
X13044800Y-12522200D02*
G75*
G03*
X13044800Y-12522200I-40000J0D01*
G01*
X13884023Y-8457177D02*
G75*
G03*
X13884023Y-8457177I-40000J0D01*
G01*
X14060800Y-12204700D02*
G75*
G03*
X14060800Y-12204700I-40000J0D01*
G01*
X14060800Y-12522200D02*
G75*
G03*
X14060800Y-12522200I-40000J0D01*
G01*
X14237577Y-8103623D02*
G75*
G03*
X14237577Y-8103623I-40000J0D01*
G01*
X17058000Y-12293600D02*
G75*
G03*
X17058000Y-12293600I-40000J0D01*
G01*
X17058000Y-13055600D02*
G75*
G03*
X17058000Y-13055600I-40000J0D01*
G01*
X12988600Y-12809220D02*
X12988600Y-12895580D01*
X12945420Y-12852400D02*
X13031780Y-12852400D01*
X14157000Y-12809220D02*
X14157000Y-12895580D01*
X14113820Y-12852400D02*
X14200180Y-12852400D01*
X17532420Y-12579420D02*
X17532420Y-12515780D01*
X17468780Y-12515780D01*
X17468780Y-12579420D01*
X17532420Y-12579420D01*
X17786420Y-12579420D02*
X17786420Y-12515780D01*
X17722780Y-12515780D01*
X17722780Y-12579420D01*
X17786420Y-12579420D01*
X10845800Y-11251400D02*
X10895800Y-11201400D01*
X10845800Y-11151400D01*
X10795800Y-11201400D01*
X10845800Y-11251400D01*
X11099800Y-11251400D02*
X11149800Y-11201400D01*
X11099800Y-11151400D01*
X11049800Y-11201400D01*
X11099800Y-11251400D01*
X11201400Y-13181800D02*
X11251400Y-13131800D01*
X11201400Y-13081800D01*
X11151400Y-13131800D01*
X11201400Y-13181800D01*
X11455400Y-13181800D02*
X11505400Y-13131800D01*
X11455400Y-13081800D01*
X11405400Y-13131800D01*
X11455400Y-13181800D01*
X11709400Y-13181800D02*
X11759400Y-13131800D01*
X11709400Y-13081800D01*
X11659400Y-13131800D01*
X11709400Y-13181800D01*
X11963400Y-13181800D02*
X12013400Y-13131800D01*
X11963400Y-13081800D01*
X11913400Y-13131800D01*
X11963400Y-13181800D01*
X18415000Y-11530800D02*
X18465000Y-11480800D01*
X18415000Y-11430800D01*
X18365000Y-11480800D01*
X18415000Y-11530800D01*
X18415000Y-11784800D02*
X18465000Y-11734800D01*
X18415000Y-11684800D01*
X18365000Y-11734800D01*
X18415000Y-11784800D01*
X18415000Y-12038800D02*
X18465000Y-11988800D01*
X18415000Y-11938800D01*
X18365000Y-11988800D01*
X18415000Y-12038800D01*
X17149300Y-9218500D02*
X17254300Y-9323500D01*
X17254300Y-9218500D02*
X17149300Y-9323500D01*
X17254300Y-9271000D02*
G75*
G03*
X17254300Y-9271000I-52500J0D01*
G01*
X17899300Y-9218500D02*
X18004300Y-9323500D01*
X18004300Y-9218500D02*
X17899300Y-9323500D01*
X18004300Y-9271000D02*
G75*
G03*
X18004300Y-9271000I-52500J0D01*
G01*
X10069830Y-10890630D02*
X10199370Y-11020170D01*
X10199370Y-10890630D02*
X10069830Y-11020170D01*
X10134600Y-10890630D02*
X10134600Y-11020170D01*
X10069830Y-10955400D02*
X10199370Y-10955400D01*
X10069830Y-11390630D02*
X10199370Y-11520170D01*
X10199370Y-11390630D02*
X10069830Y-11520170D01*
X10134600Y-11390630D02*
X10134600Y-11520170D01*
X10069830Y-11455400D02*
X10199370Y-11455400D01*
X18350230Y-10357230D02*
X18479770Y-10486770D01*
X18479770Y-10357230D02*
X18350230Y-10486770D01*
X18415000Y-10357230D02*
X18415000Y-10486770D01*
X18350230Y-10422000D02*
X18479770Y-10422000D01*
X18350230Y-10857230D02*
X18479770Y-10986770D01*
X18479770Y-10857230D02*
X18350230Y-10986770D01*
X18415000Y-10857230D02*
X18415000Y-10986770D01*
X18350230Y-10922000D02*
X18479770Y-10922000D01*
X18350230Y-12490830D02*
X18479770Y-12620370D01*
X18479770Y-12490830D02*
X18350230Y-12620370D01*
X18415000Y-12490830D02*
X18415000Y-12620370D01*
X18350230Y-12555600D02*
X18479770Y-12555600D01*
X18350230Y-12990830D02*
X18479770Y-13120370D01*
X18479770Y-12990830D02*
X18350230Y-13120370D01*
X18415000Y-12990830D02*
X18415000Y-13120370D01*
X18350230Y-13055600D02*
X18479770Y-13055600D01*
X15760200Y-7951400D02*
X15910200Y-8101400D01*
X15910200Y-7951400D02*
X15760200Y-8101400D01*
X15888233Y-8079433D02*
X15888233Y-7973366D01*
X15782166Y-7973366D01*
X15782166Y-8079433D01*
X15888233Y-8079433D01*
X17871800Y-7951400D02*
X18021800Y-8101400D01*
X18021800Y-7951400D02*
X17871800Y-8101400D01*
X17999834Y-8079433D02*
X17999834Y-7973366D01*
X17893767Y-7973366D01*
X17893767Y-8079433D01*
X17999834Y-8079433D01*
X10415270Y-8942070D02*
X10615930Y-9142730D01*
X10615930Y-8942070D02*
X10415270Y-9142730D01*
X10515600Y-9142730D02*
X10615930Y-9042400D01*
X10515600Y-8942070D01*
X10415270Y-9042400D01*
X10515600Y-9142730D01*
X12775270Y-8942070D02*
X12975930Y-9142730D01*
X12975930Y-8942070D02*
X12775270Y-9142730D01*
X12875600Y-9142730D02*
X12975930Y-9042400D01*
X12875600Y-8942070D01*
X12775270Y-9042400D01*
X12875600Y-9142730D01*
X15241270Y-8766470D02*
X15441930Y-8967130D01*
X15441930Y-8766470D02*
X15241270Y-8967130D01*
X15341600Y-8967130D02*
X15441930Y-8866800D01*
X15341600Y-8766470D01*
X15241270Y-8866800D01*
X15341600Y-8967130D01*
X15241270Y-11126470D02*
X15441930Y-11327130D01*
X15441930Y-11126470D02*
X15241270Y-11327130D01*
X15341600Y-11327130D02*
X15441930Y-11226800D01*
X15341600Y-11126470D01*
X15241270Y-11226800D01*
X15341600Y-11327130D01*
X9847000Y-13182000D02*
X9847000Y-13402000D01*
X9737000Y-13292000D02*
X9957000Y-13292000D01*
X9957000Y-13292000D02*
G75*
G03*
X9957000Y-13292000I-110000J0D01*
G01*
X9847200Y-7476600D02*
X9847200Y-7696600D01*
X9737200Y-7586600D02*
X9957200Y-7586600D01*
X9957200Y-7586600D02*
G75*
G03*
X9957200Y-7586600I-110000J0D01*
G01*
X19500000Y-7476600D02*
X19500000Y-7696600D01*
X19390000Y-7586600D02*
X19610000Y-7586600D01*
X19610000Y-7586600D02*
G75*
G03*
X19610000Y-7586600I-110000J0D01*
G01*
X19500000Y-13182200D02*
X19500000Y-13402200D01*
X19390000Y-13292200D02*
X19610000Y-13292200D01*
X19610000Y-13292200D02*
G75*
G03*
X19610000Y-13292200I-110000J0D01*
G01*
D12*
X9631128Y-14260414D02*
X9631128Y-13960414D01*
X9702557Y-13960414D01*
X9745414Y-13974700D01*
X9773986Y-14003271D01*
X9788271Y-14031843D01*
X9802557Y-14088986D01*
X9802557Y-14131843D01*
X9788271Y-14188986D01*
X9773986Y-14217557D01*
X9745414Y-14246129D01*
X9702557Y-14260414D01*
X9631128Y-14260414D01*
X9931128Y-14260414D02*
X9931128Y-14060414D01*
X9931128Y-14117557D02*
X9945414Y-14088986D01*
X9959700Y-14074700D01*
X9988271Y-14060414D01*
X10016843Y-14060414D01*
X10116843Y-14260414D02*
X10116843Y-14060414D01*
X10116843Y-13960414D02*
X10102557Y-13974700D01*
X10116843Y-13988986D01*
X10131128Y-13974700D01*
X10116843Y-13960414D01*
X10116843Y-13988986D01*
X10302557Y-14260414D02*
X10273986Y-14246129D01*
X10259700Y-14217557D01*
X10259700Y-13960414D01*
X10459700Y-14260414D02*
X10431128Y-14246129D01*
X10416843Y-14217557D01*
X10416843Y-13960414D01*
X10802557Y-14260414D02*
X10802557Y-13960414D01*
X10902557Y-14174700D01*
X11002557Y-13960414D01*
X11002557Y-14260414D01*
X11273986Y-14260414D02*
X11273986Y-14103271D01*
X11259700Y-14074700D01*
X11231128Y-14060414D01*
X11173986Y-14060414D01*
X11145414Y-14074700D01*
X11273986Y-14246129D02*
X11245414Y-14260414D01*
X11173986Y-14260414D01*
X11145414Y-14246129D01*
X11131128Y-14217557D01*
X11131128Y-14188986D01*
X11145414Y-14160414D01*
X11173986Y-14146129D01*
X11245414Y-14146129D01*
X11273986Y-14131843D01*
X11416843Y-14060414D02*
X11416843Y-14360414D01*
X11416843Y-14074700D02*
X11445414Y-14060414D01*
X11502557Y-14060414D01*
X11531128Y-14074700D01*
X11545414Y-14088986D01*
X11559700Y-14117557D01*
X11559700Y-14203271D01*
X11545414Y-14231843D01*
X11531128Y-14246129D01*
X11502557Y-14260414D01*
X11445414Y-14260414D01*
X11416843Y-14246129D01*
X11688271Y-14231843D02*
X11702557Y-14246129D01*
X11688271Y-14260414D01*
X11673986Y-14246129D01*
X11688271Y-14231843D01*
X11688271Y-14260414D01*
X11688271Y-14074700D02*
X11702557Y-14088986D01*
X11688271Y-14103271D01*
X11673986Y-14088986D01*
X11688271Y-14074700D01*
X11688271Y-14103271D01*
X9304700Y-14734700D02*
X9344700Y-14774700D01*
X9344700Y-14734700D02*
X9304700Y-14774700D01*
X9688271Y-14590414D02*
X9716843Y-14590414D01*
X9745414Y-14604700D01*
X9759700Y-14618986D01*
X9773986Y-14647557D01*
X9788271Y-14704700D01*
X9788271Y-14776129D01*
X9773986Y-14833271D01*
X9759700Y-14861843D01*
X9745414Y-14876129D01*
X9716843Y-14890414D01*
X9688271Y-14890414D01*
X9659700Y-14876129D01*
X9645414Y-14861843D01*
X9631128Y-14833271D01*
X9616843Y-14776129D01*
X9616843Y-14704700D01*
X9631128Y-14647557D01*
X9645414Y-14618986D01*
X9659700Y-14604700D01*
X9688271Y-14590414D01*
X9916843Y-14861843D02*
X9931128Y-14876129D01*
X9916843Y-14890414D01*
X9902557Y-14876129D01*
X9916843Y-14861843D01*
X9916843Y-14890414D01*
X10188271Y-14690414D02*
X10188271Y-14890414D01*
X10116843Y-14576129D02*
X10045414Y-14790414D01*
X10231128Y-14790414D01*
X10402557Y-14590414D02*
X10431128Y-14590414D01*
X10459700Y-14604700D01*
X10473986Y-14618986D01*
X10488271Y-14647557D01*
X10502557Y-14704700D01*
X10502557Y-14776129D01*
X10488271Y-14833271D01*
X10473986Y-14861843D01*
X10459700Y-14876129D01*
X10431128Y-14890414D01*
X10402557Y-14890414D01*
X10373986Y-14876129D01*
X10359700Y-14861843D01*
X10345414Y-14833271D01*
X10331128Y-14776129D01*
X10331128Y-14704700D01*
X10345414Y-14647557D01*
X10359700Y-14618986D01*
X10373986Y-14604700D01*
X10402557Y-14590414D01*
X10688271Y-14590414D02*
X10716843Y-14590414D01*
X10745414Y-14604700D01*
X10759700Y-14618986D01*
X10773986Y-14647557D01*
X10788271Y-14704700D01*
X10788271Y-14776129D01*
X10773986Y-14833271D01*
X10759700Y-14861843D01*
X10745414Y-14876129D01*
X10716843Y-14890414D01*
X10688271Y-14890414D01*
X10659700Y-14876129D01*
X10645414Y-14861843D01*
X10631128Y-14833271D01*
X10616843Y-14776129D01*
X10616843Y-14704700D01*
X10631128Y-14647557D01*
X10645414Y-14618986D01*
X10659700Y-14604700D01*
X10688271Y-14590414D01*
X10916843Y-14890414D02*
X10916843Y-14690414D01*
X10916843Y-14718986D02*
X10931128Y-14704700D01*
X10959700Y-14690414D01*
X11002557Y-14690414D01*
X11031128Y-14704700D01*
X11045414Y-14733271D01*
X11045414Y-14890414D01*
X11045414Y-14733271D02*
X11059700Y-14704700D01*
X11088271Y-14690414D01*
X11131128Y-14690414D01*
X11159700Y-14704700D01*
X11173986Y-14733271D01*
X11173986Y-14890414D01*
X11316843Y-14890414D02*
X11316843Y-14690414D01*
X11316843Y-14718986D02*
X11331128Y-14704700D01*
X11359700Y-14690414D01*
X11402557Y-14690414D01*
X11431128Y-14704700D01*
X11445414Y-14733271D01*
X11445414Y-14890414D01*
X11445414Y-14733271D02*
X11459700Y-14704700D01*
X11488271Y-14690414D01*
X11531128Y-14690414D01*
X11559700Y-14704700D01*
X11573986Y-14733271D01*
X11573986Y-14890414D01*
X12159700Y-14576129D02*
X11902557Y-14961843D01*
X12545414Y-14590414D02*
X12573986Y-14590414D01*
X12602557Y-14604700D01*
X12616843Y-14618986D01*
X12631128Y-14647557D01*
X12645414Y-14704700D01*
X12645414Y-14776129D01*
X12631128Y-14833271D01*
X12616843Y-14861843D01*
X12602557Y-14876129D01*
X12573986Y-14890414D01*
X12545414Y-14890414D01*
X12516843Y-14876129D01*
X12502557Y-14861843D01*
X12488271Y-14833271D01*
X12473986Y-14776129D01*
X12473986Y-14704700D01*
X12488271Y-14647557D01*
X12502557Y-14618986D01*
X12516843Y-14604700D01*
X12545414Y-14590414D01*
X12773986Y-14861843D02*
X12788271Y-14876129D01*
X12773986Y-14890414D01*
X12759700Y-14876129D01*
X12773986Y-14861843D01*
X12773986Y-14890414D01*
X12973986Y-14590414D02*
X13002557Y-14590414D01*
X13031128Y-14604700D01*
X13045414Y-14618986D01*
X13059700Y-14647557D01*
X13073986Y-14704700D01*
X13073986Y-14776129D01*
X13059700Y-14833271D01*
X13045414Y-14861843D01*
X13031128Y-14876129D01*
X13002557Y-14890414D01*
X12973986Y-14890414D01*
X12945414Y-14876129D01*
X12931128Y-14861843D01*
X12916843Y-14833271D01*
X12902557Y-14776129D01*
X12902557Y-14704700D01*
X12916843Y-14647557D01*
X12931128Y-14618986D01*
X12945414Y-14604700D01*
X12973986Y-14590414D01*
X13359700Y-14890414D02*
X13188271Y-14890414D01*
X13273986Y-14890414D02*
X13273986Y-14590414D01*
X13245414Y-14633271D01*
X13216843Y-14661843D01*
X13188271Y-14676129D01*
X13631128Y-14590414D02*
X13488271Y-14590414D01*
X13473986Y-14733271D01*
X13488271Y-14718986D01*
X13516843Y-14704700D01*
X13588271Y-14704700D01*
X13616843Y-14718986D01*
X13631128Y-14733271D01*
X13645414Y-14761843D01*
X13645414Y-14833271D01*
X13631128Y-14861843D01*
X13616843Y-14876129D01*
X13588271Y-14890414D01*
X13516843Y-14890414D01*
X13488271Y-14876129D01*
X13473986Y-14861843D01*
X13745414Y-14590414D02*
X13945414Y-14590414D01*
X13816843Y-14890414D01*
X14045414Y-14590414D02*
X14045414Y-14647557D01*
X14159700Y-14590414D02*
X14159700Y-14647557D01*
X14602557Y-15004700D02*
X14588271Y-14990414D01*
X14559700Y-14947557D01*
X14545414Y-14918986D01*
X14531128Y-14876129D01*
X14516843Y-14804700D01*
X14516843Y-14747557D01*
X14531128Y-14676129D01*
X14545414Y-14633271D01*
X14559700Y-14604700D01*
X14588271Y-14561843D01*
X14602557Y-14547557D01*
X14873986Y-14890414D02*
X14702557Y-14890414D01*
X14788271Y-14890414D02*
X14788271Y-14590414D01*
X14759700Y-14633271D01*
X14731128Y-14661843D01*
X14702557Y-14676129D01*
X15131128Y-14590414D02*
X15073986Y-14590414D01*
X15045414Y-14604700D01*
X15031128Y-14618986D01*
X15002557Y-14661843D01*
X14988271Y-14718986D01*
X14988271Y-14833271D01*
X15002557Y-14861843D01*
X15016843Y-14876129D01*
X15045414Y-14890414D01*
X15102557Y-14890414D01*
X15131128Y-14876129D01*
X15145414Y-14861843D01*
X15159700Y-14833271D01*
X15159700Y-14761843D01*
X15145414Y-14733271D01*
X15131128Y-14718986D01*
X15102557Y-14704700D01*
X15045414Y-14704700D01*
X15016843Y-14718986D01*
X15002557Y-14733271D01*
X14988271Y-14761843D01*
X15302557Y-14890414D02*
X15359700Y-14890414D01*
X15388271Y-14876129D01*
X15402557Y-14861843D01*
X15431128Y-14818986D01*
X15445414Y-14761843D01*
X15445414Y-14647557D01*
X15431128Y-14618986D01*
X15416843Y-14604700D01*
X15388271Y-14590414D01*
X15331128Y-14590414D01*
X15302557Y-14604700D01*
X15288271Y-14618986D01*
X15273986Y-14647557D01*
X15273986Y-14718986D01*
X15288271Y-14747557D01*
X15302557Y-14761843D01*
X15331128Y-14776129D01*
X15388271Y-14776129D01*
X15416843Y-14761843D01*
X15431128Y-14747557D01*
X15445414Y-14718986D01*
X15802557Y-14890414D02*
X15802557Y-14590414D01*
X15931128Y-14890414D02*
X15931128Y-14733271D01*
X15916843Y-14704700D01*
X15888271Y-14690414D01*
X15845414Y-14690414D01*
X15816843Y-14704700D01*
X15802557Y-14718986D01*
X16116843Y-14890414D02*
X16088271Y-14876129D01*
X16073986Y-14861843D01*
X16059700Y-14833271D01*
X16059700Y-14747557D01*
X16073986Y-14718986D01*
X16088271Y-14704700D01*
X16116843Y-14690414D01*
X16159700Y-14690414D01*
X16188271Y-14704700D01*
X16202557Y-14718986D01*
X16216843Y-14747557D01*
X16216843Y-14833271D01*
X16202557Y-14861843D01*
X16188271Y-14876129D01*
X16159700Y-14890414D01*
X16116843Y-14890414D01*
X16388271Y-14890414D02*
X16359700Y-14876129D01*
X16345414Y-14847557D01*
X16345414Y-14590414D01*
X16616843Y-14876129D02*
X16588271Y-14890414D01*
X16531128Y-14890414D01*
X16502557Y-14876129D01*
X16488271Y-14847557D01*
X16488271Y-14733271D01*
X16502557Y-14704700D01*
X16531128Y-14690414D01*
X16588271Y-14690414D01*
X16616843Y-14704700D01*
X16631128Y-14733271D01*
X16631128Y-14761843D01*
X16488271Y-14790414D01*
X16745414Y-14876129D02*
X16773986Y-14890414D01*
X16831128Y-14890414D01*
X16859700Y-14876129D01*
X16873986Y-14847557D01*
X16873986Y-14833271D01*
X16859700Y-14804700D01*
X16831128Y-14790414D01*
X16788271Y-14790414D01*
X16759700Y-14776129D01*
X16745414Y-14747557D01*
X16745414Y-14733271D01*
X16759700Y-14704700D01*
X16788271Y-14690414D01*
X16831128Y-14690414D01*
X16859700Y-14704700D01*
X16973986Y-15004700D02*
X16988271Y-14990414D01*
X17016843Y-14947557D01*
X17031128Y-14918986D01*
X17045414Y-14876129D01*
X17059700Y-14804700D01*
X17059700Y-14747557D01*
X17045414Y-14676129D01*
X17031128Y-14633271D01*
X17016843Y-14604700D01*
X16988271Y-14561843D01*
X16973986Y-14547557D01*
X9344700Y-15150700D02*
G75*
G03*
X9344700Y-15150700I-40000J0D01*
G01*
X9688271Y-14986414D02*
X9716843Y-14986414D01*
X9745414Y-15000700D01*
X9759700Y-15014986D01*
X9773986Y-15043557D01*
X9788271Y-15100700D01*
X9788271Y-15172129D01*
X9773986Y-15229271D01*
X9759700Y-15257843D01*
X9745414Y-15272129D01*
X9716843Y-15286414D01*
X9688271Y-15286414D01*
X9659700Y-15272129D01*
X9645414Y-15257843D01*
X9631128Y-15229271D01*
X9616843Y-15172129D01*
X9616843Y-15100700D01*
X9631128Y-15043557D01*
X9645414Y-15014986D01*
X9659700Y-15000700D01*
X9688271Y-14986414D01*
X9916843Y-15257843D02*
X9931128Y-15272129D01*
X9916843Y-15286414D01*
X9902557Y-15272129D01*
X9916843Y-15257843D01*
X9916843Y-15286414D01*
X10102557Y-15114986D02*
X10073986Y-15100700D01*
X10059700Y-15086414D01*
X10045414Y-15057843D01*
X10045414Y-15043557D01*
X10059700Y-15014986D01*
X10073986Y-15000700D01*
X10102557Y-14986414D01*
X10159700Y-14986414D01*
X10188271Y-15000700D01*
X10202557Y-15014986D01*
X10216843Y-15043557D01*
X10216843Y-15057843D01*
X10202557Y-15086414D01*
X10188271Y-15100700D01*
X10159700Y-15114986D01*
X10102557Y-15114986D01*
X10073986Y-15129271D01*
X10059700Y-15143557D01*
X10045414Y-15172129D01*
X10045414Y-15229271D01*
X10059700Y-15257843D01*
X10073986Y-15272129D01*
X10102557Y-15286414D01*
X10159700Y-15286414D01*
X10188271Y-15272129D01*
X10202557Y-15257843D01*
X10216843Y-15229271D01*
X10216843Y-15172129D01*
X10202557Y-15143557D01*
X10188271Y-15129271D01*
X10159700Y-15114986D01*
X10402557Y-14986414D02*
X10431128Y-14986414D01*
X10459700Y-15000700D01*
X10473986Y-15014986D01*
X10488271Y-15043557D01*
X10502557Y-15100700D01*
X10502557Y-15172129D01*
X10488271Y-15229271D01*
X10473986Y-15257843D01*
X10459700Y-15272129D01*
X10431128Y-15286414D01*
X10402557Y-15286414D01*
X10373986Y-15272129D01*
X10359700Y-15257843D01*
X10345414Y-15229271D01*
X10331128Y-15172129D01*
X10331128Y-15100700D01*
X10345414Y-15043557D01*
X10359700Y-15014986D01*
X10373986Y-15000700D01*
X10402557Y-14986414D01*
X10688271Y-14986414D02*
X10716843Y-14986414D01*
X10745414Y-15000700D01*
X10759700Y-15014986D01*
X10773986Y-15043557D01*
X10788271Y-15100700D01*
X10788271Y-15172129D01*
X10773986Y-15229271D01*
X10759700Y-15257843D01*
X10745414Y-15272129D01*
X10716843Y-15286414D01*
X10688271Y-15286414D01*
X10659700Y-15272129D01*
X10645414Y-15257843D01*
X10631128Y-15229271D01*
X10616843Y-15172129D01*
X10616843Y-15100700D01*
X10631128Y-15043557D01*
X10645414Y-15014986D01*
X10659700Y-15000700D01*
X10688271Y-14986414D01*
X10916843Y-15286414D02*
X10916843Y-15086414D01*
X10916843Y-15114986D02*
X10931128Y-15100700D01*
X10959700Y-15086414D01*
X11002557Y-15086414D01*
X11031128Y-15100700D01*
X11045414Y-15129271D01*
X11045414Y-15286414D01*
X11045414Y-15129271D02*
X11059700Y-15100700D01*
X11088271Y-15086414D01*
X11131128Y-15086414D01*
X11159700Y-15100700D01*
X11173986Y-15129271D01*
X11173986Y-15286414D01*
X11316843Y-15286414D02*
X11316843Y-15086414D01*
X11316843Y-15114986D02*
X11331128Y-15100700D01*
X11359700Y-15086414D01*
X11402557Y-15086414D01*
X11431128Y-15100700D01*
X11445414Y-15129271D01*
X11445414Y-15286414D01*
X11445414Y-15129271D02*
X11459700Y-15100700D01*
X11488271Y-15086414D01*
X11531128Y-15086414D01*
X11559700Y-15100700D01*
X11573986Y-15129271D01*
X11573986Y-15286414D01*
X12159700Y-14972129D02*
X11902557Y-15357843D01*
X12545414Y-14986414D02*
X12573986Y-14986414D01*
X12602557Y-15000700D01*
X12616843Y-15014986D01*
X12631128Y-15043557D01*
X12645414Y-15100700D01*
X12645414Y-15172129D01*
X12631128Y-15229271D01*
X12616843Y-15257843D01*
X12602557Y-15272129D01*
X12573986Y-15286414D01*
X12545414Y-15286414D01*
X12516843Y-15272129D01*
X12502557Y-15257843D01*
X12488271Y-15229271D01*
X12473986Y-15172129D01*
X12473986Y-15100700D01*
X12488271Y-15043557D01*
X12502557Y-15014986D01*
X12516843Y-15000700D01*
X12545414Y-14986414D01*
X12773986Y-15257843D02*
X12788271Y-15272129D01*
X12773986Y-15286414D01*
X12759700Y-15272129D01*
X12773986Y-15257843D01*
X12773986Y-15286414D01*
X12973986Y-14986414D02*
X13002557Y-14986414D01*
X13031128Y-15000700D01*
X13045414Y-15014986D01*
X13059700Y-15043557D01*
X13073986Y-15100700D01*
X13073986Y-15172129D01*
X13059700Y-15229271D01*
X13045414Y-15257843D01*
X13031128Y-15272129D01*
X13002557Y-15286414D01*
X12973986Y-15286414D01*
X12945414Y-15272129D01*
X12931128Y-15257843D01*
X12916843Y-15229271D01*
X12902557Y-15172129D01*
X12902557Y-15100700D01*
X12916843Y-15043557D01*
X12931128Y-15014986D01*
X12945414Y-15000700D01*
X12973986Y-14986414D01*
X13173986Y-14986414D02*
X13359700Y-14986414D01*
X13259700Y-15100700D01*
X13302557Y-15100700D01*
X13331128Y-15114986D01*
X13345414Y-15129271D01*
X13359700Y-15157843D01*
X13359700Y-15229271D01*
X13345414Y-15257843D01*
X13331128Y-15272129D01*
X13302557Y-15286414D01*
X13216843Y-15286414D01*
X13188271Y-15272129D01*
X13173986Y-15257843D01*
X13645414Y-15286414D02*
X13473986Y-15286414D01*
X13559700Y-15286414D02*
X13559700Y-14986414D01*
X13531128Y-15029271D01*
X13502557Y-15057843D01*
X13473986Y-15072129D01*
X13916843Y-14986414D02*
X13773986Y-14986414D01*
X13759700Y-15129271D01*
X13773986Y-15114986D01*
X13802557Y-15100700D01*
X13873986Y-15100700D01*
X13902557Y-15114986D01*
X13916843Y-15129271D01*
X13931128Y-15157843D01*
X13931128Y-15229271D01*
X13916843Y-15257843D01*
X13902557Y-15272129D01*
X13873986Y-15286414D01*
X13802557Y-15286414D01*
X13773986Y-15272129D01*
X13759700Y-15257843D01*
X14045414Y-14986414D02*
X14045414Y-15043557D01*
X14159700Y-14986414D02*
X14159700Y-15043557D01*
X14602557Y-15400700D02*
X14588271Y-15386414D01*
X14559700Y-15343557D01*
X14545414Y-15314986D01*
X14531128Y-15272129D01*
X14516843Y-15200700D01*
X14516843Y-15143557D01*
X14531128Y-15072129D01*
X14545414Y-15029271D01*
X14559700Y-15000700D01*
X14588271Y-14957843D01*
X14602557Y-14943557D01*
X14873986Y-15286414D02*
X14702557Y-15286414D01*
X14788271Y-15286414D02*
X14788271Y-14986414D01*
X14759700Y-15029271D01*
X14731128Y-15057843D01*
X14702557Y-15072129D01*
X15059700Y-14986414D02*
X15088271Y-14986414D01*
X15116843Y-15000700D01*
X15131128Y-15014986D01*
X15145414Y-15043557D01*
X15159700Y-15100700D01*
X15159700Y-15172129D01*
X15145414Y-15229271D01*
X15131128Y-15257843D01*
X15116843Y-15272129D01*
X15088271Y-15286414D01*
X15059700Y-15286414D01*
X15031128Y-15272129D01*
X15016843Y-15257843D01*
X15002557Y-15229271D01*
X14988271Y-15172129D01*
X14988271Y-15100700D01*
X15002557Y-15043557D01*
X15016843Y-15014986D01*
X15031128Y-15000700D01*
X15059700Y-14986414D01*
X15516843Y-15286414D02*
X15516843Y-14986414D01*
X15645414Y-15286414D02*
X15645414Y-15129271D01*
X15631128Y-15100700D01*
X15602557Y-15086414D01*
X15559700Y-15086414D01*
X15531128Y-15100700D01*
X15516843Y-15114986D01*
X15831128Y-15286414D02*
X15802557Y-15272129D01*
X15788271Y-15257843D01*
X15773986Y-15229271D01*
X15773986Y-15143557D01*
X15788271Y-15114986D01*
X15802557Y-15100700D01*
X15831128Y-15086414D01*
X15873986Y-15086414D01*
X15902557Y-15100700D01*
X15916843Y-15114986D01*
X15931128Y-15143557D01*
X15931128Y-15229271D01*
X15916843Y-15257843D01*
X15902557Y-15272129D01*
X15873986Y-15286414D01*
X15831128Y-15286414D01*
X16102557Y-15286414D02*
X16073986Y-15272129D01*
X16059700Y-15243557D01*
X16059700Y-14986414D01*
X16331128Y-15272129D02*
X16302557Y-15286414D01*
X16245414Y-15286414D01*
X16216843Y-15272129D01*
X16202557Y-15243557D01*
X16202557Y-15129271D01*
X16216843Y-15100700D01*
X16245414Y-15086414D01*
X16302557Y-15086414D01*
X16331128Y-15100700D01*
X16345414Y-15129271D01*
X16345414Y-15157843D01*
X16202557Y-15186414D01*
X16459700Y-15272129D02*
X16488271Y-15286414D01*
X16545414Y-15286414D01*
X16573986Y-15272129D01*
X16588271Y-15243557D01*
X16588271Y-15229271D01*
X16573986Y-15200700D01*
X16545414Y-15186414D01*
X16502557Y-15186414D01*
X16473986Y-15172129D01*
X16459700Y-15143557D01*
X16459700Y-15129271D01*
X16473986Y-15100700D01*
X16502557Y-15086414D01*
X16545414Y-15086414D01*
X16573986Y-15100700D01*
X16688271Y-15400700D02*
X16702557Y-15386414D01*
X16731128Y-15343557D01*
X16745414Y-15314986D01*
X16759700Y-15272129D01*
X16773986Y-15200700D01*
X16773986Y-15143557D01*
X16759700Y-15072129D01*
X16745414Y-15029271D01*
X16731128Y-15000700D01*
X16702557Y-14957843D01*
X16688271Y-14943557D01*
X9301520Y-15503520D02*
X9301520Y-15589880D01*
X9258340Y-15546700D02*
X9344700Y-15546700D01*
X9688271Y-15382414D02*
X9716843Y-15382414D01*
X9745414Y-15396700D01*
X9759700Y-15410986D01*
X9773986Y-15439557D01*
X9788271Y-15496700D01*
X9788271Y-15568129D01*
X9773986Y-15625271D01*
X9759700Y-15653843D01*
X9745414Y-15668129D01*
X9716843Y-15682414D01*
X9688271Y-15682414D01*
X9659700Y-15668129D01*
X9645414Y-15653843D01*
X9631128Y-15625271D01*
X9616843Y-15568129D01*
X9616843Y-15496700D01*
X9631128Y-15439557D01*
X9645414Y-15410986D01*
X9659700Y-15396700D01*
X9688271Y-15382414D01*
X9916843Y-15653843D02*
X9931128Y-15668129D01*
X9916843Y-15682414D01*
X9902557Y-15668129D01*
X9916843Y-15653843D01*
X9916843Y-15682414D01*
X10102557Y-15510986D02*
X10073986Y-15496700D01*
X10059700Y-15482414D01*
X10045414Y-15453843D01*
X10045414Y-15439557D01*
X10059700Y-15410986D01*
X10073986Y-15396700D01*
X10102557Y-15382414D01*
X10159700Y-15382414D01*
X10188271Y-15396700D01*
X10202557Y-15410986D01*
X10216843Y-15439557D01*
X10216843Y-15453843D01*
X10202557Y-15482414D01*
X10188271Y-15496700D01*
X10159700Y-15510986D01*
X10102557Y-15510986D01*
X10073986Y-15525271D01*
X10059700Y-15539557D01*
X10045414Y-15568129D01*
X10045414Y-15625271D01*
X10059700Y-15653843D01*
X10073986Y-15668129D01*
X10102557Y-15682414D01*
X10159700Y-15682414D01*
X10188271Y-15668129D01*
X10202557Y-15653843D01*
X10216843Y-15625271D01*
X10216843Y-15568129D01*
X10202557Y-15539557D01*
X10188271Y-15525271D01*
X10159700Y-15510986D01*
X10473986Y-15382414D02*
X10416843Y-15382414D01*
X10388271Y-15396700D01*
X10373986Y-15410986D01*
X10345414Y-15453843D01*
X10331128Y-15510986D01*
X10331128Y-15625271D01*
X10345414Y-15653843D01*
X10359700Y-15668129D01*
X10388271Y-15682414D01*
X10445414Y-15682414D01*
X10473986Y-15668129D01*
X10488271Y-15653843D01*
X10502557Y-15625271D01*
X10502557Y-15553843D01*
X10488271Y-15525271D01*
X10473986Y-15510986D01*
X10445414Y-15496700D01*
X10388271Y-15496700D01*
X10359700Y-15510986D01*
X10345414Y-15525271D01*
X10331128Y-15553843D01*
X10759700Y-15482414D02*
X10759700Y-15682414D01*
X10688271Y-15368129D02*
X10616843Y-15582414D01*
X10802557Y-15582414D01*
X10916843Y-15682414D02*
X10916843Y-15482414D01*
X10916843Y-15510986D02*
X10931128Y-15496700D01*
X10959700Y-15482414D01*
X11002557Y-15482414D01*
X11031128Y-15496700D01*
X11045414Y-15525271D01*
X11045414Y-15682414D01*
X11045414Y-15525271D02*
X11059700Y-15496700D01*
X11088271Y-15482414D01*
X11131128Y-15482414D01*
X11159700Y-15496700D01*
X11173986Y-15525271D01*
X11173986Y-15682414D01*
X11316843Y-15682414D02*
X11316843Y-15482414D01*
X11316843Y-15510986D02*
X11331128Y-15496700D01*
X11359700Y-15482414D01*
X11402557Y-15482414D01*
X11431128Y-15496700D01*
X11445414Y-15525271D01*
X11445414Y-15682414D01*
X11445414Y-15525271D02*
X11459700Y-15496700D01*
X11488271Y-15482414D01*
X11531128Y-15482414D01*
X11559700Y-15496700D01*
X11573986Y-15525271D01*
X11573986Y-15682414D01*
X12159700Y-15368129D02*
X11902557Y-15753843D01*
X12545414Y-15382414D02*
X12573986Y-15382414D01*
X12602557Y-15396700D01*
X12616843Y-15410986D01*
X12631128Y-15439557D01*
X12645414Y-15496700D01*
X12645414Y-15568129D01*
X12631128Y-15625271D01*
X12616843Y-15653843D01*
X12602557Y-15668129D01*
X12573986Y-15682414D01*
X12545414Y-15682414D01*
X12516843Y-15668129D01*
X12502557Y-15653843D01*
X12488271Y-15625271D01*
X12473986Y-15568129D01*
X12473986Y-15496700D01*
X12488271Y-15439557D01*
X12502557Y-15410986D01*
X12516843Y-15396700D01*
X12545414Y-15382414D01*
X12773986Y-15653843D02*
X12788271Y-15668129D01*
X12773986Y-15682414D01*
X12759700Y-15668129D01*
X12773986Y-15653843D01*
X12773986Y-15682414D01*
X12973986Y-15382414D02*
X13002557Y-15382414D01*
X13031128Y-15396700D01*
X13045414Y-15410986D01*
X13059700Y-15439557D01*
X13073986Y-15496700D01*
X13073986Y-15568129D01*
X13059700Y-15625271D01*
X13045414Y-15653843D01*
X13031128Y-15668129D01*
X13002557Y-15682414D01*
X12973986Y-15682414D01*
X12945414Y-15668129D01*
X12931128Y-15653843D01*
X12916843Y-15625271D01*
X12902557Y-15568129D01*
X12902557Y-15496700D01*
X12916843Y-15439557D01*
X12931128Y-15410986D01*
X12945414Y-15396700D01*
X12973986Y-15382414D01*
X13173986Y-15382414D02*
X13359700Y-15382414D01*
X13259700Y-15496700D01*
X13302557Y-15496700D01*
X13331128Y-15510986D01*
X13345414Y-15525271D01*
X13359700Y-15553843D01*
X13359700Y-15625271D01*
X13345414Y-15653843D01*
X13331128Y-15668129D01*
X13302557Y-15682414D01*
X13216843Y-15682414D01*
X13188271Y-15668129D01*
X13173986Y-15653843D01*
X13616843Y-15482414D02*
X13616843Y-15682414D01*
X13545414Y-15368129D02*
X13473986Y-15582414D01*
X13659700Y-15582414D01*
X13831128Y-15382414D02*
X13859700Y-15382414D01*
X13888271Y-15396700D01*
X13902557Y-15410986D01*
X13916843Y-15439557D01*
X13931128Y-15496700D01*
X13931128Y-15568129D01*
X13916843Y-15625271D01*
X13902557Y-15653843D01*
X13888271Y-15668129D01*
X13859700Y-15682414D01*
X13831128Y-15682414D01*
X13802557Y-15668129D01*
X13788271Y-15653843D01*
X13773986Y-15625271D01*
X13759700Y-15568129D01*
X13759700Y-15496700D01*
X13773986Y-15439557D01*
X13788271Y-15410986D01*
X13802557Y-15396700D01*
X13831128Y-15382414D01*
X14045414Y-15382414D02*
X14045414Y-15439557D01*
X14159700Y-15382414D02*
X14159700Y-15439557D01*
X14602557Y-15796700D02*
X14588271Y-15782414D01*
X14559700Y-15739557D01*
X14545414Y-15710986D01*
X14531128Y-15668129D01*
X14516843Y-15596700D01*
X14516843Y-15539557D01*
X14531128Y-15468129D01*
X14545414Y-15425271D01*
X14559700Y-15396700D01*
X14588271Y-15353843D01*
X14602557Y-15339557D01*
X14702557Y-15410986D02*
X14716843Y-15396700D01*
X14745414Y-15382414D01*
X14816843Y-15382414D01*
X14845414Y-15396700D01*
X14859700Y-15410986D01*
X14873986Y-15439557D01*
X14873986Y-15468129D01*
X14859700Y-15510986D01*
X14688271Y-15682414D01*
X14873986Y-15682414D01*
X15231128Y-15682414D02*
X15231128Y-15382414D01*
X15359700Y-15682414D02*
X15359700Y-15525271D01*
X15345414Y-15496700D01*
X15316843Y-15482414D01*
X15273986Y-15482414D01*
X15245414Y-15496700D01*
X15231128Y-15510986D01*
X15545414Y-15682414D02*
X15516843Y-15668129D01*
X15502557Y-15653843D01*
X15488271Y-15625271D01*
X15488271Y-15539557D01*
X15502557Y-15510986D01*
X15516843Y-15496700D01*
X15545414Y-15482414D01*
X15588271Y-15482414D01*
X15616843Y-15496700D01*
X15631128Y-15510986D01*
X15645414Y-15539557D01*
X15645414Y-15625271D01*
X15631128Y-15653843D01*
X15616843Y-15668129D01*
X15588271Y-15682414D01*
X15545414Y-15682414D01*
X15816843Y-15682414D02*
X15788271Y-15668129D01*
X15773986Y-15639557D01*
X15773986Y-15382414D01*
X16045414Y-15668129D02*
X16016843Y-15682414D01*
X15959700Y-15682414D01*
X15931128Y-15668129D01*
X15916843Y-15639557D01*
X15916843Y-15525271D01*
X15931128Y-15496700D01*
X15959700Y-15482414D01*
X16016843Y-15482414D01*
X16045414Y-15496700D01*
X16059700Y-15525271D01*
X16059700Y-15553843D01*
X15916843Y-15582414D01*
X16173986Y-15668129D02*
X16202557Y-15682414D01*
X16259700Y-15682414D01*
X16288271Y-15668129D01*
X16302557Y-15639557D01*
X16302557Y-15625271D01*
X16288271Y-15596700D01*
X16259700Y-15582414D01*
X16216843Y-15582414D01*
X16188271Y-15568129D01*
X16173986Y-15539557D01*
X16173986Y-15525271D01*
X16188271Y-15496700D01*
X16216843Y-15482414D01*
X16259700Y-15482414D01*
X16288271Y-15496700D01*
X16402557Y-15796700D02*
X16416843Y-15782414D01*
X16445414Y-15739557D01*
X16459700Y-15710986D01*
X16473986Y-15668129D01*
X16488271Y-15596700D01*
X16488271Y-15539557D01*
X16473986Y-15468129D01*
X16459700Y-15425271D01*
X16445414Y-15396700D01*
X16416843Y-15353843D01*
X16402557Y-15339557D01*
X9331520Y-15974520D02*
X9331520Y-15910880D01*
X9267880Y-15910880D01*
X9267880Y-15974520D01*
X9331520Y-15974520D01*
X9688271Y-15778414D02*
X9716843Y-15778414D01*
X9745414Y-15792700D01*
X9759700Y-15806986D01*
X9773986Y-15835557D01*
X9788271Y-15892700D01*
X9788271Y-15964129D01*
X9773986Y-16021271D01*
X9759700Y-16049843D01*
X9745414Y-16064129D01*
X9716843Y-16078414D01*
X9688271Y-16078414D01*
X9659700Y-16064129D01*
X9645414Y-16049843D01*
X9631128Y-16021271D01*
X9616843Y-15964129D01*
X9616843Y-15892700D01*
X9631128Y-15835557D01*
X9645414Y-15806986D01*
X9659700Y-15792700D01*
X9688271Y-15778414D01*
X9916843Y-16049843D02*
X9931128Y-16064129D01*
X9916843Y-16078414D01*
X9902557Y-16064129D01*
X9916843Y-16049843D01*
X9916843Y-16078414D01*
X10073986Y-16078414D02*
X10131128Y-16078414D01*
X10159700Y-16064129D01*
X10173986Y-16049843D01*
X10202557Y-16006986D01*
X10216843Y-15949843D01*
X10216843Y-15835557D01*
X10202557Y-15806986D01*
X10188271Y-15792700D01*
X10159700Y-15778414D01*
X10102557Y-15778414D01*
X10073986Y-15792700D01*
X10059700Y-15806986D01*
X10045414Y-15835557D01*
X10045414Y-15906986D01*
X10059700Y-15935557D01*
X10073986Y-15949843D01*
X10102557Y-15964129D01*
X10159700Y-15964129D01*
X10188271Y-15949843D01*
X10202557Y-15935557D01*
X10216843Y-15906986D01*
X10402557Y-15778414D02*
X10431128Y-15778414D01*
X10459700Y-15792700D01*
X10473986Y-15806986D01*
X10488271Y-15835557D01*
X10502557Y-15892700D01*
X10502557Y-15964129D01*
X10488271Y-16021271D01*
X10473986Y-16049843D01*
X10459700Y-16064129D01*
X10431128Y-16078414D01*
X10402557Y-16078414D01*
X10373986Y-16064129D01*
X10359700Y-16049843D01*
X10345414Y-16021271D01*
X10331128Y-15964129D01*
X10331128Y-15892700D01*
X10345414Y-15835557D01*
X10359700Y-15806986D01*
X10373986Y-15792700D01*
X10402557Y-15778414D01*
X10688271Y-15778414D02*
X10716843Y-15778414D01*
X10745414Y-15792700D01*
X10759700Y-15806986D01*
X10773986Y-15835557D01*
X10788271Y-15892700D01*
X10788271Y-15964129D01*
X10773986Y-16021271D01*
X10759700Y-16049843D01*
X10745414Y-16064129D01*
X10716843Y-16078414D01*
X10688271Y-16078414D01*
X10659700Y-16064129D01*
X10645414Y-16049843D01*
X10631128Y-16021271D01*
X10616843Y-15964129D01*
X10616843Y-15892700D01*
X10631128Y-15835557D01*
X10645414Y-15806986D01*
X10659700Y-15792700D01*
X10688271Y-15778414D01*
X10916843Y-16078414D02*
X10916843Y-15878414D01*
X10916843Y-15906986D02*
X10931128Y-15892700D01*
X10959700Y-15878414D01*
X11002557Y-15878414D01*
X11031128Y-15892700D01*
X11045414Y-15921271D01*
X11045414Y-16078414D01*
X11045414Y-15921271D02*
X11059700Y-15892700D01*
X11088271Y-15878414D01*
X11131128Y-15878414D01*
X11159700Y-15892700D01*
X11173986Y-15921271D01*
X11173986Y-16078414D01*
X11316843Y-16078414D02*
X11316843Y-15878414D01*
X11316843Y-15906986D02*
X11331128Y-15892700D01*
X11359700Y-15878414D01*
X11402557Y-15878414D01*
X11431128Y-15892700D01*
X11445414Y-15921271D01*
X11445414Y-16078414D01*
X11445414Y-15921271D02*
X11459700Y-15892700D01*
X11488271Y-15878414D01*
X11531128Y-15878414D01*
X11559700Y-15892700D01*
X11573986Y-15921271D01*
X11573986Y-16078414D01*
X12159700Y-15764129D02*
X11902557Y-16149843D01*
X12545414Y-15778414D02*
X12573986Y-15778414D01*
X12602557Y-15792700D01*
X12616843Y-15806986D01*
X12631128Y-15835557D01*
X12645414Y-15892700D01*
X12645414Y-15964129D01*
X12631128Y-16021271D01*
X12616843Y-16049843D01*
X12602557Y-16064129D01*
X12573986Y-16078414D01*
X12545414Y-16078414D01*
X12516843Y-16064129D01*
X12502557Y-16049843D01*
X12488271Y-16021271D01*
X12473986Y-15964129D01*
X12473986Y-15892700D01*
X12488271Y-15835557D01*
X12502557Y-15806986D01*
X12516843Y-15792700D01*
X12545414Y-15778414D01*
X12773986Y-16049843D02*
X12788271Y-16064129D01*
X12773986Y-16078414D01*
X12759700Y-16064129D01*
X12773986Y-16049843D01*
X12773986Y-16078414D01*
X12973986Y-15778414D02*
X13002557Y-15778414D01*
X13031128Y-15792700D01*
X13045414Y-15806986D01*
X13059700Y-15835557D01*
X13073986Y-15892700D01*
X13073986Y-15964129D01*
X13059700Y-16021271D01*
X13045414Y-16049843D01*
X13031128Y-16064129D01*
X13002557Y-16078414D01*
X12973986Y-16078414D01*
X12945414Y-16064129D01*
X12931128Y-16049843D01*
X12916843Y-16021271D01*
X12902557Y-15964129D01*
X12902557Y-15892700D01*
X12916843Y-15835557D01*
X12931128Y-15806986D01*
X12945414Y-15792700D01*
X12973986Y-15778414D01*
X13173986Y-15778414D02*
X13359700Y-15778414D01*
X13259700Y-15892700D01*
X13302557Y-15892700D01*
X13331128Y-15906986D01*
X13345414Y-15921271D01*
X13359700Y-15949843D01*
X13359700Y-16021271D01*
X13345414Y-16049843D01*
X13331128Y-16064129D01*
X13302557Y-16078414D01*
X13216843Y-16078414D01*
X13188271Y-16064129D01*
X13173986Y-16049843D01*
X13631128Y-15778414D02*
X13488271Y-15778414D01*
X13473986Y-15921271D01*
X13488271Y-15906986D01*
X13516843Y-15892700D01*
X13588271Y-15892700D01*
X13616843Y-15906986D01*
X13631128Y-15921271D01*
X13645414Y-15949843D01*
X13645414Y-16021271D01*
X13631128Y-16049843D01*
X13616843Y-16064129D01*
X13588271Y-16078414D01*
X13516843Y-16078414D01*
X13488271Y-16064129D01*
X13473986Y-16049843D01*
X13902557Y-15878414D02*
X13902557Y-16078414D01*
X13831128Y-15764129D02*
X13759700Y-15978414D01*
X13945414Y-15978414D01*
X14045414Y-15778414D02*
X14045414Y-15835557D01*
X14159700Y-15778414D02*
X14159700Y-15835557D01*
X14602557Y-16192700D02*
X14588271Y-16178414D01*
X14559700Y-16135557D01*
X14545414Y-16106986D01*
X14531128Y-16064129D01*
X14516843Y-15992700D01*
X14516843Y-15935557D01*
X14531128Y-15864129D01*
X14545414Y-15821271D01*
X14559700Y-15792700D01*
X14588271Y-15749843D01*
X14602557Y-15735557D01*
X14702557Y-15806986D02*
X14716843Y-15792700D01*
X14745414Y-15778414D01*
X14816843Y-15778414D01*
X14845414Y-15792700D01*
X14859700Y-15806986D01*
X14873986Y-15835557D01*
X14873986Y-15864129D01*
X14859700Y-15906986D01*
X14688271Y-16078414D01*
X14873986Y-16078414D01*
X15231128Y-16078414D02*
X15231128Y-15778414D01*
X15359700Y-16078414D02*
X15359700Y-15921271D01*
X15345414Y-15892700D01*
X15316843Y-15878414D01*
X15273986Y-15878414D01*
X15245414Y-15892700D01*
X15231128Y-15906986D01*
X15545414Y-16078414D02*
X15516843Y-16064129D01*
X15502557Y-16049843D01*
X15488271Y-16021271D01*
X15488271Y-15935557D01*
X15502557Y-15906986D01*
X15516843Y-15892700D01*
X15545414Y-15878414D01*
X15588271Y-15878414D01*
X15616843Y-15892700D01*
X15631128Y-15906986D01*
X15645414Y-15935557D01*
X15645414Y-16021271D01*
X15631128Y-16049843D01*
X15616843Y-16064129D01*
X15588271Y-16078414D01*
X15545414Y-16078414D01*
X15816843Y-16078414D02*
X15788271Y-16064129D01*
X15773986Y-16035557D01*
X15773986Y-15778414D01*
X16045414Y-16064129D02*
X16016843Y-16078414D01*
X15959700Y-16078414D01*
X15931128Y-16064129D01*
X15916843Y-16035557D01*
X15916843Y-15921271D01*
X15931128Y-15892700D01*
X15959700Y-15878414D01*
X16016843Y-15878414D01*
X16045414Y-15892700D01*
X16059700Y-15921271D01*
X16059700Y-15949843D01*
X15916843Y-15978414D01*
X16173986Y-16064129D02*
X16202557Y-16078414D01*
X16259700Y-16078414D01*
X16288271Y-16064129D01*
X16302557Y-16035557D01*
X16302557Y-16021271D01*
X16288271Y-15992700D01*
X16259700Y-15978414D01*
X16216843Y-15978414D01*
X16188271Y-15964129D01*
X16173986Y-15935557D01*
X16173986Y-15921271D01*
X16188271Y-15892700D01*
X16216843Y-15878414D01*
X16259700Y-15878414D01*
X16288271Y-15892700D01*
X16402557Y-16192700D02*
X16416843Y-16178414D01*
X16445414Y-16135557D01*
X16459700Y-16106986D01*
X16473986Y-16064129D01*
X16488271Y-15992700D01*
X16488271Y-15935557D01*
X16473986Y-15864129D01*
X16459700Y-15821271D01*
X16445414Y-15792700D01*
X16416843Y-15749843D01*
X16402557Y-15735557D01*
X9294700Y-16388700D02*
X9344700Y-16338700D01*
X9294700Y-16288700D01*
X9244700Y-16338700D01*
X9294700Y-16388700D01*
X9788271Y-16474414D02*
X9616843Y-16474414D01*
X9702557Y-16474414D02*
X9702557Y-16174414D01*
X9673986Y-16217271D01*
X9645414Y-16245843D01*
X9616843Y-16260129D01*
X9916843Y-16445843D02*
X9931128Y-16460129D01*
X9916843Y-16474414D01*
X9902557Y-16460129D01*
X9916843Y-16445843D01*
X9916843Y-16474414D01*
X10116843Y-16174414D02*
X10145414Y-16174414D01*
X10173986Y-16188700D01*
X10188271Y-16202986D01*
X10202557Y-16231557D01*
X10216843Y-16288700D01*
X10216843Y-16360129D01*
X10202557Y-16417271D01*
X10188271Y-16445843D01*
X10173986Y-16460129D01*
X10145414Y-16474414D01*
X10116843Y-16474414D01*
X10088271Y-16460129D01*
X10073986Y-16445843D01*
X10059700Y-16417271D01*
X10045414Y-16360129D01*
X10045414Y-16288700D01*
X10059700Y-16231557D01*
X10073986Y-16202986D01*
X10088271Y-16188700D01*
X10116843Y-16174414D01*
X10402557Y-16174414D02*
X10431128Y-16174414D01*
X10459700Y-16188700D01*
X10473986Y-16202986D01*
X10488271Y-16231557D01*
X10502557Y-16288700D01*
X10502557Y-16360129D01*
X10488271Y-16417271D01*
X10473986Y-16445843D01*
X10459700Y-16460129D01*
X10431128Y-16474414D01*
X10402557Y-16474414D01*
X10373986Y-16460129D01*
X10359700Y-16445843D01*
X10345414Y-16417271D01*
X10331128Y-16360129D01*
X10331128Y-16288700D01*
X10345414Y-16231557D01*
X10359700Y-16202986D01*
X10373986Y-16188700D01*
X10402557Y-16174414D01*
X10688271Y-16174414D02*
X10716843Y-16174414D01*
X10745414Y-16188700D01*
X10759700Y-16202986D01*
X10773986Y-16231557D01*
X10788271Y-16288700D01*
X10788271Y-16360129D01*
X10773986Y-16417271D01*
X10759700Y-16445843D01*
X10745414Y-16460129D01*
X10716843Y-16474414D01*
X10688271Y-16474414D01*
X10659700Y-16460129D01*
X10645414Y-16445843D01*
X10631128Y-16417271D01*
X10616843Y-16360129D01*
X10616843Y-16288700D01*
X10631128Y-16231557D01*
X10645414Y-16202986D01*
X10659700Y-16188700D01*
X10688271Y-16174414D01*
X10916843Y-16474414D02*
X10916843Y-16274414D01*
X10916843Y-16302986D02*
X10931128Y-16288700D01*
X10959700Y-16274414D01*
X11002557Y-16274414D01*
X11031128Y-16288700D01*
X11045414Y-16317271D01*
X11045414Y-16474414D01*
X11045414Y-16317271D02*
X11059700Y-16288700D01*
X11088271Y-16274414D01*
X11131128Y-16274414D01*
X11159700Y-16288700D01*
X11173986Y-16317271D01*
X11173986Y-16474414D01*
X11316843Y-16474414D02*
X11316843Y-16274414D01*
X11316843Y-16302986D02*
X11331128Y-16288700D01*
X11359700Y-16274414D01*
X11402557Y-16274414D01*
X11431128Y-16288700D01*
X11445414Y-16317271D01*
X11445414Y-16474414D01*
X11445414Y-16317271D02*
X11459700Y-16288700D01*
X11488271Y-16274414D01*
X11531128Y-16274414D01*
X11559700Y-16288700D01*
X11573986Y-16317271D01*
X11573986Y-16474414D01*
X12159700Y-16160129D02*
X11902557Y-16545843D01*
X12545414Y-16174414D02*
X12573986Y-16174414D01*
X12602557Y-16188700D01*
X12616843Y-16202986D01*
X12631128Y-16231557D01*
X12645414Y-16288700D01*
X12645414Y-16360129D01*
X12631128Y-16417271D01*
X12616843Y-16445843D01*
X12602557Y-16460129D01*
X12573986Y-16474414D01*
X12545414Y-16474414D01*
X12516843Y-16460129D01*
X12502557Y-16445843D01*
X12488271Y-16417271D01*
X12473986Y-16360129D01*
X12473986Y-16288700D01*
X12488271Y-16231557D01*
X12502557Y-16202986D01*
X12516843Y-16188700D01*
X12545414Y-16174414D01*
X12773986Y-16445843D02*
X12788271Y-16460129D01*
X12773986Y-16474414D01*
X12759700Y-16460129D01*
X12773986Y-16445843D01*
X12773986Y-16474414D01*
X12973986Y-16174414D02*
X13002557Y-16174414D01*
X13031128Y-16188700D01*
X13045414Y-16202986D01*
X13059700Y-16231557D01*
X13073986Y-16288700D01*
X13073986Y-16360129D01*
X13059700Y-16417271D01*
X13045414Y-16445843D01*
X13031128Y-16460129D01*
X13002557Y-16474414D01*
X12973986Y-16474414D01*
X12945414Y-16460129D01*
X12931128Y-16445843D01*
X12916843Y-16417271D01*
X12902557Y-16360129D01*
X12902557Y-16288700D01*
X12916843Y-16231557D01*
X12931128Y-16202986D01*
X12945414Y-16188700D01*
X12973986Y-16174414D01*
X13173986Y-16174414D02*
X13359700Y-16174414D01*
X13259700Y-16288700D01*
X13302557Y-16288700D01*
X13331128Y-16302986D01*
X13345414Y-16317271D01*
X13359700Y-16345843D01*
X13359700Y-16417271D01*
X13345414Y-16445843D01*
X13331128Y-16460129D01*
X13302557Y-16474414D01*
X13216843Y-16474414D01*
X13188271Y-16460129D01*
X13173986Y-16445843D01*
X13502557Y-16474414D02*
X13559700Y-16474414D01*
X13588271Y-16460129D01*
X13602557Y-16445843D01*
X13631128Y-16402986D01*
X13645414Y-16345843D01*
X13645414Y-16231557D01*
X13631128Y-16202986D01*
X13616843Y-16188700D01*
X13588271Y-16174414D01*
X13531128Y-16174414D01*
X13502557Y-16188700D01*
X13488271Y-16202986D01*
X13473986Y-16231557D01*
X13473986Y-16302986D01*
X13488271Y-16331557D01*
X13502557Y-16345843D01*
X13531128Y-16360129D01*
X13588271Y-16360129D01*
X13616843Y-16345843D01*
X13631128Y-16331557D01*
X13645414Y-16302986D01*
X13902557Y-16274414D02*
X13902557Y-16474414D01*
X13831128Y-16160129D02*
X13759700Y-16374414D01*
X13945414Y-16374414D01*
X14045414Y-16174414D02*
X14045414Y-16231557D01*
X14159700Y-16174414D02*
X14159700Y-16231557D01*
X14602557Y-16588700D02*
X14588271Y-16574414D01*
X14559700Y-16531557D01*
X14545414Y-16502986D01*
X14531128Y-16460129D01*
X14516843Y-16388700D01*
X14516843Y-16331557D01*
X14531128Y-16260129D01*
X14545414Y-16217271D01*
X14559700Y-16188700D01*
X14588271Y-16145843D01*
X14602557Y-16131557D01*
X14731128Y-16474414D02*
X14788271Y-16474414D01*
X14816843Y-16460129D01*
X14831128Y-16445843D01*
X14859700Y-16402986D01*
X14873986Y-16345843D01*
X14873986Y-16231557D01*
X14859700Y-16202986D01*
X14845414Y-16188700D01*
X14816843Y-16174414D01*
X14759700Y-16174414D01*
X14731128Y-16188700D01*
X14716843Y-16202986D01*
X14702557Y-16231557D01*
X14702557Y-16302986D01*
X14716843Y-16331557D01*
X14731128Y-16345843D01*
X14759700Y-16360129D01*
X14816843Y-16360129D01*
X14845414Y-16345843D01*
X14859700Y-16331557D01*
X14873986Y-16302986D01*
X15231128Y-16474414D02*
X15231128Y-16174414D01*
X15359700Y-16474414D02*
X15359700Y-16317271D01*
X15345414Y-16288700D01*
X15316843Y-16274414D01*
X15273986Y-16274414D01*
X15245414Y-16288700D01*
X15231128Y-16302986D01*
X15545414Y-16474414D02*
X15516843Y-16460129D01*
X15502557Y-16445843D01*
X15488271Y-16417271D01*
X15488271Y-16331557D01*
X15502557Y-16302986D01*
X15516843Y-16288700D01*
X15545414Y-16274414D01*
X15588271Y-16274414D01*
X15616843Y-16288700D01*
X15631128Y-16302986D01*
X15645414Y-16331557D01*
X15645414Y-16417271D01*
X15631128Y-16445843D01*
X15616843Y-16460129D01*
X15588271Y-16474414D01*
X15545414Y-16474414D01*
X15816843Y-16474414D02*
X15788271Y-16460129D01*
X15773986Y-16431557D01*
X15773986Y-16174414D01*
X16045414Y-16460129D02*
X16016843Y-16474414D01*
X15959700Y-16474414D01*
X15931128Y-16460129D01*
X15916843Y-16431557D01*
X15916843Y-16317271D01*
X15931128Y-16288700D01*
X15959700Y-16274414D01*
X16016843Y-16274414D01*
X16045414Y-16288700D01*
X16059700Y-16317271D01*
X16059700Y-16345843D01*
X15916843Y-16374414D01*
X16173986Y-16460129D02*
X16202557Y-16474414D01*
X16259700Y-16474414D01*
X16288271Y-16460129D01*
X16302557Y-16431557D01*
X16302557Y-16417271D01*
X16288271Y-16388700D01*
X16259700Y-16374414D01*
X16216843Y-16374414D01*
X16188271Y-16360129D01*
X16173986Y-16331557D01*
X16173986Y-16317271D01*
X16188271Y-16288700D01*
X16216843Y-16274414D01*
X16259700Y-16274414D01*
X16288271Y-16288700D01*
X16402557Y-16588700D02*
X16416843Y-16574414D01*
X16445414Y-16531557D01*
X16459700Y-16502986D01*
X16473986Y-16460129D01*
X16488271Y-16388700D01*
X16488271Y-16331557D01*
X16473986Y-16260129D01*
X16459700Y-16217271D01*
X16445414Y-16188700D01*
X16416843Y-16145843D01*
X16402557Y-16131557D01*
X9239700Y-16682200D02*
X9344700Y-16787200D01*
X9344700Y-16682200D02*
X9239700Y-16787200D01*
X9344700Y-16734700D02*
G75*
G03*
X9344700Y-16734700I-52500J0D01*
G01*
X9788271Y-16870414D02*
X9616843Y-16870414D01*
X9702557Y-16870414D02*
X9702557Y-16570414D01*
X9673986Y-16613271D01*
X9645414Y-16641843D01*
X9616843Y-16656129D01*
X9916843Y-16841843D02*
X9931128Y-16856129D01*
X9916843Y-16870414D01*
X9902557Y-16856129D01*
X9916843Y-16841843D01*
X9916843Y-16870414D01*
X10116843Y-16570414D02*
X10145414Y-16570414D01*
X10173986Y-16584700D01*
X10188271Y-16598986D01*
X10202557Y-16627557D01*
X10216843Y-16684700D01*
X10216843Y-16756129D01*
X10202557Y-16813272D01*
X10188271Y-16841843D01*
X10173986Y-16856129D01*
X10145414Y-16870414D01*
X10116843Y-16870414D01*
X10088271Y-16856129D01*
X10073986Y-16841843D01*
X10059700Y-16813272D01*
X10045414Y-16756129D01*
X10045414Y-16684700D01*
X10059700Y-16627557D01*
X10073986Y-16598986D01*
X10088271Y-16584700D01*
X10116843Y-16570414D01*
X10488271Y-16570414D02*
X10345414Y-16570414D01*
X10331128Y-16713271D01*
X10345414Y-16698986D01*
X10373986Y-16684700D01*
X10445414Y-16684700D01*
X10473986Y-16698986D01*
X10488271Y-16713271D01*
X10502557Y-16741843D01*
X10502557Y-16813272D01*
X10488271Y-16841843D01*
X10473986Y-16856129D01*
X10445414Y-16870414D01*
X10373986Y-16870414D01*
X10345414Y-16856129D01*
X10331128Y-16841843D01*
X10688271Y-16570414D02*
X10716843Y-16570414D01*
X10745414Y-16584700D01*
X10759700Y-16598986D01*
X10773986Y-16627557D01*
X10788271Y-16684700D01*
X10788271Y-16756129D01*
X10773986Y-16813272D01*
X10759700Y-16841843D01*
X10745414Y-16856129D01*
X10716843Y-16870414D01*
X10688271Y-16870414D01*
X10659700Y-16856129D01*
X10645414Y-16841843D01*
X10631128Y-16813272D01*
X10616843Y-16756129D01*
X10616843Y-16684700D01*
X10631128Y-16627557D01*
X10645414Y-16598986D01*
X10659700Y-16584700D01*
X10688271Y-16570414D01*
X10916843Y-16870414D02*
X10916843Y-16670414D01*
X10916843Y-16698986D02*
X10931128Y-16684700D01*
X10959700Y-16670414D01*
X11002557Y-16670414D01*
X11031128Y-16684700D01*
X11045414Y-16713271D01*
X11045414Y-16870414D01*
X11045414Y-16713271D02*
X11059700Y-16684700D01*
X11088271Y-16670414D01*
X11131128Y-16670414D01*
X11159700Y-16684700D01*
X11173986Y-16713271D01*
X11173986Y-16870414D01*
X11316843Y-16870414D02*
X11316843Y-16670414D01*
X11316843Y-16698986D02*
X11331128Y-16684700D01*
X11359700Y-16670414D01*
X11402557Y-16670414D01*
X11431128Y-16684700D01*
X11445414Y-16713271D01*
X11445414Y-16870414D01*
X11445414Y-16713271D02*
X11459700Y-16684700D01*
X11488271Y-16670414D01*
X11531128Y-16670414D01*
X11559700Y-16684700D01*
X11573986Y-16713271D01*
X11573986Y-16870414D01*
X12159700Y-16556129D02*
X11902557Y-16941843D01*
X12545414Y-16570414D02*
X12573986Y-16570414D01*
X12602557Y-16584700D01*
X12616843Y-16598986D01*
X12631128Y-16627557D01*
X12645414Y-16684700D01*
X12645414Y-16756129D01*
X12631128Y-16813272D01*
X12616843Y-16841843D01*
X12602557Y-16856129D01*
X12573986Y-16870414D01*
X12545414Y-16870414D01*
X12516843Y-16856129D01*
X12502557Y-16841843D01*
X12488271Y-16813272D01*
X12473986Y-16756129D01*
X12473986Y-16684700D01*
X12488271Y-16627557D01*
X12502557Y-16598986D01*
X12516843Y-16584700D01*
X12545414Y-16570414D01*
X12773986Y-16841843D02*
X12788271Y-16856129D01*
X12773986Y-16870414D01*
X12759700Y-16856129D01*
X12773986Y-16841843D01*
X12773986Y-16870414D01*
X12973986Y-16570414D02*
X13002557Y-16570414D01*
X13031128Y-16584700D01*
X13045414Y-16598986D01*
X13059700Y-16627557D01*
X13073986Y-16684700D01*
X13073986Y-16756129D01*
X13059700Y-16813272D01*
X13045414Y-16841843D01*
X13031128Y-16856129D01*
X13002557Y-16870414D01*
X12973986Y-16870414D01*
X12945414Y-16856129D01*
X12931128Y-16841843D01*
X12916843Y-16813272D01*
X12902557Y-16756129D01*
X12902557Y-16684700D01*
X12916843Y-16627557D01*
X12931128Y-16598986D01*
X12945414Y-16584700D01*
X12973986Y-16570414D01*
X13331128Y-16670414D02*
X13331128Y-16870414D01*
X13259700Y-16556129D02*
X13188271Y-16770414D01*
X13373986Y-16770414D01*
X13645414Y-16870414D02*
X13473986Y-16870414D01*
X13559700Y-16870414D02*
X13559700Y-16570414D01*
X13531128Y-16613271D01*
X13502557Y-16641843D01*
X13473986Y-16656129D01*
X13745414Y-16570414D02*
X13931128Y-16570414D01*
X13831128Y-16684700D01*
X13873986Y-16684700D01*
X13902557Y-16698986D01*
X13916843Y-16713271D01*
X13931128Y-16741843D01*
X13931128Y-16813272D01*
X13916843Y-16841843D01*
X13902557Y-16856129D01*
X13873986Y-16870414D01*
X13788271Y-16870414D01*
X13759700Y-16856129D01*
X13745414Y-16841843D01*
X14045414Y-16570414D02*
X14045414Y-16627557D01*
X14159700Y-16570414D02*
X14159700Y-16627557D01*
X14602557Y-16984700D02*
X14588271Y-16970414D01*
X14559700Y-16927557D01*
X14545414Y-16898986D01*
X14531128Y-16856129D01*
X14516843Y-16784700D01*
X14516843Y-16727557D01*
X14531128Y-16656129D01*
X14545414Y-16613271D01*
X14559700Y-16584700D01*
X14588271Y-16541843D01*
X14602557Y-16527557D01*
X14702557Y-16598986D02*
X14716843Y-16584700D01*
X14745414Y-16570414D01*
X14816843Y-16570414D01*
X14845414Y-16584700D01*
X14859700Y-16598986D01*
X14873986Y-16627557D01*
X14873986Y-16656129D01*
X14859700Y-16698986D01*
X14688271Y-16870414D01*
X14873986Y-16870414D01*
X15231128Y-16870414D02*
X15231128Y-16570414D01*
X15359700Y-16870414D02*
X15359700Y-16713271D01*
X15345414Y-16684700D01*
X15316843Y-16670414D01*
X15273986Y-16670414D01*
X15245414Y-16684700D01*
X15231128Y-16698986D01*
X15545414Y-16870414D02*
X15516843Y-16856129D01*
X15502557Y-16841843D01*
X15488271Y-16813272D01*
X15488271Y-16727557D01*
X15502557Y-16698986D01*
X15516843Y-16684700D01*
X15545414Y-16670414D01*
X15588271Y-16670414D01*
X15616843Y-16684700D01*
X15631128Y-16698986D01*
X15645414Y-16727557D01*
X15645414Y-16813272D01*
X15631128Y-16841843D01*
X15616843Y-16856129D01*
X15588271Y-16870414D01*
X15545414Y-16870414D01*
X15816843Y-16870414D02*
X15788271Y-16856129D01*
X15773986Y-16827557D01*
X15773986Y-16570414D01*
X16045414Y-16856129D02*
X16016843Y-16870414D01*
X15959700Y-16870414D01*
X15931128Y-16856129D01*
X15916843Y-16827557D01*
X15916843Y-16713271D01*
X15931128Y-16684700D01*
X15959700Y-16670414D01*
X16016843Y-16670414D01*
X16045414Y-16684700D01*
X16059700Y-16713271D01*
X16059700Y-16741843D01*
X15916843Y-16770414D01*
X16173986Y-16856129D02*
X16202557Y-16870414D01*
X16259700Y-16870414D01*
X16288271Y-16856129D01*
X16302557Y-16827557D01*
X16302557Y-16813272D01*
X16288271Y-16784700D01*
X16259700Y-16770414D01*
X16216843Y-16770414D01*
X16188271Y-16756129D01*
X16173986Y-16727557D01*
X16173986Y-16713271D01*
X16188271Y-16684700D01*
X16216843Y-16670414D01*
X16259700Y-16670414D01*
X16288271Y-16684700D01*
X16402557Y-16984700D02*
X16416843Y-16970414D01*
X16445414Y-16927557D01*
X16459700Y-16898986D01*
X16473986Y-16856129D01*
X16488271Y-16784700D01*
X16488271Y-16727557D01*
X16473986Y-16656129D01*
X16459700Y-16613271D01*
X16445414Y-16584700D01*
X16416843Y-16541843D01*
X16402557Y-16527557D01*
X9215160Y-17065930D02*
X9344700Y-17195470D01*
X9344700Y-17065930D02*
X9215160Y-17195470D01*
X9279930Y-17065930D02*
X9279930Y-17195470D01*
X9215160Y-17130700D02*
X9344700Y-17130700D01*
X9788271Y-17266414D02*
X9616843Y-17266414D01*
X9702557Y-17266414D02*
X9702557Y-16966414D01*
X9673986Y-17009272D01*
X9645414Y-17037843D01*
X9616843Y-17052129D01*
X9916843Y-17237843D02*
X9931128Y-17252129D01*
X9916843Y-17266414D01*
X9902557Y-17252129D01*
X9916843Y-17237843D01*
X9916843Y-17266414D01*
X10045414Y-16994986D02*
X10059700Y-16980700D01*
X10088271Y-16966414D01*
X10159700Y-16966414D01*
X10188271Y-16980700D01*
X10202557Y-16994986D01*
X10216843Y-17023557D01*
X10216843Y-17052129D01*
X10202557Y-17094986D01*
X10031128Y-17266414D01*
X10216843Y-17266414D01*
X10359700Y-17266414D02*
X10416843Y-17266414D01*
X10445414Y-17252129D01*
X10459700Y-17237843D01*
X10488271Y-17194986D01*
X10502557Y-17137843D01*
X10502557Y-17023557D01*
X10488271Y-16994986D01*
X10473986Y-16980700D01*
X10445414Y-16966414D01*
X10388271Y-16966414D01*
X10359700Y-16980700D01*
X10345414Y-16994986D01*
X10331128Y-17023557D01*
X10331128Y-17094986D01*
X10345414Y-17123557D01*
X10359700Y-17137843D01*
X10388271Y-17152129D01*
X10445414Y-17152129D01*
X10473986Y-17137843D01*
X10488271Y-17123557D01*
X10502557Y-17094986D01*
X10773986Y-16966414D02*
X10631128Y-16966414D01*
X10616843Y-17109272D01*
X10631128Y-17094986D01*
X10659700Y-17080700D01*
X10731128Y-17080700D01*
X10759700Y-17094986D01*
X10773986Y-17109272D01*
X10788271Y-17137843D01*
X10788271Y-17209272D01*
X10773986Y-17237843D01*
X10759700Y-17252129D01*
X10731128Y-17266414D01*
X10659700Y-17266414D01*
X10631128Y-17252129D01*
X10616843Y-17237843D01*
X10916843Y-17266414D02*
X10916843Y-17066414D01*
X10916843Y-17094986D02*
X10931128Y-17080700D01*
X10959700Y-17066414D01*
X11002557Y-17066414D01*
X11031128Y-17080700D01*
X11045414Y-17109272D01*
X11045414Y-17266414D01*
X11045414Y-17109272D02*
X11059700Y-17080700D01*
X11088271Y-17066414D01*
X11131128Y-17066414D01*
X11159700Y-17080700D01*
X11173986Y-17109272D01*
X11173986Y-17266414D01*
X11316843Y-17266414D02*
X11316843Y-17066414D01*
X11316843Y-17094986D02*
X11331128Y-17080700D01*
X11359700Y-17066414D01*
X11402557Y-17066414D01*
X11431128Y-17080700D01*
X11445414Y-17109272D01*
X11445414Y-17266414D01*
X11445414Y-17109272D02*
X11459700Y-17080700D01*
X11488271Y-17066414D01*
X11531128Y-17066414D01*
X11559700Y-17080700D01*
X11573986Y-17109272D01*
X11573986Y-17266414D01*
X12159700Y-16952129D02*
X11902557Y-17337843D01*
X12545414Y-16966414D02*
X12573986Y-16966414D01*
X12602557Y-16980700D01*
X12616843Y-16994986D01*
X12631128Y-17023557D01*
X12645414Y-17080700D01*
X12645414Y-17152129D01*
X12631128Y-17209272D01*
X12616843Y-17237843D01*
X12602557Y-17252129D01*
X12573986Y-17266414D01*
X12545414Y-17266414D01*
X12516843Y-17252129D01*
X12502557Y-17237843D01*
X12488271Y-17209272D01*
X12473986Y-17152129D01*
X12473986Y-17080700D01*
X12488271Y-17023557D01*
X12502557Y-16994986D01*
X12516843Y-16980700D01*
X12545414Y-16966414D01*
X12773986Y-17237843D02*
X12788271Y-17252129D01*
X12773986Y-17266414D01*
X12759700Y-17252129D01*
X12773986Y-17237843D01*
X12773986Y-17266414D01*
X12973986Y-16966414D02*
X13002557Y-16966414D01*
X13031128Y-16980700D01*
X13045414Y-16994986D01*
X13059700Y-17023557D01*
X13073986Y-17080700D01*
X13073986Y-17152129D01*
X13059700Y-17209272D01*
X13045414Y-17237843D01*
X13031128Y-17252129D01*
X13002557Y-17266414D01*
X12973986Y-17266414D01*
X12945414Y-17252129D01*
X12931128Y-17237843D01*
X12916843Y-17209272D01*
X12902557Y-17152129D01*
X12902557Y-17080700D01*
X12916843Y-17023557D01*
X12931128Y-16994986D01*
X12945414Y-16980700D01*
X12973986Y-16966414D01*
X13345414Y-16966414D02*
X13202557Y-16966414D01*
X13188271Y-17109272D01*
X13202557Y-17094986D01*
X13231128Y-17080700D01*
X13302557Y-17080700D01*
X13331128Y-17094986D01*
X13345414Y-17109272D01*
X13359700Y-17137843D01*
X13359700Y-17209272D01*
X13345414Y-17237843D01*
X13331128Y-17252129D01*
X13302557Y-17266414D01*
X13231128Y-17266414D01*
X13202557Y-17252129D01*
X13188271Y-17237843D01*
X13645414Y-17266414D02*
X13473986Y-17266414D01*
X13559700Y-17266414D02*
X13559700Y-16966414D01*
X13531128Y-17009272D01*
X13502557Y-17037843D01*
X13473986Y-17052129D01*
X13831128Y-16966414D02*
X13859700Y-16966414D01*
X13888271Y-16980700D01*
X13902557Y-16994986D01*
X13916843Y-17023557D01*
X13931128Y-17080700D01*
X13931128Y-17152129D01*
X13916843Y-17209272D01*
X13902557Y-17237843D01*
X13888271Y-17252129D01*
X13859700Y-17266414D01*
X13831128Y-17266414D01*
X13802557Y-17252129D01*
X13788271Y-17237843D01*
X13773986Y-17209272D01*
X13759700Y-17152129D01*
X13759700Y-17080700D01*
X13773986Y-17023557D01*
X13788271Y-16994986D01*
X13802557Y-16980700D01*
X13831128Y-16966414D01*
X14045414Y-16966414D02*
X14045414Y-17023557D01*
X14159700Y-16966414D02*
X14159700Y-17023557D01*
X14602557Y-17380700D02*
X14588271Y-17366414D01*
X14559700Y-17323557D01*
X14545414Y-17294986D01*
X14531128Y-17252129D01*
X14516843Y-17180700D01*
X14516843Y-17123557D01*
X14531128Y-17052129D01*
X14545414Y-17009272D01*
X14559700Y-16980700D01*
X14588271Y-16937843D01*
X14602557Y-16923557D01*
X14845414Y-16966414D02*
X14788271Y-16966414D01*
X14759700Y-16980700D01*
X14745414Y-16994986D01*
X14716843Y-17037843D01*
X14702557Y-17094986D01*
X14702557Y-17209272D01*
X14716843Y-17237843D01*
X14731128Y-17252129D01*
X14759700Y-17266414D01*
X14816843Y-17266414D01*
X14845414Y-17252129D01*
X14859700Y-17237843D01*
X14873986Y-17209272D01*
X14873986Y-17137843D01*
X14859700Y-17109272D01*
X14845414Y-17094986D01*
X14816843Y-17080700D01*
X14759700Y-17080700D01*
X14731128Y-17094986D01*
X14716843Y-17109272D01*
X14702557Y-17137843D01*
X15231128Y-17266414D02*
X15231128Y-16966414D01*
X15359700Y-17266414D02*
X15359700Y-17109272D01*
X15345414Y-17080700D01*
X15316843Y-17066414D01*
X15273986Y-17066414D01*
X15245414Y-17080700D01*
X15231128Y-17094986D01*
X15545414Y-17266414D02*
X15516843Y-17252129D01*
X15502557Y-17237843D01*
X15488271Y-17209272D01*
X15488271Y-17123557D01*
X15502557Y-17094986D01*
X15516843Y-17080700D01*
X15545414Y-17066414D01*
X15588271Y-17066414D01*
X15616843Y-17080700D01*
X15631128Y-17094986D01*
X15645414Y-17123557D01*
X15645414Y-17209272D01*
X15631128Y-17237843D01*
X15616843Y-17252129D01*
X15588271Y-17266414D01*
X15545414Y-17266414D01*
X15816843Y-17266414D02*
X15788271Y-17252129D01*
X15773986Y-17223557D01*
X15773986Y-16966414D01*
X16045414Y-17252129D02*
X16016843Y-17266414D01*
X15959700Y-17266414D01*
X15931128Y-17252129D01*
X15916843Y-17223557D01*
X15916843Y-17109272D01*
X15931128Y-17080700D01*
X15959700Y-17066414D01*
X16016843Y-17066414D01*
X16045414Y-17080700D01*
X16059700Y-17109272D01*
X16059700Y-17137843D01*
X15916843Y-17166414D01*
X16173986Y-17252129D02*
X16202557Y-17266414D01*
X16259700Y-17266414D01*
X16288271Y-17252129D01*
X16302557Y-17223557D01*
X16302557Y-17209272D01*
X16288271Y-17180700D01*
X16259700Y-17166414D01*
X16216843Y-17166414D01*
X16188271Y-17152129D01*
X16173986Y-17123557D01*
X16173986Y-17109272D01*
X16188271Y-17080700D01*
X16216843Y-17066414D01*
X16259700Y-17066414D01*
X16288271Y-17080700D01*
X16402557Y-17380700D02*
X16416843Y-17366414D01*
X16445414Y-17323557D01*
X16459700Y-17294986D01*
X16473986Y-17252129D01*
X16488271Y-17180700D01*
X16488271Y-17123557D01*
X16473986Y-17052129D01*
X16459700Y-17009272D01*
X16445414Y-16980700D01*
X16416843Y-16937843D01*
X16402557Y-16923557D01*
X9194700Y-17451700D02*
X9344700Y-17601700D01*
X9344700Y-17451700D02*
X9194700Y-17601700D01*
X9322733Y-17579734D02*
X9322733Y-17473667D01*
X9216666Y-17473667D01*
X9216666Y-17579734D01*
X9322733Y-17579734D01*
X9788271Y-17662414D02*
X9616843Y-17662414D01*
X9702557Y-17662414D02*
X9702557Y-17362414D01*
X9673986Y-17405272D01*
X9645414Y-17433843D01*
X9616843Y-17448129D01*
X9916843Y-17633843D02*
X9931128Y-17648129D01*
X9916843Y-17662414D01*
X9902557Y-17648129D01*
X9916843Y-17633843D01*
X9916843Y-17662414D01*
X10202557Y-17362414D02*
X10059700Y-17362414D01*
X10045414Y-17505272D01*
X10059700Y-17490986D01*
X10088271Y-17476700D01*
X10159700Y-17476700D01*
X10188271Y-17490986D01*
X10202557Y-17505272D01*
X10216843Y-17533843D01*
X10216843Y-17605272D01*
X10202557Y-17633843D01*
X10188271Y-17648129D01*
X10159700Y-17662414D01*
X10088271Y-17662414D01*
X10059700Y-17648129D01*
X10045414Y-17633843D01*
X10402557Y-17362414D02*
X10431128Y-17362414D01*
X10459700Y-17376700D01*
X10473986Y-17390986D01*
X10488271Y-17419557D01*
X10502557Y-17476700D01*
X10502557Y-17548129D01*
X10488271Y-17605272D01*
X10473986Y-17633843D01*
X10459700Y-17648129D01*
X10431128Y-17662414D01*
X10402557Y-17662414D01*
X10373986Y-17648129D01*
X10359700Y-17633843D01*
X10345414Y-17605272D01*
X10331128Y-17548129D01*
X10331128Y-17476700D01*
X10345414Y-17419557D01*
X10359700Y-17390986D01*
X10373986Y-17376700D01*
X10402557Y-17362414D01*
X10688271Y-17362414D02*
X10716843Y-17362414D01*
X10745414Y-17376700D01*
X10759700Y-17390986D01*
X10773986Y-17419557D01*
X10788271Y-17476700D01*
X10788271Y-17548129D01*
X10773986Y-17605272D01*
X10759700Y-17633843D01*
X10745414Y-17648129D01*
X10716843Y-17662414D01*
X10688271Y-17662414D01*
X10659700Y-17648129D01*
X10645414Y-17633843D01*
X10631128Y-17605272D01*
X10616843Y-17548129D01*
X10616843Y-17476700D01*
X10631128Y-17419557D01*
X10645414Y-17390986D01*
X10659700Y-17376700D01*
X10688271Y-17362414D01*
X10916843Y-17662414D02*
X10916843Y-17462414D01*
X10916843Y-17490986D02*
X10931128Y-17476700D01*
X10959700Y-17462414D01*
X11002557Y-17462414D01*
X11031128Y-17476700D01*
X11045414Y-17505272D01*
X11045414Y-17662414D01*
X11045414Y-17505272D02*
X11059700Y-17476700D01*
X11088271Y-17462414D01*
X11131128Y-17462414D01*
X11159700Y-17476700D01*
X11173986Y-17505272D01*
X11173986Y-17662414D01*
X11316843Y-17662414D02*
X11316843Y-17462414D01*
X11316843Y-17490986D02*
X11331128Y-17476700D01*
X11359700Y-17462414D01*
X11402557Y-17462414D01*
X11431128Y-17476700D01*
X11445414Y-17505272D01*
X11445414Y-17662414D01*
X11445414Y-17505272D02*
X11459700Y-17476700D01*
X11488271Y-17462414D01*
X11531128Y-17462414D01*
X11559700Y-17476700D01*
X11573986Y-17505272D01*
X11573986Y-17662414D01*
X12159700Y-17348129D02*
X11902557Y-17733843D01*
X12545414Y-17362414D02*
X12573986Y-17362414D01*
X12602557Y-17376700D01*
X12616843Y-17390986D01*
X12631128Y-17419557D01*
X12645414Y-17476700D01*
X12645414Y-17548129D01*
X12631128Y-17605272D01*
X12616843Y-17633843D01*
X12602557Y-17648129D01*
X12573986Y-17662414D01*
X12545414Y-17662414D01*
X12516843Y-17648129D01*
X12502557Y-17633843D01*
X12488271Y-17605272D01*
X12473986Y-17548129D01*
X12473986Y-17476700D01*
X12488271Y-17419557D01*
X12502557Y-17390986D01*
X12516843Y-17376700D01*
X12545414Y-17362414D01*
X12773986Y-17633843D02*
X12788271Y-17648129D01*
X12773986Y-17662414D01*
X12759700Y-17648129D01*
X12773986Y-17633843D01*
X12773986Y-17662414D01*
X12973986Y-17362414D02*
X13002557Y-17362414D01*
X13031128Y-17376700D01*
X13045414Y-17390986D01*
X13059700Y-17419557D01*
X13073986Y-17476700D01*
X13073986Y-17548129D01*
X13059700Y-17605272D01*
X13045414Y-17633843D01*
X13031128Y-17648129D01*
X13002557Y-17662414D01*
X12973986Y-17662414D01*
X12945414Y-17648129D01*
X12931128Y-17633843D01*
X12916843Y-17605272D01*
X12902557Y-17548129D01*
X12902557Y-17476700D01*
X12916843Y-17419557D01*
X12931128Y-17390986D01*
X12945414Y-17376700D01*
X12973986Y-17362414D01*
X13345414Y-17362414D02*
X13202557Y-17362414D01*
X13188271Y-17505272D01*
X13202557Y-17490986D01*
X13231128Y-17476700D01*
X13302557Y-17476700D01*
X13331128Y-17490986D01*
X13345414Y-17505272D01*
X13359700Y-17533843D01*
X13359700Y-17605272D01*
X13345414Y-17633843D01*
X13331128Y-17648129D01*
X13302557Y-17662414D01*
X13231128Y-17662414D01*
X13202557Y-17648129D01*
X13188271Y-17633843D01*
X13502557Y-17662414D02*
X13559700Y-17662414D01*
X13588271Y-17648129D01*
X13602557Y-17633843D01*
X13631128Y-17590986D01*
X13645414Y-17533843D01*
X13645414Y-17419557D01*
X13631128Y-17390986D01*
X13616843Y-17376700D01*
X13588271Y-17362414D01*
X13531128Y-17362414D01*
X13502557Y-17376700D01*
X13488271Y-17390986D01*
X13473986Y-17419557D01*
X13473986Y-17490986D01*
X13488271Y-17519557D01*
X13502557Y-17533843D01*
X13531128Y-17548129D01*
X13588271Y-17548129D01*
X13616843Y-17533843D01*
X13631128Y-17519557D01*
X13645414Y-17490986D01*
X13931128Y-17662414D02*
X13759700Y-17662414D01*
X13845414Y-17662414D02*
X13845414Y-17362414D01*
X13816843Y-17405272D01*
X13788271Y-17433843D01*
X13759700Y-17448129D01*
X14045414Y-17362414D02*
X14045414Y-17419557D01*
X14159700Y-17362414D02*
X14159700Y-17419557D01*
X14602557Y-17776700D02*
X14588271Y-17762414D01*
X14559700Y-17719557D01*
X14545414Y-17690986D01*
X14531128Y-17648129D01*
X14516843Y-17576700D01*
X14516843Y-17519557D01*
X14531128Y-17448129D01*
X14545414Y-17405272D01*
X14559700Y-17376700D01*
X14588271Y-17333843D01*
X14602557Y-17319557D01*
X14702557Y-17390986D02*
X14716843Y-17376700D01*
X14745414Y-17362414D01*
X14816843Y-17362414D01*
X14845414Y-17376700D01*
X14859700Y-17390986D01*
X14873986Y-17419557D01*
X14873986Y-17448129D01*
X14859700Y-17490986D01*
X14688271Y-17662414D01*
X14873986Y-17662414D01*
X15231128Y-17662414D02*
X15231128Y-17362414D01*
X15359700Y-17662414D02*
X15359700Y-17505272D01*
X15345414Y-17476700D01*
X15316843Y-17462414D01*
X15273986Y-17462414D01*
X15245414Y-17476700D01*
X15231128Y-17490986D01*
X15545414Y-17662414D02*
X15516843Y-17648129D01*
X15502557Y-17633843D01*
X15488271Y-17605272D01*
X15488271Y-17519557D01*
X15502557Y-17490986D01*
X15516843Y-17476700D01*
X15545414Y-17462414D01*
X15588271Y-17462414D01*
X15616843Y-17476700D01*
X15631128Y-17490986D01*
X15645414Y-17519557D01*
X15645414Y-17605272D01*
X15631128Y-17633843D01*
X15616843Y-17648129D01*
X15588271Y-17662414D01*
X15545414Y-17662414D01*
X15816843Y-17662414D02*
X15788271Y-17648129D01*
X15773986Y-17619557D01*
X15773986Y-17362414D01*
X16045414Y-17648129D02*
X16016843Y-17662414D01*
X15959700Y-17662414D01*
X15931128Y-17648129D01*
X15916843Y-17619557D01*
X15916843Y-17505272D01*
X15931128Y-17476700D01*
X15959700Y-17462414D01*
X16016843Y-17462414D01*
X16045414Y-17476700D01*
X16059700Y-17505272D01*
X16059700Y-17533843D01*
X15916843Y-17562414D01*
X16173986Y-17648129D02*
X16202557Y-17662414D01*
X16259700Y-17662414D01*
X16288271Y-17648129D01*
X16302557Y-17619557D01*
X16302557Y-17605272D01*
X16288271Y-17576700D01*
X16259700Y-17562414D01*
X16216843Y-17562414D01*
X16188271Y-17548129D01*
X16173986Y-17519557D01*
X16173986Y-17505272D01*
X16188271Y-17476700D01*
X16216843Y-17462414D01*
X16259700Y-17462414D01*
X16288271Y-17476700D01*
X16402557Y-17776700D02*
X16416843Y-17762414D01*
X16445414Y-17719557D01*
X16459700Y-17690986D01*
X16473986Y-17648129D01*
X16488271Y-17576700D01*
X16488271Y-17519557D01*
X16473986Y-17448129D01*
X16459700Y-17405272D01*
X16445414Y-17376700D01*
X16416843Y-17333843D01*
X16402557Y-17319557D01*
X9144040Y-17822370D02*
X9344700Y-18023030D01*
X9344700Y-17822370D02*
X9144040Y-18023030D01*
X9244370Y-18023030D02*
X9344700Y-17922700D01*
X9244370Y-17822370D01*
X9144040Y-17922700D01*
X9244370Y-18023030D01*
X9616843Y-17786986D02*
X9631128Y-17772700D01*
X9659700Y-17758414D01*
X9731128Y-17758414D01*
X9759700Y-17772700D01*
X9773986Y-17786986D01*
X9788271Y-17815557D01*
X9788271Y-17844129D01*
X9773986Y-17886986D01*
X9602557Y-18058414D01*
X9788271Y-18058414D01*
X9916843Y-18029843D02*
X9931128Y-18044129D01*
X9916843Y-18058414D01*
X9902557Y-18044129D01*
X9916843Y-18029843D01*
X9916843Y-18058414D01*
X10116843Y-17758414D02*
X10145414Y-17758414D01*
X10173986Y-17772700D01*
X10188271Y-17786986D01*
X10202557Y-17815557D01*
X10216843Y-17872700D01*
X10216843Y-17944129D01*
X10202557Y-18001272D01*
X10188271Y-18029843D01*
X10173986Y-18044129D01*
X10145414Y-18058414D01*
X10116843Y-18058414D01*
X10088271Y-18044129D01*
X10073986Y-18029843D01*
X10059700Y-18001272D01*
X10045414Y-17944129D01*
X10045414Y-17872700D01*
X10059700Y-17815557D01*
X10073986Y-17786986D01*
X10088271Y-17772700D01*
X10116843Y-17758414D01*
X10402557Y-17758414D02*
X10431128Y-17758414D01*
X10459700Y-17772700D01*
X10473986Y-17786986D01*
X10488271Y-17815557D01*
X10502557Y-17872700D01*
X10502557Y-17944129D01*
X10488271Y-18001272D01*
X10473986Y-18029843D01*
X10459700Y-18044129D01*
X10431128Y-18058414D01*
X10402557Y-18058414D01*
X10373986Y-18044129D01*
X10359700Y-18029843D01*
X10345414Y-18001272D01*
X10331128Y-17944129D01*
X10331128Y-17872700D01*
X10345414Y-17815557D01*
X10359700Y-17786986D01*
X10373986Y-17772700D01*
X10402557Y-17758414D01*
X10602557Y-17758414D02*
X10802557Y-17758414D01*
X10673986Y-18058414D01*
X10916843Y-18058414D02*
X10916843Y-17858414D01*
X10916843Y-17886986D02*
X10931128Y-17872700D01*
X10959700Y-17858414D01*
X11002557Y-17858414D01*
X11031128Y-17872700D01*
X11045414Y-17901272D01*
X11045414Y-18058414D01*
X11045414Y-17901272D02*
X11059700Y-17872700D01*
X11088271Y-17858414D01*
X11131128Y-17858414D01*
X11159700Y-17872700D01*
X11173986Y-17901272D01*
X11173986Y-18058414D01*
X11316843Y-18058414D02*
X11316843Y-17858414D01*
X11316843Y-17886986D02*
X11331128Y-17872700D01*
X11359700Y-17858414D01*
X11402557Y-17858414D01*
X11431128Y-17872700D01*
X11445414Y-17901272D01*
X11445414Y-18058414D01*
X11445414Y-17901272D02*
X11459700Y-17872700D01*
X11488271Y-17858414D01*
X11531128Y-17858414D01*
X11559700Y-17872700D01*
X11573986Y-17901272D01*
X11573986Y-18058414D01*
X12159700Y-17744129D02*
X11902557Y-18129843D01*
X12545414Y-17758414D02*
X12573986Y-17758414D01*
X12602557Y-17772700D01*
X12616843Y-17786986D01*
X12631128Y-17815557D01*
X12645414Y-17872700D01*
X12645414Y-17944129D01*
X12631128Y-18001272D01*
X12616843Y-18029843D01*
X12602557Y-18044129D01*
X12573986Y-18058414D01*
X12545414Y-18058414D01*
X12516843Y-18044129D01*
X12502557Y-18029843D01*
X12488271Y-18001272D01*
X12473986Y-17944129D01*
X12473986Y-17872700D01*
X12488271Y-17815557D01*
X12502557Y-17786986D01*
X12516843Y-17772700D01*
X12545414Y-17758414D01*
X12773986Y-18029843D02*
X12788271Y-18044129D01*
X12773986Y-18058414D01*
X12759700Y-18044129D01*
X12773986Y-18029843D01*
X12773986Y-18058414D01*
X12973986Y-17758414D02*
X13002557Y-17758414D01*
X13031128Y-17772700D01*
X13045414Y-17786986D01*
X13059700Y-17815557D01*
X13073986Y-17872700D01*
X13073986Y-17944129D01*
X13059700Y-18001272D01*
X13045414Y-18029843D01*
X13031128Y-18044129D01*
X13002557Y-18058414D01*
X12973986Y-18058414D01*
X12945414Y-18044129D01*
X12931128Y-18029843D01*
X12916843Y-18001272D01*
X12902557Y-17944129D01*
X12902557Y-17872700D01*
X12916843Y-17815557D01*
X12931128Y-17786986D01*
X12945414Y-17772700D01*
X12973986Y-17758414D01*
X13173986Y-17758414D02*
X13373986Y-17758414D01*
X13245414Y-18058414D01*
X13502557Y-18058414D02*
X13559700Y-18058414D01*
X13588271Y-18044129D01*
X13602557Y-18029843D01*
X13631128Y-17986986D01*
X13645414Y-17929843D01*
X13645414Y-17815557D01*
X13631128Y-17786986D01*
X13616843Y-17772700D01*
X13588271Y-17758414D01*
X13531128Y-17758414D01*
X13502557Y-17772700D01*
X13488271Y-17786986D01*
X13473986Y-17815557D01*
X13473986Y-17886986D01*
X13488271Y-17915557D01*
X13502557Y-17929843D01*
X13531128Y-17944129D01*
X13588271Y-17944129D01*
X13616843Y-17929843D01*
X13631128Y-17915557D01*
X13645414Y-17886986D01*
X13831128Y-17758414D02*
X13859700Y-17758414D01*
X13888271Y-17772700D01*
X13902557Y-17786986D01*
X13916843Y-17815557D01*
X13931128Y-17872700D01*
X13931128Y-17944129D01*
X13916843Y-18001272D01*
X13902557Y-18029843D01*
X13888271Y-18044129D01*
X13859700Y-18058414D01*
X13831128Y-18058414D01*
X13802557Y-18044129D01*
X13788271Y-18029843D01*
X13773986Y-18001272D01*
X13759700Y-17944129D01*
X13759700Y-17872700D01*
X13773986Y-17815557D01*
X13788271Y-17786986D01*
X13802557Y-17772700D01*
X13831128Y-17758414D01*
X14045414Y-17758414D02*
X14045414Y-17815557D01*
X14159700Y-17758414D02*
X14159700Y-17815557D01*
X14602557Y-18172700D02*
X14588271Y-18158414D01*
X14559700Y-18115557D01*
X14545414Y-18086986D01*
X14531128Y-18044129D01*
X14516843Y-17972700D01*
X14516843Y-17915557D01*
X14531128Y-17844129D01*
X14545414Y-17801272D01*
X14559700Y-17772700D01*
X14588271Y-17729843D01*
X14602557Y-17715557D01*
X14845414Y-17858414D02*
X14845414Y-18058414D01*
X14773986Y-17744129D02*
X14702557Y-17958414D01*
X14888271Y-17958414D01*
X15231128Y-18058414D02*
X15231128Y-17758414D01*
X15359700Y-18058414D02*
X15359700Y-17901272D01*
X15345414Y-17872700D01*
X15316843Y-17858414D01*
X15273986Y-17858414D01*
X15245414Y-17872700D01*
X15231128Y-17886986D01*
X15545414Y-18058414D02*
X15516843Y-18044129D01*
X15502557Y-18029843D01*
X15488271Y-18001272D01*
X15488271Y-17915557D01*
X15502557Y-17886986D01*
X15516843Y-17872700D01*
X15545414Y-17858414D01*
X15588271Y-17858414D01*
X15616843Y-17872700D01*
X15631128Y-17886986D01*
X15645414Y-17915557D01*
X15645414Y-18001272D01*
X15631128Y-18029843D01*
X15616843Y-18044129D01*
X15588271Y-18058414D01*
X15545414Y-18058414D01*
X15816843Y-18058414D02*
X15788271Y-18044129D01*
X15773986Y-18015557D01*
X15773986Y-17758414D01*
X16045414Y-18044129D02*
X16016843Y-18058414D01*
X15959700Y-18058414D01*
X15931128Y-18044129D01*
X15916843Y-18015557D01*
X15916843Y-17901272D01*
X15931128Y-17872700D01*
X15959700Y-17858414D01*
X16016843Y-17858414D01*
X16045414Y-17872700D01*
X16059700Y-17901272D01*
X16059700Y-17929843D01*
X15916843Y-17958414D01*
X16173986Y-18044129D02*
X16202557Y-18058414D01*
X16259700Y-18058414D01*
X16288271Y-18044129D01*
X16302557Y-18015557D01*
X16302557Y-18001272D01*
X16288271Y-17972700D01*
X16259700Y-17958414D01*
X16216843Y-17958414D01*
X16188271Y-17944129D01*
X16173986Y-17915557D01*
X16173986Y-17901272D01*
X16188271Y-17872700D01*
X16216843Y-17858414D01*
X16259700Y-17858414D01*
X16288271Y-17872700D01*
X16402557Y-18172700D02*
X16416843Y-18158414D01*
X16445414Y-18115557D01*
X16459700Y-18086986D01*
X16473986Y-18044129D01*
X16488271Y-17972700D01*
X16488271Y-17915557D01*
X16473986Y-17844129D01*
X16459700Y-17801272D01*
X16445414Y-17772700D01*
X16416843Y-17729843D01*
X16402557Y-17715557D01*
X9234700Y-18208700D02*
X9234700Y-18428700D01*
X9124700Y-18318700D02*
X9344700Y-18318700D01*
X9344700Y-18318700D02*
G75*
G03*
X9344700Y-18318700I-110000J0D01*
G01*
X9616843Y-18182986D02*
X9631128Y-18168700D01*
X9659700Y-18154414D01*
X9731128Y-18154414D01*
X9759700Y-18168700D01*
X9773986Y-18182986D01*
X9788271Y-18211557D01*
X9788271Y-18240129D01*
X9773986Y-18282986D01*
X9602557Y-18454414D01*
X9788271Y-18454414D01*
X9916843Y-18425843D02*
X9931128Y-18440129D01*
X9916843Y-18454414D01*
X9902557Y-18440129D01*
X9916843Y-18425843D01*
X9916843Y-18454414D01*
X10045414Y-18182986D02*
X10059700Y-18168700D01*
X10088271Y-18154414D01*
X10159700Y-18154414D01*
X10188271Y-18168700D01*
X10202557Y-18182986D01*
X10216843Y-18211557D01*
X10216843Y-18240129D01*
X10202557Y-18282986D01*
X10031128Y-18454414D01*
X10216843Y-18454414D01*
X10402557Y-18154414D02*
X10431128Y-18154414D01*
X10459700Y-18168700D01*
X10473986Y-18182986D01*
X10488271Y-18211557D01*
X10502557Y-18268700D01*
X10502557Y-18340129D01*
X10488271Y-18397272D01*
X10473986Y-18425843D01*
X10459700Y-18440129D01*
X10431128Y-18454414D01*
X10402557Y-18454414D01*
X10373986Y-18440129D01*
X10359700Y-18425843D01*
X10345414Y-18397272D01*
X10331128Y-18340129D01*
X10331128Y-18268700D01*
X10345414Y-18211557D01*
X10359700Y-18182986D01*
X10373986Y-18168700D01*
X10402557Y-18154414D01*
X10688271Y-18154414D02*
X10716843Y-18154414D01*
X10745414Y-18168700D01*
X10759700Y-18182986D01*
X10773986Y-18211557D01*
X10788271Y-18268700D01*
X10788271Y-18340129D01*
X10773986Y-18397272D01*
X10759700Y-18425843D01*
X10745414Y-18440129D01*
X10716843Y-18454414D01*
X10688271Y-18454414D01*
X10659700Y-18440129D01*
X10645414Y-18425843D01*
X10631128Y-18397272D01*
X10616843Y-18340129D01*
X10616843Y-18268700D01*
X10631128Y-18211557D01*
X10645414Y-18182986D01*
X10659700Y-18168700D01*
X10688271Y-18154414D01*
X10916843Y-18454414D02*
X10916843Y-18254414D01*
X10916843Y-18282986D02*
X10931128Y-18268700D01*
X10959700Y-18254414D01*
X11002557Y-18254414D01*
X11031128Y-18268700D01*
X11045414Y-18297272D01*
X11045414Y-18454414D01*
X11045414Y-18297272D02*
X11059700Y-18268700D01*
X11088271Y-18254414D01*
X11131128Y-18254414D01*
X11159700Y-18268700D01*
X11173986Y-18297272D01*
X11173986Y-18454414D01*
X11316843Y-18454414D02*
X11316843Y-18254414D01*
X11316843Y-18282986D02*
X11331128Y-18268700D01*
X11359700Y-18254414D01*
X11402557Y-18254414D01*
X11431128Y-18268700D01*
X11445414Y-18297272D01*
X11445414Y-18454414D01*
X11445414Y-18297272D02*
X11459700Y-18268700D01*
X11488271Y-18254414D01*
X11531128Y-18254414D01*
X11559700Y-18268700D01*
X11573986Y-18297272D01*
X11573986Y-18454414D01*
X12159700Y-18140129D02*
X11902557Y-18525843D01*
X12545414Y-18154414D02*
X12573986Y-18154414D01*
X12602557Y-18168700D01*
X12616843Y-18182986D01*
X12631128Y-18211557D01*
X12645414Y-18268700D01*
X12645414Y-18340129D01*
X12631128Y-18397272D01*
X12616843Y-18425843D01*
X12602557Y-18440129D01*
X12573986Y-18454414D01*
X12545414Y-18454414D01*
X12516843Y-18440129D01*
X12502557Y-18425843D01*
X12488271Y-18397272D01*
X12473986Y-18340129D01*
X12473986Y-18268700D01*
X12488271Y-18211557D01*
X12502557Y-18182986D01*
X12516843Y-18168700D01*
X12545414Y-18154414D01*
X12773986Y-18425843D02*
X12788271Y-18440129D01*
X12773986Y-18454414D01*
X12759700Y-18440129D01*
X12773986Y-18425843D01*
X12773986Y-18454414D01*
X12973986Y-18154414D02*
X13002557Y-18154414D01*
X13031128Y-18168700D01*
X13045414Y-18182986D01*
X13059700Y-18211557D01*
X13073986Y-18268700D01*
X13073986Y-18340129D01*
X13059700Y-18397272D01*
X13045414Y-18425843D01*
X13031128Y-18440129D01*
X13002557Y-18454414D01*
X12973986Y-18454414D01*
X12945414Y-18440129D01*
X12931128Y-18425843D01*
X12916843Y-18397272D01*
X12902557Y-18340129D01*
X12902557Y-18268700D01*
X12916843Y-18211557D01*
X12931128Y-18182986D01*
X12945414Y-18168700D01*
X12973986Y-18154414D01*
X13245414Y-18282986D02*
X13216843Y-18268700D01*
X13202557Y-18254414D01*
X13188271Y-18225843D01*
X13188271Y-18211557D01*
X13202557Y-18182986D01*
X13216843Y-18168700D01*
X13245414Y-18154414D01*
X13302557Y-18154414D01*
X13331128Y-18168700D01*
X13345414Y-18182986D01*
X13359700Y-18211557D01*
X13359700Y-18225843D01*
X13345414Y-18254414D01*
X13331128Y-18268700D01*
X13302557Y-18282986D01*
X13245414Y-18282986D01*
X13216843Y-18297272D01*
X13202557Y-18311557D01*
X13188271Y-18340129D01*
X13188271Y-18397272D01*
X13202557Y-18425843D01*
X13216843Y-18440129D01*
X13245414Y-18454414D01*
X13302557Y-18454414D01*
X13331128Y-18440129D01*
X13345414Y-18425843D01*
X13359700Y-18397272D01*
X13359700Y-18340129D01*
X13345414Y-18311557D01*
X13331128Y-18297272D01*
X13302557Y-18282986D01*
X13616843Y-18154414D02*
X13559700Y-18154414D01*
X13531128Y-18168700D01*
X13516843Y-18182986D01*
X13488271Y-18225843D01*
X13473986Y-18282986D01*
X13473986Y-18397272D01*
X13488271Y-18425843D01*
X13502557Y-18440129D01*
X13531128Y-18454414D01*
X13588271Y-18454414D01*
X13616843Y-18440129D01*
X13631128Y-18425843D01*
X13645414Y-18397272D01*
X13645414Y-18325843D01*
X13631128Y-18297272D01*
X13616843Y-18282986D01*
X13588271Y-18268700D01*
X13531128Y-18268700D01*
X13502557Y-18282986D01*
X13488271Y-18297272D01*
X13473986Y-18325843D01*
X13902557Y-18154414D02*
X13845414Y-18154414D01*
X13816843Y-18168700D01*
X13802557Y-18182986D01*
X13773986Y-18225843D01*
X13759700Y-18282986D01*
X13759700Y-18397272D01*
X13773986Y-18425843D01*
X13788271Y-18440129D01*
X13816843Y-18454414D01*
X13873986Y-18454414D01*
X13902557Y-18440129D01*
X13916843Y-18425843D01*
X13931128Y-18397272D01*
X13931128Y-18325843D01*
X13916843Y-18297272D01*
X13902557Y-18282986D01*
X13873986Y-18268700D01*
X13816843Y-18268700D01*
X13788271Y-18282986D01*
X13773986Y-18297272D01*
X13759700Y-18325843D01*
X14045414Y-18154414D02*
X14045414Y-18211557D01*
X14159700Y-18154414D02*
X14159700Y-18211557D01*
X14602557Y-18568700D02*
X14588271Y-18554414D01*
X14559700Y-18511557D01*
X14545414Y-18482986D01*
X14531128Y-18440129D01*
X14516843Y-18368700D01*
X14516843Y-18311557D01*
X14531128Y-18240129D01*
X14545414Y-18197272D01*
X14559700Y-18168700D01*
X14588271Y-18125843D01*
X14602557Y-18111557D01*
X14845414Y-18254414D02*
X14845414Y-18454414D01*
X14773986Y-18140129D02*
X14702557Y-18354414D01*
X14888271Y-18354414D01*
X15231128Y-18454414D02*
X15231128Y-18154414D01*
X15359700Y-18454414D02*
X15359700Y-18297272D01*
X15345414Y-18268700D01*
X15316843Y-18254414D01*
X15273986Y-18254414D01*
X15245414Y-18268700D01*
X15231128Y-18282986D01*
X15545414Y-18454414D02*
X15516843Y-18440129D01*
X15502557Y-18425843D01*
X15488271Y-18397272D01*
X15488271Y-18311557D01*
X15502557Y-18282986D01*
X15516843Y-18268700D01*
X15545414Y-18254414D01*
X15588271Y-18254414D01*
X15616843Y-18268700D01*
X15631128Y-18282986D01*
X15645414Y-18311557D01*
X15645414Y-18397272D01*
X15631128Y-18425843D01*
X15616843Y-18440129D01*
X15588271Y-18454414D01*
X15545414Y-18454414D01*
X15816843Y-18454414D02*
X15788271Y-18440129D01*
X15773986Y-18411557D01*
X15773986Y-18154414D01*
X16045414Y-18440129D02*
X16016843Y-18454414D01*
X15959700Y-18454414D01*
X15931128Y-18440129D01*
X15916843Y-18411557D01*
X15916843Y-18297272D01*
X15931128Y-18268700D01*
X15959700Y-18254414D01*
X16016843Y-18254414D01*
X16045414Y-18268700D01*
X16059700Y-18297272D01*
X16059700Y-18325843D01*
X15916843Y-18354414D01*
X16173986Y-18440129D02*
X16202557Y-18454414D01*
X16259700Y-18454414D01*
X16288271Y-18440129D01*
X16302557Y-18411557D01*
X16302557Y-18397272D01*
X16288271Y-18368700D01*
X16259700Y-18354414D01*
X16216843Y-18354414D01*
X16188271Y-18340129D01*
X16173986Y-18311557D01*
X16173986Y-18297272D01*
X16188271Y-18268700D01*
X16216843Y-18254414D01*
X16259700Y-18254414D01*
X16288271Y-18268700D01*
X16402557Y-18568700D02*
X16416843Y-18554414D01*
X16445414Y-18511557D01*
X16459700Y-18482986D01*
X16473986Y-18440129D01*
X16488271Y-18368700D01*
X16488271Y-18311557D01*
X16473986Y-18240129D01*
X16459700Y-18197272D01*
X16445414Y-18168700D01*
X16416843Y-18125843D01*
X16402557Y-18111557D01*
M02*
